<?xml version="1.0" encoding="utf-8"?>
<!-- Generator: Adobe Illustrator 23.0.1, SVG Export Plug-In . SVG Version: 6.00 Build 0)  -->
<svg version="1.1" xmlns="http://www.w3.org/2000/svg" xmlns:xlink="http://www.w3.org/1999/xlink" x="0px" y="0px"
	 viewBox="0 0 2062.2 657" style="enable-background:new 0 0 2062.2 657;" xml:space="preserve">
<style type="text/css">
	.st0{clip-path:url(#SVGID_2_);}
	.st1{fill:#87A6FD;}
	.st2{fill:#7498FC;}
	.st3{fill:#456DD8;}
	.st4{fill:#3056BA;}
	.st5{fill:#0A3DAC;}
	.st6{fill:none;stroke:#01FDD7;stroke-width:60;stroke-linecap:round;stroke-linejoin:round;stroke-miterlimit:10;}
	.st7{fill:none;}
	.st8{fill:#01FDD7;}
	.st9{fill:#424242;}
</style>
<g id="Camada_1">
	<g>
		<defs>
			<circle id="SVGID_1_" cx="404" cy="328.5" r="288.8"/>
		</defs>
		<clipPath id="SVGID_2_">
			<use xlink:href="#SVGID_1_"  style="overflow:visible;"/>
		</clipPath>
		<g class="st0">
			<rect x="115.1" y="39.7" class="st1" width="115.4" height="577.6"/>
			<rect x="230.5" y="39.7" class="st2" width="115.4" height="577.6"/>
			<rect x="345.9" y="39.7" class="st3" width="115.4" height="577.6"/>
			<rect x="461.3" y="39.7" class="st4" width="115.4" height="577.6"/>
			<rect x="576.7" y="39.7" class="st5" width="115.4" height="577.6"/>
		</g>
	</g>
</g>
<g id="Camada_2">
	<polyline class="st6" points="96.3,533.7 272.5,357.6 341.9,427 567.5,201.4 629.9,263.9 767.9,126 	"/>
	<g>
		<rect x="806.4" y="266" class="st7" width="1382.4" height="416"/>
		<path class="st3" d="M1109.6,287.1c8.3,0,15.5,3,21.5,9c6,6,9,13.2,9,21.6c0,8.4-3,15.5-9,21.4c-6,5.9-13.2,8.8-21.5,8.8h-57.5
			v188.9c0,10.1-3.5,18.7-10.6,25.9c-7.1,7.2-15.7,10.7-25.8,10.7c-10.1,0-18.7-3.6-25.8-10.7c-7.1-7.2-10.6-15.8-10.6-25.9V347.9
			h-57.5c-8.3,0-15.5-2.9-21.5-8.8c-6-5.9-9-13-9-21.4c0-8.4,3-15.6,9-21.6c6-6,13.2-9,21.5-9H1109.6z"/>
		<path class="st3" d="M1203.9,563.1c-6.8,6.8-15,10.2-24.7,10.2s-17.8-3.4-24.6-10.3c-6.8-6.9-10.1-15-10.1-24.5V386.7
			c0-8.6,3.3-16.1,9.9-22.5c6.6-6.4,14.4-9.6,23.2-9.6c8.6,0,16.1,3,22.6,9c6.5,6,9.7,13,9.7,21.1v15.6h0.8
			c3.1-14.2,8.9-25.3,17.2-33.5c8.3-8.1,18.6-12.3,30.9-12.6c9.5,0,16.9,2.5,22.1,7.5c5.2,5,7.8,11.4,7.8,19.3
			c0,18.1-10.1,30-30.3,35.6c-14.2,3.7-25.1,11.1-32.8,22.2c-7.7,11.1-11.6,25.2-11.6,42.3v57.5
			C1214.2,548.1,1210.7,556.3,1203.9,563.1z"/>
		<path class="st3" d="M1409,573.4c-18.1,0-35.3-4.4-51.6-13.2c-16.2-8.8-29.6-21.7-40-38.8c-10.4-17.1-15.7-36.2-15.7-57.5
			c0-21.6,5.2-40.8,15.7-57.8s23.8-29.9,40-38.7c16.2-8.8,33.3-13.2,51.2-13.2c14.2,0,27.2,2.9,39.1,8.8
			c11.9,5.9,20.6,13.4,26.2,22.5l0.8-9.2c1.1-6.4,4.7-11.6,10.7-15.7c6.1-4,13.4-6,22-6c9.3,0,16.9,3.3,22.9,9.8c6,6.5,9,14.9,9,25
			v148.8c0,10.1-2.9,18.5-8.6,25.2c-5.7,6.7-13.5,10-23.3,10c-9.3,0-16.7-2.1-22.2-6.3s-9-9.4-10.5-15.6l-0.8-9.2
			c-5.3,9.5-14.1,17.1-26.2,22.7C1435.5,570.6,1422.6,573.4,1409,573.4z M1385.9,498.3c9.5,9.5,20.9,14.3,34.3,14.3
			c13.4,0,24.8-4.8,34.4-14.3c9.5-9.5,14.3-21,14.3-34.4c0-13.4-4.8-24.8-14.3-34.3c-9.5-9.5-21-14.2-34.4-14.2
			c-13.4,0-24.8,4.7-34.3,14.2c-9.5,9.5-14.2,20.9-14.2,34.3C1371.7,477.2,1376.4,488.7,1385.9,498.3z"/>
		<path class="st3" d="M1700.9,573.8c-33,0-61.1-10.8-84.4-32.3c-23.3-21.6-34.9-47.4-34.9-77.6c0-30.1,11.7-56,35-77.4
			c23.3-21.5,51.4-32.2,84.3-32.2c17.3,0,33.7,3.3,49.1,10c15.4,6.7,28.2,15.9,38.5,27.6c6.1,6.4,9.2,14.1,9.2,22.9
			c0,8.1-3,15.2-9,21.6c-6,6.3-13.4,9.5-22.3,9.5c-10.9,0-20.9-4.6-29.9-13.9c-9.8-11.5-22.1-17.2-36.8-17.2
			c-13.4,0-24.7,4.8-34.1,14.5c-9.3,9.7-14,21.2-14,34.6c0,13.1,4.7,24.4,14,34c9.3,9.5,20.7,14.3,34.1,14.3c15.7,0,28-5.3,36.8-16
			c8.3-9.3,18.1-13.9,29.5-13.9c9.5,0,17.2,3,23,9c5.8,6,8.7,13.2,8.7,21.7c0,8.6-3.3,16.4-10,23.3c-10.6,11.5-23.5,20.5-38.6,27.1
			C1734.1,570,1718,573.5,1700.9,573.8z"/>
		<path class="st3" d="M1874.7,573.4c-9.8,0-17.9-3.4-24.3-10.1c-6.4-6.8-9.6-15.1-9.6-25.1V301.2c0-10.4,3.2-18.8,9.7-25.4
			c6.5-6.5,14.7-9.8,24.6-9.8c9.9,0,18.1,3.3,24.7,9.9c6.5,6.6,9.8,15,9.8,25.3v130.3l67.5-62.8c10.1-9.5,19.8-14.3,29.3-14.1
			c9,0,16.5,2.9,22.5,8.8c6,5.9,9,13,9,21.3c0,8.6-3.2,16.4-9.6,23.5l-43.2,42.4l53.6,68.1c4.2,5.6,6.3,12.2,6.3,19.8
			c0,9.8-3.2,18.1-9.7,24.8c-6.5,6.7-14.4,10-23.8,10c-12.3,0-21.9-5-28.9-15.1l-50.7-65.5L1909,513v25.2c0,10.1-3.3,18.5-9.8,25.2
			C1892.7,570,1884.5,573.4,1874.7,573.4z"/>
	</g>
	<circle class="st8" cx="1420.3" cy="393.2" r="11"/>
	<circle class="st8" cx="1420.3" cy="537.6" r="11"/>
	<circle class="st8" cx="1347.4" cy="464.3" r="11"/>
	<circle class="st8" cx="1492.1" cy="464.6" r="11"/>
	<circle class="st8" cx="1420.8" cy="464.3" r="15.9"/>
	
		<rect x="1389.7" y="446.5" transform="matrix(0.7071 0.7071 -0.7071 0.7071 732.3412 -863.7755)" class="st8" width="38.4" height="11.3"/>
	<g>
		<path class="st9" d="M986.2,101.4c0-3.2,1.2-6,3.5-8.3s5.2-3.5,8.5-3.5s6.2,1.2,8.5,3.5s3.5,5.1,3.5,8.3v114.5
			c0,3.2-1.2,5.9-3.5,8.3s-5.2,3.5-8.5,3.5s-6.2-1.2-8.5-3.5s-3.5-5.1-3.5-8.3V168h-71.8v47.9c0,3.2-1.2,5.9-3.5,8.3
			s-5.1,3.5-8.4,3.5c-3.3,0-6.1-1.2-8.4-3.5s-3.5-5.1-3.5-8.3V101.4c0-3.2,1.2-6,3.5-8.3s5.1-3.5,8.4-3.5c3.3,0,6.1,1.2,8.4,3.5
			s3.5,5.1,3.5,8.3v46.4h71.8V101.4z"/>
		<path class="st9" d="M1141.2,170.8c0,3.7-1.4,6.8-4.1,9.4s-6.1,3.8-10.1,3.8h-68.7c1.6,7.7,5.4,13.9,11.2,18.5s13,6.9,21.4,6.9
			c10.7,0,19.3-3.8,25.8-11.4c2.9-3.3,6-5,9.1-5c2.8,0,5.2,0.9,7.1,2.7c1.9,1.8,2.9,4,2.9,6.5c0,3.2-1.2,6.1-3.6,8.6
			c-4.3,5.1-10.1,9.2-17.5,12.5c-7.4,3.2-15.5,4.8-24.5,4.8c-15.4,0-28.3-4.9-38.7-14.7c-10.4-9.8-15.7-22-15.7-36.6
			c0-14.3,5.1-26.4,15.2-36.3c10.1-9.9,23.1-14.9,38.8-14.9c13.9,0,25.9,4.6,36.1,13.9C1136.1,148.8,1141.2,159.2,1141.2,170.8z
			 M1058.6,167.4h61c-1.9-7.4-5.4-13.1-10.5-17.1c-5.1-4.1-11.5-6.1-19.3-6.1c-8.4,0-15.3,2.1-20.7,6.3
			C1063.7,154.7,1060.2,160.3,1058.6,167.4z"/>
		<path class="st9" d="M1206.7,228c-13.5,0-25.2-4.9-35.2-14.6c-10-9.7-15-21.9-15-36.6c0-14.7,5-26.9,15.1-36.6
			c10.1-9.7,21.8-14.6,35.1-14.6c8.3,0,15.7,2,22.3,6.1c6.6,4.1,11.3,9.4,14.1,15.9l0.4-14.2c0.4-2.1,1.5-3.9,3.5-5.2
			c1.9-1.3,4.3-2,7.1-2c3.1,0,5.6,1.1,7.5,3.2c2,2.1,2.9,4.9,2.9,8.2V216c0,3.3-0.9,6.1-2.7,8.3c-1.8,2.2-4.4,3.3-7.8,3.3
			c-2.9,0-5.3-0.7-7.2-2.1s-3-3.1-3.4-5l-0.4-14.3c-2.7,6.5-7.4,11.8-14.1,15.8S1214.9,228,1206.7,228z M1188.4,198.9
			c6.1,6.1,13.4,9.1,22,9.1s15.9-3,22-9.1c6.1-6.1,9.1-13.4,9.1-22s-3-15.9-9.1-22s-13.4-9.1-22-9.1s-15.9,3-22,9.1
			c-6.1,6.1-9.1,13.4-9.1,22S1182.3,192.8,1188.4,198.9z"/>
		<path class="st9" d="M1315.9,224.3c-2.1,2.2-4.9,3.3-8.2,3.3c-3.4,0-6.1-1.1-8.2-3.3c-2.1-2.2-3.2-4.9-3.2-8.3V93.2
			c0-3.3,1.1-6.1,3.2-8.3c2.1-2.2,4.8-3.3,8.2-3.3c3.4,0,6.1,1.1,8.2,3.3c2.1,2.2,3.2,5,3.2,8.3V216
			C1319.1,219.4,1318,222.1,1315.9,224.3z"/>
		<path class="st9" d="M1405.1,208c3.1-0.5,5.6,0.1,7.6,1.9c2,1.8,3,4.1,3,6.9c0,2.4-0.8,4.5-2.4,6.2c-1.6,1.7-3.7,2.8-6.2,3.4
			c-4.3,1-8.2,1.6-11.8,1.7c-11.8,0-21.3-3.5-28.3-10.6c-7-7.1-10.5-16-10.5-26.8v-44.2H1345c-2.5,0-4.7-0.9-6.5-2.7
			c-1.8-1.8-2.7-4-2.7-6.5s0.9-4.7,2.7-6.4c1.8-1.7,4-2.6,6.5-2.6h11.4v-15.8c0-3.2,1.1-5.9,3.4-8.1c2.3-2.2,5-3.3,8.1-3.3
			s5.8,1.1,8,3.3c2.2,2.2,3.3,4.9,3.3,8.1v15.8h27c2.5,0,4.7,0.9,6.4,2.6c1.7,1.7,2.6,3.9,2.6,6.4s-0.9,4.7-2.6,6.5
			c-1.7,1.8-3.9,2.7-6.4,2.7h-27v42.2c0,6.1,1.6,11.1,4.8,14.9c3.2,3.8,7.8,5.7,14,5.7C1399.3,209.2,1401.6,208.8,1405.1,208z"/>
		<path class="st9" d="M1456.8,223.9c-2.1,2.2-4.9,3.3-8.2,3.3c-3.4,0-6.1-1.1-8.2-3.3c-2.1-2.2-3.2-4.9-3.2-8.3V93.2
			c0-3.3,1.1-6.1,3.2-8.3c2.1-2.2,4.8-3.3,8.2-3.3c3.4,0,6.1,1.1,8.2,3.3c2.1,2.2,3.2,5,3.2,8.3v54.6h0.4c2.7-6.6,7-12,12.9-16.1
			c6-4.1,12.5-6.1,19.5-6.1c13,0,23.5,4.5,31.5,13.4c8.1,8.9,12.1,20.1,12.1,33.4v43.3c0,3.3-1.1,6.1-3.3,8.3
			c-2.2,2.2-5,3.3-8.3,3.3s-6.1-1.1-8.2-3.3s-3.2-4.9-3.2-8.3v-41c0-7.9-2.5-14.6-7.6-20.2c-5.1-5.6-11.4-8.4-18.9-8.4
			c-7.4,0-13.7,2.9-18.9,8.7c-5.3,5.8-7.9,12.7-7.9,20.7v40.2C1460,219,1458.9,221.7,1456.8,223.9z"/>
	</g>
	<g>
	</g>
	<g>
	</g>
	<g>
	</g>
	<g>
	</g>
	<g>
	</g>
	<g>
	</g>
</g>
</svg>
