<?xml version="1.0" encoding="utf-8"?>
<!-- Generator: Adobe Illustrator 24.1.2, SVG Export Plug-In . SVG Version: 6.00 Build 0)  -->
<svg version="1.1" id="Camada_1" xmlns="http://www.w3.org/2000/svg" xmlns:xlink="http://www.w3.org/1999/xlink" x="0px" y="0px"
	 viewBox="0 0 400 600" style="enable-background:new 0 0 400 600;" xml:space="preserve">
<style type="text/css">
	.st0{fill:#43CAFF;}
	.st1{fill:#FFFFFF;}
	.st2{fill:#A63DF9;}
	.st3{fill:none;stroke:url(#SVGID_1_);stroke-miterlimit:10;}
	.st4{fill:#FF4E7C;}
	.st5{fill:url(#SVGID_2_);}
	.st6{fill:url(#SVGID_3_);}
	.st7{fill:#6D1669;}
	.st8{fill:#FE38F6;}
	.st9{fill:url(#SVGID_4_);}
	.st10{fill:url(#SVGID_5_);}
	.st11{fill:#D8D8D8;}
</style>
<rect x="1" y="553.8" class="st0" width="400" height="46.2"/>
<g>
	<path class="st1" d="M107.4,587.3c-1.1-0.5-2-1.2-2.7-2.1l2.5-3c1.1,1.4,2.3,2.2,3.6,2.2c1.8,0,2.8-1.1,2.8-3.2v-9.3h-6.9v-3.6
		h11.4V581c0,2.4-0.6,4.2-1.8,5.4c-1.2,1.2-2.9,1.8-5.3,1.8C109.8,588,108.5,587.8,107.4,587.3z"/>
	<path class="st1" d="M135.1,583.5H126l-1.7,4.2h-4.6l8.7-19.6h4.5l8.8,19.6h-4.8L135.1,583.5z M133.7,580.1l-3.1-7.5l-3.1,7.5
		H133.7z"/>
	<path class="st1" d="M161.4,568.1l-8.5,19.6h-4.5l-8.5-19.6h4.9l6,14l6-14H161.4z"/>
	<path class="st1" d="M175.3,583.5h-9.1l-1.7,4.2h-4.6l8.7-19.6h4.5l8.8,19.6H177L175.3,583.5z M173.9,580.1l-3.1-7.5l-3.1,7.5
		H173.9z"/>
	<path class="st1" d="M185.8,587.4c-1.4-0.4-2.6-1-3.5-1.6l1.5-3.4c0.8,0.6,1.8,1.1,3,1.5s2.3,0.6,3.5,0.6c1.3,0,2.2-0.2,2.9-0.6
		c0.6-0.4,0.9-0.9,0.9-1.5c0-0.5-0.2-0.9-0.5-1.2c-0.4-0.3-0.8-0.6-1.4-0.7c-0.6-0.2-1.3-0.4-2.3-0.6c-1.5-0.4-2.7-0.7-3.7-1.1
		c-1-0.4-1.8-0.9-2.4-1.7c-0.7-0.8-1-1.8-1-3.1c0-1.1,0.3-2.2,0.9-3.1c0.6-0.9,1.5-1.7,2.8-2.2c1.2-0.5,2.8-0.8,4.5-0.8
		c1.3,0,2.5,0.1,3.7,0.4c1.2,0.3,2.2,0.7,3.1,1.3l-1.4,3.4c-1.8-1-3.6-1.5-5.4-1.5c-1.3,0-2.2,0.2-2.8,0.6c-0.6,0.4-0.9,1-0.9,1.6
		s0.4,1.2,1,1.5c0.7,0.3,1.8,0.6,3.2,1c1.5,0.4,2.7,0.7,3.7,1.1c1,0.4,1.8,0.9,2.5,1.7s1,1.8,1,3.1c0,1.1-0.3,2.1-0.9,3.1
		c-0.6,0.9-1.6,1.7-2.8,2.2c-1.3,0.5-2.8,0.8-4.6,0.8C188.7,588,187.2,587.8,185.8,587.4z"/>
	<path class="st1" d="M205.7,586.7c-1.6-0.9-2.9-2.1-3.8-3.6s-1.4-3.3-1.4-5.2s0.5-3.7,1.4-5.2s2.2-2.7,3.8-3.6s3.4-1.3,5.4-1.3
		c1.7,0,3.2,0.3,4.6,0.9c1.4,0.6,2.5,1.5,3.5,2.6l-2.9,2.7c-1.3-1.5-3-2.3-4.9-2.3c-1.2,0-2.3,0.3-3.2,0.8c-1,0.5-1.7,1.3-2.2,2.2
		s-0.8,2-0.8,3.2s0.3,2.3,0.8,3.2s1.3,1.7,2.2,2.2s2,0.8,3.2,0.8c2,0,3.6-0.8,4.9-2.3l2.9,2.7c-0.9,1.1-2.1,2-3.5,2.6
		s-2.9,0.9-4.6,0.9C209.1,588,207.3,587.6,205.7,586.7z"/>
	<path class="st1" d="M234.7,587.7l-3.8-5.5h-0.2h-3.9v5.5h-4.5v-19.6h8.5c1.7,0,3.2,0.3,4.5,0.9c1.3,0.6,2.3,1.4,3,2.5s1,2.3,1,3.8
		s-0.3,2.7-1,3.8s-1.7,1.9-3,2.4l4.4,6.3h-5V587.7z M233.6,572.7c-0.7-0.6-1.7-0.9-3.1-0.9h-3.7v6.8h3.7c1.4,0,2.4-0.3,3.1-0.9
		s1.1-1.4,1.1-2.5C234.6,574.1,234.3,573.3,233.6,572.7z"/>
	<path class="st1" d="M242.8,568.1h4.5v19.6h-4.5V568.1z"/>
	<path class="st1" d="M265,569c1.3,0.6,2.3,1.4,3,2.5s1,2.3,1,3.8c0,1.4-0.3,2.7-1,3.8s-1.7,1.9-3,2.5s-2.8,0.9-4.5,0.9h-3.9v5.4
		H252v-19.6h8.5C262.2,568.1,263.7,568.4,265,569z M263.3,577.7c0.7-0.6,1.1-1.4,1.1-2.5s-0.4-1.9-1.1-2.5s-1.7-0.9-3.1-0.9h-3.7
		v6.8h3.7C261.6,578.6,262.6,578.3,263.3,577.7z"/>
	<path class="st1" d="M275.7,571.8h-6.3v-3.7h17.1v3.7h-6.3v15.9h-4.5L275.7,571.8L275.7,571.8z"/>
</g>
<rect class="st2" width="401" height="553.8"/>
<g>
	<path class="st1" d="M38.6,431.8c-2.4-1.4-4.4-3.4-5.7-6c-1.4-2.6-2.1-5.6-2.1-8.9c0-3.3,0.7-6.3,2-8.8c1.4-2.6,3.2-4.6,5.7-6
		c2.4-1.4,5.2-2.1,8.4-2.1c2.6,0,5.1,0.5,7.3,1.5c2.2,1,4,2.4,5.4,4.3s2.3,4,2.6,6.5h-7.7c-0.4-1.6-1.2-2.9-2.6-3.9
		c-1.4-1-3.1-1.5-5-1.5c-2.7,0-4.8,0.9-6.4,2.7c-1.6,1.8-2.3,4.3-2.3,7.4c0,3.1,0.8,5.6,2.4,7.4s3.7,2.7,6.3,2.7
		c1.9,0,3.6-0.5,5-1.5c1.4-1,2.3-2.3,2.7-3.9h7.7c-0.3,2.4-1.1,4.5-2.5,6.4c-1.4,1.9-3.2,3.3-5.4,4.4s-4.7,1.5-7.4,1.5
		C43.9,433.9,41.1,433.2,38.6,431.8z"/>
	<path class="st1" d="M87.4,410.4v22.9H81v-2.6c-0.7,1-1.7,1.8-3.1,2.4c-1.3,0.6-2.7,0.9-4.2,0.9c-2,0-3.8-0.5-5.3-1.5
		s-2.7-2.4-3.6-4.2c-0.8-1.8-1.3-3.9-1.3-6.3c0-2.5,0.5-4.7,1.4-6.5c0.9-1.9,2.2-3.3,3.8-4.4c1.6-1,3.5-1.5,5.6-1.5
		c3.1,0,5.4,1,7.1,3l0.4-2.2H87.4z M79.2,425.9c1-1.1,1.5-2.5,1.5-4.3c0-1.7-0.5-3.1-1.5-4.2c-1-1-2.2-1.6-3.8-1.6s-2.8,0.5-3.7,1.6
		c-0.9,1.1-1.4,2.5-1.4,4.2s0.5,3.1,1.4,4.2c0.9,1.1,2.2,1.6,3.7,1.6C77,427.5,78.3,427,79.2,425.9z M72.3,405.5l7.6-8.6l3.2,3.4
		l-8.9,7.4L72.3,405.5z"/>
	<path class="st1" d="M91.3,398.4H98v34.8h-6.7V398.4z"/>
	<path class="st1" d="M102.4,415.4c1-1.9,2.3-3.3,4.1-4.3c1.8-1,3.8-1.5,6.1-1.5c2.1,0,3.9,0.4,5.5,1.2c1.6,0.8,2.9,2,3.9,3.4
		c1,1.5,1.5,3.2,1.6,5.1h-6.8c-0.2-1.2-0.8-2-1.6-2.6c-0.8-0.6-1.7-0.9-2.8-0.9c-1.4,0-2.6,0.5-3.5,1.6c-0.9,1.1-1.3,2.5-1.3,4.3
		c0,1.8,0.4,3.2,1.3,4.3s2,1.6,3.5,1.6c1.2,0,2.1-0.3,2.9-1c0.8-0.6,1.3-1.5,1.5-2.5h6.8c-0.2,1.9-0.7,3.6-1.7,5.1
		c-1,1.5-2.3,2.6-3.9,3.4s-3.5,1.2-5.5,1.2c-2.3,0-4.3-0.5-6.1-1.5s-3.1-2.4-4.1-4.3c-1-1.8-1.4-3.9-1.4-6.4
		C101,419.4,101.4,417.2,102.4,415.4z"/>
	<path class="st1" d="M146.6,410.4v22.9h-5.5l-0.4-2.6c-0.8,1.1-1.7,1.9-2.8,2.4c-1.1,0.5-2.4,0.8-3.8,0.8c-2.6,0-4.6-0.8-6-2.4
		s-2.1-3.8-2.1-6.7v-14.5h6.7v13.4c0,1.4,0.3,2.4,0.9,3.1c0.6,0.6,1.5,0.9,2.7,0.9c1.1,0,2-0.4,2.7-1.1c0.6-0.8,0.9-1.8,0.9-3.1
		v-13.2H146.6z"/>
	<path class="st1" d="M150.4,398.4h6.7v34.8h-6.7V398.4z"/>
	<path class="st1" d="M161.5,415.5c1-1.9,2.4-3.3,4.2-4.3s3.9-1.5,6.3-1.5s4.4,0.5,6.2,1.5s3.2,2.5,4.2,4.3c1,1.9,1.5,4,1.5,6.3
		c0,2.3-0.5,4.4-1.5,6.3c-1,1.9-2.4,3.3-4.2,4.3s-3.9,1.5-6.2,1.5c-2.4,0-4.4-0.5-6.3-1.5s-3.2-2.5-4.2-4.3s-1.5-3.9-1.5-6.3
		C160,419.4,160.5,417.3,161.5,415.5z M168.2,426c1,1.1,2.2,1.6,3.7,1.6c1.5,0,2.8-0.5,3.7-1.6s1.4-2.5,1.4-4.3
		c0-1.7-0.5-3.1-1.4-4.2s-2.2-1.6-3.7-1.6s-2.8,0.5-3.8,1.6c-0.9,1.1-1.4,2.5-1.4,4.2C166.8,423.5,167.3,424.9,168.2,426z"/>
	<path class="st1" d="M219.9,398.4v34.8h-5.5l-0.4-2.8c-0.7,1.1-1.7,1.9-3,2.5c-1.3,0.6-2.7,0.9-4.3,0.9c-2.1,0-3.9-0.5-5.5-1.5
		s-2.9-2.4-3.8-4.3c-0.9-1.8-1.4-3.9-1.4-6.4c0-2.4,0.5-4.5,1.4-6.4c0.9-1.9,2.2-3.3,3.8-4.3c1.6-1,3.4-1.5,5.5-1.5
		c1.4,0,2.7,0.2,3.8,0.6c1.1,0.4,2,1,2.8,1.8v-13.6H219.9z M211.8,425.9c1-1.1,1.5-2.5,1.5-4.3c0-1.7-0.5-3.1-1.5-4.2
		c-1-1-2.2-1.6-3.8-1.6s-2.8,0.5-3.7,1.6s-1.4,2.5-1.4,4.2s0.5,3.1,1.4,4.2c0.9,1.1,2.2,1.6,3.7,1.6
		C209.5,427.5,210.8,427,211.8,425.9z"/>
	<path class="st1" d="M241.1,431.7c-2,1.5-4.4,2.2-7.1,2.2c-2.3,0-4.2-0.5-6-1.5s-3.1-2.4-4-4.3c-0.9-1.8-1.4-4-1.4-6.4
		c0-2.4,0.5-4.6,1.4-6.4c0.9-1.9,2.3-3.3,4-4.3c1.7-1,3.7-1.5,5.8-1.5c2.1,0,4,0.5,5.7,1.4c1.7,0.9,2.9,2.3,3.8,3.9
		c0.9,1.7,1.4,3.6,1.4,5.7c0,1.2-0.1,2.2-0.3,3.1h-15.3c0.1,1.4,0.5,2.4,1.4,3.2c0.9,0.8,2,1.2,3.4,1.2c1.1,0,2-0.2,2.7-0.6
		c0.8-0.4,1.3-1,1.6-1.6h6.5C244.3,428.3,243.1,430.2,241.1,431.7z M237.9,419.1c0-1.2-0.4-2.1-1.2-2.8s-1.8-1-3-1
		c-1.2,0-2.3,0.3-3.1,1c-0.8,0.7-1.2,1.6-1.3,2.8H237.9z"/>
	<path class="st1" d="M61.7,471.8c-1.4,2.6-3.4,4.6-5.9,6s-5.3,2.1-8.5,2.1c-3.2,0-6-0.7-8.5-2.1s-4.4-3.4-5.8-6s-2.1-5.5-2.1-8.8
		c0-3.3,0.7-6.3,2.1-8.8s3.3-4.6,5.8-6s5.3-2.2,8.5-2.2c3.2,0,6,0.7,8.5,2.1s4.5,3.4,5.9,6s2.1,5.5,2.1,8.8
		C63.8,466.3,63.1,469.2,61.7,471.8z M55.3,457.7c-0.8-1.5-1.8-2.7-3.2-3.6s-2.9-1.3-4.7-1.3c-1.8,0-3.4,0.4-4.8,1.3
		c-1.4,0.8-2.5,2-3.2,3.6c-0.8,1.5-1.2,3.3-1.2,5.3c0,2,0.4,3.7,1.1,5.2c0.8,1.5,1.8,2.7,3.2,3.5c1.4,0.8,3,1.2,4.8,1.2
		c1.8,0,3.3-0.4,4.7-1.3c1.4-0.8,2.5-2,3.2-3.6s1.1-3.3,1.1-5.2C56.4,461,56,459.3,55.3,457.7z"/>
	<path class="st1" d="M80.4,456.4v6.1c-0.2,0-0.6,0-1,0c-1.9,0-3.4,0.5-4.4,1.6c-1,1.1-1.5,2.6-1.5,4.5v10.7h-6.7v-22.9h6.1l0.4,3.1
		c0.4-1.1,1-1.9,1.9-2.5s2-0.8,3.2-0.8C79.1,456.2,79.8,456.2,80.4,456.4z"/>
	<path class="st1" d="M93.1,455.6c2.1,0,3.9,0.4,5.5,1.2c1.6,0.8,2.9,2,3.9,3.4c1,1.5,1.5,3.2,1.6,5.1h-6.8c-0.3-1.2-0.8-2-1.6-2.6
		s-1.7-0.9-2.8-0.9c-1.4,0-2.6,0.5-3.5,1.6c-0.9,1.1-1.3,2.5-1.3,4.3c0,1.8,0.4,3.2,1.3,4.3s2,1.6,3.5,1.6c1.1,0,2.1-0.3,2.9-1
		s1.3-1.5,1.5-2.5h6.8c-0.2,1.9-0.7,3.6-1.7,5.1c-1,1.5-2.3,2.6-3.9,3.4c-1.6,0.8-3.5,1.2-5.5,1.2c-2.3,0-4.3-0.5-6.1-1.5
		s-3.1-2.4-4.1-4.3s-1.4-4-1.4-6.3c0-2.4,0.5-4.6,1.4-6.4s2.3-3.3,4.1-4.3C88.7,456.1,90.8,455.6,93.1,455.6z M93.4,481.8l1.6-3V477
		h-2.7l-2.7,5.6l1.2,1.6l0.4,0c0.6,0,1.2,0.2,1.7,0.7c0.5,0.5,0.8,1.1,0.8,1.8c0,0.7-0.3,1.3-0.8,1.7c-0.5,0.4-1.2,0.6-1.9,0.6
		c-0.6,0-1.1-0.1-1.7-0.3c-0.5-0.2-1-0.5-1.3-0.9v3.5c1.2,0.7,2.6,1.1,4.1,1.1c1.7,0,3.1-0.5,4.3-1.4c1.2-1,1.8-2.3,1.8-4
		c0-1.2-0.3-2.2-0.8-2.9c-0.5-0.8-1.2-1.3-1.9-1.7S94.1,481.8,93.4,481.8z"/>
	<path class="st1" d="M129.9,456.4v22.9h-6.4v-2.6c-0.7,1-1.7,1.8-3.1,2.4c-1.3,0.6-2.7,0.9-4.2,0.9c-2,0-3.8-0.5-5.3-1.5
		c-1.5-1-2.7-2.4-3.6-4.2c-0.8-1.8-1.3-3.9-1.3-6.3c0-2.5,0.5-4.7,1.4-6.5c0.9-1.9,2.2-3.3,3.8-4.4s3.5-1.5,5.6-1.5
		c3.1,0,5.4,1,7.1,3l0.4-2.2H129.9z M121.8,471.9c1-1.1,1.5-2.5,1.5-4.3c0-1.7-0.5-3.1-1.5-4.2c-1-1-2.2-1.6-3.8-1.6
		s-2.8,0.5-3.7,1.6s-1.4,2.5-1.4,4.2s0.5,3.1,1.4,4.2c0.9,1.1,2.2,1.6,3.7,1.6C119.5,473.5,120.8,473,121.8,471.9z"/>
	<path class="st1" d="M165.9,457.9c1.5,1.6,2.2,3.7,2.2,6.3v15h-6.6V466c0-1.4-0.3-2.4-1-3.1c-0.6-0.7-1.4-1.1-2.4-1.1
		c-1.2,0-2.2,0.4-2.8,1.3s-1,2-1,3.4v12.9h-6.5V466c0-1.3-0.3-2.4-1-3.1c-0.6-0.7-1.5-1.1-2.6-1.1c-1.2,0-2.1,0.4-2.7,1.3
		c-0.7,0.9-1,2-1,3.3v12.9h-6.7v-22.9h6.2l0.3,2.1c0.7-0.9,1.5-1.6,2.6-2.1c1.1-0.5,2.2-0.8,3.4-0.8c1.5,0,2.9,0.4,4.1,1.1
		c1.2,0.7,2.1,1.7,2.8,3c0.7-1.3,1.6-2.3,2.8-3c1.2-0.7,2.6-1.1,4.2-1.1C162.6,455.6,164.5,456.4,165.9,457.9z"/>
	<path class="st1" d="M189.4,477.7c-2,1.5-4.4,2.2-7.1,2.2c-2.3,0-4.2-0.5-6-1.5s-3.1-2.4-4-4.3c-0.9-1.8-1.4-4-1.4-6.4
		c0-2.4,0.5-4.6,1.4-6.4c0.9-1.9,2.3-3.3,4-4.3c1.7-1,3.7-1.5,5.8-1.5c2.1,0,4,0.5,5.7,1.4c1.7,0.9,2.9,2.3,3.8,3.9
		c0.9,1.7,1.4,3.6,1.4,5.7c0,1.2-0.1,2.2-0.3,3.1h-15.3c0.1,1.4,0.5,2.4,1.4,3.2c0.9,0.8,2,1.2,3.4,1.2c1.1,0,2-0.2,2.7-0.6
		c0.8-0.4,1.3-1,1.6-1.6h6.5C192.6,474.3,191.4,476.2,189.4,477.7z M186.2,465.1c0-1.2-0.4-2.1-1.2-2.8s-1.8-1-3-1
		c-1.2,0-2.3,0.3-3.1,1c-0.8,0.7-1.2,1.6-1.3,2.8H186.2z"/>
	<path class="st1" d="M214.3,458.1c1.4,1.7,2.2,4,2.2,6.9v14.2h-6.7v-12.5c0-3.1-1.2-4.7-3.6-4.7c-1.3,0-2.2,0.4-2.9,1.2
		c-0.7,0.8-1,1.9-1,3.3v12.7h-6.6v-22.9h5.5l0.4,2.5c0.7-1,1.6-1.8,2.8-2.4c1.2-0.6,2.5-0.9,3.9-0.9
		C210.9,455.6,212.9,456.4,214.3,458.1z"/>
	<path class="st1" d="M233,462.2h-4.1v17.1h-6.7v-17.1h-4v-5.9h4v-5.9h6.7v5.9h4.1V462.2z"/>
	<path class="st1" d="M235.2,461.5c1-1.9,2.4-3.3,4.2-4.3s3.9-1.5,6.3-1.5s4.4,0.5,6.2,1.5s3.2,2.5,4.2,4.3c1,1.9,1.5,4,1.5,6.3
		c0,2.3-0.5,4.4-1.5,6.3c-1,1.9-2.4,3.3-4.2,4.3c-1.8,1-3.9,1.5-6.2,1.5c-2.4,0-4.4-0.5-6.3-1.5c-1.8-1-3.2-2.5-4.2-4.3
		s-1.5-3.9-1.5-6.3C233.7,465.4,234.2,463.3,235.2,461.5z M241.9,472c1,1.1,2.2,1.6,3.7,1.6c1.5,0,2.8-0.5,3.7-1.6s1.4-2.5,1.4-4.3
		c0-1.7-0.5-3.1-1.4-4.2s-2.2-1.6-3.7-1.6s-2.8,0.5-3.8,1.6c-0.9,1.1-1.4,2.5-1.4,4.2C240.5,469.5,241,470.9,241.9,472z"/>
	<path class="st1" d="M55,511.9c1,1.2,1.5,2.9,1.5,4.8c0,2.8-1,4.9-2.9,6.4c-1.9,1.5-4.6,2.2-8,2.2H32.6v-32.6h13
		c3.3,0,5.9,0.8,7.7,2.5c1.9,1.6,2.8,3.8,2.8,6.5c0,1.9-0.4,3.5-1.3,4.7c-0.9,1.2-2.1,2.1-3.7,2.7C52.7,509.7,54,510.6,55,511.9z
		 M39.5,499v7.4h5.8c1.3,0,2.2-0.4,2.9-1.1c0.7-0.7,1-1.6,1-2.5s-0.3-1.8-1-2.6c-0.7-0.8-1.6-1.2-2.9-1.2H39.5z M48.5,518.1
		c0.7-0.6,1.1-1.5,1.1-2.6c0-1-0.4-1.9-1.1-2.6c-0.7-0.7-1.7-1.1-2.8-1.1h-6.2v7.3h6.2C46.8,519,47.8,518.7,48.5,518.1z"/>
	<path class="st1" d="M77.1,523.7c-2,1.5-4.4,2.2-7.1,2.2c-2.3,0-4.2-0.5-6-1.5c-1.7-1-3.1-2.4-4-4.3c-0.9-1.8-1.4-4-1.4-6.4
		c0-2.4,0.5-4.6,1.4-6.4c0.9-1.9,2.3-3.3,4-4.3c1.7-1,3.7-1.5,5.8-1.5c2.1,0,4,0.5,5.7,1.4c1.7,0.9,2.9,2.3,3.8,3.9s1.4,3.6,1.4,5.7
		c0,1.2-0.1,2.2-0.3,3.1H65.2c0.1,1.4,0.5,2.4,1.4,3.2c0.9,0.8,2,1.2,3.4,1.2c1.1,0,2-0.2,2.7-0.6c0.8-0.4,1.3-1,1.6-1.6h6.5
		C80.3,520.3,79.1,522.2,77.1,523.7z M73.9,511.1c0-1.2-0.4-2.1-1.2-2.8c-0.8-0.7-1.8-1-3-1c-1.2,0-2.3,0.3-3.1,1
		c-0.8,0.7-1.2,1.6-1.3,2.8H73.9z"/>
	<path class="st1" d="M96.1,508.2H92v17.1h-6.7v-17.1h-4v-5.9h4v-5.9H92v5.9h4.1V508.2z"/>
	<path class="st1" d="M120.7,502.4v22.9h-6.4v-2.6c-0.7,1-1.7,1.8-3.1,2.4c-1.3,0.6-2.7,0.9-4.2,0.9c-2,0-3.8-0.5-5.3-1.5
		c-1.5-1-2.7-2.4-3.6-4.2c-0.8-1.8-1.3-3.9-1.3-6.3c0-2.5,0.5-4.7,1.4-6.5s2.2-3.3,3.8-4.4c1.6-1,3.5-1.5,5.6-1.5c3.1,0,5.4,1,7.1,3
		l0.4-2.2H120.7z M112.5,517.9c1-1.1,1.5-2.5,1.5-4.3c0-1.7-0.5-3.1-1.5-4.2c-1-1-2.2-1.6-3.8-1.6s-2.8,0.5-3.7,1.6
		s-1.4,2.5-1.4,4.2c0,1.7,0.5,3.1,1.4,4.2s2.2,1.6,3.7,1.6C110.3,519.5,111.6,519,112.5,517.9z"/>
	<path class="st1" d="M141,526v5h-19v-5H141z"/>
</g>
<linearGradient id="SVGID_1_" gradientUnits="userSpaceOnUse" x1="29.332" y1="283.9082" x2="386.5741" y2="283.9082">
	<stop  offset="0" style="stop-color:#A63DF9"/>
	<stop  offset="1" style="stop-color:#FF37A1"/>
</linearGradient>
<polyline class="st3" points="29.3,540.9 386.1,540.9 386.1,26.4 "/>
<g>
	<g>
		<path class="st4" d="M54.1,95.7c-16.6,0-30-13.4-30.1-30c0-16.6,13.4-30.1,30-30.1c16.6,0,30.1,13.4,30.1,30
			C84.1,82.2,70.7,95.7,54.1,95.7z M81.2,78.2c0.1-0.1,0.2-0.2,0.2-0.3c1.9-4.3,2.8-8.8,2.6-13.6c-0.1-2.2-0.4-4.3-1-6.4
			c-1.3-4.8-3.7-9.1-7.1-12.7c-2.1-2.3-4.6-4.2-7.3-5.7c-3.9-2.1-8-3.3-12.4-3.7c-1.5-0.1-3.1-0.1-4.6,0c-1.9,0.2-3.8,0.5-5.7,1
			c-4,1.2-7.7,3.1-10.9,5.8c-3,2.5-5.5,5.5-7.3,9c-1.8,3.4-2.9,7-3.3,10.8c-0.2,2.2-0.2,4.4,0,6.7c0.3,2.4,0.9,4.8,1.7,7.1
			c0.6,1.5,1.2,2.9,2,4.3c0,0.1,0,0.3,0.2,0.2c0.1,0.2,0.2,0.4,0.3,0.6c1,1.7,2.2,3.2,3.5,4.6c1.1,1.2,2.3,2.3,3.5,3.2
			c2,1.6,4.3,2.9,6.6,3.9c2.3,1,4.6,1.7,7.1,2c1.2,0.2,2.5,0.3,3.7,0.3c1.4,0.1,2.7,0,4.1-0.2c1.3-0.1,2.7-0.4,4-0.7
			c1.7-0.4,3.4-1,5-1.7c2-0.9,3.9-2,5.6-3.3c0.9-0.6,1.7-1.3,2.5-2c0.4-0.4,0.8-0.7,1.1-1.2c0.3-0.1,0.5-0.4,0.7-0.6
			c0,0,0.1,0,0.1-0.1c2-2.2,3.7-4.7,4.9-7.4C81.2,78.4,81.2,78.3,81.2,78.2z"/>
		
			<linearGradient id="SVGID_2_" gradientUnits="userSpaceOnUse" x1="26.4864" y1="528.255" x2="75.4333" y2="528.255" gradientTransform="matrix(1 0 0 -1 0 597.7323)">
			<stop  offset="5.025126e-03" style="stop-color:#8B238C"/>
			<stop  offset="0.236" style="stop-color:#5C2A8B"/>
			<stop  offset="0.4668" style="stop-color:#34308A"/>
			<stop  offset="0.6775" style="stop-color:#18348A"/>
			<stop  offset="0.8604" style="stop-color:#063689"/>
			<stop  offset="0.995" style="stop-color:#003789"/>
		</linearGradient>
		<path class="st5" d="M75.4,86.5c-0.3,0.5-0.7,0.8-1.1,1.2c-0.8,0.7-1.6,1.4-2.5,2c-1.7,1.3-3.6,2.4-5.6,3.3
			c-1.6,0.7-3.3,1.3-5,1.7c-1.3,0.3-2.6,0.6-4,0.7c-1.4,0.1-2.7,0.2-4.1,0.2c-1.2-0.1-2.5-0.2-3.7-0.3c-2.5-0.4-4.8-1.1-7.1-2
			c-2.4-1-4.6-2.3-6.6-3.9c-1.3-1-2.4-2.1-3.5-3.2c-1.3-1.4-2.5-3-3.5-4.6c-0.1-0.2-0.1-0.5-0.3-0.6c-0.5-1.2-0.8-2.4-1.1-3.6
			c-0.2-1-0.4-1.9-0.5-2.9c-0.1-1-0.2-2-0.2-3c0-0.7-0.1-1.4,0-2.1c0.1-1.3,0.3-2.6,0.5-3.9c0.5-2.3,1.2-4.6,2.3-6.7
			c0.6-1.1,1.2-2.2,1.9-3.2c0.8-1.1,1.6-2.2,2.5-3.2c0.6-0.6,1.2-1.3,1.9-1.9c0.9-0.8,1.9-1.6,2.9-2.3c0.6-0.4,1.2-0.8,1.8-1.1
			c0.5-0.3,1-0.6,1.6-0.9c0.8-0.4,1.6-0.8,2.5-1.1c1-0.4,2-0.7,3-1c1-0.2,2-0.4,3-0.6c0.1,0,0.2-0.1,0.3,0c0.1,0.1-0.1,0.2-0.1,0.3
			c-0.6,0.6-1.2,1.3-1.7,2c-1.1,1.4-2,2.8-2.8,4.4c-0.7,1.4-1.3,2.9-1.8,4.4c-0.4,1.2-0.7,2.5-0.9,3.8C43,59,43,59.7,42.9,60.4
			c-0.2,1.5-0.1,3-0.1,4.4c0.1,1.2,0.2,2.4,0.4,3.6c0.2,0.8,0.3,1.6,0.6,2.4c0.2,0.6,0.4,1.2,0.6,1.8c0.1,0.3,0.2,0.6,0.3,0.8
			c0,0,0.1,0.1,0.1,0.1c0.1,0.7,0.5,1.3,0.8,1.9c0.3,0.6,0.6,1.2,1,1.9c0.2,0.3,0.4,0.7,0.7,1c0.1-0.2,0.3-0.4,0.1-0.6
			c-0.6-1-1.1-2.1-1.5-3.2c-0.2-0.4-0.3-0.9-0.4-1.3c-0.1-0.4-0.2-0.7-0.3-1.1c-0.3-1.6-0.5-3.1-0.5-4.7c0-1,0.1-2,0.3-3
			c0.2-1.2,0.6-2.4,1-3.5c0.3-0.9,0.8-1.8,1.3-2.6c0.6-1,1.3-2,2-2.9c0.4-0.5,0.9-0.9,1.3-1.3c0.1-0.1,0.2-0.2,0.3-0.3
			c0.6-0.7,1.4-1.2,2.2-1.7c1.1-0.7,2.2-1.3,3.5-1.8c0.7-0.3,1.5-0.6,2.2-0.7c0.8-0.2,1.5-0.3,2.3-0.4c0.6-0.1,1.2-0.1,1.8-0.2
			c1.3-0.1,2.7,0.1,4,0.2c0.4,0,0.7,0.1,1.1,0.2c-0.1,0.1-0.1,0.1-0.2,0.1c-2.5,1.1-4.6,2.7-6.4,4.7c-2.8,3.3-4.1,7.2-4.2,11.5
			c0,1,0,2.1,0.1,3.1c0.1,0.7,0.1,1.5,0.4,2.2c0.2,0.6,0.4,1.3,0.7,1.9c0,0.1,0,0.1,0,0.1c0,0,0,0,0,0c0,0.1,0,0.2,0.1,0.3
			c0.3,0.6,0.6,1.2,0.9,1.8c0.3,0.6,0.5,1.2,1,1.7l0,0c0.1,0.3,0.3,0.6,0.5,0.8c0.3,0.4,0.6,0.9,1,1.3l0,0c0,0,0,0.1,0,0.1
			c0,0,0,0.1,0,0.1c0.5,0.6,0.9,1.1,1.4,1.6c0.6,0.7,1.3,1.2,1.9,1.7c0.7,0.6,1.5,1.2,2.3,1.6c0,0,0,0,0.1,0.1l0,0
			c0,0.1,0.1,0.1,0.1,0.1l0,0c0,0.1,0.1,0.1,0.1,0.1l0,0c0.5,0.5,1.2,0.7,1.8,0.9l0,0c0.1,0.1,0.2,0.1,0.3,0.1l0,0
			c0.3,0.2,0.7,0.4,1.1,0.4C72.6,86.1,74,86.4,75.4,86.5z"/>
		
			<linearGradient id="SVGID_3_" gradientUnits="userSpaceOnUse" x1="24.2352" y1="536.6018" x2="84.0588" y2="536.6018" gradientTransform="matrix(1 0 0 -1 0 597.7323)">
			<stop  offset="5.025126e-03" style="stop-color:#7B097E"/>
			<stop  offset="0.4622" style="stop-color:#A91C86"/>
			<stop  offset="0.995" style="stop-color:#DB318E"/>
		</linearGradient>
		<path class="st6" d="M58.5,72.8c-0.3-0.6-0.5-1.3-0.7-1.9c-0.3-0.7-0.3-1.5-0.4-2.2c-0.1-1-0.2-2.1-0.1-3.1
			c0.1-4.3,1.4-8.2,4.2-11.5c1.7-2.1,3.9-3.6,6.4-4.7c0.1,0,0.1,0,0.2-0.1C67.7,49.1,67.3,49,67,49c-1.3-0.1-2.7-0.3-4-0.2
			c-0.6,0-1.2,0.1-1.8,0.2c-0.8,0.1-1.5,0.2-2.3,0.4c-0.8,0.2-1.5,0.4-2.2,0.7c-1.2,0.4-2.4,1.1-3.5,1.8c-0.8,0.5-1.5,1-2.2,1.7
			c-0.1,0.1-0.2,0.2-0.3,0.3c-0.2-0.9-0.2-1.7-0.2-2.6c0-1.1,0-2.1,0.2-3.2c0.1-0.9,0.2-1.8,0.4-2.6c0.1-0.4,0.2-0.8,0.2-1.3
			c-0.1,0-0.2,0.1-0.3,0.1c-0.4,0.4-0.8,0.8-1.1,1.2c-0.6,0.7-1.2,1.5-1.7,2.3c-0.4,0.7-0.8,1.3-1.2,2c-0.6,1-1.1,2.1-1.5,3.2
			c-0.5,1.3-0.9,2.6-1.2,3.9c-0.1,0.6-0.2,1.1-0.3,1.7c-0.1,0.4-0.1,0.8-0.1,1.2c-0.1,0.6-0.2,1.3-0.2,1.9c0,1.2-0.1,2.3,0.1,3.5
			c0.1,1.3,0.3,2.6,0.5,3.9c0.1,0.8,0.5,1.5,0.7,2.3c0.1,0.2,0.1,0.4,0.2,0.6c0.1,0.1,0.1,0.2,0.2,0c0.1,0.4,0.2,0.7,0.3,1.1
			c0.1,0.5,0.3,0.9,0.4,1.3c0.4,1.1,0.9,2.2,1.5,3.2c0.1,0.3-0.1,0.4-0.1,0.6c-0.3-0.3-0.5-0.7-0.7-1c-0.4-0.6-0.7-1.2-1-1.9
			c-0.3-0.6-0.7-1.2-0.8-1.9c0-0.1-0.1-0.1-0.1-0.1c0-0.3-0.2-0.6-0.3-0.8c-0.2-0.6-0.4-1.2-0.6-1.8c-0.2-0.8-0.4-1.6-0.6-2.4
			c-0.2-1.2-0.4-2.4-0.4-3.6c-0.1-1.5-0.1-3,0.1-4.4c0.1-0.7,0.1-1.4,0.3-2.1c0.2-1.3,0.5-2.6,0.9-3.8c0.5-1.5,1.1-3,1.8-4.4
			c0.8-1.5,1.7-3,2.8-4.4c0.6-0.7,1.1-1.4,1.7-2c0.1-0.1,0.2-0.2,0.1-0.3c-0.1-0.1-0.2,0-0.3,0c-1,0.1-2,0.3-3,0.6c-1,0.3-2,0.6-3,1
			c-0.8,0.3-1.7,0.7-2.5,1.1c-0.5,0.3-1.1,0.6-1.6,0.9c-0.6,0.3-1.2,0.7-1.8,1.1c-1,0.7-2,1.5-2.9,2.3c-0.6,0.6-1.3,1.2-1.9,1.9
			c-0.9,1-1.8,2.1-2.5,3.2c-0.7,1-1.3,2.1-1.9,3.2c-1.1,2.1-1.8,4.4-2.3,6.7c-0.3,1.3-0.4,2.6-0.5,3.9c-0.1,0.7,0,1.4,0,2.1
			c0,1,0.1,2,0.2,3c0.1,1,0.3,2,0.5,2.9c0.3,1.2,0.7,2.4,1.1,3.6c-0.2,0.1-0.2-0.1-0.2-0.2c-0.8-1.4-1.5-2.8-2-4.3
			c-0.9-2.3-1.5-4.6-1.7-7.1c-0.3-2.2-0.3-4.4,0-6.7c0.4-3.8,1.5-7.4,3.3-10.8c1.8-3.5,4.3-6.5,7.3-9c3.2-2.7,6.9-4.6,10.9-5.8
			c1.9-0.5,3.7-0.9,5.7-1c1.5-0.1,3.1-0.1,4.6,0c4.4,0.3,8.5,1.5,12.4,3.7c2.7,1.5,5.2,3.4,7.3,5.7c3.4,3.7,5.8,7.9,7.1,12.7
			c0.6,2.1,0.9,4.2,1,6.4c0.2,4.7-0.6,9.3-2.6,13.6c-0.1,0.1-0.1,0.2-0.2,0.3c-0.1,0-0.2-0.1-0.2-0.1c-0.6-0.5-1.1-1.1-1.6-1.7
			c-0.8-1-1.5-2.1-1.9-3.3c-0.3-0.6-0.5-1.2-0.7-1.9c-0.2-0.7-0.3-1.5-0.4-2.2c-0.1-0.7-0.1-1.5,0-2.2c0.1-0.6,0.2-1.2,0.3-1.9
			c0.1-0.6,0.4-1.2,0.7-1.8c0.5-1,1.1-1.9,1.9-2.6c0.4-0.3,0.9-0.6,1.4-0.8c-0.1,0-0.1-0.1-0.2-0.1c0,0-0.1,0-0.1,0
			c-2.8-0.4-5.1,0.5-6.8,2.6c-1.6,1.9-2.5,4-2.7,6.5c-0.1,1.8,0,3.5,0.6,5.2c0.8,2.2,2,4.1,3.7,5.7c0.2,0.2,0.4,0.4,0.2,0.6
			c-0.2,0.3-0.5,0.1-0.7-0.1c-0.6-0.6-1.1-1.2-1.6-1.8c-2.2-2.9-3.2-6.1-2.9-9.7c0.3-3,1.5-5.6,3.8-7.7c1.4-1.3,3.1-2,5-2.1
			c0.6,0,1.2,0,1.8,0.1c-0.3-0.3-0.7-0.5-1-0.7c-1-0.7-2-1.3-3.1-1.7c-0.9-0.4-1.9-0.6-2.9-0.7c-1.2-0.1-2.3,0.1-3.4,0.4
			c-0.6,0.2-1.2,0.5-1.8,0.8c-1.4,0.7-2.4,1.7-3.4,2.8c0-0.5,0-1,0.1-1.5c0-0.5,0.1-1,0.2-1.4c0.2-1.2,0.6-2.4,1.1-3.5
			c0.4-0.9,0.9-1.7,1.4-2.6c0.2-0.3,0.4-0.6,0.6-0.9c-0.1,0-0.2,0-0.3,0.1c-2.1,0.9-3.9,2.2-5.4,3.8c-1.9,2-3.2,4.4-4,7
			c-0.6,2.1-0.8,4.3-0.7,6.4c0.1,1.5,0.3,3.1,0.8,4.5c1.2,3,2.8,5.8,5,8.2c2.1,2.2,4.5,3.9,7.4,4.9c1.6,0.6,3.2,0.8,4.8,1
			c-0.2,0.2-0.4,0.5-0.7,0.6c-1.4-0.1-2.8-0.4-4.2-0.9c-0.4-0.1-0.7-0.3-1.1-0.4l0,0c-0.1-0.1-0.2-0.1-0.3-0.1l0,0
			c-0.6-0.3-1.2-0.6-1.8-0.9l0,0c0-0.1-0.1-0.1-0.1-0.1l0,0c0-0.1-0.1-0.1-0.1-0.1l0,0c0,0,0,0-0.1-0.1c-0.8-0.5-1.6-1-2.3-1.6
			c-0.7-0.6-1.4-1.1-1.9-1.7c-0.5-0.5-0.9-1.1-1.4-1.6c0,0,0-0.1,0-0.1c0,0,0.1-0.1,0-0.1l0,0c-0.2-0.5-0.6-0.9-0.9-1.4
			c-0.2-0.3-0.3-0.6-0.5-0.7l0,0c0-0.2-0.1-0.4-0.3-0.5c-0.6-1-1.1-2.1-1.7-3.2c0,0,0,0,0,0C58.5,72.9,58.5,72.9,58.5,72.8z"/>
		<path class="st7" d="M76.1,85.9c-1.7-0.1-3.3-0.4-4.8-1c-2.9-1-5.3-2.7-7.4-4.9c-2.2-2.4-3.8-5.1-5-8.2c-0.6-1.5-0.8-3-0.8-4.5
			c-0.1-2.2,0.1-4.3,0.7-6.4c0.7-2.7,2.1-5,4-7c1.6-1.6,3.3-2.9,5.4-3.8c0.1,0,0.2-0.1,0.3-0.1c-0.1,0.3-0.4,0.6-0.6,0.9
			c-0.5,0.8-1,1.7-1.4,2.6c-0.5,1.1-0.8,2.3-1.1,3.5c-0.1,0.5-0.2,0.9-0.2,1.4c0,0.5-0.1,1-0.1,1.5c-0.3,0.4-0.5,0.8-0.8,1.1
			c-0.7,1-1.1,2.1-1.5,3.3c-0.2,0.7-0.3,1.4-0.4,2.1c-0.1,1-0.1,2,0,3c0.2,1.2,0.6,2.4,1.1,3.6c0.4,0.8,0.8,1.6,1.4,2.3
			c1,1.3,2.1,2.3,3.5,3.1c1.1,0.7,2.3,1.2,3.6,1.5c0.9,0.2,1.7,0.4,2.6,0.4c0.2,0.2,0.4,0.4,0.7,0.1c0.2-0.2,0-0.5-0.2-0.6
			c-1.7-1.6-2.9-3.5-3.7-5.7c-0.6-1.7-0.8-3.4-0.6-5.2c0.2-2.5,1.1-4.6,2.7-6.5c1.8-2.1,4.1-3,6.8-2.6c0,0,0.1,0,0.1,0
			c0,0,0.1,0,0.2,0.1c-0.6,0.2-1,0.5-1.4,0.8c-0.9,0.7-1.5,1.6-1.9,2.6c-0.3,0.6-0.5,1.2-0.7,1.8c-0.1,0.6-0.3,1.2-0.3,1.9
			c-0.1,0.7-0.1,1.5,0,2.2c0.1,0.8,0.2,1.5,0.4,2.2c0.2,0.6,0.4,1.3,0.7,1.9c0.5,1.2,1.2,2.3,1.9,3.3c0.5,0.6,1,1.1,1.6,1.7
			c0.1,0.1,0.1,0.1,0.2,0.1c0,0.1,0,0.2-0.1,0.3C79.8,81.2,78.1,83.6,76.1,85.9C76.1,85.8,76.1,85.8,76.1,85.9z"/>
		<path class="st7" d="M45.2,72.1c-0.1,0.2-0.1,0.1-0.2,0c-0.1-0.2-0.1-0.4-0.2-0.6c-0.2-0.8-0.6-1.5-0.7-2.3
			c-0.2-1.3-0.4-2.6-0.5-3.9c-0.1-1.2-0.1-2.3-0.1-3.5c0-0.6,0.1-1.3,0.2-1.9c0.1-0.4,0.1-0.8,0.1-1.2c0.1-0.6,0.2-1.1,0.3-1.7
			c0.3-1.3,0.7-2.6,1.2-3.9c0.4-1.1,0.9-2.1,1.5-3.2c0.4-0.7,0.8-1.4,1.2-2c0.5-0.8,1.1-1.6,1.7-2.3c0.4-0.4,0.8-0.8,1.1-1.2
			c0.1-0.1,0.1-0.1,0.3-0.1c0,0.5-0.1,0.9-0.2,1.3c-0.2,0.9-0.3,1.8-0.4,2.6c-0.1,1.1-0.2,2.1-0.2,3.2c0,0.9,0,1.7,0.2,2.6
			c-0.4,0.5-0.9,0.9-1.3,1.3c-0.8,0.9-1.5,1.9-2,2.9c-0.5,0.8-0.9,1.7-1.3,2.6c-0.4,1.2-0.8,2.3-1,3.5c-0.2,1-0.3,2-0.3,3
			C44.7,69,44.8,70.5,45.2,72.1z"/>
		<path class="st8" d="M58.6,73c0.5,1.1,1,2.2,1.7,3.2c0.1,0.2,0.3,0.3,0.3,0.5c-0.4-0.5-0.7-1.1-1-1.7c-0.3-0.6-0.6-1.2-0.9-1.8
			C58.6,73.2,58.6,73.1,58.6,73z"/>
		<path class="st8" d="M60.5,76.8c0.3,0.2,0.4,0.5,0.5,0.7c0.3,0.5,0.7,0.9,0.9,1.4c-0.4-0.3-0.7-0.8-1-1.3
			C60.7,77.3,60.5,77.1,60.5,76.8z"/>
		<path class="st8" d="M68,84.2c0.6,0.3,1.2,0.6,1.8,0.9C69.2,84.9,68.5,84.7,68,84.2z"/>
		<path class="st8" d="M70.1,85.3c0.4,0.1,0.7,0.3,1.1,0.4C70.8,85.7,70.5,85.4,70.1,85.3z"/>
		
			<linearGradient id="SVGID_4_" gradientUnits="userSpaceOnUse" x1="44.3659" y1="524.66" x2="44.6992" y2="524.66" gradientTransform="matrix(1 0 0 -1 0 597.7323)">
			<stop  offset="5.025126e-03" style="stop-color:#7B097E"/>
			<stop  offset="0.4622" style="stop-color:#A91C86"/>
			<stop  offset="0.995" style="stop-color:#DB318E"/>
		</linearGradient>
		<path class="st9" d="M44.4,72.7c0.2,0.3,0.3,0.5,0.3,0.8C44.5,73.2,44.4,73,44.4,72.7z"/>
		<path class="st8" d="M69.8,85.1c0.1,0,0.2,0,0.3,0.1C70,85.3,69.9,85.2,69.8,85.1z"/>
		<path class="st8" d="M58.5,72.8c0,0.1,0,0.1,0,0.1C58.5,72.9,58.5,72.9,58.5,72.8z"/>
		<path class="st8" d="M67.8,84.1c0.1,0,0.1,0,0.1,0.1C67.8,84.2,67.8,84.2,67.8,84.1z"/>
		<path class="st8" d="M67.9,84.2c0.1,0,0.1,0,0.1,0.1C68,84.2,67.9,84.2,67.9,84.2z"/>
		<path class="st8" d="M61.9,78.9C62,78.9,62,78.9,61.9,78.9C62,78.9,61.9,78.9,61.9,78.9z"/>
		<path class="st8" d="M67.7,84C67.7,84.1,67.7,84.1,67.7,84C67.7,84.1,67.7,84.1,67.7,84z"/>
		
			<linearGradient id="SVGID_5_" gradientUnits="userSpaceOnUse" x1="62.3824" y1="529.7936" x2="80.7023" y2="529.7936" gradientTransform="matrix(1 0 0 -1 0 597.7323)">
			<stop  offset="5.025126e-03" style="stop-color:#8B238C"/>
			<stop  offset="0.7624" style="stop-color:#21328A"/>
			<stop  offset="0.995" style="stop-color:#003789"/>
		</linearGradient>
		<path class="st10" d="M74.6,80.1c-0.9,0-1.8-0.2-2.6-0.4c-1.3-0.3-2.5-0.8-3.6-1.5c-1.4-0.8-2.5-1.9-3.5-3.1
			c-0.5-0.7-1-1.5-1.4-2.3c-0.6-1.1-0.9-2.3-1.1-3.6c-0.2-1-0.1-2,0-3c0-0.7,0.2-1.4,0.4-2.1c0.3-1.2,0.8-2.3,1.5-3.3
			c0.3-0.4,0.5-0.8,0.8-1.1c1-1.1,2-2.1,3.4-2.8c0.6-0.3,1.2-0.6,1.8-0.8c1.1-0.3,2.2-0.5,3.4-0.4c1,0.1,2,0.3,2.9,0.7
			c1.1,0.4,2.1,1,3.1,1.7c0.3,0.3,0.7,0.5,1,0.7c-0.6-0.1-1.2-0.1-1.8-0.1c-1.9,0.1-3.6,0.7-5,2.1c-2.2,2.1-3.5,4.7-3.8,7.7
			c-0.3,3.6,0.7,6.8,2.9,9.7C73.5,79,74.1,79.5,74.6,80.1z"/>
	</g>
	<g>
		<path class="st1" d="M106.3,71c0,4.8-3.9,8.7-8.8,8.7c-4.8,0-8.8-3.9-8.8-8.7c0-4.8,3.9-8.7,8.8-8.7S106.3,66.2,106.3,71z
			 M97.6,65.6c-3,0-5.4,2.4-5.4,5.4c0,3,2.4,5.4,5.4,5.4l0,0c3,0,5.4-2.4,5.4-5.4C103,68.1,100.5,65.6,97.6,65.6L97.6,65.6z"/>
		<path class="st1" d="M123.1,64.4l-2,2.9c-1.1-0.9-2.5-1.4-4-1.4c-2.7,0-5.4,1.8-5.5,5.1c0.1,3.3,2.8,5.1,5.5,5.1
			c1.5,0,2.9-0.6,4-1.4l2,2.9c-1.6,1.3-3.6,2.1-6,2.1c-5.3,0-9.1-4-9.1-8.7c0-4.7,3.8-8.7,9.1-8.7C119.5,62.3,121.5,63.1,123.1,64.4
			z"/>
		<path class="st1" d="M136.1,62.7v3.4h-7.6v3.4h7.3v3.1h-7.3v3.4h7.6v3.4h-11V62.7L136.1,62.7L136.1,62.7z"/>
		<path class="st1" d="M148.3,62.7l6.1,16.6h-3.6l-1.3-3.6h-5.9l-1.3,3.6h-3.6l6.1-16.6H148.3z M144.8,72.4h3.5l-1.7-4.7L144.8,72.4
			z"/>
		<path class="st1" d="M159.3,62.7l7.7,10.1V62.7h3.4v16.6h-3l-7.7-10.1v10.1h-3.4V62.7H159.3z M156.3,79.3L156.3,79.3L156.3,79.3z"
			/>
		<path class="st1" d="M176.3,62.7v16.6h-3.4V62.7H176.3z"/>
		<path class="st1" d="M194,64.4l-2,2.9c-1.1-0.9-2.5-1.4-4-1.4c-2.7,0-5.4,1.8-5.5,5.1c0.1,3.3,2.8,5.1,5.5,5.1
			c1.5,0,2.9-0.6,4-1.4l2,2.9c-1.6,1.3-3.6,2.1-6,2.1c-5.3,0-9.1-4-9.1-8.7c0-4.7,3.8-8.7,9.1-8.7C190.4,62.3,192.4,63.1,194,64.4z"
			/>
	</g>
	<g>
		<path class="st11" d="M92.3,50.7c2.5,0,4.5,1.9,4.5,4.3s-2,4.3-4.5,4.3h-2.7v-8.6H92.3z M91.4,57.7h0.9c1.4,0,2.7-1.2,2.7-2.7
			s-1.3-2.7-2.7-2.7h-0.9V57.7z"/>
		<path class="st11" d="M103.7,50.7v1.8h-3.9v1.7h3.8v1.6h-3.8v1.7h3.9v1.8h-5.7v-8.6L103.7,50.7L103.7,50.7z"/>
		<path class="st11" d="M110.2,51.3l-1,1.4c-0.4-0.2-0.9-0.5-1.5-0.5c-0.5,0-1,0.3-1,0.8s0.9,0.8,1.4,1c1.4,0.4,2.6,1.3,2.6,2.7l0,0
			l0,0c0,1.4-1.2,2.8-3,2.8c-1.2,0-2.2-0.5-3-1.1l0.9-1.5c0.6,0.4,1.3,0.8,2.1,0.8c0.6,0,1.3-0.3,1.3-1c0-0.6-1-0.9-1.5-1.1
			c-1.2-0.3-2.5-1.1-2.5-2.6c0-1.4,1.3-2.6,2.8-2.6C108.9,50.5,109.6,50.9,110.2,51.3z"/>
		<path class="st11" d="M113.7,50.7v8.6h-1.8v-8.6H113.7z"/>
		<path class="st11" d="M122.8,51.6l-0.9,1.3c-1-0.7-1.7-0.7-2.4-0.7c-1.4,0-2.8,1.3-2.8,2.8s1.4,2.8,2.8,2.8c0.9,0,1.4-0.2,2.1-0.6
			v-1.2h-1.1v-1.7h2.8v3.8c-0.8,0.6-1.7,1.4-3.7,1.4c-2.4,0-4.6-1.7-4.6-4.5s2.2-4.5,4.6-4.5C120.7,50.5,121.8,50.9,122.8,51.6z"/>
		<path class="st11" d="M126.2,50.7l4,5.2v-5.2h1.8v8.6h-1.6l-4-5.2v5.2h-1.8v-8.6H126.2z M124.6,59.3L124.6,59.3L124.6,59.3z"/>
	</g>
</g>
</svg>
