<?xml version="1.0" encoding="utf-8"?>
<!-- Generator: Adobe Illustrator 23.0.1, SVG Export Plug-In . SVG Version: 6.00 Build 0)  -->
<svg version="1.1" id="Camada_1" xmlns="http://www.w3.org/2000/svg" xmlns:xlink="http://www.w3.org/1999/xlink" x="0px" y="0px"
	 viewBox="0 0 400 600" style="enable-background:new 0 0 400 600;" xml:space="preserve">
<style type="text/css">
	.st0{stroke:#211915;stroke-miterlimit:10;}
	.st1{fill:#4959CD;}
	.st2{fill:none;}
	.st3{fill:#FFFFFF;}
</style>
<rect class="st0" width="400" height="600"/>
<path class="st1" d="M269.3,419.3H130.7c-5.5,0-10-4.5-10-10V227.7c0-5.5,4.5-10,10-10h138.6c5.5,0,10,4.5,10,10v181.5
	C279.3,414.8,274.8,419.3,269.3,419.3z"/>
<g>
	<rect x="134.8" y="345.8" class="st2" width="113.9" height="55.1"/>
	<path class="st3" d="M151.3,364.1v1.7h-13.4v-18.9h13v1.7h-11v6.7h9.8v1.7h-9.8v7H151.3z"/>
	<path class="st3" d="M180.2,353c1,1,1.5,2.5,1.5,4.5v8.2h-1.9v-8c0-1.5-0.4-2.6-1.1-3.4c-0.7-0.8-1.7-1.2-3-1.2
		c-1.5,0-2.6,0.5-3.5,1.4s-1.3,2.2-1.3,3.8v7.5H169v-8c0-1.5-0.4-2.6-1.1-3.4s-1.7-1.2-3-1.2c-1.5,0-2.6,0.5-3.5,1.4
		c-0.9,0.9-1.3,2.2-1.3,3.8v7.5h-1.9v-14.2h1.8v2.6c0.5-0.9,1.2-1.5,2.1-2c0.9-0.5,1.9-0.7,3.1-0.7c1.2,0,2.2,0.3,3.1,0.8
		s1.5,1.3,2,2.2c0.5-0.9,1.3-1.7,2.3-2.2c1-0.5,2.1-0.8,3.4-0.8C177.8,351.5,179.2,352,180.2,353z"/>
	<path class="st3" d="M200.6,352.4c1.1,0.6,1.9,1.5,2.5,2.6c0.6,1.1,0.9,2.3,0.9,3.8c0,1.4-0.3,2.7-0.9,3.8
		c-0.6,1.1-1.5,1.9-2.5,2.6c-1.1,0.6-2.3,0.9-3.6,0.9c-1.2,0-2.2-0.2-3.1-0.7c-0.9-0.5-1.7-1.2-2.3-2.1v7.9h-1.9v-19.4h1.8v2.8
		c0.6-0.9,1.3-1.7,2.3-2.2s2-0.8,3.2-0.8C198.3,351.5,199.5,351.8,200.6,352.4z M199.5,363.6c0.8-0.5,1.4-1.1,1.9-2
		c0.5-0.8,0.7-1.8,0.7-2.9s-0.2-2-0.7-2.9c-0.5-0.8-1.1-1.5-1.9-2c-0.8-0.5-1.7-0.7-2.7-0.7c-1,0-1.9,0.2-2.7,0.7
		c-0.8,0.5-1.4,1.1-1.9,2c-0.5,0.8-0.7,1.8-0.7,2.9s0.2,2,0.7,2.9c0.5,0.8,1.1,1.5,1.9,2c0.8,0.5,1.7,0.7,2.7,0.7
		C197.8,364.2,198.7,364,199.5,363.6z"/>
	<path class="st3" d="M218.1,364.9c-0.4,0.3-0.8,0.6-1.3,0.7s-1.1,0.3-1.7,0.3c-1.3,0-2.4-0.4-3.1-1.1c-0.7-0.7-1.1-1.7-1.1-3.1
		v-8.6h-2.5v-1.6h2.5v-3.1h1.9v3.1h4.3v1.6h-4.3v8.5c0,0.8,0.2,1.5,0.6,1.9s1,0.7,1.8,0.7c0.4,0,0.8-0.1,1.1-0.2
		c0.4-0.1,0.7-0.3,1-0.5L218.1,364.9z"/>
	<path class="st3" d="M236,351.6l-7.1,15.9c-0.6,1.3-1.2,2.3-2,2.8c-0.8,0.6-1.7,0.8-2.7,0.8c-0.7,0-1.3-0.1-1.9-0.3
		c-0.6-0.2-1.1-0.5-1.5-1l0.9-1.4c0.7,0.7,1.6,1.1,2.6,1.1c0.6,0,1.2-0.2,1.7-0.5c0.5-0.4,0.9-1,1.3-1.8l0.6-1.4l-6.3-14.2h2
		l5.3,12.1l5.3-12.1H236z"/>
	<path class="st3" d="M137.1,379.3h4.4v15.3h9.5v3.6h-13.9V379.3z"/>
	<path class="st3" d="M156,381c-0.5-0.4-0.7-1-0.7-1.7s0.2-1.2,0.7-1.7c0.5-0.5,1.1-0.7,1.9-0.7c0.8,0,1.4,0.2,1.9,0.6
		c0.5,0.4,0.7,1,0.7,1.6c0,0.7-0.2,1.3-0.7,1.7c-0.5,0.5-1.1,0.7-1.9,0.7C157.1,381.7,156.5,381.4,156,381z M155.8,383.7h4.2v14.5
		h-4.2V383.7z"/>
	<path class="st3" d="M168,398c-1.2-0.3-2.1-0.7-2.8-1.1l1.4-3c0.6,0.4,1.4,0.8,2.3,1s1.8,0.4,2.7,0.4c1.8,0,2.7-0.4,2.7-1.3
		c0-0.4-0.2-0.7-0.7-0.9c-0.5-0.2-1.2-0.3-2.2-0.5c-1.2-0.2-2.2-0.4-2.9-0.6c-0.8-0.2-1.4-0.6-2-1.2c-0.6-0.6-0.9-1.4-0.9-2.5
		c0-0.9,0.3-1.7,0.8-2.4c0.5-0.7,1.3-1.3,2.3-1.7c1-0.4,2.2-0.6,3.6-0.6c1,0,2,0.1,3.1,0.3c1,0.2,1.9,0.5,2.5,0.9l-1.4,3
		c-1.3-0.7-2.7-1.1-4.2-1.1c-0.9,0-1.6,0.1-2,0.4s-0.7,0.6-0.7,1c0,0.5,0.2,0.8,0.7,0.9c0.5,0.2,1.3,0.4,2.3,0.5
		c1.2,0.2,2.2,0.4,2.9,0.6s1.4,0.6,2,1.2c0.6,0.6,0.8,1.4,0.8,2.5c0,0.9-0.3,1.7-0.8,2.4c-0.5,0.7-1.3,1.2-2.4,1.6
		c-1,0.4-2.3,0.6-3.7,0.6C170.3,398.4,169.1,398.3,168,398z"/>
	<path class="st3" d="M193,397.5c-0.4,0.3-0.9,0.5-1.5,0.7c-0.6,0.2-1.2,0.2-1.9,0.2c-1.7,0-3.1-0.4-4-1.3c-0.9-0.9-1.4-2.2-1.4-3.9
		v-6h-2.2V384h2.2v-3.5h4.2v3.5h3.6v3.2h-3.6v5.9c0,0.6,0.2,1.1,0.5,1.4c0.3,0.3,0.8,0.5,1.3,0.5c0.7,0,1.2-0.2,1.7-0.5L193,397.5z"
		/>
	<path class="st3" d="M196.2,398.2h13.5v1h-13.5V398.2z"/>
</g>
<path class="st3" d="M261.3,241.4H142c-2.3,0-4.1-1.8-4.1-4.1l0,0c0-2.3,1.8-4.1,4.1-4.1h119.2c2.3,0,4.1,1.8,4.1,4.1l0,0
	C265.4,239.6,263.5,241.4,261.3,241.4z"/>
<g>
</g>
<g>
</g>
<g>
</g>
<g>
</g>
<g>
</g>
<g>
</g>
</svg>
