<?xml version="1.0" encoding="utf-8"?>
<!-- Generator: Adobe Illustrator 23.0.1, SVG Export Plug-In . SVG Version: 6.00 Build 0)  -->
<svg version="1.1" id="Camada_1" xmlns="http://www.w3.org/2000/svg" xmlns:xlink="http://www.w3.org/1999/xlink" x="0px" y="0px"
	 viewBox="0 0 400 600" style="enable-background:new 0 0 400 600;" xml:space="preserve">
<style type="text/css">
	.st0{fill:#121113;stroke:#211915;stroke-miterlimit:10;}
	.st1{fill:#466DD8;}
	.st2{fill:#A4B5E4;}
	.st3{fill:#01FDD7;}
	.st4{fill:#87A6FD;}
	.st5{fill:#0A3DAC;}
	.st6{fill:#3056BA;}
	.st7{fill:#456DD8;}
	.st8{fill:#7498FC;}
	.st9{fill:#7598FC;}
	.st10{fill:#002799;}
	.st11{fill:#3BFEE0;}
	.st12{fill:#577AC6;}
	.st13{fill:#0A3FAD;}
	.st14{fill:#2F56BB;}
	.st15{fill:#979797;}
	.st16{fill:#3D75FE;}
	.st17{fill:#3E76FE;}
	.st18{fill:#06FCD9;}
</style>
<rect class="st0" width="400" height="600"/>
<g>
	<path class="st1" d="M90.9,318c2.3-2.3,4.6-4.6,6.9-6.9c0.3-0.3,0.5-0.6,0.9-0.8c0.1,0.4,0.1,0.7,0.1,1.2c0,12.2,0,24.4,0,36.7
		c-1,0.2-2.1,0.3-3.1,0.5c-1,0.1-2.1,0-3.1,0.4c-1.8,0-3.5,0-5.3,0c-0.1-0.1-0.3-0.1-0.4-0.1c-1-0.3-2,0-3-0.3
		c-0.2-1.8,0.1-3.7,0.1-5.5c0-1.8,0-3.7,0-5.5c0-6.2,0-12.3,0-18.5c0-0.3-0.2-0.7,0.3-0.8c0.1,0,0.2,0,0.3,0
		c0.2,0.1,0.3,0.4,0.6,0.4c0.1,0.1,0.1,0.1,0.3,0.1c0.2,0,0.4,0.1,0.6,0.1c0.5,0.2,1,0.7,1.7,0.3c0,0,0.1,0,0.1-0.1
		c0.3-0.1,0.7,0.2,0.9-0.2c0.2,0,0.3-0.1,0.5-0.1c0.4-0.1,0.9-0.2,1-0.7l0,0C90.6,318.3,90.8,318.2,90.9,318z"/>
	<path class="st2" d="M92.6,349.1c1-0.4,2.1-0.2,3.1-0.4c1-0.1,2.1-0.3,3.1-0.5c0.6-0.1,1.2-0.1,1.8-0.2c-0.5,0.5-1.1,0.4-1.7,0.5
		c-0.9,0.2-1.8,0.1-2.6,0.6C95.1,349.1,93.8,349.1,92.6,349.1z"/>
	<path class="st2" d="M83.9,348.6c0.9,0.4,2,0,3,0.3c0.1,0,0.3,0,0.4,0.1c-1,0-2.1,0-3.1,0c-0.1-0.2-0.4-0.1-0.4-0.4
		C83.8,348.7,83.9,348.6,83.9,348.6z"/>
	<path class="st3" d="M125.2,273.7c0.1,0,0.1,0.1,0.2,0.1c0,0.3,0.2,0.4,0.5,0.4c0.2,0.2,0.3,0.4,0.5,0.5c0,0.4,0.3,0.7,0.7,0.7
		c0.2,0.2,0.5,0.5,0.7,0.7c0,0.4,0.2,0.6,0.6,0.6c0.2,0.2,0.5,0.5,0.7,0.7c0.1,0.5,0.4,0.8,0.9,0.9c0.2,0.2,0.5,0.5,0.7,0.7
		c0,0.4,0.3,0.7,0.7,0.7c0.3,0.2,0.5,0.4,0.7,0.7c0.2,0.9,0.6,0.4,0.9,0.1c4.8-4.7,9.5-9.5,14.2-14.2c1.9-1.8,4.2-2,6.3-0.4
		c0.1,0.1,0.3,0.1,0.5,0.1c0,0,0,0,0,0.1c0.1,0.7,0.8,1.3,0.8,2.1c0,0.1,0.1,0.3,0.3,0.4c0,0.1,0,0.2,0,0.3c-0.2,0.2-0.2,0.4,0,0.6
		c0,0.1,0,0.2,0,0.3c-0.5,0.7-0.7,1.6-1.1,2.4c0,0,0,0.1,0,0.1c-0.9,0.5-1.5,1.4-2.3,2.1c-0.3,0.3-0.4,0.4-0.8,0
		c-1.9-2.1-5.4-2.1-7.2-0.1c-1.9,2.1-1.8,5.2,0.3,7c0.4,0.3,0.3,0.5,0,0.8c-2.7,2.7-5.5,5.5-8.2,8.2c-1.6,1.5-4.2,1.9-6.1,0.3
		c-0.2-0.2-0.4-0.4-0.7-0.4c-0.2-0.1-0.3-0.3-0.4-0.4c-0.2-0.5-0.5-0.8-1-1c-0.2-0.1-0.3-0.3-0.4-0.4c-0.7-1-1.6-1.9-2.7-2.7
		c-0.1-0.1-0.2-0.2-0.3-0.3c-0.1-0.4-0.4-0.7-0.9-0.9c-0.3-0.1-0.4-0.4-0.6-0.6c-0.4-0.7-0.6,0-0.8,0.1
		c-10.2,10.2-20.5,20.4-30.6,30.6c-0.4,0.4-0.7,0.7-1.2,1c-1.1,0.6-2.2,1-3.6,0.6c-0.4-0.1-0.9-0.4-1.5-0.3c0,0-0.1,0-0.1-0.1
		c-0.1-0.6-0.7-0.7-1-1c-2.5-2.6-5.1-5.1-7.7-7.7c-0.2-0.2-0.4-0.5-0.7-0.5l0,0c-0.4-0.7-0.6-0.1-0.9,0.1
		c-9.5,9.5-19.1,19-28.6,28.6c-0.1,0.1-0.3,0.3-0.3,0.5c-0.1,0.1-0.1,0.1-0.2,0.2c-0.1,0-0.3,0-0.3,0.1c-1.3,0.8-2.7,1-4.3,0.5
		c-0.4-0.1-0.7-0.4-1.1-0.3c-0.1-0.1-0.1-0.1-0.3-0.2c0-0.3-0.2-0.4-0.5-0.4l0,0c-0.4-0.9-0.8-1.8-1-2.8c-0.1-0.4,0.3-0.8,0-1.2
		c0-0.1,0-0.2,0-0.3c0.1,0,0.3-0.1,0.3-0.3c0.2-0.9,0.8-1.6,1.5-2.2c2.5-2.5,5.1-5.1,7.6-7.6c0.2-0.2,0.5-0.4,0.4-0.8
		c0.1-0.2,0.3-0.4,0.5-0.6c4.2-4.2,8.3-8.3,12.5-12.5c2.3-2.3,4.5-4.6,6.8-6.9c1.3-1.3,2.6-2.5,3.9-3.8c1.8-1.8,4.6-2.2,6.6-0.6
		c0.7,0.6,1.3,1.3,2,1.9c1.2,1.2,2.3,2.4,3.6,3.5c0.9,1.2,2.2,2.2,3.2,3.3c0.4,0.4,0.6,0.4,0.9,0c3.4-3.4,6.9-6.9,10.3-10.3
		c0.2-0.2,0.3-0.4,0.5-0.6c0-0.1,0.1-0.1,0.1-0.2l0,0c0,0,0.1-0.1,0.1-0.1c0,0,0.1-0.1,0.1-0.1c0,0,0.1-0.1,0.1-0.1
		c0,0,0.1-0.1,0.1-0.1c0,0,0.1-0.1,0.1-0.1c0,0,0.1-0.1,0.1-0.1s0.1-0.1,0.1-0.1c0,0,0.1-0.1,0.1-0.1c0,0,0.1-0.1,0.1-0.1
		s0.1-0.1,0.1-0.1c0,0,0.1-0.1,0.1-0.1c0,0,0.1-0.1,0.1-0.1c0,0,0.1-0.1,0.1-0.1s0.1-0.1,0.1-0.1s0.1-0.1,0.1-0.1
		c0,0,0.1-0.1,0.1-0.1c0,0,0.1-0.1,0.1-0.1c0,0,0.1-0.1,0.1-0.1c0,0,0.1-0.1,0.1-0.1c0,0,0.1-0.1,0.1-0.1c0,0,0.1-0.1,0.1-0.1
		c0,0,0.1-0.1,0.1-0.1c0,0,0.1-0.1,0.1-0.1c0,0,0.1-0.1,0.1-0.1c0,0,0.1-0.1,0.1-0.1c0,0,0.1-0.1,0.1-0.1c0,0,0.1-0.1,0.1-0.1
		s0.1-0.1,0.1-0.1s0.1-0.1,0.1-0.1c0,0,0.1-0.1,0.1-0.1c0,0,0.1-0.1,0.1-0.1c0,0,0.1-0.1,0.1-0.1c0,0,0.1-0.1,0.1-0.1
		c0,0,0.1-0.1,0.1-0.1c0,0,0.1-0.1,0.1-0.1c0,0,0.1-0.1,0.1-0.1c0,0,0.1-0.1,0.1-0.1c0,0,0.1-0.1,0.1-0.1c0,0,0.1-0.1,0.1-0.1
		c0,0,0.1-0.1,0.1-0.1c0,0,0.1-0.1,0.1-0.1s0.1-0.1,0.1-0.1s0.1-0.1,0.1-0.1c0,0,0.1-0.1,0.1-0.1c0,0,0.1-0.1,0.1-0.1
		c0,0,0.1-0.1,0.1-0.1c0,0,0.1-0.1,0.1-0.1c0,0,0.1-0.1,0.1-0.1c0,0,0.1-0.1,0.1-0.1c0,0,0.1-0.1,0.1-0.1c0,0,0.1-0.1,0.1-0.1
		c0,0,0.1-0.1,0.1-0.1c0,0,0.1-0.1,0.1-0.1c0,0,0.1-0.1,0.1-0.1c0,0,0.1-0.1,0.1-0.1s0.1-0.1,0.1-0.1c0,0,0.1-0.1,0.1-0.1
		c0,0,0.1-0.1,0.1-0.1c0,0,0.1-0.1,0.1-0.1c0,0,0.1-0.1,0.1-0.1c0,0,0.1-0.1,0.1-0.1c0,0,0.1-0.1,0.1-0.1c0,0,0.1-0.1,0.1-0.1
		c0,0,0.1-0.1,0.1-0.1c0,0,0.1-0.1,0.1-0.1c0,0,0.1-0.1,0.1-0.1c0,0,0.1-0.1,0.1-0.1c0,0,0.1-0.1,0.1-0.1c0,0,0.1-0.1,0.1-0.1
		s0.1-0.1,0.1-0.1c0,0,0.1-0.1,0.1-0.1c0,0,0.1-0.1,0.1-0.1c0,0,0.1-0.1,0.1-0.1c0,0,0.1-0.1,0.1-0.1c0,0,0.1-0.1,0.1-0.1
		c0,0,0.1-0.1,0.1-0.1c0,0,0.1-0.1,0.1-0.1c0,0,0.1-0.1,0.1-0.1c0,0,0.1-0.1,0.1-0.1c0,0,0.1-0.1,0.1-0.1c0,0,0.1-0.1,0.1-0.1
		c0,0,0.1-0.1,0.1-0.1c0,0,0.1-0.1,0.1-0.1s0.1-0.1,0.1-0.1s0.1-0.1,0.1-0.1c0,0,0.1-0.1,0.1-0.1c0,0,0.1-0.1,0.1-0.1
		c0,0,0.1-0.1,0.1-0.1c0,0,0.1-0.1,0.1-0.1c0,0,0.1-0.1,0.1-0.1c0,0,0.1-0.1,0.1-0.1c0,0,0.1-0.1,0.1-0.1c0,0,0.1-0.1,0.1-0.1
		c0,0,0.1-0.1,0.1-0.1c0,0,0.1-0.1,0.1-0.1c0,0,0.1-0.1,0.1-0.1c0,0,0.1-0.1,0.1-0.1c0,0,0.1-0.1,0.1-0.1s0.1-0.1,0.1-0.1
		c0,0,0.1-0.1,0.1-0.1c0,0,0.1-0.1,0.1-0.1c0.3,0,0.4-0.3,0.6-0.4c1.5-1.5,3-3,4.5-4.5c1.3-1.3,2.9-1.8,4.8-1.3
		c0.2,0.1,0.4,0.1,0.6,0.1C124.7,273.4,124.9,273.7,125.2,273.7z"/>
	<path class="st4" d="M67.7,300.9c-2.2,2.3-4.5,4.6-6.8,6.9c-4.2,4.2-8.3,8.3-12.5,12.5c-0.2,0.2-0.3,0.4-0.5,0.6c0,0-0.1,0-0.1,0
		c-0.5-1.5-1.1-3-1.5-4.5c-1-3.6-1.6-7.2-1.8-11c-0.1-4,0.1-7.9,1-11.7c1-4.6,2.7-9,5.1-13c2.3-4,5.1-7.6,8.5-10.7
		c2.6-2.4,5.4-4.5,8.5-6.2c0.1,0,0.1,0,0.2,0C67.7,276,67.7,288.5,67.7,300.9z"/>
	<path class="st5" d="M114.4,342.2c0,0-0.1,0.1-0.1,0.1c-0.1,0-0.3,0-0.4,0c0-15.6,0-31.3,0-46.9c0-0.1,0-0.2,0-0.3
		c2.1-2.2,4.3-4.3,6.4-6.5c0.6-0.7,1.3-1.3,2-1.9c0.4,0,0.6,0.2,0.8,0.4c1.8,1.8,3.7,3.7,5.5,5.5c0.8,0.8,1.5,1.6,2.7,1.9
		c0,9.6,0,19.1,0,28.7c0,0.1,0,0.2,0,0.3c0,0.1-0.1,0.1-0.1,0.2c-0.5,0.4-0.6,0.9-0.8,1.5c0,0,0,0.1,0,0.1c-0.5,0.4-0.8,1-1,1.6
		c-0.1,0.1-0.1,0.3-0.2,0.4c-0.2,0-0.3,0.1-0.2,0.3c0,0,0,0.1-0.1,0.1c-0.2,0-0.3,0.1-0.2,0.3c0,0,0,0.1-0.1,0.1
		c-0.4,0.3-0.7,0.7-0.8,1.2c0,0,0,0.1-0.1,0.1c-0.2,0-0.3,0.1-0.2,0.3c-0.1,0.1-0.1,0.2-0.2,0.3c-0.2,0-0.3,0.1-0.2,0.3
		c0,0-0.1,0.1-0.1,0.1c-0.2,0.1-0.4,0.2-0.4,0.5c-0.1,0.1-0.1,0.2-0.2,0.3c-0.2,0.1-0.4,0.2-0.4,0.5c-0.1,0.1-0.1,0.2-0.2,0.3
		c-0.2,0-0.3,0.1-0.2,0.3c-0.2,0.2-0.3,0.4-0.5,0.6c-0.3,0.1-0.5,0.3-0.5,0.6c-0.4,0.4-0.7,0.8-1.1,1.2c-0.7,0.4-1.3,1-1.8,1.7
		c-0.3,0.3-0.7,0.6-1,0.9c-0.3,0-0.5,0.2-0.6,0.5c-0.1,0.1-0.3,0.2-0.4,0.3c-0.3,0-0.4,0.1-0.4,0.4c-0.1,0.1-0.2,0.1-0.3,0.2
		c-0.3,0-0.4,0.1-0.4,0.4c-0.1,0.1-0.2,0.1-0.3,0.2c-0.3,0-0.4,0.1-0.5,0.3c0,0-0.1,0.1-0.1,0.1c-0.2,0-0.3,0-0.3,0.2
		c-0.1,0.1-0.2,0.1-0.3,0.2c-0.2,0-0.3,0-0.3,0.2c0,0-0.1,0.1-0.1,0.1c-0.6,0.2-1.2,0.6-1.6,1.1c0,0-0.1,0.1-0.1,0.1
		C114.5,342,114.4,342.1,114.4,342.2z"/>
	<path class="st6" d="M113.8,295.4c0,15.6,0,31.3,0,46.9c-0.3,0.4-0.9,0.3-1,0.8c-0.9,0.6-1.8,1-2.8,1.5c-0.2,0-0.3,0-0.4,0.2
		c-0.4,0.2-0.8,0.3-1.2,0.5c-0.1-0.1-0.2,0-0.3,0c-1.5,0.7-3.1,1.2-4.7,1.8c-0.9,0.3-1.8,0.4-2.6,0.8c-0.1,0-0.2,0-0.3,0
		c-0.6,0.1-1.2,0.1-1.8,0.2c0-12.2,0-24.4,0-36.7c0-0.4,0-0.8-0.1-1.2c0.9-1.2,2.1-2.1,3.1-3.2c1.6-1.7,3.3-3.3,5-4.9
		c0.4,0,0.5-0.3,0.7-0.5C109.6,299.6,111.7,297.5,113.8,295.4z"/>
	<path class="st7" d="M98.8,294.4c-0.1,0.2-0.3,0.4-0.5,0.6c-3.4,3.4-6.9,6.9-10.3,10.3c-0.4,0.4-0.6,0.4-0.9,0
		c-1-1.2-2.2-2.1-3.2-3.3c0.3-0.3,0.2-0.6,0.2-1c0-11.8,0-23.5,0-35.3c0-0.6,0-1.3-0.1-1.9c0.2-0.4,0.2-0.9,0-1.3
		c0.1-0.9-0.2-1.8-0.1-2.7c0.2-0.2,0.2-0.4,0-0.6c0-0.3,0-0.7,0-1c0.8-0.1,1.6-0.3,2.4-0.3c0.3,0,0.6,0.1,0.7-0.3c2.2,0,4.5,0,6.8,0
		c0,0.2,0.2,0.2,0.4,0.3c1.2,0,2.4,0.2,3.5,0.4c0.2,0,0.4,0.1,0.6-0.1c0.1,0,0.2,0,0.3,0c0.1,0.1,0.2,0.2,0.3,0.3
		c0,11.5,0,23,0,34.5c0,0.3,0,0.6,0.1,0.9c0,0,0,0.1,0,0.1l0,0C98.9,294.3,98.9,294.3,98.8,294.4z"/>
	<path class="st8" d="M83.9,263.8c0.2,0.6,0.1,1.3,0.1,1.9c0,11.8,0,23.5,0,35.3c0,0.3,0.1,0.7-0.2,1c-1.3-1.1-2.4-2.4-3.6-3.5
		c-0.7-0.6-1.3-1.3-2-1.9c-2.1-1.6-4.9-1.2-6.6,0.6c-1.3,1.3-2.6,2.5-3.9,3.8c0-12.4,0-24.9,0-37.3c0.1-0.1,0.3-0.1,0.4-0.2
		c0.2,0,0.3,0,0.4-0.3c0.1,0,0.1,0,0.2,0c0.2,0,0.4,0,0.4-0.3c0.4-0.2,0.9-0.6,1.4-0.6c0.2,0,0.4,0,0.4-0.3c0.1,0,0.1,0,0.2,0
		c0.2,0,0.3,0,0.4-0.2c0.1-0.1,0.3-0.2,0.5-0.2c0.9-0.2,1.7-0.4,2.4-1c0.1,0,0.3-0.1,0.4-0.1c0.2,0.2,0.3,0.1,0.3-0.1
		c0.2-0.1,0.4-0.2,0.6-0.2c0.2,0.2,0.3,0.1,0.3-0.1c0.1,0,0.3-0.1,0.4-0.1c0.6,0,1.3,0,1.8-0.6c0.1,0,0.2,0,0.3,0
		c0.4,0.3,0.7,0.1,0.9-0.3c0.1,0,0.3,0,0.4,0c0.4,0.3,0.6,0.1,0.7-0.2c0.2,0,0.4,0,0.6-0.1c0.4,0.3,0.6,0,0.9-0.2c0.1,0,0.2,0,0.3,0
		c0.5,0.3,1,0,1.4,0c0,0.3,0,0.7,0,1c-0.1,0.2-0.1,0.4,0,0.6c0,0.9,0.3,1.8,0.1,2.7C83.7,263,83.7,263.4,83.9,263.8z"/>
	<path class="st9" d="M83.9,348.6c-0.1,0-0.1,0-0.2,0.1c-0.1,0-0.2,0-0.3,0c0-0.2-0.1-0.3-0.3-0.1c-0.1,0-0.3,0-0.4,0
		c-0.1,0-0.3,0-0.4,0c-0.1-0.1-0.3-0.1-0.4-0.1c-0.1,0-0.2,0-0.3,0c-0.1-0.1-0.3-0.1-0.4-0.1c-0.1,0-0.3,0-0.4,0
		c-0.3-0.1-0.6-0.3-0.9-0.2c-0.1,0-0.3,0-0.4,0c0-0.2-0.2-0.2-0.4-0.3c-1.8-0.5-3.5-0.9-5.2-1.6c-0.6-0.3-1.2-0.7-1.9-0.7
		c-0.3,0-0.5-0.1-0.7-0.3c-0.8-0.6-1.7-1-2.7-1.3c-0.1-0.1-0.3-0.1-0.4-0.2c-0.1-0.3-0.3-0.3-0.6-0.4c0,0-0.1,0-0.1-0.1
		c0-0.1-0.1-0.1-0.1-0.2c0-0.4,0-0.7,0-1.1c0.3-1.8,0.3-3.6,0.4-5.3c0.1-1.8,0-3.7,0-5.6c0-2.2,0-4.4,0-6.6c0-2.1,0-4.1,0-6.2
		c0-0.3,0.1-0.6-0.3-0.7c0.1-0.1,0.2-0.3,0.3-0.4c0.3,0,0.4-0.3,0.6-0.4c1.6-1.6,3.3-3.3,5-5c0.7-0.7,1.4-1.3,2-2.1
		c0.5,0.2,0.8,0.7,1.2,1c0,0.3,0.1,0.4,0.4,0.4c0.3,0.3,0.7,0.7,1,1c0,0.3,0.1,0.4,0.4,0.4c0.3,0.3,0.7,0.7,1,1
		c0,0.3,0.3,0.5,0.6,0.6c0.3,0.3,0.6,0.6,0.9,0.9c0,0.3,0.1,0.4,0.4,0.4c0.3,0.3,0.7,0.7,1,1c0,0.3,0.1,0.4,0.4,0.4
		c0.4,0.4,0.9,0.9,1.3,1.3c0.1,0.1,0.2,0.2,0.3,0.3c-0.5,0.1-0.3,0.5-0.3,0.8c0,6.2,0,12.3,0,18.5c0,1.8,0,3.7,0,5.5
		C84.1,344.9,83.8,346.7,83.9,348.6z"/>
	<path class="st4" d="M67.2,317.2c0.4,0.1,0.3,0.4,0.3,0.7c0,2.1,0,4.1,0,6.2c0,2.2,0,4.4,0,6.6c0,1.9,0,3.7,0,5.6
		c-0.1,1.8-0.1,3.6-0.4,5.3c-0.1,0.4,0,0.7,0,1.1c-0.6-0.2-1-0.7-1.6-0.9c0,0-0.1,0-0.1-0.1c0-0.1-0.1-0.2-0.3-0.2c0,0-0.1,0-0.1,0
		c-0.1-0.3-0.4-0.5-0.7-0.5c0,0-0.1,0-0.1-0.1c-0.1-0.4-0.5-0.6-0.9-0.7c0,0-0.1,0-0.1,0c0-0.3-0.2-0.4-0.4-0.4
		c-0.1-0.1-0.2-0.1-0.3-0.2c0-0.2-0.1-0.3-0.3-0.3c-0.1-0.1-0.2-0.1-0.3-0.2c0-0.3-0.2-0.4-0.4-0.4c-0.1-0.1-0.3-0.2-0.4-0.3
		c-0.1-0.3-0.3-0.5-0.6-0.5c-0.1-0.1-0.3-0.2-0.4-0.3c-0.1-0.4-0.4-0.7-0.9-0.8c-0.7-0.6-1.3-1.2-1.9-1.9c-0.2-0.5-0.5-0.8-1-1
		c-0.1-0.1-0.2-0.3-0.3-0.4c0-0.3-0.1-0.4-0.4-0.4c-0.1-0.1-0.2-0.3-0.3-0.4c0-0.3-0.1-0.4-0.4-0.4c-0.1,0-0.2-0.1-0.2-0.3
		c0-0.3-0.1-0.4-0.4-0.4c0,0,0-0.1-0.1-0.1c0-0.1,0-0.3,0-0.5c0.2-0.2,0.4-0.5,0.6-0.7c0.3,0,0.4-0.1,0.4-0.4c0.3-0.3,0.7-0.7,1-1
		c0.3,0,0.4-0.1,0.4-0.4c0.3-0.3,0.7-0.7,1-1c0.3,0,0.4-0.1,0.4-0.4c0.3-0.3,0.7-0.7,1-1c0.3,0,0.4-0.1,0.4-0.4
		c0.3-0.3,0.6-0.6,0.9-0.9c0.3-0.1,0.5-0.2,0.6-0.6c0.3-0.3,0.6-0.6,0.9-0.9c0.3-0.1,0.5-0.2,0.6-0.6c0.3-0.3,0.6-0.6,0.9-0.9
		c0.3-0.1,0.5-0.3,0.6-0.6c0.3-0.3,0.6-0.6,0.9-0.9c0.3-0.1,0.5-0.2,0.6-0.6c0.3-0.3,0.6-0.6,0.9-0.9c0.3-0.1,0.5-0.3,0.6-0.6
		C66.9,317.6,67.1,317.4,67.2,317.2z"/>
	<path class="st10" d="M131.3,323.3c0-9.6,0-19.1,0-28.7c0.3,0,0.6,0,0.9,0.2c0.2,0.1,0.5,0.1,0.6,0.1c0.5-0.3,1-0.2,1.5-0.4
		c0.4-0.2,0.6-0.1,0.7,0.4c0.4,2,0.6,4,0.8,6.1c0.2,4.1-0.1,8.1-0.9,12.1c-0.6,2.6-1.3,5.1-2.4,7.6c-0.3,0.6-0.6,1.2-0.7,1.8
		c0,0,0,0.1,0,0.1c-0.3,0-0.4,0.2-0.3,0.5c0,0.1-0.1,0.1-0.1,0.2C131.4,323.3,131.3,323.3,131.3,323.3z"/>
	<path class="st11" d="M129,290.6c0.3,0,0.5,0.3,0.7,0.4c1.9,1.6,4.6,1.2,6.1-0.3c2.8-2.7,5.5-5.5,8.2-8.2c0.3-0.3,0.4-0.4,0-0.8
		c-2.1-1.9-2.1-5-0.3-7c1.8-2,5.4-2,7.2,0.1c0.4,0.4,0.5,0.3,0.8,0c0.8-0.7,1.4-1.6,2.3-2.1c0,0.3-0.3,0.5-0.5,0.7
		c-5.8,5.8-11.6,11.6-17.4,17.4c-1.6,1.6-3.5,2-5.6,1.2C130.1,291.6,129.4,291.2,129,290.6z"/>
	<path class="st11" d="M85.1,316.3c0.5-0.1,1,0.2,1.5,0.3c1.3,0.4,2.5,0,3.6-0.6c0.4-0.2,0.8-0.6,1.2-1
		c10.2-10.2,20.4-20.4,30.6-30.6c0.2-0.2,0.4-0.8,0.8-0.1c-0.4,0-0.6,0.3-0.8,0.5c-10.1,10.1-20.2,20.2-30.3,30.3
		c-1,1-2,1.8-3.4,1.9C87,317.1,86,317,85.1,316.3z"/>
	<path class="st12" d="M131.9,322.4c0.1-0.7,0.4-1.2,0.7-1.8c1-2.4,1.8-5,2.4-7.6c0.9-4,1.2-8.1,0.9-12.1c-0.1-2.1-0.3-4.1-0.8-6.1
		c-0.1-0.5-0.3-0.5-0.7-0.4c-0.5,0.2-1,0.1-1.5,0.4c-0.1,0.1-0.4,0.1-0.6-0.1c-0.3-0.2-0.6-0.2-0.9-0.2c-1.1-0.3-1.9-1.1-2.7-1.9
		c-1.8-1.8-3.7-3.7-5.5-5.5c-0.2-0.2-0.4-0.5-0.8-0.4c0.3-0.5,0.6-0.1,0.8,0.1c1.8,1.8,3.6,3.6,5.4,5.4c0.6,0.6,1.2,1.2,1.9,1.7
		c0.3,0.3,0.7,0.2,1.1,0.4c1.1,0.5,2.2,0.1,3.2-0.3c0.5-0.2,0.5,0,0.6,0.4c0.3,1.3,0.5,2.7,0.6,4.2c0.3,4.4,0.3,8.8-0.5,13.1
		c-0.7,3.6-1.8,7.1-3.3,10.5C132.1,322.2,132,322.4,131.9,322.4z"/>
	<path class="st11" d="M45.7,336.1c0-0.3,0.2-0.4,0.3-0.5c9.5-9.5,19-19.1,28.6-28.6c0.2-0.2,0.5-0.7,0.9-0.1
		c-0.4-0.1-0.6,0.2-0.9,0.4c-9.4,9.4-18.8,18.8-28.1,28.1C46.3,335.7,46.1,336.1,45.7,336.1z"/>
	<path class="st12" d="M98.8,258.7c-0.1-0.1-0.2-0.2-0.3-0.3c0.9-0.1,1.8,0.3,2.7,0.5c9.1,2.3,16.8,6.9,23.1,13.8
		c0.3,0.3,0.7,0.6,0.9,1c-0.3,0-0.5-0.4-0.8-0.4c-0.1-0.1-0.1-0.3-0.3-0.4c-1.1-1.3-2.4-2.5-3.7-3.7c-2-1.8-4.1-3.3-6.4-4.7
		c-0.3-0.2-0.6-0.3-0.9-0.5c-1.7-1-3.4-1.8-5.2-2.5c-1.8-0.7-3.6-1.5-5.6-1.9C101.2,259.2,100.1,258.7,98.8,258.7z"/>
	<path class="st11" d="M154.2,266.4c-0.2,0-0.3,0-0.5-0.1c-2.1-1.6-4.5-1.4-6.3,0.4c-4.7,4.7-9.5,9.5-14.2,14.2
		c-0.3,0.3-0.7,0.8-0.9-0.1c0.4,0.2,0.7-0.1,0.9-0.3c4.5-4.5,9.1-9.1,13.6-13.6c1-1,2-1.9,3.5-2
		C151.8,264.8,153.2,265.1,154.2,266.4z"/>
	<path class="st11" d="M47.8,320.8c0,0,0.1,0,0.1,0c0,0.4-0.3,0.6-0.4,0.8c-2.5,2.5-5.1,5.1-7.6,7.6c-0.6,0.6-1.3,1.3-1.5,2.2
		c0,0.1-0.1,0.3-0.3,0.3c0-1,0.6-1.7,1.3-2.4c2.6-2.6,5.2-5.2,7.8-7.9C47.5,321.2,47.6,321,47.8,320.8z"/>
	<path class="st11" d="M75.5,306.9c0.3,0,0.5,0.3,0.7,0.5c2.6,2.5,5.1,5.1,7.7,7.7c0.3,0.4,0.9,0.5,1,1c-0.4-0.1-0.7-0.4-1-0.7
		c-2.7-2.7-5.4-5.4-8.1-8.1C75.7,307.3,75.5,307.1,75.5,306.9z"/>
	<path class="st2" d="M75.2,309.2c-0.6,0.8-1.3,1.4-2,2.1c-1.6,1.7-3.3,3.3-5,5c-0.2,0.2-0.3,0.4-0.6,0.4c0-0.3,0.2-0.4,0.4-0.6
		c2.2-2.2,4.5-4.5,6.7-6.7C74.8,309.4,74.9,309,75.2,309.2z"/>
	<path class="st12" d="M113.8,295.4c-2.1,2.1-4.2,4.2-6.3,6.3c-0.2,0.2-0.4,0.5-0.7,0.5c0.1-0.4,0.5-0.6,0.8-0.9
		c1.9-1.9,3.8-3.9,5.8-5.8c0.1-0.1,0.3-0.4,0.5-0.4C113.8,295.2,113.8,295.3,113.8,295.4z"/>
	<path class="st2" d="M71.8,345.2c0.7,0,1.3,0.4,1.9,0.7c1.7,0.7,3.4,1.1,5.2,1.6c0.2,0,0.3,0.1,0.4,0.3c-0.6,0.1-1.1-0.2-1.6-0.3
		c-1.8-0.5-3.6-1.2-5.3-1.9C72.1,345.6,71.9,345.5,71.8,345.2z"/>
	<path class="st2" d="M100.9,347.9c0.8-0.4,1.8-0.5,2.6-0.8c1.6-0.5,3.1-1.1,4.7-1.8c0.1,0,0.2-0.1,0.3,0c-0.6,0.6-1.4,0.7-2.1,1
		c-1.6,0.6-3.3,1.2-5,1.6C101.1,348,101,348.1,100.9,347.9z"/>
	<path class="st11" d="M39.8,336.6c0.4-0.1,0.7,0.2,1.1,0.3c1.5,0.5,2.9,0.3,4.3-0.5c0.1-0.1,0.2,0,0.3-0.1c-0.9,1-2.1,1.2-3.3,1.2
		C41.4,337.4,40.4,337.3,39.8,336.6z"/>
	<path class="st12" d="M98.2,258.3c-0.2,0.1-0.4,0.1-0.6,0.1c-1.2-0.2-2.3-0.4-3.5-0.4c-0.2,0-0.3,0-0.4-0.3
		C95.2,257.6,96.7,257.8,98.2,258.3z"/>
	<path class="st4" d="M83.8,258.3c-0.5,0-0.9,0.3-1.4,0c1.5-0.5,3-0.7,4.6-0.6c-0.1,0.4-0.4,0.2-0.7,0.3
		C85.4,258,84.5,258.1,83.8,258.3z"/>
	<path class="st11" d="M38.1,332c0.3,0.4-0.1,0.7,0,1.2c0.2,1,0.6,1.9,1,2.8c-0.3-0.1-0.6-0.4-0.6-0.7c-0.3-0.7-0.4-1.5-0.6-2.2
		C37.7,332.6,37.8,332.2,38.1,332z"/>
	<path class="st11" d="M124.5,286c1,0.7,1.9,1.6,2.7,2.7C126.1,287.9,125.2,287,124.5,286z"/>
	<path class="st11" d="M154.3,272.5c0.4-0.8,0.6-1.7,1.1-2.4C155.2,271,155.1,271.9,154.3,272.5z"/>
	<path class="st2" d="M68.4,343.6c0.9,0.4,1.8,0.8,2.7,1.3C70.1,344.8,69.2,344.3,68.4,343.6z"/>
	<path class="st11" d="M155.3,268.9c-0.2,0-0.3-0.2-0.3-0.4c0-0.8-0.6-1.3-0.8-2.1C155.1,267.1,155.3,268,155.3,268.9z"/>
	<path class="st12" d="M121.6,336.7c0.4-0.7,1-1.3,1.8-1.7C122.9,335.6,122.4,336.2,121.6,336.7z"/>
	<path class="st4" d="M74.3,260.5c-0.7,0.6-1.6,0.8-2.4,1C72.6,260.9,73.5,260.7,74.3,260.5z"/>
	<path class="st2" d="M65.5,341.9c0.6,0.1,1,0.7,1.6,0.9c0,0.1,0.1,0.1,0.1,0.2C66.6,342.8,66,342.5,65.5,341.9z"/>
	<path class="st12" d="M114.8,341.9c0.4-0.5,1-0.9,1.6-1.1C116.1,341.4,115.5,341.7,114.8,341.9z"/>
	<path class="st12" d="M112.8,343.1c0.1-0.6,0.7-0.5,1-0.8c0.1,0,0.3,0,0.4,0C113.9,342.8,113.4,343,112.8,343.1z"/>
	<path class="st2" d="M87.8,319.4c-0.6,0.3-1.2-0.1-1.7-0.3C86.7,318.9,87.3,319.1,87.8,319.4z"/>
	<path class="st12" d="M129.3,327.2c0.1-0.6,0.5-1.2,1-1.6C130.1,326.1,129.9,326.7,129.3,327.2z"/>
	<path class="st4" d="M78.2,259.2c-0.5,0.6-1.1,0.6-1.8,0.6C76.9,259.4,77.6,259.3,78.2,259.2z"/>
	<path class="st12" d="M130.4,325.4c0.2-0.6,0.3-1.1,0.8-1.5C131.1,324.5,130.8,324.9,130.4,325.4z"/>
	<path class="st11" d="M127.6,289.1c0.5,0.2,0.8,0.5,1,1C128.1,289.9,127.8,289.5,127.6,289.1z"/>
	<path class="st2" d="M56,333.7c0.4,0.2,0.8,0.5,1,1C56.5,334.6,56.1,334.3,56,333.7z"/>
	<path class="st12" d="M127.7,329.6c0.1-0.5,0.4-0.9,0.8-1.2C128.4,328.9,128.2,329.4,127.7,329.6z"/>
	<path class="st11" d="M123.3,284.8c0.4,0.1,0.7,0.4,0.9,0.9C123.8,285.5,123.5,285.2,123.3,284.8z"/>
	<path class="st11" d="M130.1,278.6c-0.5-0.1-0.8-0.4-0.9-0.9C129.6,277.9,129.9,278.2,130.1,278.6z"/>
	<path class="st2" d="M58.9,336.7c0.4,0.1,0.7,0.4,0.9,0.8C59.3,337.5,59,337.1,58.9,336.7z"/>
	<path class="st2" d="M90.4,318.3c-0.1,0.5-0.6,0.6-1,0.7C89.6,318.6,90,318.4,90.4,318.3z"/>
	<path class="st2" d="M63.2,340.2c0.4,0.1,0.7,0.3,0.9,0.7C63.6,340.8,63.3,340.7,63.2,340.2z"/>
	<path class="st11" d="M131.6,280.1c-0.4,0-0.7-0.3-0.7-0.7C131.2,279.5,131.4,279.7,131.6,280.1z"/>
	<path class="st11" d="M127.2,275.6c-0.4,0-0.7-0.3-0.7-0.7C126.8,275,127,275.3,127.2,275.6z"/>
	<path class="st2" d="M88.8,319.1c-0.2,0.4-0.6,0.1-0.9,0.2C88.1,318.8,88.5,319.1,88.8,319.1z"/>
	<path class="st4" d="M79.3,258.9c-0.2,0.4-0.5,0.6-0.9,0.3C78.7,258.9,79,258.9,79.3,258.9z"/>
	<path class="st2" d="M64.2,341c0.3,0.1,0.6,0.2,0.7,0.5C64.5,341.5,64.2,341.4,64.2,341z"/>
	<path class="st4" d="M82,258.3c-0.3,0.3-0.5,0.5-0.9,0.2C81.4,258.3,81.7,258.3,82,258.3z"/>
	<path class="st2" d="M79.8,347.9c0.3-0.1,0.6,0.1,0.9,0.2C80.3,348.3,80,348.2,79.8,347.9z"/>
	<path class="st2" d="M63.7,320.7c-0.1,0.3-0.3,0.5-0.6,0.6C63.2,320.9,63.4,320.7,63.7,320.7z"/>
	<path class="st2" d="M65.2,319.2c-0.1,0.3-0.3,0.5-0.6,0.6C64.7,319.4,64.9,319.2,65.2,319.2z"/>
	<path class="st12" d="M120,338.1c0.1-0.3,0.3-0.5,0.6-0.5C120.5,337.9,120.3,338.1,120,338.1z"/>
	<path class="st2" d="M66.7,317.7c-0.1,0.3-0.3,0.5-0.6,0.6C66.2,317.9,66.3,317.7,66.7,317.7z"/>
	<path class="st2" d="M79.9,313.9c-0.3,0-0.5-0.3-0.6-0.6C79.7,313.3,79.9,313.5,79.9,313.9z"/>
	<path class="st12" d="M124.5,333.7c0-0.3,0.2-0.5,0.5-0.6C125,333.4,124.8,333.6,124.5,333.7z"/>
	<path class="st4" d="M80.5,258.6c-0.2,0.3-0.4,0.5-0.7,0.2C80,258.7,80.2,258.6,80.5,258.6z"/>
	<path class="st11" d="M128.5,277c-0.4,0-0.6-0.2-0.6-0.6C128.2,276.5,128.4,276.7,128.5,277z"/>
	<path class="st2" d="M60.8,323.6c-0.1,0.3-0.3,0.5-0.6,0.6C60.3,323.8,60.4,323.6,60.8,323.6z"/>
	<path class="st2" d="M60.2,337.9c0.3,0,0.5,0.2,0.6,0.5C60.4,338.4,60.3,338.2,60.2,337.9z"/>
	<path class="st2" d="M62.3,322.1c-0.1,0.3-0.3,0.5-0.6,0.6C61.7,322.4,61.9,322.2,62.3,322.1z"/>
	<path class="st11" d="M155.4,269.8c-0.2-0.2-0.2-0.4,0-0.6C155.6,269.4,155.6,269.6,155.4,269.8z"/>
	<path class="st11" d="M125.9,274.3c-0.3,0-0.5-0.1-0.5-0.4C125.6,273.9,125.8,274.1,125.9,274.3z"/>
	<path class="st2" d="M67.4,343c0.3,0,0.5,0.1,0.6,0.4C67.7,343.4,67.5,343.4,67.4,343z"/>
	<path class="st2" d="M82.7,316.7c-0.3,0-0.4-0.1-0.4-0.4C82.6,316.3,82.7,316.4,82.7,316.7z"/>
	<path class="st2" d="M54.9,329.5c0,0.3-0.1,0.4-0.4,0.4C54.5,329.7,54.6,329.5,54.9,329.5z"/>
	<path class="st2" d="M62.6,339.8c0.3,0,0.4,0.1,0.4,0.4C62.7,340.2,62.6,340,62.6,339.8z"/>
	<path class="st12" d="M117.7,340c0.1-0.2,0.2-0.4,0.5-0.3C118.1,339.9,117.9,340,117.7,340z"/>
	<path class="st12" d="M118.4,339.4c0.1-0.3,0.2-0.4,0.4-0.4C118.8,339.3,118.7,339.4,118.4,339.4z"/>
	<path class="st2" d="M53.9,331.2c0.3,0,0.4,0.2,0.4,0.4C54,331.6,53.9,331.5,53.9,331.2z"/>
	<path class="st2" d="M61.2,338.8c0.3,0,0.4,0.1,0.4,0.4C61.4,339.2,61.2,339,61.2,338.8z"/>
	<path class="st2" d="M76.8,310.7c-0.3,0-0.4-0.1-0.4-0.4C76.7,310.3,76.8,310.5,76.8,310.7z"/>
	<path class="st2" d="M78.3,312.2c-0.3,0-0.4-0.1-0.4-0.4C78.1,311.8,78.3,311.9,78.3,312.2z"/>
	<path class="st2" d="M81.2,315.2c-0.3,0-0.4-0.1-0.4-0.4C81.1,314.8,81.2,314.9,81.2,315.2z"/>
	<path class="st12" d="M119.1,338.8c0.1-0.3,0.2-0.4,0.4-0.4C119.5,338.7,119.4,338.8,119.1,338.8z"/>
	<path class="st12" d="M126.5,331.2c0-0.3,0.1-0.4,0.4-0.5C126.9,331,126.8,331.2,126.5,331.2z"/>
	<path class="st11" d="M39.1,336c0.3,0,0.4,0.1,0.5,0.4C39.3,336.4,39.1,336.2,39.1,336z"/>
	<path class="st2" d="M55.2,332.8c0.3,0,0.4,0.2,0.4,0.4C55.4,333.3,55.2,333.1,55.2,332.8z"/>
	<path class="st12" d="M131.6,323c-0.1-0.3-0.1-0.4,0.3-0.5C131.9,322.8,131.8,322.9,131.6,323z"/>
	<path class="st2" d="M59.3,325.1c0,0.3-0.1,0.4-0.4,0.4C58.9,325.2,59,325.1,59.3,325.1z"/>
	<path class="st2" d="M57.8,326.6c0,0.3-0.1,0.4-0.4,0.4C57.4,326.7,57.6,326.6,57.8,326.6z"/>
	<path class="st2" d="M54.5,332c0.3,0,0.4,0.2,0.4,0.4C54.6,332.4,54.5,332.2,54.5,332z"/>
	<path class="st2" d="M56.3,328.1c0,0.3-0.1,0.4-0.4,0.4C56,328.2,56.1,328.1,56.3,328.1z"/>
	<path class="st12" d="M125.9,332c0-0.3,0.1-0.4,0.4-0.5C126.3,331.8,126.2,331.9,125.9,332z"/>
	<path class="st2" d="M81.8,348.4c0.1,0,0.3,0,0.4,0.1C82.1,348.7,82,348.6,81.8,348.4z"/>
	<path class="st2" d="M53.8,330.6c0,0.1,0,0.3,0,0.5C53.5,331,53.5,330.8,53.8,330.6z"/>
	<path class="st2" d="M84.4,318.3c-0.1-0.1-0.2-0.2-0.3-0.3c0.2,0.1,0.5,0,0.6,0.3C84.5,318.3,84.5,318.3,84.4,318.3z"/>
	<path class="st2" d="M82.7,348.5c0.1,0,0.3,0,0.4,0c0,0,0,0.1,0,0.1C83,348.8,82.8,348.8,82.7,348.5z"/>
	<path class="st2" d="M81.1,348.2c0.1,0,0.3,0,0.4,0.1C81.3,348.6,81.2,348.5,81.1,348.2z"/>
	<path class="st2" d="M90.9,318c-0.1,0.2-0.3,0.3-0.4,0.2C90.5,318,90.7,318,90.9,318z"/>
	<path class="st4" d="M75.1,260.2c0,0.2-0.1,0.3-0.3,0.1C74.8,260.2,75,260.2,75.1,260.2z"/>
	<path class="st12" d="M128.6,328.3c0-0.2,0-0.3,0.2-0.3C128.9,328.2,128.8,328.3,128.6,328.3z"/>
	<path class="st12" d="M128.9,327.9c0-0.2,0-0.3,0.2-0.3C129.2,327.7,129.1,327.8,128.9,327.9z"/>
	<path class="st12" d="M125.5,332.5c0-0.2,0.1-0.3,0.2-0.3C125.8,332.4,125.7,332.5,125.5,332.5z"/>
	<path class="st2" d="M85.5,318.9c-0.1,0-0.2,0-0.3-0.1C85.5,318.5,85.5,318.6,85.5,318.9z"/>
	<path class="st4" d="M68.4,263.1c0,0.2-0.1,0.3-0.4,0.3C68.1,263.2,68.2,263.1,68.4,263.1z"/>
	<path class="st12" d="M131.3,323.3c0.1,0,0.1,0,0.2,0c0.1,0.2,0,0.3-0.2,0.4C131.3,323.5,131.3,323.4,131.3,323.3z"/>
	<path class="st4" d="M69,262.8c0,0.3-0.1,0.3-0.4,0.3C68.7,262.9,68.8,262.8,69,262.8z"/>
	<path class="st2" d="M62,339.4c0.2,0,0.3,0.1,0.3,0.3C62.1,339.6,62,339.6,62,339.4z"/>
	<path class="st4" d="M70.8,261.9c0,0.2-0.1,0.3-0.4,0.3C70.5,262,70.6,261.9,70.8,261.9z"/>
	<path class="st4" d="M71.4,261.7c0,0.2-0.1,0.3-0.4,0.2C71.1,261.7,71.2,261.6,71.4,261.7z"/>
	<path class="st12" d="M117.2,340.3c0-0.2,0.1-0.3,0.3-0.2C117.5,340.3,117.4,340.3,117.2,340.3z"/>
	<path class="st12" d="M116.6,340.7c0-0.2,0.1-0.3,0.3-0.2C116.9,340.7,116.8,340.8,116.6,340.7z"/>
	<path class="st2" d="M65.1,341.6c0.1,0,0.3,0.1,0.3,0.2C65.1,341.8,65.1,341.8,65.1,341.6z"/>
	<path class="st4" d="M76,259.9c0,0.2-0.1,0.4-0.3,0.1C75.7,259.9,75.8,259.9,76,259.9z"/>
	<path class="st2" d="M109.6,344.9c0.1-0.1,0.2-0.2,0.4-0.2C110,344.9,109.9,344.9,109.6,344.9z"/>
	<path class="st12" d="M127,330.6c0-0.2,0-0.3,0.2-0.3C127.2,330.5,127.2,330.6,127,330.6z"/>
	<path class="st12" d="M127.4,330.1c0-0.2,0.1-0.3,0.2-0.3C127.7,329.9,127.6,330,127.4,330.1z"/>
	<path class="st4" d="M83.2,348.6c0,0,0-0.1,0-0.1c0.2-0.2,0.3,0,0.3,0.1C83.4,348.6,83.3,348.6,83.2,348.6z"/>
	<path class="st12" d="M114.4,342.2c0-0.2,0.1-0.3,0.3-0.2C114.7,342.2,114.6,342.3,114.4,342.2z"/>
	<path class="st13" d="M114,264.4c2.3,1.3,4.4,2.9,6.4,4.7c1.3,1.2,2.6,2.4,3.7,3.7c0.1,0.1,0.2,0.3,0.3,0.4c-0.2,0-0.4,0-0.6-0.1
		c-1.8-0.5-3.4,0-4.8,1.3c-1.5,1.5-3,3-4.5,4.5c-0.2,0.2-0.3,0.4-0.6,0.4l0,0c0-4.7,0-9.4,0-14C113.9,265,113.8,264.7,114,264.4z"/>
	<path class="st13" d="M101.8,291.5c0,0-0.1,0.1-0.1,0.1l0,0C101.7,291.5,101.7,291.5,101.8,291.5
		C101.8,291.4,101.8,291.5,101.8,291.5z"/>
	<path class="st13" d="M101.6,291.6c0,0-0.1,0.1-0.1,0.1l0,0C101.5,291.7,101.6,291.6,101.6,291.6
		C101.6,291.6,101.6,291.6,101.6,291.6z"/>
	<path class="st13" d="M101.5,291.7c0,0-0.1,0.1-0.1,0.1l0,0C101.4,291.8,101.4,291.8,101.5,291.7L101.5,291.7z"/>
	<path class="st13" d="M101.3,291.9c0,0-0.1,0.1-0.1,0.1l0,0C101.2,292,101.3,291.9,101.3,291.9L101.3,291.9z"/>
	<path class="st13" d="M101.2,292c0,0-0.1,0.1-0.1,0.1l0,0C101.1,292.1,101.1,292.1,101.2,292L101.2,292z"/>
	<path class="st13" d="M101,292.2c0,0-0.1,0.1-0.1,0.1l0,0C100.9,292.3,101,292.2,101,292.2L101,292.2z"/>
	<path class="st13" d="M100.9,292.3c0,0-0.1,0.1-0.1,0.1l0,0C100.8,292.4,100.8,292.4,100.9,292.3L100.9,292.3z"/>
	<path class="st13" d="M100.7,292.5c0,0-0.1,0.1-0.1,0.1l0,0C100.6,292.6,100.7,292.5,100.7,292.5L100.7,292.5z"/>
	<path class="st13" d="M100.6,292.6c0,0-0.1,0.1-0.1,0.1l0,0C100.5,292.7,100.5,292.7,100.6,292.6L100.6,292.6z"/>
	<path class="st13" d="M100.4,292.8c0,0-0.1,0.1-0.1,0.1l0,0C100.3,292.8,100.4,292.8,100.4,292.8L100.4,292.8z"/>
	<path class="st13" d="M100.3,292.9c0,0-0.1,0.1-0.1,0.1l0,0C100.2,293,100.2,293,100.3,292.9L100.3,292.9z"/>
	<path class="st13" d="M100.1,293.1c0,0-0.1,0.1-0.1,0.1l0,0C100.1,293.1,100.1,293.1,100.1,293.1L100.1,293.1z"/>
	<path class="st13" d="M99.9,293.4c0,0-0.1,0.1-0.1,0.1l0,0C99.8,293.4,99.8,293.4,99.9,293.4C99.8,293.4,99.9,293.4,99.9,293.4z"/>
	<path class="st13" d="M99.7,293.5c0,0-0.1,0.1-0.1,0.1l0,0C99.6,293.6,99.6,293.5,99.7,293.5C99.7,293.5,99.7,293.5,99.7,293.5z"/>
	<path class="st13" d="M99.6,293.7c0,0-0.1,0.1-0.1,0.1l0,0C99.5,293.7,99.5,293.7,99.6,293.7C99.6,293.6,99.6,293.7,99.6,293.7z"/>
	<path class="st13" d="M99.4,293.8c0,0-0.1,0.1-0.1,0.1l0,0C99.3,293.9,99.3,293.8,99.4,293.8L99.4,293.8z"/>
	<path class="st13" d="M103.1,290.1c0,0-0.1,0.1-0.1,0.1l0,0C103,290.2,103,290.1,103.1,290.1L103.1,290.1z"/>
	<path class="st13" d="M99.3,294c0,0-0.1,0.1-0.1,0.1l0,0C99.2,294,99.2,294,99.3,294L99.3,294z"/>
	<path class="st13" d="M99,294.3c0,0,0-0.1,0-0.1c0,0,0.1,0,0.1,0l0,0C99.1,294.1,99,294.2,99,294.3z"/>
	<path class="st13" d="M98.8,294.4c0-0.1,0.1-0.1,0.1-0.2C98.9,294.3,98.9,294.3,98.8,294.4z"/>
	<path class="st13" d="M103.2,290c0,0-0.1,0.1-0.1,0.1l0,0C103.1,290.1,103.2,290,103.2,290L103.2,290z"/>
	<path class="st13" d="M103.4,289.8c0,0-0.1,0.1-0.1,0.1l0,0C103.3,289.9,103.3,289.8,103.4,289.8L103.4,289.8z"/>
	<path class="st13" d="M103.5,289.7c0,0-0.1,0.1-0.1,0.1l0,0C103.4,289.8,103.5,289.7,103.5,289.7L103.5,289.7z"/>
	<path class="st13" d="M103.7,289.5c0,0-0.1,0.1-0.1,0.1l0,0C103.6,289.6,103.6,289.6,103.7,289.5
		C103.7,289.5,103.7,289.5,103.7,289.5z"/>
	<path class="st13" d="M103.8,289.4c0,0-0.1,0.1-0.1,0.1l0,0C103.7,289.5,103.8,289.4,103.8,289.4
		C103.8,289.4,103.8,289.4,103.8,289.4z"/>
	<path class="st13" d="M104,289.2c0,0-0.1,0.1-0.1,0.1l0,0C103.9,289.3,103.9,289.3,104,289.2C104,289.2,104,289.2,104,289.2z"/>
	<path class="st13" d="M104.1,289.1c0,0-0.1,0.1-0.1,0.1l0,0C104,289.2,104.1,289.1,104.1,289.1L104.1,289.1z"/>
	<path class="st13" d="M104.3,288.9c0,0-0.1,0.1-0.1,0.1l0,0C104.2,289,104.2,289,104.3,288.9C104.2,288.9,104.3,288.9,104.3,288.9z
		"/>
	<path class="st13" d="M112.1,281.1c0,0-0.1,0.1-0.1,0.1l0,0C112,281.2,112,281.2,112.1,281.1L112.1,281.1z"/>
	<path class="st13" d="M104.4,288.8c0,0-0.1,0.1-0.1,0.1l0,0C104.3,288.9,104.4,288.8,104.4,288.8
		C104.4,288.8,104.4,288.8,104.4,288.8z"/>
	<path class="st13" d="M113.9,279.4c0,0-0.1,0.1-0.1,0.1l0,0C113.8,279.4,113.8,279.4,113.9,279.4
		C113.8,279.4,113.9,279.4,113.9,279.4z"/>
	<path class="st13" d="M113.7,279.5c0,0-0.1,0.1-0.1,0.1l0,0C113.6,279.6,113.7,279.5,113.7,279.5
		C113.7,279.5,113.7,279.5,113.7,279.5z"/>
	<path class="st13" d="M104.6,288.6c0,0-0.1,0.1-0.1,0.1l0,0C104.5,288.7,104.5,288.7,104.6,288.6L104.6,288.6z"/>
	<path class="st13" d="M104.7,288.5c0,0-0.1,0.1-0.1,0.1l0,0C104.6,288.6,104.7,288.5,104.7,288.5
		C104.7,288.5,104.7,288.5,104.7,288.5z"/>
	<path class="st13" d="M113.6,279.7c0,0-0.1,0.1-0.1,0.1l0,0C113.5,279.7,113.5,279.7,113.6,279.7
		C113.5,279.6,113.6,279.7,113.6,279.7z"/>
	<path class="st13" d="M113.4,279.8c0,0-0.1,0.1-0.1,0.1l0,0C113.3,279.9,113.4,279.8,113.4,279.8
		C113.4,279.8,113.4,279.8,113.4,279.8z"/>
	<path class="st13" d="M104.8,288.3c0,0-0.1,0.1-0.1,0.1l0,0C104.8,288.4,104.8,288.4,104.8,288.3L104.8,288.3z"/>
	<path class="st13" d="M113.3,280c0,0-0.1,0.1-0.1,0.1l0,0C113.2,280,113.2,280,113.3,280L113.3,280z"/>
	<path class="st13" d="M105,288.2c0,0-0.1,0.1-0.1,0.1l0,0C104.9,288.3,105,288.2,105,288.2L105,288.2z"/>
	<path class="st13" d="M105.1,288c0,0-0.1,0.1-0.1,0.1l0,0C105,288.1,105.1,288.1,105.1,288L105.1,288z"/>
	<path class="st13" d="M105.3,287.9c0,0-0.1,0.1-0.1,0.1l0,0C105.2,288,105.3,287.9,105.3,287.9L105.3,287.9z"/>
	<path class="st13" d="M105.4,287.7c0,0-0.1,0.1-0.1,0.1l0,0C105.3,287.9,105.4,287.8,105.4,287.7L105.4,287.7z"/>
	<path class="st13" d="M105.6,287.6c0,0-0.1,0.1-0.1,0.1l0,0C105.5,287.7,105.6,287.6,105.6,287.6L105.6,287.6z"/>
	<path class="st13" d="M105.7,287.4c0,0-0.1,0.1-0.1,0.1l0,0C105.6,287.6,105.7,287.5,105.7,287.4L105.7,287.4z"/>
	<path class="st13" d="M113.1,280.1c0,0-0.1,0.1-0.1,0.1l0,0C113,280.2,113.1,280.1,113.1,280.1L113.1,280.1z"/>
	<path class="st13" d="M105.9,287.3c0,0-0.1,0.1-0.1,0.1l0,0C105.8,287.4,105.8,287.3,105.9,287.3L105.9,287.3z"/>
	<path class="st13" d="M106,287.1c0,0-0.1,0.1-0.1,0.1l0,0C105.9,287.3,106,287.2,106,287.1L106,287.1z"/>
	<path class="st13" d="M106.2,287c0,0-0.1,0.1-0.1,0.1l0,0C106.1,287.1,106.1,287.1,106.2,287C106.2,287,106.2,287,106.2,287z"/>
	<path class="st13" d="M113,280.2c0,0-0.1,0.1-0.1,0.1l0,0C112.9,280.3,112.9,280.3,113,280.2L113,280.2z"/>
	<path class="st13" d="M106.3,286.9c0,0-0.1,0.1-0.1,0.1l0,0C106.2,287,106.3,286.9,106.3,286.9
		C106.3,286.8,106.3,286.9,106.3,286.9z"/>
	<path class="st13" d="M112.8,280.4c0,0-0.1,0.1-0.1,0.1l0,0C112.7,280.5,112.8,280.4,112.8,280.4L112.8,280.4z"/>
	<path class="st13" d="M112.7,280.5c0,0-0.1,0.1-0.1,0.1l0,0C112.6,280.6,112.6,280.6,112.7,280.5L112.7,280.5z"/>
	<path class="st13" d="M112.5,280.7c0,0-0.1,0.1-0.1,0.1l0,0C112.4,280.8,112.5,280.7,112.5,280.7L112.5,280.7z"/>
	<path class="st13" d="M112.4,280.8c0,0-0.1,0.1-0.1,0.1l0,0C112.3,280.9,112.3,280.9,112.4,280.8L112.4,280.8z"/>
	<path class="st13" d="M106.5,286.7c0,0-0.1,0.1-0.1,0.1l0,0C106.4,286.8,106.4,286.8,106.5,286.7L106.5,286.7z"/>
	<path class="st13" d="M112.2,281c0,0-0.1,0.1-0.1,0.1l0,0C112.1,281.1,112.2,281,112.2,281L112.2,281z"/>
	<path class="st13" d="M111.9,281.3c0,0-0.1,0.1-0.1,0.1l0,0C111.9,281.3,111.9,281.3,111.9,281.3L111.9,281.3z"/>
	<path class="st13" d="M111.8,281.4c0,0-0.1,0.1-0.1,0.1l0,0C111.7,281.5,111.7,281.4,111.8,281.4L111.8,281.4z"/>
	<path class="st13" d="M111.6,281.6c0,0-0.1,0.1-0.1,0.1l0,0C111.6,281.6,111.6,281.6,111.6,281.6L111.6,281.6z"/>
	<path class="st13" d="M111.5,281.7c0,0-0.1,0.1-0.1,0.1l0,0C111.4,281.8,111.4,281.7,111.5,281.7L111.5,281.7z"/>
	<path class="st13" d="M111.4,281.9c0,0-0.1,0.1-0.1,0.1l0,0C111.3,281.9,111.3,281.9,111.4,281.9
		C111.3,281.9,111.4,281.9,111.4,281.9z"/>
	<path class="st13" d="M111.2,282c0,0-0.1,0.1-0.1,0.1l0,0C111.1,282.1,111.1,282,111.2,282L111.2,282z"/>
	<path class="st13" d="M106.6,286.6c0,0-0.1,0.1-0.1,0.1l0,0C106.5,286.7,106.6,286.6,106.6,286.6
		C106.6,286.5,106.6,286.6,106.6,286.6z"/>
	<path class="st13" d="M111.1,282.2c0,0-0.1,0.1-0.1,0.1l0,0C111,282.2,111,282.2,111.1,282.2C111.1,282.1,111.1,282.2,111.1,282.2z
		"/>
	<path class="st13" d="M110.9,282.3c0,0-0.1,0.1-0.1,0.1l0,0C110.8,282.4,110.8,282.3,110.9,282.3L110.9,282.3z"/>
	<path class="st13" d="M110.8,282.5c0,0-0.1,0.1-0.1,0.1l0,0C110.7,282.5,110.7,282.5,110.8,282.5
		C110.8,282.4,110.8,282.5,110.8,282.5z"/>
	<path class="st13" d="M106.8,286.4c0,0-0.1,0.1-0.1,0.1l0,0C106.7,286.5,106.7,286.5,106.8,286.4
		C106.8,286.4,106.8,286.4,106.8,286.4z"/>
	<path class="st13" d="M106.9,286.3c0,0-0.1,0.1-0.1,0.1l0,0C106.8,286.4,106.9,286.3,106.9,286.3
		C106.9,286.3,106.9,286.3,106.9,286.3z"/>
	<path class="st13" d="M107.1,286.1c0,0-0.1,0.1-0.1,0.1l0,0C107,286.2,107,286.2,107.1,286.1L107.1,286.1z"/>
	<path class="st13" d="M110.6,282.6c0,0-0.1,0.1-0.1,0.1l0,0C110.5,282.7,110.5,282.6,110.6,282.6L110.6,282.6z"/>
	<path class="st13" d="M107.2,286c0,0-0.1,0.1-0.1,0.1l0,0C107.1,286.1,107.2,286,107.2,286L107.2,286z"/>
	<path class="st13" d="M107.4,285.8c0,0-0.1,0.1-0.1,0.1l0,0C107.2,285.9,107.3,285.9,107.4,285.8L107.4,285.8z"/>
	<path class="st13" d="M107.5,285.7c0,0-0.1,0.1-0.1,0.1l0,0C107.4,285.8,107.5,285.7,107.5,285.7L107.5,285.7z"/>
	<path class="st13" d="M102.9,290.3c0,0-0.1,0.1-0.1,0.1l0,0C102.8,290.3,102.9,290.3,102.9,290.3L102.9,290.3z"/>
	<path class="st13" d="M110.5,282.7c0,0-0.1,0.1-0.1,0.1l0,0C110.4,282.8,110.4,282.8,110.5,282.7L110.5,282.7z"/>
	<path class="st13" d="M110.3,282.9c0,0-0.1,0.1-0.1,0.1l0,0C110.2,283,110.3,282.9,110.3,282.9L110.3,282.9z"/>
	<path class="st13" d="M110.2,283c0,0-0.1,0.1-0.1,0.1l0,0C110.1,283.1,110.1,283.1,110.2,283L110.2,283z"/>
	<path class="st13" d="M110,283.2c0,0-0.1,0.1-0.1,0.1l0,0C109.9,283.3,110,283.2,110,283.2L110,283.2z"/>
	<path class="st13" d="M109.9,283.3c0,0-0.1,0.1-0.1,0.1l0,0C109.8,283.4,109.8,283.4,109.9,283.3L109.9,283.3z"/>
	<path class="st13" d="M109.7,283.5c0,0-0.1,0.1-0.1,0.1l0,0C109.6,283.5,109.7,283.5,109.7,283.5L109.7,283.5z"/>
	<path class="st13" d="M109.6,283.6c0,0-0.1,0.1-0.1,0.1l0,0C109.5,283.7,109.5,283.7,109.6,283.6L109.6,283.6z"/>
	<path class="st13" d="M107.7,285.5c0,0-0.1,0.1-0.1,0.1l0,0C107.5,285.6,107.6,285.6,107.7,285.5L107.7,285.5z"/>
	<path class="st13" d="M109.4,283.8c0,0-0.1,0.1-0.1,0.1l0,0C109.3,283.8,109.4,283.8,109.4,283.8L109.4,283.8z"/>
	<path class="st13" d="M100,293.2c0,0-0.1,0.1-0.1,0.1l0,0C99.9,293.3,99.9,293.2,100,293.2L100,293.2z"/>
	<path class="st13" d="M108,285.2c0,0-0.1,0.1-0.1,0.1l0,0C107.8,285.3,107.9,285.3,108,285.2L108,285.2z"/>
	<path class="st13" d="M109.3,283.9c0,0-0.1,0.1-0.1,0.1l0,0C109.2,284,109.2,284,109.3,283.9L109.3,283.9z"/>
	<path class="st13" d="M108.1,285.1c0,0-0.1,0.1-0.1,0.1l0,0C108,285.2,108,285.1,108.1,285.1L108.1,285.1z"/>
	<path class="st13" d="M102.6,290.6c0,0-0.1,0.1-0.1,0.1l0,0C102.6,290.6,102.6,290.6,102.6,290.6L102.6,290.6z"/>
	<path class="st13" d="M108.3,284.9c0,0-0.1,0.1-0.1,0.1l0,0C108.1,285,108.2,285,108.3,284.9L108.3,284.9z"/>
	<path class="st13" d="M102.8,290.4c0,0-0.1,0.1-0.1,0.1l0,0C102.7,290.5,102.7,290.4,102.8,290.4L102.8,290.4z"/>
	<path class="st13" d="M108.4,284.8c0,0-0.1,0.1-0.1,0.1l0,0C108.3,284.9,108.3,284.9,108.4,284.8
		C108.4,284.8,108.4,284.8,108.4,284.8z"/>
	<path class="st13" d="M102.5,290.7c0,0-0.1,0.1-0.1,0.1l0,0C102.4,290.8,102.5,290.7,102.5,290.7
		C102.5,290.7,102.5,290.7,102.5,290.7z"/>
	<path class="st13" d="M108.6,284.7c0,0-0.1,0.1-0.1,0.1l0,0C108.4,284.7,108.5,284.7,108.6,284.7L108.6,284.7z"/>
	<path class="st13" d="M108.7,284.5c0,0-0.1,0.1-0.1,0.1l0,0C108.6,284.6,108.6,284.6,108.7,284.5L108.7,284.5z"/>
	<path class="st13" d="M108.9,284.4c0,0-0.1,0.1-0.1,0.1l0,0C108.7,284.4,108.8,284.4,108.9,284.4L108.9,284.4z"/>
	<path class="st13" d="M109,284.2c0,0-0.1,0.1-0.1,0.1l0,0C108.9,284.3,108.9,284.3,109,284.2L109,284.2z"/>
	<path class="st13" d="M102.4,290.9c0,0-0.1,0.1-0.1,0.1l0,0C102.3,290.9,102.3,290.9,102.4,290.9
		C102.3,290.9,102.4,290.9,102.4,290.9z"/>
	<path class="st13" d="M102.2,291c0,0-0.1,0.1-0.1,0.1l0,0C102.1,291.1,102.2,291,102.2,291C102.2,291,102.2,291,102.2,291z"/>
	<path class="st13" d="M102.1,291.2c0,0-0.1,0.1-0.1,0.1l0,0C102,291.2,102,291.2,102.1,291.2L102.1,291.2z"/>
	<path class="st13" d="M101.9,291.3c0,0-0.1,0.1-0.1,0.1l0,0C101.8,291.4,101.9,291.3,101.9,291.3L101.9,291.3z"/>
	<path class="st13" d="M109.2,284.1c0,0-0.1,0.1-0.1,0.1l0,0C109,284.1,109.1,284.1,109.2,284.1
		C109.1,284.1,109.2,284.1,109.2,284.1z"/>
	<path class="st13" d="M107.8,285.4c0,0-0.1,0.1-0.1,0.1l0,0C107.7,285.5,107.8,285.4,107.8,285.4L107.8,285.4z"/>
	<path class="st14" d="M107.8,285.4c0,0-0.1,0.1-0.1,0.1c0,0-0.1,0.1-0.1,0.1c0,0-0.1,0.1-0.1,0.1s-0.1,0.1-0.1,0.1
		s-0.1,0.1-0.1,0.1c0,0-0.1,0.1-0.1,0.1c0,0-0.1,0.1-0.1,0.1c0,0-0.1,0.1-0.1,0.1c0,0-0.1,0.1-0.1,0.1c0,0-0.1,0.1-0.1,0.1
		c0,0-0.1,0.1-0.1,0.1c0,0-0.1,0.1-0.1,0.1c0,0-0.1,0.1-0.1,0.1c0,0-0.1,0.1-0.1,0.1c0,0-0.1,0.1-0.1,0.1c0,0-0.1,0.1-0.1,0.1
		c0,0-0.1,0.1-0.1,0.1c0,0-0.1,0.1-0.1,0.1s-0.1,0.1-0.1,0.1c0,0-0.1,0.1-0.1,0.1c0,0-0.1,0.1-0.1,0.1c0,0-0.1,0.1-0.1,0.1
		c0,0-0.1,0.1-0.1,0.1c0,0-0.1,0.1-0.1,0.1c0,0-0.1,0.1-0.1,0.1c0,0-0.1,0.1-0.1,0.1c0,0-0.1,0.1-0.1,0.1c0,0-0.1,0.1-0.1,0.1
		c0,0-0.1,0.1-0.1,0.1c0,0-0.1,0.1-0.1,0.1c0,0-0.1,0.1-0.1,0.1c0,0-0.1,0.1-0.1,0.1s-0.1,0.1-0.1,0.1c0,0-0.1,0.1-0.1,0.1
		c0,0-0.1,0.1-0.1,0.1c0,0-0.1,0.1-0.1,0.1c0,0-0.1,0.1-0.1,0.1c0,0-0.1,0.1-0.1,0.1c0,0-0.1,0.1-0.1,0.1c0,0-0.1,0.1-0.1,0.1
		c0,0-0.1,0.1-0.1,0.1c0,0-0.1,0.1-0.1,0.1c0,0-0.1,0.1-0.1,0.1c0,0-0.1,0.1-0.1,0.1c0,0-0.1,0.1-0.1,0.1c0,0-0.1,0.1-0.1,0.1
		s-0.1,0.1-0.1,0.1c0,0-0.1,0.1-0.1,0.1c0,0-0.1,0.1-0.1,0.1c0,0-0.1,0.1-0.1,0.1c0,0-0.1,0.1-0.1,0.1s-0.1,0.1-0.1,0.1
		c0,0-0.1,0.1-0.1,0.1c0,0-0.1,0.1-0.1,0.1c0,0-0.1,0.1-0.1,0.1c0,0-0.1,0.1-0.1,0.1c0,0-0.1,0.1-0.1,0.1c0,0-0.1,0.1-0.1,0.1
		c0,0-0.1,0.1-0.1,0.1c0,0-0.1,0-0.1,0c-0.2-0.3-0.1-0.6-0.1-0.9c0-11.5,0-23,0-34.5c1.2,0,2.4,0.5,3.6,0.7c1.9,0.4,3.7,1.2,5.6,1.9
		c1.8,0.7,3.5,1.6,5.2,2.5c0.3,0.2,0.6,0.3,0.9,0.5c-0.3,0.3-0.1,0.6-0.1,0.8c0,4.7,0,9.4,0,14c0,0-0.1,0.1-0.1,0.1
		c0,0-0.1,0.1-0.1,0.1c0,0-0.1,0.1-0.1,0.1c0,0-0.1,0.1-0.1,0.1c0,0-0.1,0.1-0.1,0.1c0,0-0.1,0.1-0.1,0.1c0,0-0.1,0.1-0.1,0.1
		c0,0-0.1,0.1-0.1,0.1c0,0-0.1,0.1-0.1,0.1c0,0-0.1,0.1-0.1,0.1c0,0-0.1,0.1-0.1,0.1c0,0-0.1,0.1-0.1,0.1c0,0-0.1,0.1-0.1,0.1
		c0,0-0.1,0.1-0.1,0.1c0,0-0.1,0.1-0.1,0.1c0,0-0.1,0.1-0.1,0.1c0,0-0.1,0.1-0.1,0.1c0,0-0.1,0.1-0.1,0.1c0,0-0.1,0.1-0.1,0.1
		c0,0-0.1,0.1-0.1,0.1c0,0-0.1,0.1-0.1,0.1c0,0-0.1,0.1-0.1,0.1c0,0-0.1,0.1-0.1,0.1c0,0-0.1,0.1-0.1,0.1c0,0-0.1,0.1-0.1,0.1
		c0,0-0.1,0.1-0.1,0.1s-0.1,0.1-0.1,0.1c0,0-0.1,0.1-0.1,0.1c0,0-0.1,0.1-0.1,0.1c0,0-0.1,0.1-0.1,0.1c0,0-0.1,0.1-0.1,0.1
		c0,0-0.1,0.1-0.1,0.1c0,0-0.1,0.1-0.1,0.1c0,0-0.1,0.1-0.1,0.1c0,0-0.1,0.1-0.1,0.1c0,0-0.1,0.1-0.1,0.1c0,0-0.1,0.1-0.1,0.1
		c0,0-0.1,0.1-0.1,0.1c0,0-0.1,0.1-0.1,0.1c0,0-0.1,0.1-0.1,0.1C107.9,285.3,107.8,285.3,107.8,285.4z"/>
	<path class="st4" d="M83.9,263.8c-0.2-0.4-0.2-0.9,0-1.3C84.1,263,84.1,263.4,83.9,263.8z"/>
	<path class="st4" d="M83.8,259.9c-0.2-0.2-0.2-0.4,0-0.6C84,259.5,83.9,259.7,83.8,259.9z"/>
</g>
<g>
	<path class="st15" d="M194.8,258.5c0,6,0,12.1,0,18.1c0,2.8,0,5.7,0,8.6c0,0.6-0.1,0.8-0.8,0.8c-1.3,0-2.7,0-4,0
		c-0.7,0-0.8-0.3-0.8-0.9c0-3.1,0-6.2,0-9.3c0-0.7-0.2-0.9-0.9-0.9c-3.7,0-7.4,0-11.1,0c-0.7,0-0.9,0.2-0.9,0.9c0,3,0,6.1,0,9.1
		c0,0.9-0.3,1.1-1.1,1c-1.2-0.1-2.5,0-3.7,0c-0.7,0-0.9-0.2-0.9-0.9c0-8.4,0-16.7,0-25.1c0-0.5,0-1,0-1.5c1.8,0,3.7,0,5.5,0
		c0,3.3,0,6.7,0,10c0,0.7,0.2,1,1,1c3.7,0,7.3,0,11,0c0.8,0,1.1-0.2,1-1c0-3.3,0-6.6,0-9.9C191.2,258.5,193,258.5,194.8,258.5z"/>
	<path class="st15" d="M301.5,258.5c0,2.4,0,4.8,0,7.1c0,0.6,0.2,0.7,0.8,0.5c3.1-0.9,6.1-0.6,8.7,1.6c1.9,1.6,3,3.7,3.1,6.3
		c0.1,3.7,0,7.3,0,11c0,0.7-0.2,1-0.9,0.9c-1.1,0-2.2,0-3.3,0c-0.7,0-0.9-0.2-0.9-0.9c0-3.2,0-6.4,0-9.7c0-1.5-0.3-2.9-1.6-3.9
		c-1.2-0.8-2.4-1-3.7-0.3c-1.3,0.7-2,1.8-2.1,3.2c0,3.5,0,7,0,10.5c0,0.7-0.2,1-1,1c-1.1-0.1-2.2-0.1-3.3,0c-0.7,0-0.9-0.2-0.9-0.9
		c0-8.8,0-17.7,0-26.6C298.1,258.5,299.8,258.5,301.5,258.5z"/>
	<path class="st15" d="M264.8,258.5c0,6,0,11.9,0,17.9c0,2.9,0,5.8,0,8.7c0,0.6-0.2,0.8-0.8,0.8c-1.2,0-2.4,0-3.5,0
		c-0.7,0-0.9-0.2-0.9-0.9c0-8.8,0-17.7,0-26.6C261.4,258.5,263.1,258.5,264.8,258.5z"/>
	<path class="st16" d="M341.2,325.8c0-7,0-13.9,0-20.9c0-1.2,0-1.2,1.3-1.2c2.2,0,4.3,0,6.5,0c0.8,0,1.1,0.3,1.1,1.1
		c0,7.2,0,14.4,0,21.6c0,0.2,0,0.3,0,0.5c0,0.1,0,0.4,0.1,0.4c0.3,0.1,0.3-0.1,0.4-0.3c1.1-1.3,2.2-2.6,3.3-3.9
		c1.9-2.2,3.7-4.4,5.5-6.6c0.3-0.3,0.6-0.5,1-0.5c3.2,0,6.3,0,9.5,0c0.3,0,0.6,0,0.8,0.3c0.2,0.4-0.1,0.6-0.3,0.8
		c-3.1,3.8-6.3,7.5-9.4,11.3c-0.6,0.7-1.6,1.4-1.6,2.2c0,0.8,1,1.5,1.5,2.2c3.6,4.6,7.2,9.3,10.8,13.9c0.2,0.3,0.6,0.6,0.4,1
		c-0.2,0.4-0.7,0.3-1,0.3c-3,0-5.9,0-8.8,0c-0.5,0-0.9-0.1-1.2-0.6c-2.4-3.1-4.8-6.1-7.1-9.2c-0.4-0.6-0.7-0.5-1.1,0
		c0,0.1-0.1,0.1-0.1,0.2c-2.5,2-3,4.7-2.7,7.7c0.2,2.2,0.1,1.9-1.8,1.9c-1.9,0-3.8,0-5.7,0c-1.2,0-1.2,0-1.2-1.3c0-1.5,0-3.1,0-4.6
		C341.2,336.7,341.2,331.2,341.2,325.8z"/>
	<path class="st16" d="M284.4,319.1c0,9.3,0,18.6,0,27.9c0,0.8-0.2,1-1,1c-2.3,0-4.6,0-6.9,0c-0.3,0-0.8,0.1-0.9-0.3
		c-0.2-0.8-0.7-0.4-1.1-0.3c-2.2,1-4.6,1.6-7,1.6c-6.1-0.1-10.9-2.7-14.3-7.8c-5.6-8.5-2.4-20.1,6.8-24.5c4.8-2.3,9.7-2.2,14.6,0
		c0.4,0.2,0.8,0.6,0.9-0.3c0-0.3,0.4-0.4,0.7-0.4c1.3,0,2.6-0.1,3.9,0.1c-0.1,0.1-0.1,0.2-0.2,0.3c-0.8,0.9-0.8,0.9,0,1.6
		c0.2,0.2,0.4,0.4,0.7,0.7c1,1.1,1,1.1,2.1,0C283.6,317.9,283.9,317.9,284.4,319.1z M260.1,328.5c-0.1,0.2-0.2,0.5-0.3,0.7
		c-1.6,4.2,0.8,9.3,5.1,10.5c3.2,0.9,6,0.3,8.3-2.1c2.3-2.4,2.9-5.2,1.8-8.3s-3.3-4.9-6.6-5.4c-2.1-0.3-4,0.3-5.8,1.5
		c-0.3,0-0.5-0.3-0.7-0.5c-0.8-0.8-1.6-1.6-2.4-2.4c-0.4-0.4-0.6-0.4-1,0c-0.5,0.5-1,1-1.5,1.5c-0.5,0.5-0.5,0.8,0,1.3
		C258,326.4,259.3,327.3,260.1,328.5z M266.9,319.1c-0.8,0-1.5,0.6-1.5,1.4c0,0.8,0.6,1.5,1.5,1.5c0.8,0,1.5-0.6,1.5-1.4
		C268.4,319.8,267.7,319.1,266.9,319.1z M253.7,333c0,0.8,0.7,1.5,1.5,1.5c0.8,0,1.5-0.7,1.5-1.5c0-0.8-0.7-1.5-1.5-1.5
		C254.4,331.5,253.7,332.1,253.7,333z M278.9,331.5c-0.8,0-1.5,0.6-1.5,1.4c0,0.8,0.6,1.5,1.5,1.5c0.8,0,1.5-0.6,1.5-1.4
		C280.4,332.2,279.7,331.5,278.9,331.5z M268.4,344.3c0-0.8-0.6-1.5-1.4-1.5c-0.8,0-1.6,0.6-1.6,1.4c0,0.8,0.6,1.5,1.5,1.5
		C267.7,345.8,268.3,345.1,268.4,344.3z"/>
	<path class="st17" d="M188.2,303.6c6,0,11.9,0,17.8,0c1.2,0,1.2,0,1.2,1.2c0,2.4,0,4.7,0,7c0,1.2,0,1.2-1.3,1.2c-4,0-8.1,0-12.2,0
		c-0.8,0-1,0.3-1,1c0,10.9,0,21.8,0,32.7c0,1.2,0,1.2-1.2,1.2c-2.3,0-4.6,0-6.9,0c-1.2,0-1.2,0-1.2-1.2c0-10.9,0-21.8,0-32.7
		c0-0.9-0.2-1.1-1.1-1.1c-4.1,0-8.2,0-12.2,0c-1.1,0-1.2-0.1-1.2-1.2c0-2.4,0-4.8,0-7.1c0-1,0.1-1.1,1.1-1.1
		C176,303.6,182.1,303.6,188.2,303.6z"/>
	<path class="st17" d="M316,315.1c3.9,0,7.7,1.6,11,4.6c0.5,0.5,0.5,0.8,0,1.3c-1.6,1.6-3.3,3.2-4.9,4.8c-0.5,0.5-0.9,0.7-1.5,0.1
		c-2.6-2.2-5.6-2.6-8.7-1.2c-3.1,1.5-4.6,4.1-4.5,7.5c0.1,3.2,1.8,5.7,4.6,7c2.9,1.4,5.7,1,8.3-0.9c1.1-0.8,1.1-0.9,2,0.1
		c1.6,1.6,3.1,3.2,4.8,4.7c0.4,0.4,0.5,0.7,0,1.2c-2.5,2.2-5.4,3.7-8.7,4.3c-1,0.2-2.1,0.3-3.1,0.3c-6.6-0.3-11.7-3.2-14.8-9
		c-3.6-6.7-2.4-14.8,3.1-20.1C306.9,316.7,310.9,315.1,316,315.1z"/>
	<path class="st16" d="M220.8,332c0-4.9,0-9.8,0-14.8c0-1.1,0.1-1.2,1.2-1.2c2.2,0,4.4,0,6.6,0c0.4,0,0.8-0.1,0.9,0.4
		c0.2,0.7,0.6,0.4,1,0.3c2.1-0.9,4.2-1.5,6.4-1.6c0.7,0,1,0.2,1,1c0,2.3,0,4.6,0,6.9c0,0.7-0.3,0.9-1,1c-4.2,0.3-7.5,3.8-7.5,8.1
		c0,4.9,0,9.9,0,14.8c0,1.1,0,1.2-1.2,1.2c-2.2,0-4.4,0-6.6,0c-1,0-1.1-0.1-1.1-1.1C220.8,341.9,220.8,337,220.8,332z"/>
	<path class="st15" d="M250,276.2c0,3,0,6,0,9c0,0.7-0.2,1-0.9,0.9c-1,0-1.9,0-2.9,0c-0.5,0-1,0.2-1.4-0.5c-0.2-0.4-0.6,0-0.8,0.1
		c-3,1.3-6,1.3-8.9-0.1c-6.8-3.2-8-12.6-2.3-17.4c3.4-2.8,7.2-3.2,11.3-1.5c0.3,0.1,0.7,0.4,0.9-0.2c0.1-0.3,0.4-0.3,0.7-0.3
		c1.2,0,2.4,0,3.5,0c0.7,0,0.8,0.2,0.8,0.9C250,270.1,250,273.1,250,276.2z M244.9,276.1c0-2.9-2.3-5.3-5.2-5.3
		c-2.8,0-5.4,2.4-5.3,5.3c0.1,3.2,2.3,5.2,5.3,5.3C242.8,281.4,245,278.9,244.9,276.1z"/>
	<path class="st15" d="M215.2,278.8c-1.9,0-3.7,0-5.6,0c-0.2,0-0.5-0.1-0.6,0.1c-0.2,0.3,0.1,0.5,0.3,0.6c1.5,1.9,4.7,2.7,7.1,0.9
		c0.6-0.4,0.9-0.3,1.3,0.1c0.8,0.9,1.7,1.7,2.5,2.5c0.4,0.4,0.4,0.7-0.1,1.1c-5.8,5-15.2,2.1-17-5.3c-1.3-5.4,1.3-11,6.7-12.6
		c3.5-1,8.5-0.4,10.9,3.3c1.8,2.7,2,5.5,1,8.6c-0.2,0.5-0.5,0.7-1,0.6C218.9,278.8,217.1,278.8,215.2,278.8z M212.8,273.7
		c0.9,0,1.7,0,2.5,0c0.5,0,1.2,0.3,1.4-0.3c0.2-0.6-0.4-1.1-0.8-1.6c0-0.1-0.1-0.1-0.2-0.1c-2.2-1.3-4.9-1.1-6.6,1.2
		c-0.1,0.2-0.3,0.4-0.2,0.6c0.1,0.3,0.4,0.2,0.7,0.2C210.6,273.7,211.7,273.7,212.8,273.7z"/>
	<path class="st15" d="M277.2,275.7c0-1.3,0-2.3,0-3.3c0-0.7-0.2-0.9-0.9-0.9c-1.2,0-2.4,0-3.5,0c-0.6,0-0.8-0.2-0.7-0.7
		c0-1.3,0-2.5,0-3.8c0-0.6,0.2-0.7,0.7-0.7c1.2,0,2.4,0,3.5,0c0.7,0,0.9-0.1,0.9-0.9c0-1.3,0-2.6,0-3.9c0-0.6,0.2-0.8,0.8-0.8
		c1.2,0,2.4,0,3.6,0c0.6,0,0.7,0.2,0.7,0.8c0,1.3,0,2.6,0,3.9c0,0.6,0.2,0.8,0.8,0.8c1.6,0,3.1,0,4.7,0c0.6,0,0.9,0.2,0.9,0.8
		c0,1.2,0,2.4,0,3.6c0,0.6-0.3,0.8-0.9,0.8c-1.6,0-3.1,0-4.7,0c-0.4,0-0.8,0-0.8,0.5c0,2-0.1,4,0.1,6c0.2,1.8,1.2,2.8,2.9,3.3
		c0.6,0.1,0.8,0.4,0.7,1c0,1.2,0,2.5,0,3.7c0,0.5-0.2,0.7-0.7,0.7c-3.8-0.4-6.9-2.9-7.9-6.6C277.1,278.5,277.3,277,277.2,275.7z"/>
	<path class="st18" d="M284.4,319.1c-0.5-1.1-0.7-1.2-1.6-0.4c-1.1,1.1-1.1,1.1-2.1,0c-0.2-0.2-0.4-0.4-0.7-0.7
		c-0.8-0.7-0.8-0.7,0-1.6c0.1-0.1,0.1-0.2,0.2-0.3c0.9-0.7,0.9-0.7,0.1-1.5c-0.5-0.5-0.5-0.9,0-1.3c0.5-0.5,1-1,1.5-1.5
		c0.3-0.3,0.6-0.3,0.9,0c1.5,1.5,3,3,4.5,4.5c0.3,0.3,0.3,0.6,0,0.9c-0.6,0.6-1.2,1.1-1.7,1.8C285,319.4,284.7,319,284.4,319.1z"/>
	<path class="st18" d="M262.6,325.5c0,0.3,0.1,0.4,0.3,0.6c0.6,0.5,1.1,1,1.6,1.6c0.6,0.7,1.3,1.1,2.4,1.1c1.3-0.1,2.5,1,3,2.4
		c0.4,1.3,0,2.8-1,3.7c-1.1,0.9-2.7,1.2-3.8,0.6c-1.4-0.7-2.1-1.9-2-3.4c0-0.6-0.1-0.9-0.5-1.3c-0.9-0.7-1.5-1.7-2.5-2.3
		c-0.8-1.2-2.1-2.1-3.1-3.1c-0.5-0.5-0.6-0.9,0-1.3c0.5-0.5,1-1,1.5-1.5c0.3-0.4,0.6-0.4,1,0c0.8,0.8,1.6,1.6,2.4,2.4
		C262.1,325.2,262.3,325.4,262.6,325.5z"/>
	<path class="st18" d="M266.9,319.1c0.8,0,1.5,0.7,1.5,1.5c0,0.8-0.7,1.4-1.5,1.4c-0.8,0-1.5-0.7-1.5-1.5
		C265.4,319.8,266.1,319.1,266.9,319.1z"/>
	<path class="st18" d="M253.7,333c0-0.8,0.7-1.5,1.5-1.5c0.8,0,1.5,0.7,1.5,1.5c0,0.8-0.7,1.5-1.5,1.5
		C254.4,334.4,253.7,333.8,253.7,333z"/>
	<path class="st18" d="M278.9,331.5c0.8,0,1.5,0.7,1.5,1.5c0,0.8-0.7,1.4-1.5,1.4c-0.8,0-1.5-0.7-1.5-1.5
		C277.4,332.1,278.1,331.5,278.9,331.5z"/>
	<path class="st18" d="M268.4,344.3c0,0.8-0.7,1.4-1.5,1.4c-0.8,0-1.5-0.7-1.5-1.5c0-0.8,0.7-1.5,1.6-1.4
		C267.8,342.8,268.4,343.6,268.4,344.3z"/>
</g>
<g>
</g>
<g>
</g>
<g>
</g>
<g>
</g>
<g>
</g>
<g>
</g>
</svg>
