<?xml version="1.0" encoding="utf-8"?>
<!-- Generator: Adobe Illustrator 24.1.2, SVG Export Plug-In . SVG Version: 6.00 Build 0)  -->
<svg version="1.1" id="Camada_1" xmlns="http://www.w3.org/2000/svg" xmlns:xlink="http://www.w3.org/1999/xlink" x="0px" y="0px"
	 viewBox="0 0 400 600" style="enable-background:new 0 0 400 600;" xml:space="preserve">
<style type="text/css">
	.st0{fill:#152144;}
	.st1{fill:none;stroke:#211915;stroke-miterlimit:10;}
	.st2{clip-path:url(#SVGID_2_);}
	.st3{fill:#87A6FD;}
	.st4{fill:#7498FC;}
	.st5{fill:#456DD8;}
	.st6{fill:#3056BA;}
	.st7{fill:#0A3DAC;}
	.st8{fill:none;stroke:#01FDD7;stroke-width:9.7465;stroke-linecap:round;stroke-linejoin:round;stroke-miterlimit:10;}
	.st9{fill:none;}
	.st10{enable-background:new    ;}
	.st11{fill:#01FDD7;}
	.st12{fill:#707070;}
	.st13{fill:#AD45FF;}
	.st14{fill:#FFFFFF;}
</style>
<g id="XMLID_1_">
	<g>
		<rect y="0" class="st0" width="400" height="600"/>
	</g>
	<g>
		<rect y="0" class="st1" width="400" height="600"/>
	</g>
</g>
<g>
	<g>
		<g>
			<g>
				<g>
					<g>
						<defs>
							<circle id="SVGID_1_" cx="89.4" cy="313.6" r="46.9"/>
						</defs>
						<clipPath id="SVGID_2_">
							<use xlink:href="#SVGID_1_"  style="overflow:visible;"/>
						</clipPath>
						<g class="st2">
							<rect x="42.5" y="266.7" class="st3" width="18.7" height="93.8"/>
							<rect x="61.2" y="266.7" class="st4" width="18.7" height="93.8"/>
							<rect x="80" y="266.7" class="st5" width="18.7" height="93.8"/>
							<rect x="98.7" y="266.7" class="st6" width="18.7" height="93.8"/>
							<rect x="117.5" y="266.7" class="st7" width="18.7" height="93.8"/>
						</g>
					</g>
				</g>
			</g>
		</g>
	</g>
	<polyline class="st8" points="39.4,347 68.1,318.4 79.3,329.6 116,293 126.1,303.1 148.5,280.7 	"/>
	<rect x="154.8" y="303.5" class="st9" width="224.6" height="67.6"/>
	<g class="st10">
		<path class="st5" d="M204.1,306.9c1.4,0,2.5,0.5,3.5,1.5s1.5,2.1,1.5,3.5s-0.5,2.5-1.5,3.5s-2.1,1.4-3.5,1.4h-9.3v30.7
			c0,1.6-0.6,3-1.7,4.2c-1.2,1.2-2.5,1.7-4.2,1.7c-1.6,0-3-0.6-4.2-1.7c-1.2-1.2-1.7-2.6-1.7-4.2v-30.7h-9.3c-1.4,0-2.5-0.5-3.5-1.4
			c-1-1-1.5-2.1-1.5-3.5s0.5-2.5,1.5-3.5s2.1-1.5,3.5-1.5H204.1z"/>
		<path class="st5" d="M219.4,351.8c-1.1,1.1-2.4,1.7-4,1.7s-2.9-0.6-4-1.7s-1.6-2.4-1.6-4v-24.7c0-1.4,0.5-2.6,1.6-3.7
			c1.1-1,2.3-1.6,3.8-1.6c1.4,0,2.6,0.5,3.7,1.5c1.1,1,1.6,2.1,1.6,3.4v2.5h0.1c0.5-2.3,1.4-4.1,2.8-5.4c1.4-1.3,3-2,5-2
			c1.6,0,2.7,0.4,3.6,1.2c0.8,0.8,1.3,1.9,1.3,3.1c0,2.9-1.6,4.9-4.9,5.8c-2.3,0.6-4.1,1.8-5.3,3.6c-1.3,1.8-1.9,4.1-1.9,6.9v9.3
			C221,349.3,220.5,350.6,219.4,351.8z"/>
		<path class="st5" d="M252.7,353.4c-2.9,0-5.7-0.7-8.4-2.1c-2.6-1.4-4.8-3.5-6.5-6.3s-2.5-5.9-2.5-9.3c0-3.5,0.8-6.6,2.5-9.4
			s3.9-4.9,6.5-6.3s5.4-2.1,8.3-2.1c2.3,0,4.4,0.5,6.3,1.4c1.9,1,3.3,2.2,4.3,3.7l0.1-1.5c0.2-1,0.8-1.9,1.7-2.5c1-0.7,2.2-1,3.6-1
			c1.5,0,2.7,0.5,3.7,1.6s1.5,2.4,1.5,4.1v24.2c0,1.6-0.5,3-1.4,4.1s-2.2,1.6-3.8,1.6c-1.5,0-2.7-0.3-3.6-1s-1.5-1.5-1.7-2.5
			l-0.1-1.5c-0.9,1.6-2.3,2.8-4.3,3.7C257,353,254.9,353.4,252.7,353.4z M248.9,341.2c1.5,1.6,3.4,2.3,5.6,2.3s4-0.8,5.6-2.3
			c1.6-1.6,2.3-3.4,2.3-5.6s-0.8-4-2.3-5.6c-1.6-1.5-3.4-2.3-5.6-2.3c-2.2,0-4,0.8-5.6,2.3c-1.5,1.5-2.3,3.4-2.3,5.6
			C246.6,337.8,247.4,339.7,248.9,341.2z"/>
		<path class="st5" d="M300.1,353.5c-5.4,0-9.9-1.8-13.7-5.3c-3.8-3.5-5.7-7.7-5.7-12.6s1.9-9.1,5.7-12.6c3.8-3.5,8.4-5.2,13.7-5.2
			c2.8,0,5.5,0.5,8,1.6s4.6,2.6,6.2,4.5c1,1,1.5,2.3,1.5,3.7c0,1.3-0.5,2.5-1.5,3.5s-2.2,1.5-3.6,1.5c-1.8,0-3.4-0.8-4.9-2.3
			c-1.6-1.9-3.6-2.8-6-2.8c-2.2,0-4,0.8-5.5,2.4s-2.3,3.4-2.3,5.6c0,2.1,0.8,4,2.3,5.5c1.5,1.6,3.4,2.3,5.5,2.3c2.5,0,4.5-0.9,6-2.6
			c1.4-1.5,2.9-2.3,4.8-2.3c1.6,0,2.8,0.5,3.7,1.5c0.9,1,1.4,2.2,1.4,3.5c0,1.4-0.5,2.7-1.6,3.8c-1.7,1.9-3.8,3.3-6.3,4.4
			C305.5,352.9,302.9,353.4,300.1,353.5z"/>
		<path class="st5" d="M328.3,353.4c-1.6,0-2.9-0.5-4-1.6c-1-1.1-1.6-2.5-1.6-4.1v-38.5c0-1.7,0.5-3.1,1.6-4.1s2.4-1.6,4-1.6
			s2.9,0.5,4,1.6s1.6,2.4,1.6,4.1v21.2l11-10.2c1.6-1.6,3.2-2.3,4.8-2.3c1.5,0,2.7,0.5,3.7,1.4c1,1,1.5,2.1,1.5,3.5
			s-0.5,2.7-1.6,3.8l-7,6.9l8.7,11.1c0.7,0.9,1,2,1,3.2c0,1.6-0.5,2.9-1.6,4s-2.3,1.6-3.9,1.6c-2,0-3.6-0.8-4.7-2.5l-8.2-10.6
			l-3.7,3.3v4.1c0,1.6-0.5,3-1.6,4.1C331.3,352.9,329.9,353.4,328.3,353.4z"/>
	</g>
	<circle class="st11" cx="254.5" cy="324.2" r="1.8"/>
	<circle class="st11" cx="254.5" cy="347.6" r="1.8"/>
	<circle class="st11" cx="242.7" cy="335.7" r="1.8"/>
	<circle class="st11" cx="266.2" cy="335.7" r="1.8"/>
	<circle class="st11" cx="254.6" cy="335.7" r="2.6"/>
	
		<rect x="251.7" y="330.6" transform="matrix(0.7071 -0.7071 0.7071 0.7071 -161.9674 276.3354)" class="st11" width="1.8" height="6.2"/>
	<g class="st10">
		<path class="st12" d="M184,276.7c0-0.5,0.2-1,0.6-1.3c0.4-0.4,0.8-0.6,1.4-0.6c0.5,0,1,0.2,1.4,0.6s0.6,0.8,0.6,1.3v18.6
			c0,0.5-0.2,1-0.6,1.3c-0.4,0.4-0.8,0.6-1.4,0.6c-0.5,0-1-0.2-1.4-0.6s-0.6-0.8-0.6-1.3v-7.8h-11.7v7.8c0,0.5-0.2,1-0.6,1.3
			c-0.4,0.4-0.8,0.6-1.4,0.6c-0.5,0-1-0.2-1.4-0.6s-0.6-0.8-0.6-1.3v-18.6c0-0.5,0.2-1,0.6-1.3c0.4-0.4,0.8-0.6,1.4-0.6
			c0.5,0,1,0.2,1.4,0.6s0.6,0.8,0.6,1.3v7.5H184V276.7z"/>
		<path class="st12" d="M209.2,288c0,0.6-0.2,1.1-0.7,1.5c-0.4,0.4-1,0.6-1.6,0.6h-11.2c0.3,1.3,0.9,2.3,1.8,3
			c1,0.7,2.1,1.1,3.5,1.1c1.7,0,3.1-0.6,4.2-1.9c0.5-0.5,1-0.8,1.5-0.8s0.8,0.1,1.2,0.4c0.3,0.3,0.5,0.6,0.5,1.1s-0.2,1-0.6,1.4
			c-0.7,0.8-1.6,1.5-2.8,2s-2.5,0.8-4,0.8c-2.5,0-4.6-0.8-6.3-2.4s-2.5-3.6-2.5-5.9s0.8-4.3,2.5-5.9c1.6-1.6,3.7-2.4,6.3-2.4
			c2.3,0,4.2,0.8,5.9,2.3C208.3,284.5,209.2,286.1,209.2,288z M195.8,287.5h9.9c-0.3-1.2-0.9-2.1-1.7-2.8c-0.8-0.7-1.9-1-3.1-1
			c-1.4,0-2.5,0.3-3.4,1C196.6,285.4,196,286.3,195.8,287.5z"/>
		<path class="st12" d="M219.8,297.3c-2.2,0-4.1-0.8-5.7-2.4c-1.6-1.6-2.4-3.6-2.4-5.9s0.8-4.4,2.5-5.9c1.6-1.6,3.5-2.4,5.7-2.4
			c1.3,0,2.6,0.3,3.6,1c1.1,0.7,1.8,1.5,2.3,2.6l0.1-2.3c0.1-0.3,0.3-0.6,0.6-0.8c0.3-0.2,0.7-0.3,1.1-0.3c0.5,0,0.9,0.2,1.2,0.5
			s0.5,0.8,0.5,1.3v12.7c0,0.5-0.1,1-0.4,1.3c-0.3,0.4-0.7,0.5-1.3,0.5c-0.5,0-0.9-0.1-1.2-0.3c-0.3-0.2-0.5-0.5-0.5-0.8l-0.1-2.3
			c-0.4,1.1-1.2,1.9-2.3,2.6C222.4,297,221.1,297.3,219.8,297.3z M216.8,292.6c1,1,2.2,1.5,3.6,1.5c1.4,0,2.6-0.5,3.6-1.5
			s1.5-2.2,1.5-3.6s-0.5-2.6-1.5-3.6s-2.2-1.5-3.6-1.5c-1.4,0-2.6,0.5-3.6,1.5s-1.5,2.2-1.5,3.6
			C215.4,290.4,215.9,291.6,216.8,292.6z"/>
		<path class="st12" d="M237.5,296.7c-0.3,0.4-0.8,0.5-1.3,0.5s-1-0.2-1.3-0.5c-0.3-0.4-0.5-0.8-0.5-1.3v-20c0-0.5,0.2-1,0.5-1.3
			s0.8-0.5,1.3-0.5s1,0.2,1.3,0.5s0.5,0.8,0.5,1.3v20C238.1,295.9,237.9,296.4,237.5,296.7z"/>
		<path class="st12" d="M252,294.1c0.5-0.1,0.9,0,1.2,0.3s0.5,0.7,0.5,1.1s-0.1,0.7-0.4,1s-0.6,0.5-1,0.5c-0.7,0.2-1.3,0.3-1.9,0.3
			c-1.9,0-3.5-0.6-4.6-1.7c-1.1-1.2-1.7-2.6-1.7-4.3v-7.2h-1.9c-0.4,0-0.8-0.1-1.1-0.4s-0.4-0.6-0.4-1.1s0.1-0.8,0.4-1
			s0.6-0.4,1.1-0.4h1.9v-2.7c0-0.5,0.2-1,0.6-1.3s0.8-0.5,1.3-0.5s0.9,0.2,1.3,0.5s0.5,0.8,0.5,1.3v2.6h4.4c0.4,0,0.8,0.1,1,0.4
			s0.4,0.6,0.4,1s-0.1,0.8-0.4,1.1c-0.3,0.3-0.6,0.4-1,0.4h-4.4v6.9c0,1,0.3,1.8,0.8,2.4s1.3,0.9,2.3,0.9
			C251.1,294.3,251.5,294.2,252,294.1z"/>
		<path class="st12" d="M260.4,296.7c-0.3,0.4-0.8,0.5-1.3,0.5s-1-0.2-1.3-0.5c-0.3-0.4-0.5-0.8-0.5-1.3v-19.9c0-0.5,0.2-1,0.5-1.3
			s0.8-0.5,1.3-0.5s1,0.2,1.3,0.5s0.5,0.8,0.5,1.3v8.9h0.1c0.4-1.1,1.1-1.9,2.1-2.6s2-1,3.2-1c2.1,0,3.8,0.7,5.1,2.2
			c1.3,1.4,2,3.3,2,5.4v7c0,0.5-0.2,1-0.5,1.3c-0.4,0.4-0.8,0.5-1.3,0.5s-1-0.2-1.3-0.5c-0.3-0.4-0.5-0.8-0.5-1.3v-6.7
			c0-1.3-0.4-2.4-1.2-3.3c-0.8-0.9-1.9-1.4-3.1-1.4s-2.2,0.5-3.1,1.4s-1.3,2.1-1.3,3.4v6.5C261,295.8,260.8,296.3,260.4,296.7z"/>
	</g>
</g>
<rect y="553.8" class="st13" width="400" height="46.2"/>
<g>
	<path class="st14" d="M159.8,586c-1.1-0.5-2-1.2-2.7-2.1l2.5-3c1,1.4,2.2,2.1,3.6,2.1c1.8,0,2.7-1.1,2.7-3.2v-9.2h-6.8V567h11.2
		v12.5c0,2.4-0.6,4.2-1.8,5.3c-1.2,1.2-2.9,1.8-5.2,1.8C162.1,586.7,160.9,586.5,159.8,586z"/>
	<path class="st14" d="M187.1,582.2h-9l-1.7,4.1h-4.6l8.6-19.3h4.4l8.6,19.3h-4.7L187.1,582.2z M185.7,578.8l-3.1-7.4l-3.1,7.4
		H185.7z"/>
	<path class="st14" d="M213.1,567l-8.4,19.3h-4.4L192,567h4.8l5.9,13.8l6-13.8H213.1z"/>
	<path class="st14" d="M226.8,582.2h-9l-1.7,4.1h-4.6l8.6-19.3h4.4l8.6,19.3h-4.7L226.8,582.2z M225.4,578.8l-3.1-7.4l-3.1,7.4
		H225.4z"/>
</g>
</svg>
