<?xml version="1.0" encoding="utf-8"?>
<!-- Generator: Adobe Illustrator 23.0.1, SVG Export Plug-In . SVG Version: 6.00 Build 0)  -->
<svg version="1.1" id="Camada_1" xmlns="http://www.w3.org/2000/svg" xmlns:xlink="http://www.w3.org/1999/xlink" x="0px" y="0px"
	 viewBox="0 0 400 600" style="enable-background:new 0 0 400 600;" xml:space="preserve">
<style type="text/css">
	.st0{fill:#B44645;}
	.st1{fill:#C5474A;}
	.st2{fill:none;}
	.st3{fill:#FFFFFF;}
	.st4{fill:#424242;}
</style>
<rect class="st0" width="400" height="600"/>
<path class="st1" d="M326.3,464.3H73.7c-1.7,0-3-1.4-3-3V138.7c0-1.7,1.4-3,3-3h252.6c1.7,0,3,1.4,3,3v322.6
	C329.3,463,327.9,464.3,326.3,464.3z"/>
<g>
	<rect x="98.7" y="367.7" class="st2" width="149.7" height="69.4"/>
	<path class="st3" d="M104.9,387c-1.6-0.9-2.8-2-3.7-3.5c-0.9-1.5-1.3-3.2-1.3-5.1c0-1.9,0.5-3.6,1.3-5.1c0.9-1.5,2.1-2.7,3.7-3.5
		c1.6-0.9,3.3-1.3,5.2-1.3c1.6,0,3,0.3,4.3,0.8c1.3,0.5,2.4,1.3,3.3,2.4l-2.3,2.2c-1.4-1.5-3.1-2.3-5.1-2.3c-1.3,0-2.5,0.3-3.5,0.9
		c-1,0.6-1.9,1.4-2.4,2.4c-0.6,1-0.9,2.2-0.9,3.5c0,1.3,0.3,2.5,0.9,3.5c0.6,1,1.4,1.8,2.4,2.4c1,0.6,2.2,0.9,3.5,0.9
		c2,0,3.7-0.8,5.1-2.3l2.3,2.2c-0.9,1-2,1.8-3.3,2.4c-1.3,0.5-2.7,0.8-4.3,0.8C108.2,388.3,106.5,387.8,104.9,387z"/>
	<path class="st3" d="M131.3,374.7c1.1,1,1.7,2.6,1.7,4.7v8.6h-3.2v-1.8c-0.4,0.6-1,1.1-1.8,1.5c-0.8,0.3-1.7,0.5-2.8,0.5
		s-2.1-0.2-2.9-0.5s-1.5-0.9-1.9-1.6c-0.5-0.7-0.7-1.4-0.7-2.3c0-1.3,0.5-2.4,1.5-3.2c1-0.8,2.5-1.2,4.6-1.2h3.8v-0.2
		c0-1-0.3-1.8-0.9-2.3c-0.6-0.5-1.5-0.8-2.7-0.8c-0.8,0-1.6,0.1-2.4,0.4c-0.8,0.2-1.5,0.6-2,1.1l-1.3-2.5c0.8-0.6,1.7-1,2.8-1.3
		c1.1-0.3,2.2-0.5,3.4-0.5C128.5,373.2,130.1,373.7,131.3,374.7z M128.2,385.1c0.7-0.4,1.1-0.9,1.4-1.7v-1.7H126c-2,0-3,0.6-3,1.9
		c0,0.6,0.2,1.1,0.7,1.5c0.5,0.4,1.2,0.5,2.1,0.5C126.7,385.7,127.5,385.5,128.2,385.1z M128,367.6h4l-4.8,3.7h-2.9L128,367.6z"/>
	<path class="st3" d="M137.4,367.7h3.4V388h-3.4V367.7z"/>
	<path class="st3" d="M147.9,387.2c-1.2-0.6-2.2-1.5-2.8-2.7c-0.7-1.1-1-2.4-1-3.9c0-1.4,0.3-2.7,1-3.9c0.7-1.1,1.6-2,2.8-2.6
		s2.6-1,4.1-1c1.4,0,2.7,0.3,3.8,0.9c1.1,0.6,1.9,1.4,2.5,2.5l-2.6,1.5c-0.4-0.7-0.9-1.2-1.6-1.5c-0.6-0.3-1.3-0.5-2.1-0.5
		c-1.3,0-2.3,0.4-3.2,1.2c-0.9,0.8-1.2,1.9-1.2,3.3c0,1.4,0.4,2.5,1.2,3.3c0.8,0.8,1.9,1.2,3.2,1.2c0.8,0,1.4-0.2,2.1-0.5
		s1.2-0.9,1.6-1.5l2.6,1.5c-0.6,1.1-1.4,1.9-2.5,2.5c-1.1,0.6-2.3,0.9-3.8,0.9C150.5,388.2,149.1,387.9,147.9,387.2z"/>
	<path class="st3" d="M175.4,373.4V388h-3.3v-1.9c-0.5,0.7-1.2,1.2-2.1,1.5s-1.7,0.5-2.6,0.5c-1.9,0-3.5-0.5-4.6-1.6
		c-1.1-1.1-1.7-2.7-1.7-4.8v-8.3h3.4v7.9c0,1.3,0.3,2.3,0.9,3c0.6,0.6,1.4,1,2.5,1c1.2,0,2.2-0.4,2.9-1.1c0.7-0.8,1.1-1.9,1.1-3.3
		v-7.4H175.4L175.4,373.4z"/>
	<path class="st3" d="M179.8,367.7h3.4V388h-3.4V367.7z"/>
	<path class="st3" d="M190.3,387.2c-1.2-0.6-2.1-1.5-2.8-2.7c-0.7-1.1-1-2.4-1-3.9c0-1.4,0.3-2.7,1-3.9c0.7-1.1,1.6-2,2.8-2.6
		c1.2-0.6,2.5-1,4-1c1.5,0,2.8,0.3,4,1c1.2,0.6,2.1,1.5,2.8,2.6c0.7,1.1,1,2.4,1,3.9c0,1.4-0.3,2.7-1,3.9c-0.7,1.2-1.6,2-2.8,2.7
		s-2.5,1-4,1C192.9,388.2,191.5,387.9,190.3,387.2z M197.5,384c0.8-0.9,1.2-1.9,1.2-3.3s-0.4-2.5-1.2-3.3c-0.8-0.9-1.9-1.2-3.1-1.2
		c-1.2,0-2.3,0.4-3.1,1.2c-0.8,0.9-1.2,1.9-1.2,3.3s0.4,2.5,1.2,3.3c0.8,0.9,1.9,1.2,3.1,1.2C195.6,385.2,196.6,384.8,197.5,384z"/>
	<path class="st3" d="M227.3,367.7V388H224v-1.9c-0.6,0.7-1.3,1.2-2.1,1.6c-0.8,0.3-1.7,0.5-2.7,0.5c-1.4,0-2.7-0.3-3.8-0.9
		c-1.1-0.6-2-1.5-2.6-2.6c-0.6-1.1-1-2.5-1-3.9c0-1.5,0.3-2.8,1-3.9c0.6-1.1,1.5-2,2.6-2.6s2.4-0.9,3.8-0.9c1,0,1.9,0.2,2.6,0.5
		c0.8,0.3,1.5,0.8,2.1,1.5v-7.5L227.3,367.7L227.3,367.7z M221.8,384.7c0.7-0.4,1.2-0.9,1.6-1.6c0.4-0.7,0.6-1.5,0.6-2.4
		s-0.2-1.7-0.6-2.4c-0.4-0.7-0.9-1.2-1.6-1.6c-0.7-0.4-1.4-0.5-2.2-0.5s-1.6,0.2-2.2,0.5s-1.2,0.9-1.6,1.6c-0.4,0.7-0.6,1.5-0.6,2.4
		s0.2,1.7,0.6,2.4c0.4,0.7,0.9,1.2,1.6,1.6c0.7,0.4,1.4,0.5,2.2,0.5S221.1,385.1,221.8,384.7z"/>
	<path class="st3" d="M245.5,381.8H234c0.2,1.1,0.7,1.9,1.6,2.6c0.9,0.6,1.9,0.9,3.2,0.9c1.6,0,2.9-0.5,4-1.6l1.8,2.1
		c-0.7,0.8-1.5,1.4-2.5,1.8s-2.1,0.6-3.4,0.6c-1.6,0-3-0.3-4.3-1c-1.2-0.6-2.2-1.5-2.8-2.7c-0.7-1.1-1-2.4-1-3.9
		c0-1.4,0.3-2.7,1-3.8c0.6-1.1,1.6-2,2.7-2.7c1.2-0.6,2.4-1,3.9-1c1.4,0,2.7,0.3,3.8,0.9c1.1,0.6,2,1.5,2.6,2.6s0.9,2.5,0.9,4
		C245.5,381,245.5,381.3,245.5,381.8z M235.4,376.9c-0.8,0.6-1.2,1.5-1.4,2.6h8.3c-0.2-1.1-0.6-1.9-1.3-2.6c-0.8-0.7-1.7-1-2.8-1
		C237.1,375.9,236.1,376.3,235.4,376.9z"/>
	<path class="st3" d="M125.9,436.7l-7.1-10.1c-0.3,0-0.7,0.1-1.3,0.1h-7.8v10h-6.4v-34.5h14.2c3,0,5.6,0.5,7.8,1.5
		c2.2,1,3.9,2.4,5.1,4.2c1.2,1.8,1.8,4,1.8,6.5c0,2.6-0.6,4.8-1.9,6.7c-1.3,1.9-3.1,3.3-5.4,4.2l7.9,11.4H125.9L125.9,436.7z
		 M123.6,409.4c-1.5-1.2-3.6-1.8-6.4-1.8h-7.5v13.8h7.5c2.8,0,4.9-0.6,6.4-1.8c1.5-1.2,2.2-2.9,2.2-5.1
		C125.8,412.2,125.1,410.6,123.6,409.4z"/>
	<path class="st3" d="M146,434.9c-2.8-1.5-5.1-3.7-6.7-6.4c-1.6-2.7-2.4-5.8-2.4-9.1s0.8-6.4,2.4-9.1c1.6-2.7,3.8-4.8,6.7-6.4
		s6-2.3,9.5-2.3c3.5,0,6.7,0.8,9.5,2.3s5.1,3.7,6.7,6.3c1.6,2.7,2.4,5.7,2.4,9.1c0,3.4-0.8,6.4-2.4,9.1c-1.6,2.7-3.8,4.8-6.7,6.3
		c-2.8,1.5-6,2.3-9.5,2.3C152,437.2,148.8,436.4,146,434.9z M161.7,430c1.8-1,3.3-2.5,4.4-4.4c1.1-1.9,1.6-3.9,1.6-6.2
		c0-2.3-0.5-4.4-1.6-6.2c-1.1-1.9-2.5-3.3-4.4-4.4c-1.8-1-3.9-1.6-6.2-1.6c-2.3,0-4.4,0.5-6.2,1.6c-1.8,1-3.3,2.5-4.4,4.4
		c-1.1,1.9-1.6,3.9-1.6,6.2c0,2.3,0.5,4.4,1.6,6.2c1.1,1.9,2.5,3.3,4.4,4.4c1.8,1,3.9,1.6,6.2,1.6C157.8,431.6,159.9,431,161.7,430z
		"/>
	<path class="st3" d="M180.9,402.2h6.4v34.5h-6.4V402.2z"/>
	<path class="st3" d="M192,436.7h24.7v3.7H192V436.7z"/>
</g>
<path class="st3" d="M298.4,231.7H106.1c-6.3,0-11.4-5.1-11.4-11.4v-51.6c0-6.3,5.1-11.4,11.4-11.4h192.3c6.3,0,11.4,5.1,11.4,11.4
	v51.5C309.7,226.7,304.6,231.7,298.4,231.7z"/>
<g>
	<rect x="101.9" y="177" class="st2" width="181.1" height="56.5"/>
	<path class="st4" d="M111.5,213c-2.1-1.5-3.8-3.6-5-6.3c-1.2-2.7-1.8-5.9-1.8-9.6c0-3.7,0.6-6.9,1.8-9.6c1.2-2.7,2.8-4.8,5-6.3
		c2.1-1.5,4.6-2.2,7.3-2.2c2.7,0,5.1,0.7,7.3,2.2c2.1,1.5,3.8,3.6,5,6.3c1.2,2.7,1.8,5.9,1.8,9.6c0,3.7-0.6,6.9-1.8,9.6
		c-1.2,2.7-2.8,4.8-5,6.3c-2.1,1.5-4.6,2.2-7.3,2.2C116,215.2,113.6,214.5,111.5,213z M124.7,211c1.7-1.2,3.1-3,4-5.4
		s1.4-5.2,1.4-8.5s-0.5-6.1-1.4-8.5s-2.3-4.2-4-5.4s-3.7-1.9-6-1.9c-2.3,0-4.2,0.6-6,1.9c-1.7,1.2-3.1,3-4,5.4
		c-0.9,2.4-1.4,5.2-1.4,8.5s0.5,6.1,1.4,8.5s2.3,4.2,4,5.4s3.7,1.9,6,1.9C121,212.8,123,212.2,124.7,211z"/>
	<path class="st4" d="M145.1,213c-2.1-1.5-3.8-3.6-5-6.3c-1.2-2.7-1.8-5.9-1.8-9.6c0-3.7,0.6-6.9,1.8-9.6s2.8-4.8,5-6.3
		c2.1-1.5,4.6-2.2,7.3-2.2c2.7,0,5.1,0.7,7.3,2.2c2.1,1.5,3.8,3.6,5,6.3c1.2,2.7,1.8,5.9,1.8,9.6c0,3.7-0.6,6.9-1.8,9.6
		s-2.8,4.8-5,6.3c-2.1,1.5-4.6,2.2-7.3,2.2C149.6,215.2,147.2,214.5,145.1,213z M158.3,211c1.7-1.2,3.1-3,4-5.4
		c0.9-2.4,1.4-5.2,1.4-8.5s-0.5-6.1-1.4-8.5c-0.9-2.4-2.3-4.2-4-5.4s-3.7-1.9-6-1.9s-4.2,0.6-6,1.9s-3.1,3-4,5.4
		c-0.9,2.4-1.4,5.2-1.4,8.5s0.5,6.1,1.4,8.5c0.9,2.4,2.3,4.2,4,5.4s3.7,1.9,6,1.9S156.6,212.2,158.3,211z"/>
	<path class="st4" d="M178.7,213c-2.1-1.5-3.8-3.6-5-6.3c-1.2-2.7-1.8-5.9-1.8-9.6c0-3.7,0.6-6.9,1.8-9.6c1.2-2.7,2.8-4.8,5-6.3
		c2.1-1.5,4.6-2.2,7.3-2.2c2.7,0,5.1,0.7,7.3,2.2c2.1,1.5,3.8,3.6,5,6.3c1.2,2.7,1.8,5.9,1.8,9.6c0,3.7-0.6,6.9-1.8,9.6
		c-1.2,2.7-2.8,4.8-5,6.3c-2.1,1.5-4.6,2.2-7.3,2.2C183.3,215.2,180.8,214.5,178.7,213z M192,211c1.7-1.2,3.1-3,4-5.4
		c0.9-2.4,1.4-5.2,1.4-8.5s-0.5-6.1-1.4-8.5c-0.9-2.4-2.3-4.2-4-5.4c-1.7-1.2-3.7-1.9-6-1.9s-4.2,0.6-6,1.9s-3.1,3-4,5.4
		s-1.4,5.2-1.4,8.5s0.5,6.1,1.4,8.5s2.3,4.2,4,5.4s3.7,1.9,6,1.9S190.2,212.2,192,211z"/>
	<path class="st4" d="M202.8,215h19.5v1.4h-19.5V215z"/>
</g>
<g>
</g>
<g>
</g>
<g>
</g>
<g>
</g>
<g>
</g>
<g>
</g>
</svg>
