<?xml version="1.0" encoding="utf-8"?>
<!-- Generator: Adobe Illustrator 23.0.1, SVG Export Plug-In . SVG Version: 6.00 Build 0)  -->
<svg version="1.1" id="Camada_1" xmlns="http://www.w3.org/2000/svg" xmlns:xlink="http://www.w3.org/1999/xlink" x="0px" y="0px"
	 viewBox="0 0 400 600" style="enable-background:new 0 0 400 600;" xml:space="preserve">
<style type="text/css">
	.st0{fill:#354FAF;}
	.st1{fill:#4959CD;}
	.st2{fill:none;}
	.st3{fill:#FFFFFF;}
	.st4{fill:#43CAFF;}
</style>
<rect y="0" class="st0" width="400" height="600"/>
<g>
	<path class="st1" d="M311.6,470.3H88.4c-8.9,0-16.1-7.2-16.1-16.1V161.8c0-8.9,7.2-16.1,16.1-16.1h223.2c8.9,0,16.1,7.2,16.1,16.1
		v292.3C327.7,463.1,320.4,470.3,311.6,470.3z"/>
	<g>
		<rect x="95" y="352" class="st2" width="183.4" height="88.7"/>
		<path class="st3" d="M121.6,381.4v2.7H100v-30.4h20.9v2.7h-17.7v10.8H119v2.7h-15.8v11.3h18.4V381.4z"/>
		<path class="st3" d="M168.1,363.6c1.6,1.6,2.4,4,2.4,7.2V384h-3.1v-12.9c0-2.4-0.6-4.2-1.8-5.5c-1.1-1.3-2.7-1.9-4.8-1.9
			c-2.4,0-4.2,0.8-5.6,2.3c-1.4,1.4-2.1,3.5-2.1,6.1v12.1H150v-12.9c0-2.4-0.6-4.2-1.8-5.5c-1.1-1.3-2.7-1.9-4.8-1.9
			c-2.4,0-4.2,0.8-5.6,2.3c-1.4,1.4-2.1,3.5-2.1,6.1v12.1h-3.1v-22.9h2.9v4.2c0.8-1.4,1.9-2.4,3.4-3.2c1.4-0.8,3.1-1.1,5-1.1
			s3.5,0.5,5,1.3c1.4,0.8,2.4,2.1,3.2,3.5c0.8-1.4,2.1-2.7,3.7-3.5c1.6-0.8,3.4-1.3,5.5-1.3C164.3,361.1,166.5,361.9,168.1,363.6z"
			/>
		<path class="st3" d="M201,362.6c1.8,1,3.1,2.4,4,4.2s1.4,3.7,1.4,6.1c0,2.3-0.5,4.3-1.4,6.1c-1,1.8-2.4,3.1-4,4.2
			c-1.8,1-3.7,1.4-5.8,1.4c-1.9,0-3.5-0.3-5-1.1c-1.4-0.8-2.7-1.9-3.7-3.4v12.7h-3.1v-31.2h2.9v4.5c1-1.4,2.1-2.7,3.7-3.5
			c1.6-0.8,3.2-1.3,5.2-1.3C197.3,361.1,199.2,361.6,201,362.6z M199.2,380.6c1.3-0.8,2.3-1.8,3.1-3.2c0.8-1.3,1.1-2.9,1.1-4.7
			s-0.3-3.2-1.1-4.7c-0.8-1.3-1.8-2.4-3.1-3.2c-1.3-0.8-2.7-1.1-4.3-1.1s-3.1,0.3-4.3,1.1c-1.3,0.8-2.3,1.8-3.1,3.2
			c-0.8,1.3-1.1,2.9-1.1,4.7s0.3,3.2,1.1,4.7c0.8,1.3,1.8,2.4,3.1,3.2c1.3,0.8,2.7,1.1,4.3,1.1C196.5,381.6,197.9,381.3,199.2,380.6
			z"/>
		<path class="st3" d="M229.1,382.7c-0.6,0.5-1.3,1-2.1,1.1c-0.8,0.2-1.8,0.5-2.7,0.5c-2.1,0-3.9-0.6-5-1.8c-1.1-1.1-1.8-2.7-1.8-5
			v-13.8h-4v-2.6h4v-5h3.1v5h6.9v2.6h-6.9v13.7c0,1.3,0.3,2.4,1,3.1s1.6,1.1,2.9,1.1c0.6,0,1.3-0.2,1.8-0.3c0.6-0.2,1.1-0.5,1.6-0.8
			L229.1,382.7z"/>
		<path class="st3" d="M258,361.3l-11.4,25.6c-1,2.1-1.9,3.7-3.2,4.5c-1.3,1-2.7,1.3-4.3,1.3c-1.1,0-2.1-0.2-3.1-0.5
			s-1.8-0.8-2.4-1.6l1.4-2.3c1.1,1.1,2.6,1.8,4.2,1.8c1,0,1.9-0.3,2.7-0.8c0.8-0.6,1.4-1.6,2.1-2.9l1-2.3l-10.1-22.9h3.2l8.5,19.5
			l8.5-19.5L258,361.3L258,361.3z"/>
		<path class="st3" d="M98.7,405.9h7.1v24.6h15.3v5.8H98.7V405.9z"/>
		<path class="st3" d="M129.1,408.6c-0.8-0.6-1.1-1.6-1.1-2.7s0.3-1.9,1.1-2.7s1.8-1.1,3.1-1.1s2.3,0.3,3.1,1s1.1,1.6,1.1,2.6
			c0,1.1-0.3,2.1-1.1,2.7c-0.8,0.8-1.8,1.1-3.1,1.1C130.9,409.8,130,409.3,129.1,408.6z M128.8,413h6.8v23.3h-6.8V413z"/>
		<path class="st3" d="M148.5,436c-1.9-0.5-3.4-1.1-4.5-1.8l2.3-4.8c1,0.6,2.3,1.3,3.7,1.6s2.9,0.6,4.3,0.6c2.9,0,4.3-0.6,4.3-2.1
			c0-0.6-0.3-1.1-1.1-1.4s-1.9-0.5-3.5-0.8c-1.9-0.3-3.5-0.6-4.7-1c-1.3-0.3-2.3-1-3.2-1.9c-1-1-1.4-2.3-1.4-4
			c0-1.4,0.5-2.7,1.3-3.9c0.8-1.1,2.1-2.1,3.7-2.7c1.6-0.6,3.5-1,5.8-1c1.6,0,3.2,0.2,5,0.5c1.6,0.3,3.1,0.8,4,1.4l-2.3,4.8
			c-2.1-1.1-4.3-1.8-6.8-1.8c-1.4,0-2.6,0.2-3.2,0.6s-1.1,1-1.1,1.6c0,0.8,0.3,1.3,1.1,1.4c0.8,0.3,2.1,0.6,3.7,0.8
			c1.9,0.3,3.5,0.6,4.7,1c1.1,0.3,2.3,1,3.2,1.9c1,1,1.3,2.3,1.3,4c0,1.4-0.5,2.7-1.3,3.9c-0.8,1.1-2.1,1.9-3.9,2.6
			c-1.6,0.6-3.7,1-6,1C152.2,436.7,150.2,436.5,148.5,436z"/>
		<path class="st3" d="M188.7,435.2c-0.6,0.5-1.4,0.8-2.4,1.1c-1,0.3-1.9,0.3-3.1,0.3c-2.7,0-5-0.6-6.4-2.1s-2.3-3.5-2.3-6.3v-9.7
			H171v-5.2h3.5v-5.6h6.8v5.6h5.8v5.2h-5.8v9.5c0,1,0.3,1.8,0.8,2.3s1.3,0.8,2.1,0.8c1.1,0,1.9-0.3,2.7-0.8L188.7,435.2z"/>
		<path class="st3" d="M193.9,436.3h21.7v1.6h-21.7V436.3z"/>
	</g>
	<path class="st3" d="M298.7,183.8H106.6c-3.7,0-6.6-2.9-6.6-6.6l0,0c0-3.7,2.9-6.6,6.6-6.6h191.9c3.7,0,6.6,2.9,6.6,6.6l0,0
		C305.3,180.9,302.3,183.8,298.7,183.8z"/>
</g>
<rect y="553.8" class="st4" width="400" height="46.2"/>
<g>
	<path class="st3" d="M106.4,587.3c-1.1-0.5-2-1.2-2.7-2.1l2.5-3c1.1,1.4,2.3,2.2,3.6,2.2c1.8,0,2.8-1.1,2.8-3.2v-9.3h-6.9v-3.6
		h11.4v12.7c0,2.4-0.6,4.2-1.8,5.4c-1.2,1.2-2.9,1.8-5.3,1.8C108.8,588,107.5,587.8,106.4,587.3z"/>
	<path class="st3" d="M134.1,583.5H125l-1.7,4.2h-4.6l8.7-19.6h4.5l8.8,19.6h-4.8L134.1,583.5z M132.7,580.1l-3.1-7.5l-3.1,7.5
		H132.7z"/>
	<path class="st3" d="M160.4,568.1l-8.5,19.6h-4.5l-8.5-19.6h4.9l6,14l6-14H160.4z"/>
	<path class="st3" d="M174.3,583.5h-9.1l-1.7,4.2h-4.6l8.7-19.6h4.5l8.8,19.6H176L174.3,583.5z M172.9,580.1l-3.1-7.5l-3.1,7.5
		H172.9z"/>
	<path class="st3" d="M184.8,587.4c-1.4-0.4-2.6-1-3.5-1.6l1.5-3.4c0.8,0.6,1.8,1.1,3,1.5c1.2,0.4,2.3,0.6,3.5,0.6
		c1.3,0,2.2-0.2,2.9-0.6c0.6-0.4,0.9-0.9,0.9-1.5c0-0.5-0.2-0.9-0.5-1.2c-0.4-0.3-0.8-0.6-1.4-0.7c-0.6-0.2-1.3-0.4-2.3-0.6
		c-1.5-0.4-2.7-0.7-3.7-1.1c-1-0.4-1.8-0.9-2.4-1.7c-0.7-0.8-1-1.8-1-3.1c0-1.1,0.3-2.2,0.9-3.1c0.6-0.9,1.5-1.7,2.8-2.2
		c1.2-0.5,2.8-0.8,4.5-0.8c1.3,0,2.5,0.1,3.7,0.4c1.2,0.3,2.2,0.7,3.1,1.3l-1.4,3.4c-1.8-1-3.6-1.5-5.4-1.5c-1.3,0-2.2,0.2-2.8,0.6
		c-0.6,0.4-0.9,1-0.9,1.6s0.4,1.2,1,1.5c0.7,0.3,1.8,0.6,3.2,1c1.5,0.4,2.7,0.7,3.7,1.1c1,0.4,1.8,0.9,2.5,1.7c0.7,0.8,1,1.8,1,3.1
		c0,1.1-0.3,2.1-0.9,3.1c-0.6,0.9-1.6,1.7-2.8,2.2c-1.3,0.5-2.8,0.8-4.6,0.8C187.7,588,186.2,587.8,184.8,587.4z"/>
	<path class="st3" d="M204.7,586.7c-1.6-0.9-2.9-2.1-3.8-3.6s-1.4-3.3-1.4-5.2s0.5-3.7,1.4-5.2c0.9-1.5,2.2-2.7,3.8-3.6
		s3.4-1.3,5.4-1.3c1.7,0,3.2,0.3,4.6,0.9c1.4,0.6,2.5,1.5,3.5,2.6l-2.9,2.7c-1.3-1.5-3-2.3-4.9-2.3c-1.2,0-2.3,0.3-3.2,0.8
		c-1,0.5-1.7,1.3-2.2,2.2s-0.8,2-0.8,3.2s0.3,2.3,0.8,3.2s1.3,1.7,2.2,2.2s2,0.8,3.2,0.8c2,0,3.6-0.8,4.9-2.3l2.9,2.7
		c-0.9,1.1-2.1,2-3.5,2.6c-1.4,0.6-2.9,0.9-4.6,0.9C208.1,588,206.3,587.6,204.7,586.7z"/>
	<path class="st3" d="M233.7,587.7l-3.8-5.5h-0.2h-3.9v5.5h-4.5v-19.6h8.5c1.7,0,3.2,0.3,4.5,0.9c1.3,0.6,2.3,1.4,3,2.5
		c0.7,1.1,1,2.3,1,3.8s-0.3,2.7-1,3.8s-1.7,1.9-3,2.4l4.4,6.3H233.7z M232.6,572.7c-0.7-0.6-1.7-0.9-3.1-0.9h-3.7v6.8h3.7
		c1.4,0,2.4-0.3,3.1-0.9s1.1-1.4,1.1-2.5C233.6,574.1,233.3,573.3,232.6,572.7z"/>
	<path class="st3" d="M241.8,568.1h4.5v19.6h-4.5V568.1z"/>
	<path class="st3" d="M264,569c1.3,0.6,2.3,1.4,3,2.5c0.7,1.1,1,2.3,1,3.8c0,1.4-0.3,2.7-1,3.8s-1.7,1.9-3,2.5s-2.8,0.9-4.5,0.9
		h-3.9v5.4H251v-19.6h8.5C261.2,568.1,262.7,568.4,264,569z M262.3,577.7c0.7-0.6,1.1-1.4,1.1-2.5c0-1.1-0.4-1.9-1.1-2.5
		c-0.7-0.6-1.7-0.9-3.1-0.9h-3.7v6.8h3.7C260.6,578.6,261.6,578.3,262.3,577.7z"/>
	<path class="st3" d="M274.7,571.8h-6.3v-3.7h17.1v3.7h-6.3v15.9h-4.5V571.8z"/>
</g>
</svg>
