<?xml version="1.0" encoding="utf-8"?>
<!-- Generator: Adobe Illustrator 23.0.1, SVG Export Plug-In . SVG Version: 6.00 Build 0)  -->
<svg version="1.1" id="Camada_1" xmlns="http://www.w3.org/2000/svg" xmlns:xlink="http://www.w3.org/1999/xlink" x="0px" y="0px"
	 viewBox="0 0 400 600" style="enable-background:new 0 0 400 600;" xml:space="preserve">
<style type="text/css">
	.st0{fill:#1F1F24;stroke:#000000;stroke-miterlimit:10;}
	.st1{fill:#1F1F24;stroke:#2F2F2F;stroke-width:6;stroke-miterlimit:10;}
	.st2{fill:none;}
	.st3{fill:#7C7C7C;}
	.st4{fill:#545454;}
	.st5{fill:none;stroke:#444242;stroke-width:5;stroke-miterlimit:10;}
</style>
<rect class="st0" width="400" height="600"/>
<path class="st1" d="M370.7,577.4H29.3c-5.9,0-10.7-4.8-10.7-10.7V43.7c0-5.9,4.8-10.7,10.7-10.7h341.4c5.9,0,10.7,4.8,10.7,10.7
	v522.9C381.4,572.5,376.6,577.4,370.7,577.4z"/>
<g>
	<rect x="67.1" y="349.6" class="st2" width="265.8" height="140.4"/>
	<path class="st3" d="M100.8,383.9H81.9l-3.6,8.7h-9.6L86.8,352h9.3l18.2,40.6h-9.9L100.8,383.9z M97.8,376.8l-6.4-15.5l-6.4,15.5
		H97.8z"/>
	<path class="st3" d="M149.7,361.4v26c0,5.7-1.5,10-4.5,12.8c-3,2.8-7.3,4.2-13,4.2c-3,0-5.9-0.4-8.6-1.1c-2.7-0.7-5-1.8-6.7-3.2
		l3.6-6.5c1.3,1.1,3,1.9,5,2.6c2,0.6,4,1,6,1c3.1,0,5.4-0.7,6.9-2.1c1.5-1.4,2.2-3.5,2.2-6.4v-1.3c-2.4,2.6-5.6,3.9-9.9,3.9
		c-2.9,0-5.5-0.6-7.9-1.9c-2.4-1.3-4.3-3-5.7-5.3c-1.4-2.3-2.1-4.9-2.1-7.9s0.7-5.6,2.1-7.9c1.4-2.3,3.3-4,5.7-5.3
		c2.4-1.3,5-1.9,7.9-1.9c4.5,0,8,1.5,10.3,4.5v-4H149.7z M138.5,381.6c1.5-1.4,2.3-3.3,2.3-5.5s-0.8-4.1-2.3-5.5
		c-1.5-1.4-3.5-2.1-5.9-2.1c-2.4,0-4.4,0.7-5.9,2.1c-1.5,1.4-2.3,3.3-2.3,5.5s0.8,4.1,2.3,5.5c1.5,1.4,3.5,2.1,5.9,2.1
		C135,383.7,137,383,138.5,381.6z"/>
	<path class="st3" d="M189.6,361.4v31.2H181v-3.7c-1.2,1.4-2.6,2.4-4.3,3.1c-1.7,0.7-3.5,1.1-5.4,1.1c-4.1,0-7.3-1.2-9.7-3.5
		c-2.4-2.4-3.6-5.9-3.6-10.5v-17.6h9v16.3c0,5,2.1,7.5,6.3,7.5c2.2,0,3.9-0.7,5.2-2.1c1.3-1.4,2-3.5,2-6.3v-15.4H189.6z"/>
	<path class="st3" d="M221.7,364.4c2.6,2.3,3.9,5.8,3.9,10.4v17.8h-8.5v-3.9c-1.7,2.9-4.9,4.4-9.5,4.4c-2.4,0-4.5-0.4-6.2-1.2
		c-1.8-0.8-3.1-1.9-4-3.4c-0.9-1.4-1.4-3.1-1.4-4.9c0-2.9,1.1-5.2,3.3-6.8c2.2-1.7,5.6-2.5,10.1-2.5h7.2c0-2-0.6-3.5-1.8-4.6
		c-1.2-1.1-3-1.6-5.4-1.6c-1.7,0-3.3,0.3-4.9,0.8c-1.6,0.5-3,1.2-4.1,2.1l-3.2-6.3c1.7-1.2,3.7-2.1,6.1-2.8c2.4-0.7,4.8-1,7.3-1
		C215.4,361,219.1,362.1,221.7,364.4z M214,385.9c1.2-0.7,2-1.8,2.6-3.2v-3.2h-6.2c-3.7,0-5.6,1.2-5.6,3.7c0,1.2,0.5,2.1,1.4,2.8
		c0.9,0.7,2.2,1,3.7,1C211.4,387,212.8,386.6,214,385.9z"/>
	<path class="st3" d="M246.8,362.1c1.8-0.8,4-1.2,6.4-1.2v8.4c-1-0.1-1.7-0.1-2-0.1c-2.6,0-4.6,0.7-6.1,2.2
		c-1.5,1.4-2.2,3.6-2.2,6.5v14.7h-9v-31.2h8.6v4.1C243.5,364,244.9,362.9,246.8,362.1z"/>
	<path class="st3" d="M290,349.6v43h-8.6V389c-2.2,2.7-5.5,4.1-9.7,4.1c-2.9,0-5.6-0.7-8-2s-4.2-3.2-5.6-5.6c-1.4-2.4-2-5.3-2-8.5
		c0-3.2,0.7-6,2-8.5c1.4-2.4,3.2-4.3,5.6-5.6c2.4-1.3,5-2,8-2c4,0,7.1,1.3,9.3,3.8v-15.1H290z M278.9,383.3c1.5-1.6,2.3-3.7,2.3-6.3
		c0-2.6-0.8-4.7-2.3-6.3c-1.5-1.6-3.4-2.3-5.7-2.3c-2.3,0-4.2,0.8-5.7,2.3c-1.5,1.6-2.3,3.7-2.3,6.3c0,2.6,0.8,4.7,2.3,6.3
		c1.5,1.6,3.4,2.3,5.7,2.3C275.5,385.7,277.4,384.9,278.9,383.3z"/>
	<path class="st3" d="M328.8,379.6h-23.6c0.4,1.9,1.4,3.5,3,4.6s3.6,1.7,5.9,1.7c1.6,0,3.1-0.2,4.3-0.7c1.3-0.5,2.4-1.2,3.5-2.3
		l4.8,5.2c-2.9,3.4-7.2,5-12.9,5c-3.5,0-6.6-0.7-9.3-2.1c-2.7-1.4-4.8-3.3-6.3-5.7c-1.5-2.4-2.2-5.2-2.2-8.3c0-3.1,0.7-5.8,2.2-8.3
		c1.5-2.5,3.4-4.4,6-5.7c2.5-1.4,5.4-2.1,8.5-2.1c3.1,0,5.8,0.7,8.3,2c2.5,1.3,4.4,3.2,5.8,5.7c1.4,2.5,2.1,5.3,2.1,8.6
		C328.9,377.3,328.9,378.1,328.8,379.6z M307.6,369.5c-1.4,1.2-2.2,2.7-2.6,4.8h15.4c-0.3-2-1.2-3.5-2.6-4.7
		c-1.4-1.2-3.1-1.8-5.1-1.8C310.7,367.8,309,368.4,307.6,369.5z"/>
	<path class="st4" d="M86.7,423.8l0-10.9l-5.4,9h-1.9l-5.3-8.8v10.7h-4v-18.2h3.5l6.8,11.3l6.7-11.3h3.5l0.1,18.2H86.7z"/>
	<path class="st4" d="M105.3,411.2c1.2,1,1.7,2.6,1.7,4.7v8h-3.8v-1.7c-0.8,1.3-2.2,2-4.3,2c-1.1,0-2-0.2-2.8-0.5
		c-0.8-0.4-1.4-0.9-1.8-1.5s-0.6-1.4-0.6-2.2c0-1.3,0.5-2.3,1.5-3.1c1-0.7,2.5-1.1,4.5-1.1h3.2c0-0.9-0.3-1.6-0.8-2
		c-0.5-0.5-1.3-0.7-2.4-0.7c-0.7,0-1.5,0.1-2.2,0.4s-1.3,0.6-1.8,0.9l-1.5-2.8c0.8-0.5,1.7-1,2.7-1.2s2.2-0.4,3.3-0.4
		C102.5,409.6,104.2,410.1,105.3,411.2z M101.9,420.8c0.5-0.3,0.9-0.8,1.1-1.4V418h-2.8c-1.7,0-2.5,0.5-2.5,1.6
		c0,0.5,0.2,0.9,0.6,1.2c0.4,0.3,1,0.5,1.7,0.5C100.7,421.3,101.3,421.1,101.9,420.8z"/>
	<path class="st4" d="M111,407.2c-0.5-0.4-0.7-1-0.7-1.6c0-0.6,0.2-1.2,0.7-1.6c0.5-0.4,1.1-0.7,1.8-0.7c0.7,0,1.4,0.2,1.8,0.6
		c0.5,0.4,0.7,0.9,0.7,1.6c0,0.7-0.2,1.2-0.7,1.7c-0.5,0.4-1.1,0.7-1.8,0.7C112,407.9,111.4,407.7,111,407.2z M110.7,409.8h4.1v14
		h-4.1V409.8z"/>
	<path class="st4" d="M119.9,423.6c-1.1-0.3-2-0.6-2.7-1.1l1.4-2.9c0.6,0.4,1.4,0.7,2.3,1c0.9,0.3,1.8,0.4,2.6,0.4
		c1.7,0,2.6-0.4,2.6-1.3c0-0.4-0.2-0.7-0.7-0.9c-0.5-0.2-1.2-0.3-2.2-0.4c-1.1-0.2-2.1-0.4-2.8-0.6c-0.7-0.2-1.4-0.6-1.9-1.2
		c-0.5-0.6-0.8-1.4-0.8-2.4c0-0.9,0.3-1.7,0.8-2.4c0.5-0.7,1.3-1.2,2.2-1.6c1-0.4,2.1-0.6,3.5-0.6c1,0,2,0.1,3,0.3
		c1,0.2,1.8,0.5,2.4,0.9l-1.4,2.9c-1.2-0.7-2.6-1-4-1c-0.9,0-1.5,0.1-2,0.4c-0.4,0.2-0.6,0.6-0.6,0.9c0,0.4,0.2,0.7,0.7,0.9
		c0.5,0.2,1.2,0.3,2.2,0.5c1.1,0.2,2.1,0.4,2.8,0.6c0.7,0.2,1.4,0.6,1.9,1.2c0.5,0.6,0.8,1.4,0.8,2.4c0,0.9-0.3,1.6-0.8,2.3
		s-1.3,1.2-2.3,1.6c-1,0.4-2.2,0.6-3.5,0.6C122.1,424,121,423.9,119.9,423.6z"/>
	<path class="st4" d="M151.5,410.5c1.1,0.6,1.9,1.4,2.5,2.5c0.6,1.1,0.9,2.3,0.9,3.8c0,1.4-0.3,2.7-0.9,3.8
		c-0.6,1.1-1.4,1.9-2.5,2.5c-1.1,0.6-2.2,0.9-3.5,0.9c-1.8,0-3.2-0.6-4.2-1.7v6.5h-4.1v-19h3.9v1.6c1-1.2,2.5-1.8,4.4-1.8
		C149.3,409.6,150.5,409.9,151.5,410.5z M149.9,419.7c0.7-0.7,1-1.6,1-2.8s-0.3-2.1-1-2.8c-0.7-0.7-1.5-1.1-2.6-1.1
		s-1.9,0.4-2.6,1.1c-0.7,0.7-1,1.6-1,2.8s0.3,2.1,1,2.8c0.7,0.7,1.5,1.1,2.6,1.1S149.2,420.4,149.9,419.7z"/>
	<path class="st4" d="M163.5,410.2c0.8-0.3,1.8-0.5,2.8-0.5v3.7c-0.5,0-0.8-0.1-0.9-0.1c-1.2,0-2.1,0.3-2.7,1c-0.7,0.7-1,1.6-1,2.9
		v6.6h-4.1v-14h3.9v1.8C162,411,162.7,410.5,163.5,410.2z"/>
	<path class="st4" d="M171.3,423.1c-1.2-0.6-2.1-1.5-2.7-2.6c-0.7-1.1-1-2.3-1-3.7s0.3-2.6,1-3.7s1.6-1.9,2.7-2.6
		c1.2-0.6,2.5-0.9,4-0.9s2.8,0.3,4,0.9c1.2,0.6,2.1,1.5,2.7,2.6s1,2.3,1,3.7s-0.3,2.6-1,3.7c-0.7,1.1-1.6,1.9-2.7,2.6
		c-1.2,0.6-2.5,0.9-4,0.9S172.5,423.7,171.3,423.1z M177.9,419.7c0.7-0.7,1-1.6,1-2.8s-0.3-2.1-1-2.8c-0.7-0.7-1.5-1.1-2.6-1.1
		s-1.9,0.4-2.6,1.1c-0.7,0.7-1,1.6-1,2.8s0.3,2.1,1,2.8c0.7,0.7,1.5,1.1,2.6,1.1S177.2,420.4,177.9,419.7z"/>
	<path class="st4" d="M181.4,428.3l1.1-2.9c0.5,0.3,1,0.5,1.7,0.5c0.5,0,0.9-0.2,1.2-0.5c0.3-0.3,0.4-0.8,0.4-1.5v-14h4.1v14
		c0,1.6-0.5,2.9-1.4,3.9c-0.9,0.9-2.2,1.4-3.9,1.4C183.2,429.1,182.1,428.8,181.4,428.3z M186.1,407.2c-0.5-0.4-0.7-1-0.7-1.6
		c0-0.6,0.2-1.2,0.7-1.6c0.5-0.4,1.1-0.7,1.8-0.7c0.7,0,1.4,0.2,1.8,0.6c0.5,0.4,0.7,0.9,0.7,1.6c0,0.7-0.2,1.2-0.7,1.7
		c-0.5,0.4-1.1,0.7-1.8,0.7C187.1,407.9,186.5,407.7,186.1,407.2z"/>
	<path class="st4" d="M207.3,418h-10.6c0.2,0.9,0.6,1.6,1.4,2.1s1.6,0.8,2.7,0.8c0.7,0,1.4-0.1,1.9-0.3c0.6-0.2,1.1-0.6,1.6-1
		l2.2,2.3c-1.3,1.5-3.2,2.3-5.8,2.3c-1.6,0-3-0.3-4.2-0.9c-1.2-0.6-2.1-1.5-2.8-2.6c-0.7-1.1-1-2.3-1-3.7c0-1.4,0.3-2.6,1-3.7
		c0.7-1.1,1.5-2,2.7-2.6c1.1-0.6,2.4-0.9,3.8-0.9c1.4,0,2.6,0.3,3.7,0.9c1.1,0.6,2,1.4,2.6,2.5c0.6,1.1,0.9,2.4,0.9,3.8
		C207.4,416.9,207.3,417.3,207.3,418z M197.8,413.5c-0.6,0.5-1,1.2-1.1,2.1h6.9c-0.1-0.9-0.5-1.6-1.1-2.1c-0.6-0.5-1.4-0.8-2.3-0.8
		C199.2,412.7,198.4,413,197.8,413.5z"/>
	<path class="st4" d="M219.1,423.2c-0.4,0.3-0.9,0.5-1.5,0.7c-0.6,0.1-1.2,0.2-1.8,0.2c-1.7,0-3-0.4-3.9-1.3
		c-0.9-0.8-1.4-2.1-1.4-3.7v-5.7h-2.2v-3.1h2.2v-3.4h4.1v3.4h3.5v3.1h-3.5v5.7c0,0.6,0.2,1,0.5,1.4c0.3,0.3,0.7,0.5,1.3,0.5
		c0.6,0,1.2-0.2,1.6-0.5L219.1,423.2z"/>
	<path class="st4" d="M223.6,423.1c-1.2-0.6-2.1-1.5-2.7-2.6c-0.7-1.1-1-2.3-1-3.7s0.3-2.6,1-3.7c0.7-1.1,1.6-1.9,2.7-2.6
		c1.2-0.6,2.5-0.9,4-0.9c1.5,0,2.8,0.3,4,0.9c1.2,0.6,2.1,1.5,2.7,2.6c0.7,1.1,1,2.3,1,3.7s-0.3,2.6-1,3.7c-0.7,1.1-1.6,1.9-2.7,2.6
		c-1.2,0.6-2.5,0.9-4,0.9C226.1,424,224.8,423.7,223.6,423.1z M230.1,419.7c0.7-0.7,1-1.6,1-2.8s-0.3-2.1-1-2.8
		c-0.7-0.7-1.5-1.1-2.6-1.1s-1.9,0.4-2.6,1.1c-0.7,0.7-1,1.6-1,2.8s0.3,2.1,1,2.8s1.5,1.1,2.6,1.1S229.5,420.4,230.1,419.7z"/>
	<path class="st4" d="M239.3,423.6c-1.1-0.3-2-0.6-2.7-1.1l1.4-2.9c0.6,0.4,1.4,0.7,2.3,1c0.9,0.3,1.8,0.4,2.6,0.4
		c1.7,0,2.6-0.4,2.6-1.3c0-0.4-0.2-0.7-0.7-0.9c-0.5-0.2-1.2-0.3-2.2-0.4c-1.1-0.2-2.1-0.4-2.8-0.6c-0.7-0.2-1.4-0.6-1.9-1.2
		c-0.5-0.6-0.8-1.4-0.8-2.4c0-0.9,0.3-1.7,0.8-2.4c0.5-0.7,1.3-1.2,2.2-1.6c1-0.4,2.1-0.6,3.5-0.6c1,0,2,0.1,3,0.3
		c1,0.2,1.8,0.5,2.4,0.9l-1.4,2.9c-1.2-0.7-2.6-1-4-1c-0.9,0-1.5,0.1-2,0.4c-0.4,0.2-0.6,0.6-0.6,0.9c0,0.4,0.2,0.7,0.7,0.9
		c0.5,0.2,1.2,0.3,2.2,0.5c1.1,0.2,2.1,0.4,2.8,0.6c0.7,0.2,1.4,0.6,1.9,1.2s0.8,1.4,0.8,2.4c0,0.9-0.3,1.6-0.8,2.3
		c-0.5,0.7-1.3,1.2-2.3,1.6c-1,0.4-2.2,0.6-3.5,0.6C241.5,424,240.4,423.9,239.3,423.6z"/>
	<path class="st4" d="M272.7,418h-10.6c0.2,0.9,0.6,1.6,1.4,2.1s1.6,0.8,2.7,0.8c0.7,0,1.4-0.1,1.9-0.3c0.6-0.2,1.1-0.6,1.6-1
		l2.2,2.3c-1.3,1.5-3.2,2.3-5.8,2.3c-1.6,0-3-0.3-4.2-0.9c-1.2-0.6-2.1-1.5-2.8-2.6c-0.7-1.1-1-2.3-1-3.7c0-1.4,0.3-2.6,1-3.7
		c0.7-1.1,1.5-2,2.7-2.6c1.1-0.6,2.4-0.9,3.8-0.9c1.4,0,2.6,0.3,3.7,0.9c1.1,0.6,2,1.4,2.6,2.5c0.6,1.1,0.9,2.4,0.9,3.8
		C272.8,416.9,272.8,417.3,272.7,418z M263.3,413.5c-0.6,0.5-1,1.2-1.1,2.1h6.9c-0.1-0.9-0.5-1.6-1.1-2.1c-0.6-0.5-1.4-0.8-2.3-0.8
		C264.7,412.7,263.9,413,263.3,413.5z"/>
	<path class="st4" d="M276.8,423.6c-1.1-0.3-2-0.6-2.7-1.1l1.4-2.9c0.6,0.4,1.4,0.7,2.3,1c0.9,0.3,1.8,0.4,2.6,0.4
		c1.7,0,2.6-0.4,2.6-1.3c0-0.4-0.2-0.7-0.7-0.9c-0.5-0.2-1.2-0.3-2.2-0.4c-1.1-0.2-2.1-0.4-2.8-0.6c-0.7-0.2-1.4-0.6-1.9-1.2
		c-0.5-0.6-0.8-1.4-0.8-2.4c0-0.9,0.3-1.7,0.8-2.4c0.5-0.7,1.3-1.2,2.2-1.6c1-0.4,2.1-0.6,3.5-0.6c1,0,2,0.1,3,0.3
		c1,0.2,1.8,0.5,2.4,0.9l-1.4,2.9c-1.2-0.7-2.6-1-4-1c-0.9,0-1.5,0.1-2,0.4c-0.4,0.2-0.6,0.6-0.6,0.9c0,0.4,0.2,0.7,0.7,0.9
		c0.5,0.2,1.2,0.3,2.2,0.5c1.1,0.2,2.1,0.4,2.8,0.6c0.7,0.2,1.4,0.6,1.9,1.2s0.8,1.4,0.8,2.4c0,0.9-0.3,1.6-0.8,2.3
		c-0.5,0.7-1.3,1.2-2.3,1.6c-1,0.4-2.2,0.6-3.5,0.6C279.1,424,277.9,423.9,276.8,423.6z"/>
	<path class="st4" d="M298.4,423.2c-0.4,0.3-0.9,0.5-1.5,0.7c-0.6,0.1-1.2,0.2-1.8,0.2c-1.7,0-3-0.4-3.9-1.3
		c-0.9-0.8-1.4-2.1-1.4-3.7v-5.7h-2.2v-3.1h2.2v-3.4h4.1v3.4h3.5v3.1h-3.5v5.7c0,0.6,0.2,1,0.5,1.4c0.3,0.3,0.7,0.5,1.3,0.5
		c0.6,0,1.2-0.2,1.6-0.5L298.4,423.2z"/>
	<path class="st4" d="M311.3,411.2c1.2,1,1.7,2.6,1.7,4.7v8h-3.8v-1.7c-0.8,1.3-2.2,2-4.3,2c-1.1,0-2-0.2-2.8-0.5
		c-0.8-0.4-1.4-0.9-1.8-1.5s-0.6-1.4-0.6-2.2c0-1.3,0.5-2.3,1.5-3.1s2.5-1.1,4.5-1.1h3.2c0-0.9-0.3-1.6-0.8-2s-1.3-0.7-2.4-0.7
		c-0.7,0-1.5,0.1-2.2,0.4c-0.7,0.2-1.3,0.6-1.8,0.9l-1.5-2.8c0.8-0.5,1.7-1,2.7-1.2c1.1-0.3,2.2-0.4,3.3-0.4
		C308.5,409.6,310.1,410.1,311.3,411.2z M307.4,407.9c-0.4-0.2-0.7-0.4-1.2-0.7c-0.3-0.2-0.5-0.4-0.7-0.5c-0.2-0.1-0.4-0.2-0.5-0.2
		c-0.4,0-0.7,0.1-0.9,0.4c-0.2,0.3-0.3,0.6-0.4,1.1h-2.1c0-1.2,0.3-2.1,0.9-2.8c0.5-0.7,1.3-1,2.2-1c0.5,0,0.9,0.1,1.2,0.3
		c0.4,0.2,0.8,0.4,1.2,0.8c0.3,0.2,0.5,0.4,0.7,0.5c0.2,0.1,0.4,0.2,0.5,0.2c0.3,0,0.6-0.1,0.9-0.4c0.2-0.3,0.4-0.6,0.4-1h2.1
		c0,1.1-0.3,2-0.9,2.7s-1.3,1-2.2,1C308.2,408.1,307.8,408,307.4,407.9z M307.8,420.8c0.5-0.3,0.9-0.8,1.1-1.4V418h-2.8
		c-1.7,0-2.5,0.5-2.5,1.6c0,0.5,0.2,0.9,0.6,1.2c0.4,0.3,1,0.5,1.7,0.5C306.7,421.3,307.3,421.1,307.8,420.8z"/>
	<path class="st4" d="M319.5,423.1c-1.2-0.6-2.1-1.5-2.7-2.6c-0.7-1.1-1-2.3-1-3.7s0.3-2.6,1-3.7c0.7-1.1,1.6-1.9,2.7-2.6
		c1.2-0.6,2.5-0.9,4-0.9c1.5,0,2.8,0.3,4,0.9c1.2,0.6,2.1,1.5,2.7,2.6c0.7,1.1,1,2.3,1,3.7s-0.3,2.6-1,3.7c-0.7,1.1-1.6,1.9-2.7,2.6
		c-1.2,0.6-2.5,0.9-4,0.9C322,424,320.7,423.7,319.5,423.1z M326.1,419.7c0.7-0.7,1-1.6,1-2.8s-0.3-2.1-1-2.8
		c-0.7-0.7-1.5-1.1-2.6-1.1s-1.9,0.4-2.6,1.1c-0.7,0.7-1,1.6-1,2.8s0.3,2.1,1,2.8s1.5,1.1,2.6,1.1S325.4,420.4,326.1,419.7z"/>
	<path class="st4" d="M141,442.4c1.2,1,1.7,2.6,1.7,4.7v8h-3.8v-1.7c-0.8,1.3-2.2,2-4.3,2c-1.1,0-2-0.2-2.8-0.5
		c-0.8-0.4-1.4-0.9-1.8-1.5s-0.6-1.4-0.6-2.2c0-1.3,0.5-2.3,1.5-3.1c1-0.7,2.5-1.1,4.5-1.1h3.2c0-0.9-0.3-1.6-0.8-2
		c-0.5-0.5-1.3-0.7-2.4-0.7c-0.7,0-1.5,0.1-2.2,0.4s-1.3,0.6-1.8,0.9l-1.5-2.8c0.8-0.5,1.7-1,2.7-1.2s2.2-0.4,3.3-0.4
		C138.2,440.8,139.8,441.3,141,442.4z M137.5,452c0.5-0.3,0.9-0.8,1.1-1.4v-1.4h-2.8c-1.7,0-2.5,0.5-2.5,1.6c0,0.5,0.2,0.9,0.6,1.2
		c0.4,0.3,1,0.5,1.7,0.5C136.4,452.5,137,452.3,137.5,452z"/>
	<path class="st4" d="M156.5,454.3c-1.2-0.6-2.1-1.5-2.8-2.6c-0.7-1.1-1-2.3-1-3.7s0.3-2.6,1-3.7c0.7-1.1,1.6-1.9,2.8-2.6
		c1.2-0.6,2.5-0.9,4-0.9c1.5,0,2.8,0.3,3.9,0.9c1.1,0.6,1.9,1.5,2.4,2.6l-3.1,1.7c-0.7-1.3-1.8-1.9-3.1-1.9c-1.1,0-1.9,0.3-2.6,1
		c-0.7,0.7-1,1.6-1,2.8s0.3,2.1,1,2.8c0.7,0.7,1.6,1,2.6,1c1.4,0,2.4-0.6,3.1-1.9l3.1,1.7c-0.5,1.1-1.3,2-2.4,2.6
		c-1.1,0.6-2.4,0.9-3.9,0.9C159,455.2,157.7,454.9,156.5,454.3z"/>
	<path class="st4" d="M179.8,442.4c1.2,1,1.7,2.6,1.7,4.7v8h-3.8v-1.7c-0.8,1.3-2.2,2-4.3,2c-1.1,0-2-0.2-2.8-0.5
		c-0.8-0.4-1.4-0.9-1.8-1.5s-0.6-1.4-0.6-2.2c0-1.3,0.5-2.3,1.5-3.1c1-0.7,2.5-1.1,4.5-1.1h3.2c0-0.9-0.3-1.6-0.8-2
		c-0.5-0.5-1.3-0.7-2.4-0.7c-0.7,0-1.5,0.1-2.2,0.4s-1.3,0.6-1.8,0.9l-1.5-2.8c0.8-0.5,1.7-1,2.7-1.2s2.2-0.4,3.3-0.4
		C176.9,440.8,178.6,441.3,179.8,442.4z M176.3,452c0.5-0.3,0.9-0.8,1.1-1.4v-1.4h-2.8c-1.7,0-2.5,0.5-2.5,1.6
		c0,0.5,0.2,0.9,0.6,1.2c0.4,0.3,1,0.5,1.7,0.5C175.1,452.5,175.8,452.3,176.3,452z"/>
	<path class="st4" d="M207.3,442.4c1,1,1.5,2.6,1.5,4.6v8h-4.1v-7.4c0-1.1-0.2-1.9-0.7-2.5s-1.1-0.8-2-0.8c-1,0-1.7,0.3-2.3,0.9
		s-0.8,1.5-0.8,2.7v7h-4.1v-7.4c0-2.2-0.9-3.3-2.7-3.3c-0.9,0-1.7,0.3-2.2,0.9c-0.6,0.6-0.8,1.5-0.8,2.7v7h-4.1v-14h3.9v1.6
		c0.5-0.6,1.2-1,1.9-1.4c0.8-0.3,1.6-0.5,2.5-0.5c1,0,1.9,0.2,2.7,0.6c0.8,0.4,1.4,1,1.9,1.7c0.6-0.7,1.3-1.3,2.2-1.7
		c0.9-0.4,1.8-0.6,2.9-0.6C204.8,440.8,206.2,441.3,207.3,442.4z"/>
	<path class="st4" d="M212.6,438.4c-0.5-0.4-0.7-1-0.7-1.6c0-0.6,0.2-1.2,0.7-1.6c0.5-0.4,1.1-0.7,1.8-0.7c0.7,0,1.4,0.2,1.8,0.6
		c0.5,0.4,0.7,0.9,0.7,1.6c0,0.7-0.2,1.2-0.7,1.7c-0.5,0.4-1.1,0.7-1.8,0.7C213.7,439.1,213.1,438.9,212.6,438.4z M212.4,441h4.1v14
		h-4.1V441z"/>
	<path class="st4" d="M233,442.4c1.1,1,1.6,2.6,1.6,4.6v8h-4.1v-7.4c0-1.1-0.2-1.9-0.7-2.5s-1.2-0.8-2.1-0.8c-1,0-1.8,0.3-2.4,0.9
		c-0.6,0.6-0.9,1.6-0.9,2.8v6.9h-4.1v-14h3.9v1.6c0.5-0.6,1.2-1,2-1.4c0.8-0.3,1.7-0.5,2.6-0.5C230.5,440.8,231.9,441.4,233,442.4z"
		/>
	<path class="st4" d="M250.9,442.4c1.1,1,1.6,2.6,1.6,4.6v8h-4.1v-7.4c0-1.1-0.2-1.9-0.7-2.5s-1.2-0.8-2.1-0.8c-1,0-1.8,0.3-2.4,0.9
		c-0.6,0.6-0.9,1.6-0.9,2.8v6.9h-4.1v-19.3h4.1v6.8c0.5-0.5,1.2-0.9,2-1.2c0.8-0.3,1.6-0.4,2.5-0.4
		C248.5,440.8,249.9,441.4,250.9,442.4z"/>
	<path class="st4" d="M259,454.3c-1.2-0.6-2.1-1.5-2.7-2.6c-0.7-1.1-1-2.3-1-3.7s0.3-2.6,1-3.7c0.7-1.1,1.6-1.9,2.7-2.6
		c1.2-0.6,2.5-0.9,4-0.9c1.5,0,2.8,0.3,4,0.9c1.2,0.6,2.1,1.5,2.7,2.6c0.7,1.1,1,2.3,1,3.7s-0.3,2.6-1,3.7c-0.7,1.1-1.6,1.9-2.7,2.6
		c-1.2,0.6-2.5,0.9-4,0.9C261.5,455.2,260.2,454.9,259,454.3z M265.6,450.9c0.7-0.7,1-1.6,1-2.8s-0.3-2.1-1-2.8
		c-0.7-0.7-1.5-1.1-2.6-1.1s-1.9,0.4-2.6,1.1c-0.7,0.7-1,1.6-1,2.8s0.3,2.1,1,2.8s1.5,1.1,2.6,1.1S264.9,451.6,265.6,450.9z"/>
</g>
<circle class="st5" cx="200" cy="234.8" r="79.7"/>
<g>
	<path class="st3" d="M228.7,257.8c0.9,0.9,1.4,2.3,1.3,4.1c0,1.8-0.7,3.4-2,4.7c-1.3,1.3-2.9,2-4.8,2s-3.8-1-5.8-2.9l-17.3-19.1
		l-17.7,19.1c-1.7,1.9-3.6,2.9-5.6,2.9c-1.8,0-3.4-0.7-4.7-2s-2-2.9-2-4.8c0-1.7,0.5-3.1,1.4-4l20-21.3l-18.8-20.2
		c-1-1-1.5-2.4-1.5-4.1c0-1.9,0.7-3.5,2-4.8s2.9-2,4.8-2c2.1,0,4,0.9,5.7,2.8l16.4,18.2l16.8-18.2c1.8-1.9,3.7-2.8,5.6-2.8
		s3.5,0.7,4.8,2s2,2.9,2,4.7s-0.5,3.2-1.5,4.1l-19.2,20.3L228.7,257.8z"/>
</g>
<g>
</g>
<g>
</g>
<g>
</g>
<g>
</g>
<g>
</g>
<g>
</g>
</svg>
