<?xml version="1.0" encoding="utf-8"?>
<!-- Generator: Adobe Illustrator 23.0.1, SVG Export Plug-In . SVG Version: 6.00 Build 0)  -->
<svg version="1.1" id="Camada_1" xmlns="http://www.w3.org/2000/svg" xmlns:xlink="http://www.w3.org/1999/xlink" x="0px" y="0px"
	 viewBox="0 0 400 600" style="enable-background:new 0 0 400 600;" xml:space="preserve">
<style type="text/css">
	.st0{fill:#FC7D27;}
	.st1{fill:#FFFFFF;}
	.st2{fill:none;}
	.st3{fill:#D3946A;}
</style>
<rect class="st0" width="400" height="600"/>
<g>
	<path class="st1" d="M316.2,262.2c3.4-1.3,6.6-2.3,9.4-4.2c1.7-1.2,3.1-1.9,0.2-3.6c-10.9-6.5-18.7-16.3-26.5-26.1
		c-5-6.3-5.8-12.4-4.8-20.1c2.9-23,1-45.5-11-66.2c-6.5-11.2-7.8-11.7-19.4-5.3c-14,7.8-24.4,19.5-33.4,32.4c-1.6,2.3-3.2,3.2-6,3.4
		c-15.6,1-31.3,1.1-46.9,0c-3.1-0.2-5-1.1-6.8-3.7c-9.6-13.8-20.6-26.4-36.1-33.6c-11.5-5.3-8.7-4.5-14.6,4.1
		c-1.3,1.9-2.4,4-3.5,6.1c-11.7,22.1-11.9,45.7-8.4,69.6c0.4,3-0.2,5-1.7,7.4C98,235.5,88.1,247.7,73.9,256c2.5,2.3,5,4,7.7,4.6
		c4.5,1,3.8,3,2.1,6.1c-5,9-10.1,17.9-18.5,24.6c5.1,2.3,9.5,4.7,13.7,7.4c13.1,8.6,20,21.4,25.2,35.6c3,8.1,5.8,16.4,11.1,23.4
		c1.2,1.6,2,3.7,4.5,4.1c0.2-5.3-0.6-10.4,1.6-16.1c6.8,12,14.8,22.1,25,29.9c20.8,15.9,37.3,35.5,52,56.9c2.3,3.4,3.2,2.8,5.2-0.2
		c14.7-21.3,31.1-41.1,52.1-56.8c6.8-5.1,12.5-11.5,17.5-18.5c2.5-3.5,4.8-7.1,7.5-10.9c2.5,5.3,0.9,10.7,2,16.3
		c4.1-4.3,7.1-8.5,9.1-13.2c2.9-6.7,5.7-13.5,8.3-20.3c4.5-11.8,11.3-21.8,21.7-29.2c4.6-3.3,9.6-5.8,15-8.5
		C327,283.3,321.4,273,316.2,262.2z"/>
	<path class="st1" d="M316.2,262.2c5.2,10.8,10.8,21.1,20.5,29c-5.4,2.6-10.4,5.2-15,8.5c-10.4,7.4-17.2,17.4-21.7,29.2
		c-2.6,6.8-5.4,13.6-8.3,20.3c-2,4.8-5,8.9-9.1,13.2c-1.1-5.7,0.5-11.1-2-16.3c-2.6,3.8-5,7.4-7.5,10.9c-5,6.9-10.7,13.4-17.5,18.5
		c-20.9,15.7-37.3,35.5-52.1,56.8c-2,2.9-2.9,3.6-5.2,0.2c-14.7-21.4-31.2-41.1-52-56.9c-10.2-7.8-18.2-17.9-25-29.9
		c-2.3,5.6-1.4,10.8-1.6,16.1c-2.5-0.4-3.4-2.6-4.5-4.1c-5.3-7-8.1-15.3-11.1-23.4c-5.2-14.2-12.2-27-25.2-35.6
		c-4.2-2.7-8.6-5.1-13.7-7.4c8.4-6.7,13.6-15.6,18.5-24.6c1.7-3.1,2.4-5.1-2.1-6.1c-2.7-0.6-5.2-2.2-7.7-4.6
		c14.1-8.3,24-20.5,32.8-33.7c1.5-2.3,2.2-4.4,1.7-7.4c-3.5-23.9-3.3-47.5,8.4-69.6c1.1-2.1,2.1-4.2,3.5-6.1
		c5.9-8.6,3.1-9.4,14.6-4.1c15.6,7.2,26.5,19.8,36.1,33.6c1.8,2.7,3.7,3.5,6.8,3.7c15.6,1.1,31.3,1,46.9,0c2.8-0.2,4.4-1.2,6-3.4
		c9-13,19.4-24.6,33.4-32.4c11.5-6.5,12.9-5.9,19.4,5.3c12,20.7,13.9,43.2,11,66.2c-1,7.8-0.2,13.9,4.8,20.1
		c7.8,9.8,15.6,19.6,26.5,26.1c3,1.8,1.5,2.4-0.2,3.6C322.8,260,319.6,260.9,316.2,262.2z M131,286.9c-1.6,2.1-3.2,4.2-4.9,6.3
		c-1.2-1.7-2.2-3.6-3.6-5.1c-2-2.3-3.8-2.4-4.4,1.2c-0.6,3.5-2.4,6.8-2.3,10.4c-0.5,2.1-1.1,4.1-1.6,6.2c-2.7,6.5-5.9,13-0.6,20.4
		c1.6-3.1,2.9-5.9,4.3-8.6c1.7-2.3,3.1-3.2,4.4,0.5c1.3,3.7,3.2,7.1,4.8,10.7c5.3,12.7,12.4,24.2,23,33.3c5.3,4.5,10.7,9,16.1,13.4
		c13,10.8,23.5,23.9,32.2,38.3c2.5,4.1,3.8,3.4,5.6-0.2c1.2-2.3,2.4-4.7,3.9-6.8c10.3-15.3,23.4-27.9,37.9-39.1
		c13.4-10.3,23.1-23.2,29.5-38.8c2.1-3.3,3.5-7,4.8-10.7c1.2-3.6,2.6-3,4.4-0.5c0.9,2,1.8,3.9,2.6,5.9c0.3,0.8-0.1,2.2,1.4,2.2
		c1.3,0,1.4-1.2,1.8-2c3.2-6.5,0.1-12.1-2.2-17.9c-0.5-2.1-1.1-4.1-1.6-6.2c-0.3-1.6-0.3-3.3-0.9-4.8c-1.1-2.8,0-7.4-3.3-8
		c-3.3-0.6-4.1,4.1-6.2,6.3c-1.6-2.1-3.2-4.2-4.8-6.4c-1.2-3.5-3.6-6.1-6.4-8.9c-5.3,11.2-13.6,18.7-23.8,24.4
		c-1.6-7.2-1.4-7.6,4.6-10.7c5.3-2.8,10.4-5.9,13.8-11.1c-2.3-1.5-3.2,1.4-5.3,0.6c1.2-7.4,4-14.2,6.8-21c1.6-3.3,7.1-5.4,5.5-9.1
		c-1.5-3.3-6.4-4.4-10.2-5.6c-0.6-0.2-1.3-0.5-1.9-0.5c-5.2,0.1-6-2.9-4.7-7c1.4-4.3-0.5-4.3-3.8-3.5c-7.4,1.9-14.6,4.1-20.9,8.2
		c-1.7-1.8,0.1-4-1.9-5.6c-3.7,4.1-7.4,8-7.9,13.9c-1.9,2.4,0.1,6.2-2.8,8.2c-4.7,3.4-8.8,7.3-11.2,13.5c-1.6-4-3-7.3-5.7-9.1
		c-4.7-3.1-7.5-7.1-8.1-12.7c-0.6-5.9-4.1-10-8.7-14.4c-0.3,2.6-0.4,4.2-0.6,6.4c-6.8-4.4-14-6.7-21.5-8.5c-3.3-0.8-5.2-1-3.8,3.4
		c1.3,4,0.6,7-4.6,7.1c-2.6,0.1-5.1,1.5-7.4,2.7c-6.3,3.2-6.3,3.2-2.2,8.5c1.1,1.4,2.1,3,3.1,4.5c2.9,6.7,5.7,13.4,6.6,20.8
		c-2.1-0.2-3.5-2.5-5.8-1.1c4,4.8,8.8,8.5,14.4,11.3c6.1,3,6.3,3.5,4.6,10.8c-10.3-5.8-18.7-13.5-24.1-24.9
		C134.7,281.1,132,283.4,131,286.9z M142.8,235.4c-0.5-2.7-2-4-3.4-5.3c-2.5-2.1-2.1-3.5,1-4.1c5.1-0.9,10.1-1.7,15.4-1
		c5.5,0.7,10.6,2.5,15.8,5c0.1-1.4,0.1-2.2,0.2-3c0.2-1.8-1-4.3,0.5-5.2c2.2-1.3,4,1.1,5.6,2.3c7.9,5.7,14.3,12.9,19.8,20.9
		c2.3,3.3,3.5,4.3,6.2,0.2c5-7.5,11-14.2,18.2-19.7c2.2-1.7,4.4-4.8,7.1-3.7c2.3,1,0.2,4.5,0.9,6.9c0.1,0.3,0.3,0.5,0.6,1
		c0.7-0.3,1.5-0.5,2.2-0.9c8.8-4.6,18.2-4.8,27.7-3.1c1.2,0.2,2.9,0.3,3.4,1.6c0.5,1.5-1.2,2.2-2,3.1c-1.2,1.4-2.5,2.9-4.6,5.3
		c5.5-1.8,9.8-3.3,14.4-3.2c-0.5-2.6-3.6-2.9-3.6-5.3c0.9-1,2.8,0.4,3.4-1.4c-4.4-6.6-14.3-4.6-19.1-12.4c4.7,0.7,8,3.5,12.3,1.9
		c-1.5-2.3-3.4-4.3-4.4-6.7c-2.5-6.2-7.4-9.8-13.2-12c-2.4-0.9-3.8-2-4.7-4.3c-2.6-6.6-7.2-9.7-14.6-9.4c-7.2,0.3-14,2.3-20.9,3.2
		c-1.1-2.1,1.6-2.9,1-5c-4.8,1.9-9.7,1.8-14.4-0.2c-0.3,2.2,2.6,3.3,1.1,4.9c-1.1,1.1-2.8-0.2-4.2-0.5c-3.3-0.6-6.5-1.6-9.8-1.8
		c-10.6-0.6-16.8-2.8-22.1,10.5c-0.4,0.9-0.7,1.9-1.9,2.1c-10.7,2.3-14.8,11.2-19.6,19.4c4.2,1.4,7.5-1.5,11.8-1.8
		c-1.5,3.3-4,4.5-6.6,5.5c-2.9,1.2-6,2.2-8.7,3.6c-1.3,0.7-3.5,1.3-3.3,3.3c0.1,1.7,3-0.3,3.2,1.5c-0.3,2.2-3.1,2.4-3,4.9
		C134.6,232.8,138.6,233.6,142.8,235.4z M135.3,187.3c-5.6-5.1-6.3-11.3-7.5-17.2c-0.4-1.8-0.9-3.5-1.5-5.3c-1.7-5-1.7-5.1,3.6-4.2
		c2.9,0.5,4.4,0.1,3.6-3.5c-1.1-4.9-2.8-9.5-5.3-13.9c-0.6-1-1.2-2.2-2.5-2.1c-1.6,0-1.5,1.6-1.8,2.6c-2.3,7.5-4.5,14.9-6.8,22.4
		c-4.7,15.3-3,30.1,2.7,44.8c1.6,4.1,2.9,4,5.6,1.1c2.4-2.6,4.5-5.2,5.6-8.7c0.8-2.5,0.7-4.1-2.4-4.5c-3-0.5-5-2.3-5.4-5.4
		c1.8-1.1,5.3,0.1,5.1-1.3C127.2,186.3,131.4,187.9,135.3,187.3z M287.8,185c0-9.2-5.5-32.3-9.9-42.1c-1.3-3-2.6-2.1-3.7-0.2
		c-2.3,3.8-4.2,7.9-5.2,12.4c-1.3,5.9-1.3,5.9,4.8,5.1c2.7-0.4,3.9,0,2.6,3.1c-0.9,2.1-1.6,4.4-2.2,6.6c-1.4,5.2-1.5,10.8-5.4,15.3
		c-2.1,2.5,0.4,2.5,2.1,2.5c4.4,0,2.9,7.4,8,6.4c-0.2,0.5-0.3,0.9-0.6,1.4c-0.8,1.6-2.1,2.9-3.7,3.1c-5.5,0.7-4.3,3.6-2.7,7
		c1.5,3.1,3.6,5.5,6.1,7.8c1.7,1.6,2.7,1.5,3.6-0.8C285,203.6,287.7,194.6,287.8,185z"/>
	<path class="st1" d="M142.8,235.4c-4.2-1.8-8.2-2.6-12.2-2.9c-0.1-2.5,2.7-2.7,3-4.9c-0.2-1.8-3.1,0.2-3.2-1.5
		c-0.1-2,2-2.6,3.3-3.3c2.8-1.5,5.8-2.5,8.7-3.6c2.6-1,5.1-2.2,6.6-5.5c-4.3,0.3-7.6,3.3-11.8,1.8c4.8-8.3,8.9-17.2,19.6-19.4
		c1.2-0.2,1.5-1.2,1.9-2.1c5.2-13.3,11.5-11.1,22.1-10.5c3.3,0.2,6.5,1.2,9.8,1.8c1.4,0.3,3.1,1.6,4.2,0.5c1.5-1.6-1.4-2.6-1.1-4.9
		c4.8,2,9.6,2.1,14.4,0.2c0.5,2.1-2.1,2.9-1,5c6.9-0.9,13.7-2.9,20.9-3.2c7.4-0.3,12,2.8,14.6,9.4c0.9,2.3,2.3,3.4,4.7,4.3
		c5.8,2.2,10.7,5.8,13.2,12c0.9,2.4,2.8,4.4,4.4,6.7c-4.2,1.6-7.5-1.2-12.3-1.9c4.8,7.8,14.7,5.8,19.1,12.4
		c-0.6,1.8-2.4,0.4-3.4,1.4c0,2.4,3.1,2.8,3.6,5.3c-4.6,0-8.9,1.4-14.4,3.2c2.1-2.4,3.3-3.8,4.6-5.3c0.8-1,2.5-1.6,2-3.1
		c-0.4-1.4-2.2-1.4-3.4-1.6c-9.5-1.7-18.9-1.4-27.7,3.1c-0.7,0.4-1.5,0.6-2.2,0.9c-0.3-0.5-0.5-0.8-0.6-1c-0.7-2.3,1.4-5.9-0.9-6.9
		c-2.7-1.1-5,2-7.1,3.7c-7.2,5.5-13.2,12.2-18.2,19.7c-2.7,4-3.9,3.1-6.2-0.2c-5.5-7.9-11.9-15.2-19.8-20.9
		c-1.7-1.2-3.5-3.6-5.6-2.3c-1.6,0.9-0.3,3.4-0.5,5.2c-0.1,0.8-0.1,1.6-0.2,3c-5.2-2.5-10.3-4.3-15.8-5c-5.2-0.7-10.3,0.1-15.4,1
		c-3.2,0.6-3.6,2-1,4.1C140.8,231.4,142.3,232.7,142.8,235.4z M245,210.7c-9.2-2.2-18.4-1.3-27.7-0.2c0.8-3.5,4.3-4.4,5.6-7.7
		c-3.3-0.1-6.1,0.9-8.8,2.1c-4.1,1.8-7.8,5.3-12.6,1.5c-0.5-0.4-2.1,0-2.8,0.6c-2.7,2.3-5,1.1-7.6-0.4c-6.2-3.5-7.6-3.6-11.1-1.9
		c1.4,1.9,4,3,4.5,5.9c-9-1.1-17.8-2-26.6,0c0.2,2.5,3.1,0.8,3.1,2.8c-1.1,1.2-3.1,1.2-3.8,3.1c1.5,0.9,2.9,0.3,4.3,0.1
		c7-1.1,13.5,0.7,19.7,3.7c0.8,0.4,3.1,1.3,1.8,2.1c-3.6,2.3-0.4,2.2,0.7,2.8c5.2,2.9,10.7,5.4,15.1,9.6c1.3,1.2,2.4,1.5,3.8,0.1
		c4.5-4.3,10.1-7,15.6-9.8c0.8-0.4,2.6-1,1.6-1.8c-3.2-2.5,0.1-2.8,1.1-3.4c3-1.5,6.2-2.3,9.4-3.2c4.7-1.3,9.3-0.1,14.1,0
		c-0.6-2.5-3.3-1.9-3.8-3.7C241.9,211.5,244,213,245,210.7z"/>
	<path class="st1" d="M126.9,328.9c1.8-3.3-1.4-6.6,0.1-10.2c5.9,4.2,9.9,9.8,13.8,16.4c0-2.5,0-4.5,0-6.9c4.1,1.5,3.8,5.2,5.2,7.7
		c1.9,3.6,0,8.5,4.8,11.4c1.5,0.9,0.9,5.3,1.3,8.1c0.5,3.7,2.3,4.6,4.9,2.4c1.6-1.4,2,0,2.7,0.7c2.3,2.4,3.9,5.4,5.4,8.3
		c0.4,0.9,0.4,0.8,2.4,0.7c1.3-0.1,1.6,1.1,1.9,1.9c1.2,3.8,4.8,5.6,6.4,9.2c1.8-1.9-1-3.8,1.1-5.8c6,6.9,5.7,17.5,13.4,23.5
		c1.3-2.6-0.5-4.8,0.1-7.4c3.6,1.5,6,4.1,8,7.1c1.7,2.6,2.7,3.4,4.9,0.3c1.8-2.7,4.4-4.8,6.8-7.2c2.1,2.1,0.1,4.6,1.9,6.8
		c7.2-6,7.3-16,12.8-22.9c2.7,1.7-0.6,3.9,1.2,5.6c1.5-1.7,3.1-3.4,4.5-5.2c1.4-1.8,0.7-6.1,5.2-4.4c0.1,0,0.9-1.6,1.4-2.5
		c1.6-2.9,3.4-5.7,5.6-8.2c0.7-0.7,1.4-1.7,2.2-0.3c2.6,4.4,3.6,0.3,4.6-1.1c0.7-1,0.3-2.6,0.8-3.8c0.9-2.3-0.8-5.8,3.4-6.6
		c0.6-0.1,0.8-3,1.1-4.6c0.8-4.9,2-9.6,5.6-13.6c1.5,2.3,0.2,4.5,1,6.8c4.2-5.7,7-12.5,13.8-16.2c0.8,3.7-1.4,7-0.1,10.3
		c-6.3,15.6-16.1,28.5-29.5,38.8c-14.5,11.2-27.6,23.8-37.9,39.1c-1.5,2.2-2.7,4.5-3.9,6.8c-1.8,3.6-3.1,4.3-5.6,0.2
		c-8.7-14.4-19.2-27.4-32.2-38.3c-5.4-4.5-10.8-8.9-16.1-13.4C139.3,353.2,132.3,341.6,126.9,328.9z"/>
	<path class="st1" d="M135.3,187.3c-3.9,0.6-8.1-1-7.1,4.8c0.2,1.4-3.3,0.2-5.1,1.3c0.5,3.1,2.4,5,5.4,5.4c3.1,0.5,3.2,2,2.4,4.5
		c-1.1,3.5-3.2,6.1-5.6,8.7c-2.7,2.9-4,3-5.6-1.1c-5.7-14.7-7.4-29.5-2.7-44.8c2.3-7.5,4.5-15,6.8-22.4c0.3-1,0.2-2.6,1.8-2.6
		c1.3,0,1.9,1.1,2.5,2.1c2.5,4.3,4.2,8.9,5.3,13.9c0.8,3.7-0.7,4-3.6,3.5c-5.2-0.9-5.2-0.9-3.6,4.2c0.6,1.7,1.1,3.5,1.5,5.3
		C129.1,176.1,129.7,182.2,135.3,187.3z"/>
	<path class="st1" d="M287.8,185c-0.1,9.6-2.8,18.7-6.2,27.6c-0.8,2.2-1.8,2.4-3.6,0.8c-2.5-2.3-4.6-4.7-6.1-7.8
		c-1.6-3.3-2.8-6.3,2.7-7c1.6-0.2,2.9-1.6,3.7-3.1c0.2-0.4,0.4-0.9,0.6-1.4c-5.1,1-3.6-6.4-8-6.4c-1.6,0-4.2-0.1-2.1-2.5
		c3.9-4.5,3.9-10.1,5.4-15.3c0.6-2.2,1.2-4.5,2.2-6.6c1.3-3,0.1-3.5-2.6-3.1c-6,0.9-6,0.8-4.8-5.1c1-4.4,2.8-8.5,5.2-12.4
		c1.1-1.9,2.4-2.8,3.7,0.2C282.3,152.7,287.8,175.7,287.8,185z"/>
	<path class="st1" d="M187.1,250.8c-0.6-0.1-1.5,0.1-1.9-0.2c-2.7-2.3-4.3-1.9-4.6,2.4c-3.6-3.6-6.3-7.3-10.6-8.9
		c-2-0.8-4-1.5-6.8-2.5c1.8,4.8-0.1,5.5-3.8,5.6c-5.1,0.2-10.1,1.3-15,2.9c-4.1,1.3-5.2,3.1-1.6,6.4c1,0.9,2.6,2.1,1.8,3.7
		c-0.6,1.2-2,0.6-3.1,0.4c-1-1.5-2-3-3.1-4.5c-4.1-5.4-4.1-5.3,2.2-8.5c2.4-1.2,4.8-2.6,7.4-2.7c5.3-0.2,6-3.1,4.6-7.1
		c-1.5-4.4,0.5-4.2,3.8-3.4c7.4,1.8,14.6,4.1,21.5,8.5c0.2-2.3,0.4-3.8,0.6-6.4C183,240.8,186.6,244.9,187.1,250.8z"/>
	<path class="st1" d="M260.7,260c-3,0.2-3.1-0.9-1.6-3.1c3.4-5,3.3-5.3-2.6-7.1c-5.1-1.6-10.3-2.5-15.6-2.8
		c-1.2-0.1-3.3,0.2-2.9-1.7c1.3-6-2.6-2.5-4-2.1c-5.1,1.5-8.7,5.3-12,9.3c-2-0.8-0.4-3-1.8-3.7c-2.1-0.1-3.1,2.7-5.4,2
		c0.5-5.9,4.2-9.8,7.9-13.9c2,1.6,0.3,3.8,1.9,5.6c6.3-4.1,13.5-6.4,20.9-8.2c3.3-0.8,5.2-0.8,3.8,3.5c-1.4,4.1-0.5,7.1,4.7,7
		c0.6,0,1.3,0.3,1.9,0.5c3.8,1.2,8.7,2.3,10.2,5.6C267.9,254.6,262.4,256.7,260.7,260z"/>
	<path class="st1" d="M271.1,286.8c-1.5,2.9-4.4,3.9-7.6,5c2.2,2.1,5.3,1.5,7.2,3.7c-3.6,4.6-8.8,4.5-13.9,4.7
		c-0.2,2.6,3,2.4,3.4,4.6c-3,0.3-5.9,0.5-9.4-1.2c0.9,2.6,1.8,4.9-2.2,3.6c-3.2-1-6.5-1.1-7.7-5c10.3-5.7,18.6-13.2,23.8-24.4
		C267.5,280.8,269.8,283.4,271.1,286.8z"/>
	<path class="st1" d="M161.2,302.4c-3.2,5.3-4.4,5.5-10.3,2.1c-0.5-0.3-1.5,0.2-2.3,0.3c-2.1,0.2-4.3,0.3-6.8,0.4
		c0.6-2.3,2.8-2.6,3.8-4.4c-2.9-1.5-6.2-0.2-9-1.7c-1.9-1-4.9-1.3-4.8-3.6c0-1.9,3-1.4,4.6-2.1c0.6-0.2,1.2-0.6,2.3-1.1
		c-3-1.6-5.6-3.2-7.6-5.5c1.1-3.4,3.7-5.7,6.1-9.4C142.4,288.9,150.9,296.6,161.2,302.4z"/>
	<path class="st1" d="M286.3,299.7c-3.9,1.2-3,6.2-7,8.3c-0.3-5.3-3.4-9.6-3.4-14.8c2.1-2.2,2.8-6.9,6.2-6.3c3.3,0.6,2.2,5.3,3.3,8
		C286,296.4,286,298.1,286.3,299.7z"/>
	<path class="st1" d="M126.1,293.2c0.2,4.1-2.1,7.5-2.8,11.3c-0.1,0.9-0.2,2.3-1.5,2.1c-0.8-0.1-1.7-1-2.3-1.7
		c-1.4-1.7-0.9-4.7-3.8-5.3c-0.2-3.7,1.7-6.9,2.3-10.4c0.6-3.6,2.4-3.4,4.4-1.2C123.9,289.6,124.9,291.5,126.1,293.2z"/>
	<path class="st1" d="M284.3,317.8c2.6-1.4,2.3-3.9,2.6-6.3c0.2-1.9-0.8-4,1-5.6c2.3,5.8,5.4,11.4,2.2,17.9c-0.4,0.9-0.5,2.1-1.8,2
		c-1.5,0-1-1.4-1.4-2.2C286,321.7,285.1,319.7,284.3,317.8z"/>
	<path class="st1" d="M114.2,305.9c1.9,1.9,0.5,4.4,1.1,6.5c0.5,1.9,0,4.4,2.6,5.3c-1.3,2.7-2.7,5.4-4.3,8.6
		C108.3,318.9,111.4,312.4,114.2,305.9z"/>
	<path class="st1" d="M223.2,362.1c5-3.8,4.7-9.6,5.4-14.8c1-7.7,1.7-15.4,1.2-23.2c0.9-5.3-0.1-10.6-0.4-17.1
		c2.3,2.5,2.3,4.4,2.7,6.1c2.9,11.2,3.2,22.6,3.4,34c-0.1,0.7-0.1,1.4,0.8,1.4c0.8,0,1.6-0.4,1-1.5l0,0.2c3.8,0.2,4.5-4.3,7.7-5.3
		c1.2,2.5-0.5,4.4-1.3,6.2c-3.7,7.9-9.6,13.9-16.6,18.9c-5.5,3.9-11.5,7.2-16.6,11.8c-5.2,4.6-13.9,4.4-18.9-0.3
		c-4.5-4.1-9.6-7.1-14.6-10.4c-9.7-6.4-17-14.7-20.7-26.3c4.3,0,4.7,5.7,8.8,5.3c0,0,0-0.2,0-0.2c-0.6,1.1,0.3,1.4,1,1.5
		c0.8,0,0.9-0.7,0.8-1.4c0.2-13,0.7-26,5.8-38.4c0,5.1,0,10.3,0,15.4c-0.3,10.6,0.3,21.2,2.7,31.6c0.6,2.8,1.1,5.9,4.9,6.5
		c0,0,0-0.2,0-0.2c-0.4,1.1,0.4,1.2,1.1,1.5c4,3.1,8.8,3.6,13.5,4.4c1.5,0.2,3.7,1.3,4.1-1.9c0.3-2.7-1.2-2.9-3.2-3.3
		c-6-1.3-11.8-3.2-16.1-8c-0.7-2.5-1.4-5-2.1-7.4c0.7-2.1,0.7-4.3,0.2-6.4c0.1-0.9,0.3-1.8,0.4-2.7c2.1-3.8,2.5-8.3,5.1-11.9
		c1.5,7.2,3.6,8.7,10.5,7.2c4.8-1,9.5-1.1,14.3-0.2c8.2,1.5,9.1,1.1,11.4-7.1c4,6.1,4.8,13.1,5.8,20.1c-0.7,3.4-1.2,6.8-3,9.8
		c-4.6,3.8-10,5.6-15.8,6.8c-2.1,0.4-2.7,1.3-2.6,3.3c0.1,2.4,1.7,2.1,3.1,1.9C212.6,367,218.5,366.3,223.2,362.1z"/>
	<path class="st1" d="M221.9,267.8c1.7-7.6,4.3-14.6,11.7-19.4c0.3,3-2.2,4.9-1.6,7.9c7.5-3.5,15.3-4.4,24.1-3
		c-4.8,5-8,10.7-13,14.8c-6.3,4.4-14.8,3.6-21.2,9.5C221.9,273.7,221.9,270.8,221.9,267.8z M241,261.1c-0.4-1.1,0.7-2.9-1.2-3.8
		c-0.8-0.3-1.9-0.4-2.2,0.4c-0.4,1.2-2.2,2.7-1.2,3.4c2.8,2.1,1.2,3.2-0.5,4.3c-1.9,1.3-3.6,0.7-5.1-0.8c-0.6-0.6-0.9-2.7-2.3-0.8
		c-0.9,1.2-0.9,2.5,0.8,3.2c2.3,1.1,4.3,2.6,7.3,1C239.6,266.5,241.1,264.7,241,261.1z"/>
	<path class="st1" d="M172.3,324c0-5.1,0-10.3,0-15.4c-5.1,12.4-5.6,25.4-5.8,38.4c-0.6,0-1.2-0.1-1.8-0.1c0,0,0,0.2,0,0.2
		c-1.8-5.3-3.7-10.7-5.3-16.1c-0.5-1.6-2.5-4.8,2.3-3.6c1.8,0.5,1.7-0.7,1.4-2.1c-1.5-7.2,0.3-13.9,3.6-20.2
		c3.2-6.1,5-12.6,5.2-19.9c3.9,2.7,3.7,6.8,4.5,10.3c2.2,9.6,0,18.8-2.9,27.9C173.5,323.7,172.8,323.8,172.3,324z"/>
	<path class="st1" d="M235.5,347c-0.2-11.4-0.5-22.8-3.4-34c-0.4-1.7-0.5-3.6-2.7-6.1c0.3,6.4,1.3,11.8,0.4,17.1
		c-3.4-3-3-7.4-4-11.2c-2.1-8.1-1.1-16.2,1.4-24c0.4-1.2,1.4-2.2,2.9-4.4c0,10.9,4.7,19.1,8.2,27.8c1.4,3.4,0.8,6.9,1.1,10.3
		c0.2,1.8-3.3,6.1,2.9,4.9c1.3-0.2,0.8,2.4,0.3,3.8c-1.8,5.3-3.6,10.6-5.4,15.9c0,0,0-0.2,0-0.2C236.6,347,236,347,235.5,347z"/>
	<path class="st1" d="M153.1,263.7c-0.4-4.5-4.6-6.5-6.6-10c6-1.8,9-1.5,23.1,2c1.3-2.4-1.5-4.2-1.2-6.4c5.9,2.3,8.7,6.8,11.8,18.6
		c-0.4,3,0.6,6.1-0.5,9.4c-2-1.5-3.6-3.7-5.3-3.8c-5.7-0.4-10.4-3.2-15.3-5.3C156.9,266.7,155.9,264,153.1,263.7L153.1,263.7z
		 M161,260.9c-0.1,6.6,5.2,9.8,10.8,6.6c1.4-0.8,3.3-1.6,1.8-3.7c-1.8-2.5-2.2,0.4-3.1,1c-1.9,1.5-3.7,1.3-5.3-0.2
		c-0.8-0.7-2-1.7-0.2-2.7c1.8-1,1.5-2.5,0.7-3.8c-0.6-1-2-1.2-3.1-0.9C160.4,257.9,161.3,259.7,161,260.9z"/>
	<path class="st1" d="M158.9,268c5,2.2,9.7,4.9,15.3,5.3c1.8,0.1,3.4,2.3,5.3,3.8c1.2-3.3,0.1-6.4,0.5-9.4c1.3-1.5,0.3-4,2.5-5.4
		c2.7,4.3,1.9,10,5,14.1c2.2-0.6,1.4-3,3.1-4c1.1,5,2.5,9.9,5.5,14.1c1.2,1.7,0.3,2.6-1.5,2.2c-1.9-0.5-3.8-1.3-5.6-2.1
		c-10-4.5-19.7-9.7-31.2-9.7c-1.2,0-2.5-0.7-3.7-1.3c-1.1-0.6-2.6-1.4-2.1-3c0.4-1.5,2-0.9,3-0.8C158.4,272.2,159.1,270.6,158.9,268
		z"/>
	<path class="st1" d="M221.9,267.8c0,3,0,5.9,0,9.8c6.4-5.9,14.9-5.1,21.2-9.5c-0.1,3,0.7,5,4.3,4c0.9-0.2,2.2-0.6,2.4,0.8
		c0.1,0.6-0.6,1.6-1.1,2c-1.4,0.8-2.9,1.9-4.5,2c-12.1,0.5-22.6,5.6-33.1,10.7c-0.3,0.1-0.6,0.3-0.9,0.4c-1.6,0.1-3.3,2-4.6,0.5
		c-1.2-1.4,0.8-2.6,1.5-3.8c2.2-3.7,3.1-7.9,4.2-12.1c2,1.1,1.5,3,2.3,4.8c3.9-4.3,3.2-10.2,5.9-15.4
		C220.4,264.2,221.1,266,221.9,267.8z"/>
	<path class="st1" d="M224.9,346.1c-1-7-1.8-14-5.8-20.1c-1.4-10.4-2.8-20.9-4.2-31.3c3.4,3.7,4,8.3,5.2,12.7
		c3,11.2,5.6,22.5,6,34.2C226.1,343.1,226.7,344.9,224.9,346.1z"/>
	<path class="st1" d="M182.9,326.1c-2.6,3.6-3,8.1-5.1,11.9c-1.3,0.1-1.9-0.8-1.7-1.9c2.1-14.4,5.3-28.5,11.1-42.1
		C185.7,304.7,184.3,315.4,182.9,326.1z"/>
	<path class="st1" d="M179.3,354.5c4.3,4.9,10.1,6.7,16.1,8c1.9,0.4,3.5,0.6,3.2,3.3c-0.4,3.2-2.6,2.1-4.1,1.9
		c-4.7-0.8-9.5-1.3-13.5-4.4c-0.4-0.5-0.8-1-1.1-1.5c0,0,0,0.2,0,0.2C180.5,359.5,178.3,357.1,179.3,354.5z"/>
	<path class="st1" d="M223.2,362.1c-4.7,4.3-10.6,4.9-16.5,5.8c-1.4,0.2-3,0.5-3.1-1.9c-0.1-2.1,0.5-2.9,2.6-3.3
		c5.7-1.1,11.1-3,15.8-6.8C224.3,357.5,220.4,360.5,223.2,362.1z"/>
	<path class="st1" d="M177.4,340.7c0.5,2.2,0.6,4.3-0.2,6.4C175.3,344.9,175,342.8,177.4,340.7z"/>
	<path class="st1" d="M245,210.7c-1,2.2-3.2,0.8-4.2,2.4c0.5,1.8,3.3,1.2,3.8,3.7c-4.8-0.1-9.4-1.3-14.1,0c-3.2,0.9-6.5,1.7-9.4,3.2
		c-1,0.5-4.3,0.8-1.1,3.4c0.9,0.7-0.8,1.4-1.6,1.8c-5.5,2.8-11.1,5.4-15.6,9.8c-1.4,1.4-2.5,1.1-3.8-0.1c-4.4-4.1-9.9-6.6-15.1-9.6
		c-1.1-0.6-4.3-0.6-0.7-2.8c1.3-0.8-1-1.7-1.8-2.1c-6.2-3-12.7-4.8-19.7-3.7c-1.4,0.2-2.8,0.8-4.3-0.1c0.6-1.8,2.6-1.9,3.8-3.1
		c-0.1-2-2.9-0.3-3.1-2.8c8.8-2,17.6-1.1,26.6,0c-0.5-2.9-3.1-3.9-4.5-5.9c3.5-1.7,4.9-1.6,11.1,1.9c2.6,1.5,4.9,2.6,7.6,0.4
		c0.7-0.5,2.3-0.9,2.8-0.6c4.8,3.8,8.5,0.4,12.6-1.5c2.6-1.2,5.4-2.3,8.8-2.1c-1.3,3.3-4.9,4.2-5.6,7.7
		C226.7,209.4,235.8,208.5,245,210.7z"/>
	<path class="st1" d="M164.8,346.9c0.6,0,1.2,0.1,1.8,0.1c0.1,0.7,0.1,1.4-0.8,1.4C165,348.4,164.2,348.1,164.8,346.9z"/>
	<path class="st1" d="M235.5,347c0.6,0,1.2-0.1,1.7-0.1c0.6,1.1-0.2,1.5-1,1.5C235.4,348.4,235.3,347.7,235.5,347z"/>
	<path class="st1" d="M179.8,361.9c0.4,0.5,0.8,1,1.1,1.5C180.3,363.1,179.4,363,179.8,361.9z"/>
	<path class="st1" d="M241,261.1c0.1,3.6-1.5,5.4-4.5,7c-3.1,1.6-5,0.1-7.3-1c-1.6-0.7-1.7-2-0.8-3.2c1.4-1.9,1.7,0.2,2.3,0.8
		c1.5,1.5,3.2,2.1,5.1,0.8c1.7-1.2,3.3-2.3,0.5-4.3c-0.9-0.7,0.8-2.2,1.2-3.4c0.3-0.8,1.5-0.8,2.2-0.4
		C241.7,258.2,240.6,260,241,261.1z"/>
	<path class="st1" d="M161,260.9c0.4-1.2-0.5-3.1,1.5-3.7c1.2-0.3,2.5-0.1,3.1,0.9c0.8,1.3,1.1,2.8-0.7,3.8c-1.7,1-0.5,2,0.2,2.7
		c1.6,1.6,3.4,1.7,5.3,0.2c0.9-0.7,1.3-3.5,3.1-1c1.6,2.1-0.4,2.9-1.8,3.7C166.2,270.7,160.9,267.5,161,260.9z"/>
</g>
<g>
	<rect x="100.7" y="249.6" class="st2" width="201" height="93.9"/>
	<path d="M163.5,251.6v33.6h-7.8v-13.8h-15.3v13.8h-7.8v-33.6h7.8v13.2h15.3v-13.2H163.5z"/>
	<path d="M175.2,281.8c-2.7-2.7-4-6.4-4-11.4v-18.8h7.8v18.5c0,6,2.5,9,7.5,9c2.4,0,4.3-0.7,5.6-2.2c1.3-1.5,1.9-3.7,1.9-6.8v-18.5
		h7.7v18.8c0,4.9-1.3,8.7-4,11.4c-2.7,2.7-6.4,4-11.2,4C181.6,285.8,177.9,284.5,175.2,281.8z"/>
	<path d="M240.1,251.6v33.6h-6.4L217,264.8v20.4h-7.7v-33.6h6.4l16.7,20.4v-20.4H240.1z"/>
	<path d="M255,258h-10.8v-6.3h29.3v6.3h-10.8v27.3H255V258z"/>
	<path d="M193.4,288.8l-11.9,36.4h-9l-8-24.6l-8.3,24.6h-9l-12-36.4h8.7l8.2,25.6l8.6-25.6h7.8l8.3,25.8l8.5-25.8H193.4z"/>
	<path d="M226.2,318.5v6.8H198v-36.4h27.5v6.8h-19.1v7.9h16.9v6.6h-16.9v8.4H226.2z"/>
	<path d="M264.6,309.6c1.2,1.5,1.8,3.4,1.8,5.7c0,3.2-1.2,5.6-3.7,7.4c-2.5,1.7-6.1,2.6-10.8,2.6h-18.8v-36.4h17.8
		c4.4,0,7.8,0.8,10.2,2.5c2.4,1.7,3.6,4,3.6,6.9c0,1.8-0.4,3.3-1.3,4.7c-0.9,1.4-2,2.5-3.6,3.3C261.7,307,263.4,308.1,264.6,309.6z
		 M241.3,295.2v8.6h8.4c2.1,0,3.7-0.4,4.7-1.1c1.1-0.7,1.6-1.8,1.6-3.2c0-1.4-0.5-2.5-1.6-3.2c-1.1-0.7-2.7-1.1-4.7-1.1H241.3z
		 M256.2,317.8c1.1-0.7,1.7-1.9,1.7-3.4c0-3-2.2-4.5-6.7-4.5h-9.8v9h9.8C253.4,318.9,255,318.5,256.2,317.8z"/>
</g>
<rect y="553.8" class="st3" width="400" height="46.2"/>
<g>
	<path class="st1" d="M73.1,587.3c-1.1-0.5-2-1.2-2.7-2.1l2.5-3c1.1,1.4,2.3,2.2,3.6,2.2c1.8,0,2.8-1.1,2.8-3.2v-9.3h-6.9v-3.6h11.4
		v12.7c0,2.4-0.6,4.2-1.8,5.4c-1.2,1.2-2.9,1.8-5.3,1.8C75.4,588,74.2,587.8,73.1,587.3z"/>
	<path class="st1" d="M100.8,583.5h-9.1l-1.7,4.2h-4.6l8.7-19.6h4.5l8.8,19.6h-4.8L100.8,583.5z M99.3,580.1l-3.1-7.5l-3.1,7.5H99.3
		z"/>
	<path class="st1" d="M127.1,568.1l-8.5,19.6h-4.5l-8.5-19.6h4.9l6,14l6-14H127.1z"/>
	<path class="st1" d="M141,583.5h-9.1l-1.7,4.2h-4.6l8.7-19.6h4.5l8.8,19.6h-4.8L141,583.5z M139.5,580.1l-3.1-7.5l-3.1,7.5H139.5z"
		/>
	<path class="st1" d="M151.4,587.4c-1.4-0.4-2.6-1-3.5-1.6l1.5-3.4c0.8,0.6,1.8,1.1,3,1.5c1.2,0.4,2.3,0.6,3.5,0.6
		c1.3,0,2.2-0.2,2.9-0.6c0.6-0.4,0.9-0.9,0.9-1.5c0-0.5-0.2-0.9-0.5-1.2c-0.4-0.3-0.8-0.6-1.4-0.7c-0.6-0.2-1.3-0.4-2.3-0.6
		c-1.5-0.4-2.7-0.7-3.7-1.1c-1-0.4-1.8-0.9-2.4-1.7c-0.7-0.8-1-1.8-1-3.1c0-1.1,0.3-2.2,0.9-3.1c0.6-0.9,1.5-1.7,2.8-2.2
		c1.2-0.5,2.8-0.8,4.5-0.8c1.3,0,2.5,0.1,3.7,0.4c1.2,0.3,2.2,0.7,3.1,1.3l-1.4,3.4c-1.8-1-3.6-1.5-5.4-1.5c-1.3,0-2.2,0.2-2.8,0.6
		c-0.6,0.4-0.9,1-0.9,1.6s0.4,1.2,1,1.5c0.7,0.3,1.8,0.6,3.2,1c1.5,0.4,2.7,0.7,3.7,1.1c1,0.4,1.8,0.9,2.5,1.7c0.7,0.8,1,1.8,1,3.1
		c0,1.1-0.3,2.1-0.9,3.1c-0.6,0.9-1.6,1.7-2.8,2.2c-1.3,0.5-2.8,0.8-4.6,0.8C154.4,588,152.9,587.8,151.4,587.4z"/>
	<path class="st1" d="M171.3,586.7c-1.6-0.9-2.9-2.1-3.8-3.6s-1.4-3.3-1.4-5.2s0.5-3.7,1.4-5.2c0.9-1.5,2.2-2.7,3.8-3.6
		c1.6-0.9,3.4-1.3,5.4-1.3c1.7,0,3.2,0.3,4.6,0.9c1.4,0.6,2.5,1.5,3.5,2.6l-2.9,2.7c-1.3-1.5-3-2.3-4.9-2.3c-1.2,0-2.3,0.3-3.2,0.8
		c-1,0.5-1.7,1.3-2.2,2.2c-0.5,1-0.8,2-0.8,3.2s0.3,2.3,0.8,3.2c0.5,1,1.3,1.7,2.2,2.2s2,0.8,3.2,0.8c2,0,3.6-0.8,4.9-2.3l2.9,2.7
		c-0.9,1.1-2.1,2-3.5,2.6c-1.4,0.6-2.9,0.9-4.6,0.9C174.7,588,172.9,587.6,171.3,586.7z"/>
	<path class="st1" d="M200.4,587.7l-3.8-5.5h-0.2h-3.9v5.5h-4.5v-19.6h8.5c1.7,0,3.2,0.3,4.5,0.9c1.3,0.6,2.3,1.4,3,2.5
		c0.7,1.1,1,2.3,1,3.8s-0.3,2.7-1,3.8s-1.7,1.9-3,2.4l4.4,6.3H200.4z M199.2,572.7c-0.7-0.6-1.7-0.9-3.1-0.9h-3.7v6.8h3.7
		c1.4,0,2.4-0.3,3.1-0.9c0.7-0.6,1.1-1.4,1.1-2.5C200.3,574.1,199.9,573.3,199.2,572.7z"/>
	<path class="st1" d="M208.5,568.1h4.5v19.6h-4.5V568.1z"/>
	<path class="st1" d="M230.7,569c1.3,0.6,2.3,1.4,3,2.5c0.7,1.1,1,2.3,1,3.8c0,1.4-0.3,2.7-1,3.8c-0.7,1.1-1.7,1.9-3,2.5
		c-1.3,0.6-2.8,0.9-4.5,0.9h-3.9v5.4h-4.5v-19.6h8.5C227.9,568.1,229.4,568.4,230.7,569z M229,577.7c0.7-0.6,1.1-1.4,1.1-2.5
		c0-1.1-0.4-1.9-1.1-2.5c-0.7-0.6-1.7-0.9-3.1-0.9h-3.7v6.8h3.7C227.2,578.6,228.3,578.3,229,577.7z"/>
	<path class="st1" d="M241.4,571.8h-6.3v-3.7h17.1v3.7h-6.3v15.9h-4.5V571.8z"/>
	<path class="st1" d="M277.7,584.1v3.6h-15.2v-19.6h14.8v3.6h-10.3v4.3h9.1v3.5h-9.1v4.5H277.7z"/>
	<path class="st1" d="M283.3,587.4c-1.4-0.4-2.6-1-3.5-1.6l1.5-3.4c0.8,0.6,1.8,1.1,3,1.5c1.2,0.4,2.3,0.6,3.5,0.6
		c1.3,0,2.2-0.2,2.9-0.6c0.6-0.4,0.9-0.9,0.9-1.5c0-0.5-0.2-0.9-0.5-1.2c-0.4-0.3-0.8-0.6-1.4-0.7s-1.3-0.4-2.3-0.6
		c-1.5-0.4-2.7-0.7-3.7-1.1c-1-0.4-1.8-0.9-2.4-1.7c-0.7-0.8-1-1.8-1-3.1c0-1.1,0.3-2.2,0.9-3.1s1.5-1.7,2.8-2.2
		c1.2-0.5,2.8-0.8,4.5-0.8c1.3,0,2.5,0.1,3.7,0.4c1.2,0.3,2.2,0.7,3.1,1.3l-1.4,3.4c-1.8-1-3.6-1.5-5.4-1.5c-1.3,0-2.2,0.2-2.8,0.6
		c-0.6,0.4-0.9,1-0.9,1.6s0.4,1.2,1,1.5c0.7,0.3,1.8,0.6,3.2,1c1.5,0.4,2.7,0.7,3.7,1.1c1,0.4,1.8,0.9,2.4,1.7s1,1.8,1,3.1
		c0,1.1-0.3,2.1-0.9,3.1c-0.6,0.9-1.6,1.7-2.8,2.2c-1.3,0.5-2.8,0.8-4.6,0.8C286.2,588,284.7,587.8,283.3,587.4z"/>
	<path class="st1" d="M310.8,576.2c1,0.5,1.8,1.2,2.4,2.1c0.6,0.9,0.9,2,0.9,3.2c0,1.3-0.3,2.5-1,3.4c-0.7,1-1.5,1.8-2.7,2.3
		c-1.1,0.5-2.4,0.8-3.8,0.8c-2.7,0-4.9-0.8-6.4-2.5c-1.5-1.7-2.3-4.1-2.3-7.2c0-2.2,0.4-4.1,1.3-5.7c0.8-1.6,2-2.8,3.5-3.6
		c1.5-0.8,3.2-1.2,5.2-1.2c1,0,2,0.1,3,0.3c1,0.2,1.8,0.6,2.5,1l-1.7,3.3c-1-0.7-2.2-1-3.7-1c-1.7,0-3,0.5-3.9,1.5
		c-1,1-1.5,2.4-1.6,4.2c1.2-1.2,2.8-1.7,4.8-1.7C308.7,575.4,309.8,575.7,310.8,576.2z M308.9,583.9c0.6-0.5,0.9-1.2,0.9-2.1
		c0-0.9-0.3-1.6-0.9-2.1c-0.6-0.5-1.4-0.8-2.4-0.8c-1,0-1.8,0.3-2.4,0.8c-0.6,0.6-1,1.3-1,2.1s0.3,1.6,0.9,2.1
		c0.6,0.5,1.5,0.8,2.5,0.8C307.5,584.7,308.3,584.4,308.9,583.9z"/>
	<path class="st1" d="M329.9,579.6h-4.9v4.8h-3.6v-4.8h-4.8v-3.4h4.8v-4.8h3.6v4.8h4.9V579.6z"/>
</g>
</svg>
