<svg width="286" height="229" viewBox="0 0 286 229" fill="none" xmlns="http://www.w3.org/2000/svg">
<path d="M276 61.5L57.7692 61.1366C56.513 61.1362 55.279 61.466 54.1911 62.0927C53.1032 62.7195 52.2 63.621 51.5722 64.7068C51.0209 65.6568 50.6994 66.7221 50.6331 67.818H276C275.884 66.009 276 67 276 64.5C276 62.6801 275.996 65.2049 276 61.5Z" fill="#63FFBF"/>
<path d="M57.7532 66.4919C58.7411 66.4919 59.542 65.6927 59.542 64.7068C59.542 63.7209 58.7411 62.9217 57.7532 62.9217C56.7652 62.9217 55.9644 63.7209 55.9644 64.7068C55.9644 65.6927 56.7652 66.4919 57.7532 66.4919Z" fill="#EDEDF4"/>
<path d="M63.1165 66.4919C64.1044 66.4919 64.9053 65.6927 64.9053 64.7068C64.9053 63.7209 64.1044 62.9217 63.1165 62.9217C62.1285 62.9217 61.3277 63.7209 61.3277 64.7068C61.3277 65.6927 62.1285 66.4919 63.1165 66.4919Z" fill="#EDEDF4"/>
<path d="M68.4829 66.4919C69.4708 66.4919 70.2717 65.6927 70.2717 64.7068C70.2717 63.7209 69.4708 62.9217 68.4829 62.9217C67.495 62.9217 66.6941 63.7209 66.6941 64.7068C66.6941 65.6927 67.495 66.4919 68.4829 66.4919Z" fill="#EDEDF4"/>
<path d="M96.9953 73.508H59.8455V76.922H96.9953V73.508Z" fill="#63FFBF"/>
<path opacity="0.5" d="M96.9953 90.1572H59.8455V93.5713H96.9953V90.1572Z" fill="#63FFBF"/>
<path opacity="0.5" d="M96.9953 101.923H59.8455V105.337H96.9953V101.923Z" fill="#63FFBF"/>
<path opacity="0.5" d="M96.9953 113.692H59.8455V117.106H96.9953V113.692Z" fill="#63FFBF"/>
<path opacity="0.5" d="M96.9953 125.461H59.8455V128.875H96.9953V125.461Z" fill="#63FFBF"/>
<path opacity="0.5" d="M96.9953 137.23H59.8455V140.644H96.9953V137.23Z" fill="#63FFBF"/>
<path opacity="0.5" d="M96.9953 148.999H59.8455V152.413H96.9953V148.999Z" fill="#63FFBF"/>
<path opacity="0.5" d="M96.9953 160.768H59.8455V164.182H96.9953V160.768Z" fill="#63FFBF"/>
<path opacity="0.5" d="M301.275 86.0611H136.659V86.6094H301.275V86.0611Z" fill="#DCE0ED"/>
<path opacity="0.5" d="M276 98H137V99H276V98Z" fill="#DCE0ED"/>
<path opacity="0.5" d="M276 111H137V112H276V111Z" fill="#DCE0ED"/>
<path opacity="0.5" d="M276 124H137V125H276V124Z" fill="#DCE0ED"/>
<path opacity="0.5" d="M276 137H137V138H276V137Z" fill="#DCE0ED"/>
<path opacity="0.5" d="M276.015 137.58H136.615V112.519L151.734 119.953L167.376 122.069L181.102 117.941L197.661 105.123L205.992 100.323L212.08 99.1529L217.907 99.4653L227.49 104.186L240.513 112.465L250.732 113.778L258.839 110.989L276.16 97L276.015 109.5V123.5V128V137.58Z" fill="#63FFBF"/>
<path d="M165.184 122.079C150.34 122.079 136.627 113.019 136.455 112.905L136.864 112.296C137.074 112.436 158.189 126.376 176.125 119.391C182.664 116.841 187.324 112.889 191.828 109.057C196.53 105.06 200.973 101.282 207.027 99.6438C213.974 97.7662 221.564 99.4653 227.33 104.196C232.259 108.238 242.078 114.715 252.447 112.803C257.736 111.811 262.192 107.957 266.91 103.877C275.941 96.0417 277 96 276 103.5V108.5C276.5 96.637 276.219 96.7844 267.39 104.422C262.598 108.566 258.065 112.484 252.584 113.51C241.915 115.509 231.891 108.888 226.863 104.763C221.28 100.186 213.936 98.5377 207.222 100.355C201.325 101.948 196.942 105.675 192.304 109.618C187.752 113.488 183.041 117.488 176.393 120.077C172.815 121.437 169.013 122.116 165.184 122.079Z" fill="#63FFBF"/>
<path d="M215.869 103.15C218.121 103.15 219.948 101.328 219.948 99.0796C219.948 96.8314 218.121 95.0089 215.869 95.0089C213.616 95.0089 211.789 96.8314 211.789 99.0796C211.789 101.328 213.616 103.15 215.869 103.15Z" fill="#63FFBF"/>
<g opacity="0.5">
<path opacity="0.5" d="M175.403 166.132H151.206V171.255H175.403V166.132Z" fill="#DCE0ED"/>
<path opacity="0.5" d="M230.965 166.132H206.768V171.255H230.965V166.132Z" fill="#DCE0ED"/>
</g>
<path d="M149.494 201.905C149.494 194.426 155.592 188.682 163.086 188.682H163.182V185.268H163.073C153.698 185.268 146.073 192.539 146.073 201.895C146.073 204.315 146.593 206.707 147.597 208.91C148.602 211.113 150.067 213.075 151.896 214.665L154.311 212.252C152.801 210.981 151.588 209.397 150.756 207.61C149.924 205.822 149.493 203.875 149.494 201.905V201.905Z" fill="#63FFBF"/>
<path opacity="0.5" d="M163.533 185.268V188.673C165.718 188.685 167.867 189.222 169.8 190.24C171.732 191.257 173.39 192.725 174.633 194.518C175.877 196.31 176.669 198.376 176.942 200.539C177.215 202.702 176.962 204.899 176.204 206.944C175.445 208.989 174.204 210.821 172.585 212.285C170.966 213.75 169.018 214.803 166.904 215.356C164.791 215.909 162.575 215.946 160.445 215.462C158.314 214.979 156.332 213.991 154.666 212.58L152.251 214.99C154.315 216.792 156.786 218.069 159.452 218.711C162.118 219.354 164.9 219.342 167.561 218.679C170.222 218.015 172.683 216.718 174.732 214.899C176.782 213.08 178.36 210.793 179.331 208.234C180.303 205.674 180.639 202.918 180.312 200.2C179.984 197.483 179.002 194.885 177.45 192.628C175.898 190.372 173.821 188.524 171.397 187.242C168.974 185.96 166.276 185.283 163.533 185.268Z" fill="#63FFBF"/>
<path opacity="0.5" d="M225.582 186.279L224.905 189.664C229.895 191.675 233.083 196.556 233.083 202.246C233.082 204.691 232.419 207.09 231.164 209.189C229.909 211.289 228.109 213.011 225.953 214.173C223.798 215.336 221.368 215.895 218.921 215.793C216.473 215.69 214.099 214.929 212.049 213.591C209.999 212.252 208.349 210.385 207.275 208.188C206.201 205.991 205.742 203.545 205.947 201.109C206.151 198.672 207.012 196.337 208.437 194.348C209.863 192.36 211.8 190.793 214.045 189.814L212.518 186.77C209.73 188.021 207.332 190 205.577 192.498C203.821 194.995 202.773 197.919 202.542 200.961C202.312 204.003 202.907 207.05 204.267 209.783C205.626 212.515 207.698 214.831 210.265 216.488C212.832 218.144 215.8 219.078 218.854 219.193C221.909 219.308 224.938 218.598 227.623 217.14C230.308 215.681 232.549 213.527 234.11 210.904C235.671 208.281 236.495 205.287 236.494 202.236C236.494 194.905 232.137 188.638 225.582 186.279Z" fill="#63FFBF"/>
<path d="M219.919 188.485C221.547 188.483 223.157 188.817 224.65 189.466L225.327 186.081C223.601 185.418 221.768 185.079 219.919 185.08C217.514 185.078 215.137 185.589 212.946 186.578L214.469 189.626C216.187 188.871 218.043 188.483 219.919 188.485V188.485Z" fill="#63FFBF"/>
<path d="M74.6447 122.292C75.5583 119.844 73.9292 117.265 73.9292 117.265L73.7982 111.658C74.5169 110.179 72.0414 106.507 72.0414 106.507C72.0414 106.507 71.4536 103.734 70.9329 103.475C70.4123 103.217 69.8277 102.06 69.8277 102.06C69.8235 101.899 69.7747 101.743 69.6867 101.609C69.5987 101.474 69.475 101.367 69.3294 101.298C68.4031 99.6272 67.6085 97.8868 66.9528 96.0927C66.5887 95.0982 66.266 94.0335 66.4737 92.9975C66.5309 92.7336 66.6089 92.4746 66.7068 92.2229L66.7675 92.0667L66.7931 91.9997L66.8123 91.9455C67.0597 91.4285 67.1916 90.864 67.1988 90.2911C67.1253 89.0957 66.0233 88.2223 64.9276 87.7155C63.832 87.2086 62.6022 86.8771 61.7333 86.0356C60.6536 84.9773 60.4013 83.3739 60.1521 81.8916C59.903 80.4093 59.5133 78.7995 58.293 77.907C57.2133 77.1196 55.7376 77.1037 54.4183 77.3268C52.6318 77.6314 50.9295 78.3081 49.4224 79.3127C47.969 80.285 46.6721 81.576 44.9919 82.0828C44.3754 82.2709 43.7142 82.341 43.1136 82.5451C42.4706 82.7758 41.8867 83.1455 41.4035 83.6277C40.9203 84.1098 40.5498 84.6926 40.3186 85.3343V85.3343C40.2963 85.3917 40.2771 85.4522 40.2579 85.5128C40.2388 85.5734 40.2068 85.6658 40.1845 85.7423L40.1365 85.9368C40.1206 86.0101 40.1014 86.0866 40.0886 86.1631C40.0759 86.2396 40.0663 86.2906 40.0567 86.3575C40.0471 86.4245 40.0375 86.5105 40.0311 86.5902C40.0247 86.6699 40.0311 86.7177 40.0152 86.7815C39.9992 86.8452 40.0152 86.9409 40.0152 87.0238C39.3163 87.6796 38.7141 88.4308 38.2263 89.2551C36.0766 92.65 33.4061 97.5622 32.2178 99.7745L32.1603 99.8797C32.1603 99.8414 32.1603 99.8127 32.1603 99.8127C32.1603 99.8127 26.9185 105.066 29.9786 104.355C30.2086 104.304 30.4162 104.266 30.6175 104.24L30.5855 104.824V104.84C30.0968 105.452 27.9822 107.568 31.9208 109.134C35.1854 110.434 41.8679 110.769 44.0592 110.842L43.8675 111.767C40.4815 114.537 41.7848 117.696 41.7177 119.755C41.6506 121.814 41.328 124.269 41.328 124.269C41.328 124.269 39.881 126.615 40.0663 127.832C40.2515 129.05 39.0249 131.055 39.0249 131.055C39.0249 131.055 37.2042 133.054 37.399 134.342C37.5939 135.63 37.0796 137.306 37.0796 137.306C37.0796 137.306 35.8434 139.563 36.3609 140.848C36.8783 142.132 36.6228 142.85 36.6228 142.85C36.6228 142.85 33.9524 143.235 33.7479 144.651C33.5435 146.066 31.1446 146.586 31.1446 146.586C31.1446 146.586 26.8482 148.132 25.8037 148.839C24.7591 149.547 19.2298 154.705 19.2298 154.705C19.2298 154.705 13.6876 160.404 13.3874 160.988C13.0871 161.571 9.82251 164.032 11.3366 166.352C11.4101 166.467 11.4867 166.582 11.5666 166.7C13.1471 168.995 15.1958 170.931 17.5783 172.38C18.626 173.018 19.6706 173.748 19.9804 174.229C20.664 175.291 32.0901 182.59 32.0901 182.59C32.0901 182.59 37.1147 186.993 40.3474 190.062L40.5933 191.538C40.5518 191.605 40.5071 191.672 40.4688 191.746C40.435 191.905 40.4454 192.07 40.4989 192.224C40.5523 192.378 40.6468 192.515 40.7722 192.619L40.8169 192.884C40.8169 192.884 42.1202 203.836 43.2925 208.959C44.0655 212.351 43.5161 214.907 43.0561 216.249C41.8391 214.907 41.6954 214.423 41.6954 214.423C41.3284 215.292 41.0512 216.197 40.868 217.123C40.8489 217.257 40.8361 217.384 40.8297 217.508C40.8128 217.507 40.7956 217.509 40.78 217.516C40.7643 217.522 40.7506 217.533 40.7403 217.547L40.2867 218.184C39.7884 218.873 39.3507 219.599 38.9035 220.323C37.8814 221.981 34.6647 222.758 34.6647 222.758C34.3933 222.9 34.1027 223.001 33.8022 223.058C32.8982 223.214 31.9768 223.243 31.0647 223.144C30.7905 223.184 30.5209 223.25 30.2597 223.342C30.045 223.411 29.8391 223.505 29.6464 223.622V223.638C28.2441 224.544 28.7552 226.214 28.7552 226.214L28.7903 226.239L28.8255 226.259L28.883 226.297L28.9692 226.348L29.0395 226.392L29.1194 226.437L29.196 226.482L29.295 226.539L29.3781 226.584L29.5921 226.698L29.6879 226.749L29.8285 226.82L29.9403 226.874L30.0904 226.95L30.2374 227.017L30.4961 227.132L30.6462 227.199L30.8155 227.269L30.9848 227.339L31.1573 227.406L31.4768 227.524L31.6365 227.578L31.8633 227.652L32.0326 227.706L32.2945 227.782L32.4382 227.824L32.8439 227.926L32.9749 227.954L33.2943 228.021H33.3774H33.4445L33.7926 228.076L33.8917 228.091C34.045 228.114 34.2111 228.133 34.3548 228.146H34.4571L34.8276 228.171H34.9809C35.0959 228.171 35.2141 228.171 35.3323 228.171H35.4728L35.952 228.152H36.051L36.4439 228.111L36.6164 228.088L36.9614 228.028L37.1243 227.999C37.2904 227.964 37.4437 227.926 37.6226 227.878C41.2607 226.887 45.0487 226.563 48.8027 226.922C51.6776 227.164 52.3963 226.182 52.3963 226.182C52.4538 226.107 52.5031 226.026 52.5433 225.94C52.5592 225.908 52.572 225.873 52.5848 225.841C52.6105 225.782 52.6329 225.721 52.6519 225.659C52.6519 225.618 52.6742 225.576 52.687 225.535C52.6998 225.494 52.7158 225.414 52.7285 225.35C52.7413 225.286 52.7285 225.261 52.7509 225.213C52.7732 225.165 52.7509 225.165 52.7509 225.14C52.7509 225.114 52.7509 225.012 52.7669 224.948C52.7932 224.395 52.7546 223.841 52.6519 223.297C52.4167 222.097 52.0659 220.923 51.6041 219.791L51.3997 219.934C51.3773 219.826 51.355 219.714 51.3326 219.596C50.6267 215.822 50.3743 206.76 50.3584 205.797C50.7551 205.801 51.141 205.668 51.4508 205.421C51.4799 205.399 51.5076 205.376 51.5339 205.351C53.9743 203.371 52.7764 194.331 51.9715 193.075C51.1665 191.819 51.0132 185.367 50.7257 183.311C50.5883 182.335 50.0709 182.036 49.4064 182.036H49.1221C49.0263 180.123 49.3042 175.625 49.5246 172.556C49.5246 172.355 49.5534 172.164 49.5662 171.976L50.1795 172.011L51.093 166.592C51.093 166.592 51.6137 164.593 54.8048 158.922C57.996 153.251 58.3186 147.067 58.3186 147.067C58.3186 147.067 59.296 145.196 59.0341 144.361C58.967 144.141 58.8584 143.532 58.737 142.735C59.8194 142.08 60.9591 141.524 62.1422 141.074C65.5569 139.697 68.1155 137.118 69.307 135.837L69.4955 135.636C69.7896 136.079 70.0584 136.539 70.3005 137.013C70.3005 137.013 73.0987 135.081 74.5329 133.405C74.6867 133.213 74.8086 132.997 74.8939 132.767C75.7563 130.622 74.8747 126.044 74.8747 126.044C76.047 124.097 74.6447 122.292 74.6447 122.292Z" fill="url(#paint0_linear)"/>
<g opacity="0.1">
<path opacity="0.1" d="M60.5546 135.33C60.4236 135.566 59.4845 136.127 58.3409 136.745C58.2355 135.916 58.1589 135.285 58.1429 135.094C58.0726 134.38 59.5963 131.199 59.5963 131.199C59.5963 131.199 62.5063 127.3 62.4392 126.717C62.3722 126.133 63.5636 124.444 63.5636 124.444L66.199 120.172C66.0557 120.499 66.0056 120.858 66.0541 121.21C66.1026 121.563 66.2478 121.896 66.4737 122.171C67.2691 123.21 66.6046 125.289 66.6046 125.289L66.7643 127.909L66.7803 128.167C66.6845 128.26 66.2628 128.664 65.3237 129.509C64.4549 130.29 64.6114 130.526 64.7072 130.59C64.5124 130.94 64.7551 131.001 64.7551 131.001C64.8318 131.001 64.9085 131.001 64.9819 130.985L64.7743 131.176C63.142 132.691 60.791 134.903 60.5546 135.33Z" fill="url(#paint1_linear)"/>
</g>
<path d="M43.1136 87.0174C42.3215 87.8366 43.2223 88.9937 42.6089 89.8863C42.2608 90.3868 41.4941 90.6992 41.0597 91.1614C40.2132 92.0794 40.8521 93.2525 41.261 94.2949C42.7527 98.1041 40.5135 102.443 35.8306 104.814C37.8571 105.707 40.126 105.891 42.2703 105.337C44.3658 104.779 45.9758 103.479 46.4006 101.999C46.7009 100.951 46.4453 99.835 46.9852 98.8277C47.8253 97.2658 50.3967 96.3222 51.1569 94.7411C51.7511 93.5043 51.0994 92.1623 50.3456 90.9669C49.388 89.4745 48.2998 88.0696 47.0938 86.7687C46.3623 85.9654 46.3591 85.6499 45.1772 85.8666C44.4159 86.1012 43.7128 86.4933 43.1136 87.0174V87.0174Z" fill="#985C7E"/>
<path d="M50.1028 98.1966C50.0074 99.3258 49.7547 100.436 49.3521 101.496C48.9049 102.851 48.445 104.218 47.6751 105.417C46.9053 106.615 45.7745 107.648 44.3946 108.015C44.8531 108.425 45.3986 108.728 45.9904 108.899C46.5821 109.07 47.205 109.105 47.8125 109.003C48.6877 108.847 49.5789 108.404 50.4286 108.684C50.8196 108.854 51.1967 109.054 51.5562 109.283C52.8052 109.921 54.4311 109.452 55.3383 108.375C55.7653 107.819 56.0487 107.167 56.1635 106.476C56.2782 105.785 56.2208 105.076 55.9963 104.413C55.7408 103.603 55.2872 102.867 55.038 102.054C54.6898 100.849 54.8272 99.5035 54.2426 98.3942C53.3929 96.7844 51.0292 95.8441 49.432 95.2065C49.3553 96.0577 50.1443 97.1638 50.1028 98.1966Z" fill="#985C7E"/>
<path opacity="0.1" d="M47.8924 95.2065C47.7969 96.3358 47.5443 97.4462 47.1417 98.5058C46.6945 99.8606 46.2345 101.228 45.4647 102.427C44.6948 103.625 43.5641 104.658 42.1841 105.025C42.6429 105.435 43.1884 105.737 43.7801 105.908C44.3718 106.079 44.9945 106.115 45.602 106.013C46.4805 105.857 47.3685 105.414 48.2182 105.694C48.6095 105.863 48.9866 106.064 49.3458 106.293C50.5979 106.931 52.2206 106.462 53.1278 105.388C53.5544 104.831 53.8378 104.179 53.953 103.487C54.0683 102.796 54.012 102.087 53.7891 101.423C53.5335 100.613 53.0767 99.8765 52.8308 99.0636C52.4826 97.8587 52.6199 96.5135 52.0354 95.4042C51.1857 93.8103 48.8251 92.854 47.2247 92.2165C47.1449 93.0708 47.9307 94.1737 47.8924 95.2065Z" fill="black"/>
<path d="M49.4639 169.562C49.4639 169.562 48.5057 181.255 48.9209 182.82C49.3362 184.385 50.0421 205.532 50.0421 205.532C50.0421 205.532 50.3296 217.865 51.2911 220.451C52.2526 223.036 44.7907 222.306 44.5351 222.274C44.2796 222.242 42.4365 217.002 42.4365 217.002C42.4365 217.002 44.2604 213.814 43.1073 208.714C41.9541 203.613 40.6732 192.775 40.6732 192.775L38.5618 179.996C38.5618 179.996 38.8492 176.993 37.728 175.3C36.6068 173.608 35.1726 162.521 35.492 161.561C35.8115 160.602 43.4203 158.495 43.4203 158.495L46.6977 162.776L49.4639 169.562Z" fill="#ECB4B6"/>
<path opacity="0.07" d="M35.5942 164.022V164.048L35.6134 164.245C35.6326 164.459 35.6581 164.682 35.6837 164.912C36.083 168.609 36.9965 174.156 37.7632 175.313C38.5298 176.47 38.6352 178.239 38.6256 179.243C38.6256 179.358 38.6256 179.46 38.6256 179.562C38.6256 179.846 38.6001 180.018 38.6001 180.018L40.226 189.846L40.2931 190.26L40.7115 192.81C40.7115 192.81 41.9893 203.671 43.1456 208.749C43.7107 211.039 43.6612 213.438 43.0018 215.704C42.9699 215.81 42.938 215.909 42.906 216.001C42.7918 216.352 42.6475 216.694 42.4748 217.021C42.4748 217.021 42.7367 217.76 43.0785 218.688C43.1552 218.895 43.235 219.109 43.3149 219.325L43.4427 219.663C43.9378 220.97 44.4616 222.274 44.5862 222.287C44.8418 222.322 52.3037 223.055 51.3422 220.467C51.2168 220.091 51.1207 219.706 51.0547 219.316C50.3232 215.36 50.0964 205.548 50.0964 205.548C50.0964 205.548 49.3937 184.401 48.9752 182.836C48.6973 181.794 49.0327 176.266 49.2946 172.683C49.4224 170.892 49.531 169.588 49.531 169.588L46.7456 162.814L43.4682 158.536C43.4682 158.536 38.0059 160.05 36.1437 161.086L36.0894 161.118C35.7699 161.294 35.5847 161.456 35.5399 161.596C35.4377 161.823 35.476 162.754 35.5942 164.022Z" fill="black"/>
<path opacity="0.05" d="M40.5422 178.794C40.5422 178.794 44.1614 179.75 43.842 180.805L40.5422 178.794Z" fill="black"/>
<path opacity="0.1" d="M42.4684 217.002C42.4684 217.002 42.8613 218.108 43.3085 219.309C43.8196 219.549 44.2093 219.702 44.2093 219.702C44.2093 219.702 45.602 218.407 43.7621 216.514C43.465 216.195 43.2127 215.934 42.9955 215.691C42.8634 216.144 42.6868 216.583 42.4684 217.002V217.002Z" fill="black"/>
<path d="M40.702 217.623C40.8425 218.388 42.5227 219.236 43.4363 219.647C43.7813 219.8 44.0176 219.893 44.0176 219.893C44.1864 219.719 44.317 219.511 44.401 219.284C44.615 218.726 44.6533 217.818 43.5672 216.699C43.3149 216.437 43.0945 216.198 42.8996 215.981C41.6794 214.63 41.5357 214.142 41.5357 214.142C41.1739 215.005 40.901 215.902 40.7211 216.82C40.674 217.085 40.6676 217.356 40.702 217.623V217.623Z" fill="#CC8294"/>
<path opacity="0.1" d="M40.702 217.623C40.8425 218.388 42.5227 219.236 43.4363 219.647C43.9314 220.954 44.4553 222.258 44.5798 222.271C44.8354 222.306 52.2973 223.039 51.3358 220.451C51.2105 220.075 51.1143 219.69 51.0483 219.3C50.6171 219.6 49.7387 220.215 48.9784 220.757C47.9243 221.506 46.3399 220.948 46.3399 220.948L44.401 219.284L43.9186 218.87C43.6277 218.847 43.342 218.779 43.0721 218.669C42.4106 218.377 41.8369 217.917 41.4079 217.336C41.0405 216.944 40.8329 216.839 40.7211 216.82C40.674 217.085 40.6676 217.356 40.702 217.623V217.623Z" fill="black"/>
<path d="M28.8127 225.819C30.2106 226.708 31.7633 227.328 33.3902 227.645C34.7725 227.926 36.201 227.886 37.5651 227.527C41.1369 226.544 44.8587 226.22 48.5472 226.571C51.3614 226.813 52.0833 225.838 52.0833 225.838C52.5529 225.2 52.5369 224.091 52.3452 222.969C52.1148 221.777 51.7692 220.61 51.3135 219.485C51.3135 219.485 50.0357 220.381 48.9784 221.133C47.9211 221.885 46.3399 221.324 46.3399 221.324L43.9186 219.246C42.3822 219.134 41.4079 217.712 41.4079 217.712C40.7307 216.992 40.5965 217.234 40.5965 217.234L40.1493 217.853C39.6574 218.532 39.2294 219.255 38.7918 219.972C37.7855 221.617 34.6391 222.386 34.6391 222.386C34.372 222.526 34.0858 222.627 33.7895 222.685C32.9013 222.839 31.9958 222.867 31.0998 222.768C30.6242 222.829 30.1658 222.985 29.7518 223.227C28.292 224.123 28.8127 225.819 28.8127 225.819Z" fill="#CC8294"/>
<path d="M43.4107 220.859C43.5483 220.859 43.6599 220.747 43.6599 220.61C43.6599 220.473 43.5483 220.361 43.4107 220.361C43.2731 220.361 43.1616 220.473 43.1616 220.61C43.1616 220.747 43.2731 220.859 43.4107 220.859Z" fill="#4B4B5B"/>
<path d="M40.3442 222.162C40.4818 222.162 40.5933 222.051 40.5933 221.914C40.5933 221.776 40.4818 221.665 40.3442 221.665C40.2066 221.665 40.095 221.776 40.095 221.914C40.095 222.051 40.2066 222.162 40.3442 222.162Z" fill="#4B4B5B"/>
<path d="M41.5548 224.018C41.6924 224.018 41.804 223.906 41.804 223.769C41.804 223.632 41.6924 223.52 41.5548 223.52C41.4172 223.52 41.3057 223.632 41.3057 223.769C41.3057 223.906 41.4172 224.018 41.5548 224.018Z" fill="#4B4B5B"/>
<path d="M37.3351 223.39C37.4727 223.39 37.5843 223.278 37.5843 223.141C37.5843 223.004 37.4727 222.892 37.3351 222.892C37.1975 222.892 37.086 223.004 37.086 223.141C37.086 223.278 37.1975 223.39 37.3351 223.39Z" fill="#4B4B5B"/>
<path d="M42.0563 221.665C42.1939 221.665 42.3055 221.554 42.3055 221.416C42.3055 221.279 42.1939 221.168 42.0563 221.168C41.9187 221.168 41.8072 221.279 41.8072 221.416C41.8072 221.554 41.9187 221.665 42.0563 221.665Z" fill="#4B4B5B"/>
<path d="M43.251 223.887C43.3886 223.887 43.5002 223.776 43.5002 223.638C43.5002 223.501 43.3886 223.39 43.251 223.39C43.1134 223.39 43.0019 223.501 43.0019 223.638C43.0019 223.776 43.1134 223.887 43.251 223.887Z" fill="#4B4B5B"/>
<path d="M38.862 222.889C38.9996 222.889 39.1112 222.778 39.1112 222.641C39.1112 222.503 38.9996 222.392 38.862 222.392C38.7244 222.392 38.6129 222.503 38.6129 222.641C38.6129 222.778 38.7244 222.889 38.862 222.889Z" fill="#4B4B5B"/>
<path d="M35.6901 223.769C35.8277 223.769 35.9392 223.658 35.9392 223.52C35.9392 223.383 35.8277 223.272 35.6901 223.272C35.5524 223.272 35.4409 223.383 35.4409 223.52C35.4409 223.658 35.5524 223.769 35.6901 223.769Z" fill="#4B4B5B"/>
<path opacity="0.1" d="M28.8127 225.819C28.8127 225.819 33.0995 228.758 37.5651 227.527C41.1369 226.544 44.8587 226.22 48.5472 226.571C51.3614 226.813 52.0833 225.838 52.0833 225.838C52.2905 225.529 52.4138 225.172 52.441 224.802C52.441 224.732 52.4474 224.658 52.4602 224.582C52.4829 224.048 52.4443 223.513 52.3452 222.988C51.7607 223.422 50.5436 223.944 48.0808 224.034C43.8228 224.171 38.2072 225.254 38.2072 225.254L32.7769 225.035C32.7769 225.035 29.7359 224.375 29.7486 223.246C28.292 224.123 28.8127 225.819 28.8127 225.819Z" fill="black"/>
<path d="M36.4279 226.871C36.5175 226.886 36.6085 226.893 36.6995 226.89C37.6578 226.89 39.9704 226.386 41.3504 226.064C41.7407 225.973 42.1384 225.916 42.5387 225.895C43.8164 225.831 46.9436 225.678 48.7069 225.691H48.7484C50.028 225.653 51.2856 225.349 52.441 224.799C52.441 224.728 52.4474 224.655 52.4602 224.579C51.29 225.151 50.0098 225.466 48.7069 225.5C46.9436 225.5 43.8004 225.64 42.5291 225.704C42.1168 225.726 41.7074 225.784 41.3057 225.879C40.0822 226.166 37.1531 226.836 36.4631 226.683L36.4279 226.871Z" fill="#CC8294"/>
<path opacity="0.03" d="M38.6192 179.553C38.6192 179.836 38.5937 180.008 38.5937 180.008L40.2196 189.836L41.0565 190.633C41.8736 191.372 42.6328 192.172 43.3277 193.027C44.286 194.512 47.6815 193.744 47.6176 193.601C47.5537 193.457 46.161 186.46 46.161 186.46L45.0558 183.633C45.0558 183.633 43.909 184.353 42.7782 183.155C42.0659 182.402 40.4719 180.923 39.3859 179.935L38.6256 179.243C38.6256 179.358 38.6224 179.46 38.6192 179.553Z" fill="black"/>
<path opacity="0.05" d="M35.5942 164.048L35.6134 164.245C35.6326 164.459 35.6581 164.682 35.6837 164.912C35.9201 164.826 36.1532 164.73 36.38 164.628C36.4918 164.58 36.6005 164.532 36.6995 164.481C37.752 163.974 38.7487 163.359 39.6734 162.645L36.8847 161.453L36.0638 161.099C35.7444 161.274 35.5591 161.437 35.5144 161.577C35.4377 161.826 35.4761 162.766 35.5942 164.048Z" fill="black"/>
<path d="M11.6848 166.48C11.7583 166.595 11.8349 166.709 11.9116 166.824C13.4623 169.096 15.476 171.015 17.8211 172.457C18.8528 173.094 19.8782 173.812 20.1849 174.29C20.8557 175.345 32.0933 182.578 32.0933 182.578C32.0933 182.578 37.3192 187.2 40.4815 190.247L40.884 190.639L41.0789 190.827C41.3089 191.054 41.5229 191.271 41.7177 191.465C41.9956 191.749 42.232 192.001 42.4109 192.208C42.478 192.284 42.5387 192.354 42.5898 192.418C42.6409 192.482 42.7144 192.578 42.7559 192.638C43.7142 194.124 47.1065 193.358 47.0458 193.215C46.9851 193.072 45.5892 186.075 45.5892 186.075L44.484 183.247C44.2637 183.369 44.0194 183.44 43.7683 183.458C43.5172 183.475 43.2654 183.437 43.0306 183.346C42.7152 183.219 42.4332 183.022 42.2065 182.769C41.4941 182.014 39.897 180.538 38.8141 179.549C38.1752 178.966 37.7121 178.552 37.7121 178.552L34.1121 174.478C34.1121 174.478 29.5027 168.488 26.0464 167.003C26.0464 167.003 29.9371 165.409 32.7193 164.991C33.7771 164.876 34.8153 164.624 35.8082 164.242C35.9169 164.194 36.0287 164.147 36.1277 164.096C37.179 163.588 38.1745 162.973 39.0984 162.259L36.3129 161.064L21.6734 154.788C21.5808 154.788 20.7343 154.842 20.1114 154.886L19.447 154.931C19.447 154.931 13.9879 160.586 13.6972 161.16C13.4065 161.733 10.1962 164.178 11.6848 166.48Z" fill="#ECB4B6"/>
<path opacity="0.03" d="M27.8193 163.844C27.8193 163.844 21.5297 164.609 20.2807 165.903C20.2807 165.903 25.8005 166.289 26.0305 167.006C26.0305 167.006 22.8745 164.877 21.996 165.412L27.8193 163.844Z" fill="black"/>
<path opacity="0.05" d="M40.884 190.643L41.0789 190.831C41.3089 191.057 41.5229 191.274 41.7177 191.468C41.9956 191.752 42.232 192.004 42.4109 192.211L43.2255 191.156C42.9494 190.921 42.6364 190.732 42.2991 190.598C42.0763 190.496 41.8331 190.447 41.5883 190.454C41.3435 190.462 41.1036 190.525 40.8872 190.639L40.884 190.643Z" fill="black"/>
<path d="M41.2833 192.989C41.4949 193.098 41.7149 193.189 41.9413 193.263L42.5802 192.421L43.4075 191.35C43.132 191.113 42.819 190.924 42.4812 190.789C42.2588 190.688 42.0162 190.639 41.772 190.647C41.5278 190.654 41.2885 190.717 41.0725 190.831C40.7482 191.03 40.4877 191.317 40.3218 191.659C40.3218 191.659 40.0791 192.377 41.2833 192.989Z" fill="#CC8294"/>
<path opacity="0.05" d="M41.1587 192.858L41.2897 192.989C41.5013 193.098 41.7213 193.189 41.9477 193.263L42.5866 192.421C42.6569 192.507 42.7112 192.581 42.7527 192.641C43.711 194.127 47.1034 193.362 47.0427 193.218C46.982 193.075 45.5861 186.078 45.5861 186.078L44.4808 183.25C44.2605 183.372 44.0162 183.444 43.7651 183.461C43.514 183.478 43.2622 183.44 43.0274 183.349C42.7751 183.611 42.7303 183.939 43.0274 184.353C43.6569 185.306 44.0329 186.403 44.1199 187.541C44.5511 188.727 43.2414 190.18 42.4876 190.792C42.3628 190.899 42.2255 190.99 42.0787 191.063C41.9201 191.161 41.7936 191.303 41.7145 191.471C41.4848 191.915 41.2986 192.379 41.1587 192.858V192.858Z" fill="black"/>
<path d="M41.5357 192.858L42.9923 194.321C45.03 195.612 46.5805 197.542 47.4004 199.807C47.5481 200.242 47.722 200.668 47.9211 201.082C48.1425 201.655 48.2708 202.26 48.3012 202.874C48.3364 203.243 48.3523 203.61 48.3651 203.932C48.374 204.339 48.528 204.731 48.7995 205.035L48.8187 205.057C49.1117 205.383 49.5181 205.584 49.9549 205.621C50.3918 205.658 50.8263 205.527 51.1697 205.255C51.1988 205.233 51.2265 205.21 51.2528 205.185C53.6517 203.221 52.4762 194.261 51.684 193.014C50.8918 191.768 50.7449 185.364 50.4574 183.333C50.3232 182.377 49.8185 182.087 49.1605 182.074C48.5025 182.061 47.6336 182.332 46.8861 182.415H46.7616C45.273 182.536 42.4109 182.976 43.4139 184.356C44.0416 185.31 44.4164 186.407 44.5032 187.544C45.0334 189.007 42.922 190.875 42.4652 191.051C42.0084 191.226 41.5357 192.858 41.5357 192.858Z" fill="#CC8294"/>
<path d="M43.6407 192.377C43.8754 192.377 44.0656 192.187 44.0656 191.953C44.0656 191.719 43.8754 191.529 43.6407 191.529C43.4061 191.529 43.2159 191.719 43.2159 191.953C43.2159 192.187 43.4061 192.377 43.6407 192.377Z" fill="#4B4B5B"/>
<path d="M44.2892 193.964C44.5238 193.964 44.714 193.774 44.714 193.54C44.714 193.306 44.5238 193.116 44.2892 193.116C44.0545 193.116 43.8643 193.306 43.8643 193.54C43.8643 193.774 44.0545 193.964 44.2892 193.964Z" fill="#4B4B5B"/>
<path d="M46.2824 196.521C46.517 196.521 46.7073 196.331 46.7073 196.097C46.7073 195.863 46.517 195.673 46.2824 195.673C46.0478 195.673 45.8576 195.863 45.8576 196.097C45.8576 196.331 46.0478 196.521 46.2824 196.521Z" fill="#4B4B5B"/>
<path d="M45.2922 195.207C45.5268 195.207 45.717 195.018 45.717 194.783C45.717 194.549 45.5268 194.359 45.2922 194.359C45.0575 194.359 44.8673 194.549 44.8673 194.783C44.8673 195.018 45.0575 195.207 45.2922 195.207Z" fill="#4B4B5B"/>
<path d="M47.1065 198.035C47.3412 198.035 47.5314 197.845 47.5314 197.611C47.5314 197.377 47.3412 197.187 47.1065 197.187C46.8719 197.187 46.6817 197.377 46.6817 197.611C46.6817 197.845 46.8719 198.035 47.1065 198.035Z" fill="#4B4B5B"/>
<path opacity="0.1" d="M48.8027 198.921C48.8027 198.921 49.1573 203.065 48.8027 205.022C49.0929 205.357 49.5017 205.567 49.9435 205.608C50.3852 205.649 50.8258 205.518 51.1729 205.242C51.202 205.221 51.2297 205.197 51.256 205.172C53.6549 203.208 52.4794 194.248 51.6872 193.002C50.895 191.755 50.7481 185.351 50.4606 183.321C50.3264 182.364 49.8217 182.074 49.1637 182.061C48.5057 182.049 47.6368 182.32 46.8893 182.402C46.8893 184.433 47.0011 189.097 47.5282 190.646C48.2278 192.629 48.8027 198.921 48.8027 198.921Z" fill="black"/>
<path opacity="0.1" d="M49.86 190.451C50.3072 192.02 50.978 196.333 50.9142 198.634C50.8694 200.32 51.0643 203.613 51.1697 205.242C51.1988 205.22 51.2265 205.197 51.2528 205.172C53.6517 203.208 52.4762 194.248 51.684 193.001C50.8918 191.755 50.7449 185.351 50.4574 183.321C50.3232 182.364 49.8185 182.074 49.1605 182.061C49.2499 184.117 49.5023 189.208 49.86 190.451Z" fill="black"/>
<path d="M48.2246 182.16C48.314 183.792 48.5823 188.153 49.0231 189.399C49.5694 190.961 50.1539 198.436 50.1795 198.752L49.9878 198.768C49.9878 198.692 49.3809 191 48.8379 189.466C48.3907 188.191 48.1223 183.862 48.0329 182.198L48.2246 182.16Z" fill="#CC8294"/>
<path d="M46.819 101.646C46.819 101.646 43.7142 102.197 41.9509 102.847C40.1877 103.498 39.9353 103.848 39.9353 103.848L38.1114 104.138V102.188C38.1114 102.188 31.5758 102.672 30.9178 102.404C30.9021 102.399 30.8878 102.391 30.8762 102.379C30.5568 102.06 31.0679 104.903 30.5887 105.509C30.1096 106.115 28.0333 108.215 31.9016 109.771C35.7699 111.327 44.5447 111.486 44.5447 111.486L47.0426 106.564L46.819 101.646Z" fill="#FF718D"/>
<path d="M56.6448 111.037L49.7323 109.567C50.6934 107.938 51.3696 106.157 51.7319 104.301C51.9811 102.822 51.9491 101.247 51.2656 99.8637C49.2819 95.8409 56.6448 93.7338 56.6448 93.7338C56.6448 93.7338 59.3376 97.8778 61.7557 99.9753C62.567 100.673 63.3528 101.142 63.9917 101.142C66.5695 101.132 56.6448 111.037 56.6448 111.037Z" fill="#ECB4B6"/>
<path opacity="0.1" d="M19.4374 155.505C19.4374 155.505 22.4465 162.597 25.1872 162.725C26.845 162.801 31.9559 163.506 35.7667 164.048L36.1085 164.099C37.1598 163.591 38.1554 162.976 39.0793 162.263L36.2938 161.067L21.6734 154.788C21.5808 154.788 20.7343 154.842 20.1114 154.886L19.4374 155.505Z" fill="black"/>
<path opacity="0.1" d="M40.9607 161.705C43.5705 162.078 40.2548 164.708 40.2548 164.708C40.2548 164.708 41.5325 165.664 43.0082 169.17C44.484 172.677 45.1868 172.431 45.1868 172.431L49.2755 172.651C49.4033 170.86 49.5119 169.556 49.5119 169.556L46.7264 162.782L43.4491 158.504C43.4491 158.504 37.9868 160.019 36.1245 161.055L36.0702 161.086C35.7508 161.262 35.5655 161.424 35.5208 161.565C35.4377 161.823 40.8393 160.433 40.9607 161.705Z" fill="black"/>
<path opacity="0.1" d="M56.6448 111.037L49.7323 109.567C50.6934 107.938 51.3696 106.157 51.7319 104.301L53.8945 106.379C54.9452 106.388 55.9752 106.088 56.8556 105.516C57.2367 105.261 57.5761 104.949 57.8618 104.591C59.4015 102.678 61.2542 100.183 61.2542 100.183C61.2542 100.183 61.4682 100.084 61.7684 99.9753C62.5798 100.673 63.3656 101.142 64.0045 101.142C66.5695 101.132 56.6448 111.037 56.6448 111.037Z" fill="black"/>
<path d="M19.4374 154.931C19.4374 154.931 22.4465 162.024 25.1872 162.151C27.9279 162.279 40.2324 164.131 40.2324 164.131C40.2324 164.131 41.5101 165.087 42.9859 168.593C44.4617 172.1 45.1644 171.851 45.1644 171.851L49.9016 172.109L50.796 166.741C50.796 166.741 51.3103 164.759 54.4471 159.139C57.5839 153.519 57.9033 147.383 57.9033 147.383C57.9033 147.383 58.8616 145.531 58.6093 144.699C58.3569 143.867 57.52 137.287 57.4561 136.583C57.3923 135.878 58.8648 132.757 58.8648 132.757C58.8648 132.757 61.6822 128.932 61.6151 128.349C61.5481 127.766 62.7044 126.118 62.7044 126.118L65.2598 121.913C65.1195 122.234 65.07 122.587 65.1168 122.933C65.1635 123.28 65.3047 123.608 65.525 123.88C66.2948 124.9 65.6527 126.946 65.6527 126.946L65.8093 129.525L65.8444 130.14C65.8444 130.14 65.4611 130.526 64.4134 131.482C63.3656 132.439 63.8607 132.569 63.8607 132.569C67.1253 132.12 69.6872 137.424 69.6872 137.424C69.6872 137.424 72.4407 135.512 73.8398 133.848C73.9893 133.661 74.1089 133.452 74.1943 133.229C75.0408 131.103 74.1752 126.564 74.1752 126.564C75.2804 124.584 73.9037 122.793 73.9037 122.793C74.8013 120.367 73.2009 117.81 73.2009 117.81L73.1019 112.251C73.8078 110.782 71.3738 107.151 71.3738 107.151C71.3738 107.151 70.7988 104.403 70.2845 104.148C69.7702 103.893 69.1984 102.742 69.1984 102.742C69.2623 101.467 65.8668 101.333 65.5473 101.273C65.1403 101.086 64.753 100.86 64.391 100.597C64.0646 100.375 63.7242 100.173 63.372 99.9944C62.7938 99.7394 61.2574 100.441 61.2574 100.441C61.2574 100.441 59.4015 102.933 57.865 104.849C57.5777 105.207 57.2386 105.519 56.8588 105.777C55.9767 106.348 54.9458 106.647 53.8945 106.638L51.7 104.508L45.1964 104.903L43.6599 112.379C40.3282 115.126 41.6091 118.257 41.5453 120.3C41.4814 122.343 41.1619 124.763 41.1619 124.763C41.1619 124.763 39.7532 127.061 39.9449 128.269C40.1366 129.477 38.9195 131.457 38.9195 131.457C38.9195 131.457 37.1275 133.436 37.3224 134.715C37.5172 135.993 37.0029 137.654 37.0029 137.654C37.0029 137.654 35.7859 139.885 36.297 141.16C36.8081 142.435 36.5557 143.143 36.5557 143.143C36.5557 143.143 33.93 143.525 33.7384 144.931C33.5467 146.337 31.1829 146.844 31.1829 146.844C31.1829 146.844 26.9568 148.38 25.9315 149.075C24.9061 149.77 19.4374 154.931 19.4374 154.931Z" fill="#FF718D"/>
<path opacity="0.1" d="M73.2265 123.689C73.2265 123.689 68.435 124.262 67.8504 124.964C67.2659 125.665 72.6419 125.729 72.6419 125.729L73.2265 123.689Z" fill="black"/>
<path opacity="0.1" d="M66.1223 127.488C66.1223 127.488 69.636 126.245 69.7383 126.628C69.8405 127.01 66.1223 129.117 66.1223 129.117V127.488Z" fill="black"/>
<path opacity="0.1" d="M64.6497 120.686C64.0396 121.642 58.983 127.836 58.983 127.836L64.4133 119.917L64.6497 120.686Z" fill="black"/>
<path opacity="0.1" d="M63.9118 118.993C63.5285 119.503 59.4621 126.146 59.4621 126.146L63.5604 118.671L63.9118 118.993Z" fill="black"/>
<path opacity="0.1" d="M72.4279 111.037C72.4279 111.037 70.8595 108.834 69.323 110.24C67.7865 111.645 72.4279 111.037 72.4279 111.037Z" fill="black"/>
<path opacity="0.1" d="M61.449 109.153C61.449 109.153 57.4465 109.153 55.4916 110.048C53.5367 110.944 57.2229 107.364 61.449 109.153Z" fill="black"/>
<path opacity="0.1" d="M56.8556 106.15H57.4497C57.4497 106.15 58.8265 105.637 59.1779 104.578C59.5292 103.52 62.2955 104.489 62.2955 104.489C62.2955 104.489 62.698 104.789 62.3466 104.295C61.9953 103.801 63.5637 102.251 64.2632 101.228C64.3206 101.151 64.3629 101.063 64.3878 100.97C64.0606 100.749 63.7203 100.548 63.3688 100.367C62.7906 100.112 61.2542 100.814 61.2542 100.814C61.2542 100.814 59.3983 103.306 57.8618 105.222C57.5745 105.58 57.2354 105.892 56.8556 106.15Z" fill="black"/>
<path d="M56.8556 105.767H57.4497C57.4497 105.767 58.8265 105.254 59.1779 104.196C59.5292 103.138 62.2955 104.103 62.2955 104.103C62.2955 104.103 62.698 104.406 62.3466 103.912C61.9953 103.418 63.5637 101.869 64.2632 100.846C64.3206 100.768 64.3629 100.68 64.3878 100.587C64.0614 100.365 63.721 100.164 63.3688 99.9849C62.7906 99.7299 61.2542 100.431 61.2542 100.431C61.2542 100.431 59.3983 102.924 57.8618 104.84C57.5745 105.197 57.2354 105.51 56.8556 105.767V105.767Z" fill="#FF718D"/>
<path d="M52.1312 110.192C52.3658 110.192 52.556 110.002 52.556 109.768C52.556 109.534 52.3658 109.344 52.1312 109.344C51.8966 109.344 51.7064 109.534 51.7064 109.768C51.7064 110.002 51.8966 110.192 52.1312 110.192Z" fill="#E7C7CA"/>
<path d="M44.8258 120.106C45.0604 120.106 45.2506 119.916 45.2506 119.682C45.2506 119.447 45.0604 119.258 44.8258 119.258C44.5912 119.258 44.401 119.447 44.401 119.682C44.401 119.916 44.5912 120.106 44.8258 120.106Z" fill="#E7C7CA"/>
<path d="M47.4643 113.848C47.6989 113.848 47.8891 113.658 47.8891 113.424C47.8891 113.19 47.6989 113 47.4643 113C47.2296 113 47.0394 113.19 47.0394 113.424C47.0394 113.658 47.2296 113.848 47.4643 113.848Z" fill="#E7C7CA"/>
<path d="M43.6471 126.554C43.8817 126.554 44.0719 126.364 44.0719 126.13C44.0719 125.896 43.8817 125.706 43.6471 125.706C43.4125 125.706 43.2223 125.896 43.2223 126.13C43.2223 126.364 43.4125 126.554 43.6471 126.554Z" fill="#E7C7CA"/>
<path d="M38.2391 137.67C38.4738 137.67 38.664 137.48 38.664 137.246C38.664 137.012 38.4738 136.822 38.2391 136.822C38.0045 136.822 37.8143 137.012 37.8143 137.246C37.8143 137.48 38.0045 137.67 38.2391 137.67Z" fill="#E7C7CA"/>
<path d="M37.8143 143.366C38.0489 143.366 38.2391 143.176 38.2391 142.942C38.2391 142.708 38.0489 142.518 37.8143 142.518C37.5797 142.518 37.3895 142.708 37.3895 142.942C37.3895 143.176 37.5797 143.366 37.8143 143.366Z" fill="#E7C7CA"/>
<path d="M31.6109 101.646L32.4766 104.425L35.1981 104.234L37.629 101.646C37.629 101.646 37.7887 101.18 38.0379 100.485C38.6512 98.7736 39.8107 95.6656 40.4464 94.7125C41.344 93.3704 41.9222 87.8111 41.9222 87.8111C41.9222 87.8111 40.9383 85.5797 38.1305 90.0425C36.0191 93.4151 33.3902 98.2858 32.2147 100.476C31.8377 101.209 31.6109 101.646 31.6109 101.646Z" fill="#ECB4B6"/>
<path d="M43.6503 140.555C43.6503 141.24 46.5252 141.559 47.8796 141.67C48.3044 141.705 48.5791 141.721 48.5791 141.721C48.2597 142.438 49.9559 147.934 49.9559 147.934C50.0999 147.929 50.2431 147.911 50.3839 147.88C52.6199 147.43 57.0281 144.357 57.0281 144.357C57.0281 144.357 57.1239 143.302 61.6854 141.45C65.0458 140.086 67.5597 137.529 68.7288 136.261C68.9509 135.993 69.1922 135.741 69.4508 135.508L65.4163 131.323C65.4163 131.323 64.7615 131.929 63.899 132.742C62.3211 134.227 60.0435 136.407 59.8135 136.825C59.4621 137.463 53.1246 140.555 53.1246 140.555C51.7159 139.343 48.6749 139.085 48.6749 139.085C48.6749 139.085 43.6503 139.659 43.6503 140.555Z" fill="#ECB4B6"/>
<path opacity="0.1" d="M51.1729 126.146C50.9781 126.532 42.3055 132.282 40.8329 132.378C39.3603 132.474 42.2097 129.63 42.3055 129.598C42.4013 129.567 51.1729 126.146 51.1729 126.146Z" fill="black"/>
<path opacity="0.1" d="M4.36982 217.445L4.05039 217.371L4.36982 217.445Z" fill="black"/>
<path opacity="0.3" d="M29.688 223.249C30.1017 223.007 30.5602 222.851 31.036 222.79C31.9319 222.889 32.8374 222.861 33.7256 222.708C33.5158 223.476 33.4498 224.277 33.5307 225.07L32.7162 225.038C32.7162 225.038 29.6752 224.381 29.688 223.249Z" fill="white"/>
<path opacity="0.1" d="M4.58066 217.486L4.42414 217.464L4.59663 217.496L4.58066 217.486Z" fill="black"/>
<path opacity="0.3" d="M48.3012 202.861C48.3363 203.231 48.3523 203.597 48.3651 203.919C48.374 204.327 48.528 204.718 48.7995 205.022L48.8187 205.045C48.9217 204.29 48.9687 203.53 48.9592 202.769C48.8922 202.867 48.6015 202.88 48.3012 202.861Z" fill="white"/>
<path opacity="0.1" d="M63.8991 132.742C65.9849 132.608 67.761 134.769 68.7289 136.248C68.951 135.98 69.1922 135.729 69.4508 135.496L65.4164 131.31C65.4164 131.31 64.7615 131.929 63.8991 132.742Z" fill="black"/>
<path opacity="0.1" d="M63.8799 132.184C67.1445 131.737 69.7063 137.042 69.7063 137.042C69.7063 137.042 72.4598 135.129 73.8589 133.462C74.0085 133.277 74.1281 133.069 74.2135 132.847C73.4501 131.023 71.3546 127.982 65.8188 129.139L65.854 129.758C65.854 129.758 65.4706 130.14 64.4229 131.1C63.3752 132.059 63.8799 132.184 63.8799 132.184Z" fill="black"/>
<path d="M63.8799 132.569C67.1445 132.12 69.7063 137.424 69.7063 137.424C69.7063 137.424 72.4598 135.512 73.8589 133.848C74.0084 133.661 74.128 133.452 74.2135 133.229C73.4501 131.406 71.3546 128.368 65.8188 129.525L65.854 130.14C65.854 130.14 65.4706 130.526 64.4229 131.482C63.3752 132.439 63.8799 132.569 63.8799 132.569Z" fill="#FF718D"/>
<path opacity="0.1" d="M63.8799 132.569C67.1445 132.12 69.7063 137.424 69.7063 137.424C69.7063 137.424 72.4598 135.512 73.8589 133.848C74.0084 133.661 74.128 133.452 74.2135 133.229C73.4501 131.406 71.3546 128.368 65.8188 129.525L65.854 130.14C65.854 130.14 65.4706 130.526 64.4229 131.482C63.3752 132.439 63.8799 132.569 63.8799 132.569Z" fill="white"/>
<path opacity="0.1" d="M31.6109 101.646L32.4766 104.425L35.1981 104.234L37.629 101.646C37.629 101.646 37.7887 101.18 38.0379 100.485C37.6929 100.68 35.3387 101.98 33.914 102.054C32.7832 102.108 32.3648 101.05 32.2242 100.489C31.8377 101.209 31.6109 101.646 31.6109 101.646Z" fill="black"/>
<path opacity="0.1" d="M30.7644 102.618C30.8251 102.548 30.8826 102.478 30.9433 102.411C31.5822 101.674 32.1572 101.104 32.1572 101.104C32.2231 101.601 32.4131 102.073 32.7098 102.478C32.8517 102.658 33.0356 102.801 33.2454 102.894C33.4553 102.988 33.6848 103.028 33.914 103.013C34.7432 102.908 35.5499 102.67 36.3034 102.309C37.2808 101.882 38.0794 101.423 38.0794 101.423V102.191L38.0954 102.956V104.712C38.0954 104.712 38.7662 109.376 32.5565 106.883C32.5565 106.883 32.943 105.171 30.5824 105.496L30.7644 102.618Z" fill="black"/>
<path d="M38.0794 100.846L38.1114 102.379V104.138C38.1114 104.138 38.7822 108.802 32.5724 106.309C32.5724 106.309 33.0196 104.33 30.017 105.034C27.0143 105.739 32.1635 100.53 32.1635 100.53C32.1635 100.53 32.3808 102.516 33.9204 102.443C35.4601 102.369 38.0794 100.846 38.0794 100.846Z" fill="#FF718D"/>
<path opacity="0.1" d="M38.0794 100.846L38.1114 102.379V104.138C38.1114 104.138 38.7822 108.802 32.5724 106.309C32.5724 106.309 33.0196 104.33 30.017 105.034C27.0143 105.739 32.1635 100.53 32.1635 100.53C32.1635 100.53 32.3808 102.516 33.9204 102.443C35.4601 102.369 38.0794 100.846 38.0794 100.846Z" fill="white"/>
<path opacity="0.1" d="M49.9239 149.659C49.86 149.563 49.6045 141.928 48.6111 141.737C47.6176 141.546 45.1548 142.569 45.1548 142.569L45.602 148.67L49.9239 149.659Z" fill="black"/>
<path opacity="0.1" d="M48.5791 141.721C48.2597 142.438 49.9559 147.934 49.9559 147.934C50.0999 147.929 50.2431 147.911 50.3839 147.88C50.2274 145.607 49.8952 141.683 49.186 141.546C48.7466 141.503 48.3029 141.545 47.8796 141.67C48.3044 141.705 48.5791 141.721 48.5791 141.721Z" fill="black"/>
<path d="M50.3072 149.467C50.2434 149.372 49.9878 141.737 48.9944 141.546C48.001 141.355 45.5382 142.375 45.5382 142.375L45.9854 148.479L50.3072 149.467Z" fill="#FF718D"/>
<path opacity="0.1" d="M50.3072 149.467C50.2434 149.372 49.9878 141.737 48.9944 141.546C48.001 141.355 45.5382 142.375 45.5382 142.375L45.9854 148.479L50.3072 149.467Z" fill="white"/>
<path d="M41.443 104.116C42.2129 102.914 42.6728 101.547 43.12 100.195C43.3341 99.5418 43.5481 98.8788 43.695 98.2094C44.3165 99.1158 45.1202 99.8833 46.0551 100.463C46.9901 101.042 48.0356 101.421 49.1254 101.576C49.3647 102.071 49.578 102.578 49.7642 103.096C49.988 103.761 50.0448 104.47 49.9295 105.161C49.8142 105.853 49.5303 106.505 49.103 107.062C48.2086 108.136 46.5731 108.595 45.3209 107.97C44.9611 107.741 44.5841 107.539 44.1933 107.368C43.3436 107.1 42.4556 107.543 41.5772 107.686C40.9699 107.788 40.3475 107.753 39.7558 107.582C39.1642 107.412 38.6186 107.111 38.1593 106.701C39.5616 106.348 40.67 105.315 41.443 104.116Z" fill="#985C7E"/>
<path opacity="0.1" d="M50.3072 102.159C54.6912 102.159 58.2451 98.6124 58.2451 94.2375C58.2451 89.8626 54.6912 86.3161 50.3072 86.3161C45.9233 86.3161 42.3694 89.8626 42.3694 94.2375C42.3694 98.6124 45.9233 102.159 50.3072 102.159Z" fill="black"/>
<path d="M50.3072 101.642C54.6912 101.642 58.2451 98.096 58.2451 93.7211C58.2451 89.3462 54.6912 85.7997 50.3072 85.7997C45.9233 85.7997 42.3694 89.3462 42.3694 93.7211C42.3694 98.096 45.9233 101.642 50.3072 101.642Z" fill="#ECB4B6"/>
<path d="M44.4329 91.2506C43.5002 90.6131 42.1266 91.1199 41.1428 90.5557C40.671 90.249 40.3192 89.7898 40.1461 89.2551C39.2869 86.9919 40.6381 84.1548 42.9412 83.3834C43.5417 83.1858 44.1805 83.1125 44.7843 82.9276C46.4389 82.4271 47.7103 81.1457 49.1413 80.1798C50.6218 79.1862 52.296 78.516 54.0542 78.213C55.3574 77.9899 56.8013 78.0058 57.8618 78.79C59.0628 79.673 59.4589 81.27 59.6921 82.7395C59.9253 84.209 60.1841 85.7965 61.2446 86.8421C62.0911 87.6804 63.2985 88.0087 64.375 88.5092C65.4515 89.0097 66.5407 89.8767 66.611 91.0594C66.6653 91.9902 66.0808 92.8285 65.8987 93.7434C65.6942 94.7698 66.0105 95.825 66.3682 96.8131C67.3669 99.5747 68.6947 102.206 70.3228 104.652C68.3605 105.747 66.2381 106.528 64.0332 106.966C63.1292 107.144 62.1741 107.262 61.2957 106.982C60.1809 106.625 59.3503 105.672 58.8169 104.633C58.3423 103.712 58.0577 102.706 57.98 101.674C57.8235 99.6183 58.4687 97.4156 57.5551 95.5636C57.3906 95.1874 57.1198 94.8672 56.7757 94.6423C56.3732 94.4064 55.8845 94.3809 55.4405 94.2407C54.6739 93.9984 54.0574 93.4342 53.4664 92.8891L51.355 90.9127C50.8812 90.4185 50.3244 90.0107 49.7099 89.7078C48.5855 89.2296 47.2599 89.5006 46.1962 90.0967C45.2602 90.6195 44.1805 91.4068 43.2318 90.9" fill="#985C7E"/>
<g opacity="0.1">
<path opacity="0.1" d="M43.794 91.0689L43.2286 90.9096C43.4034 91.0027 43.5963 91.0571 43.794 91.0689V91.0689Z" fill="black"/>
<path opacity="0.1" d="M43.794 91.0689L44.4329 91.2506C44.3206 91.1737 44.1994 91.1105 44.0719 91.0626C43.9797 91.0726 43.8867 91.0748 43.794 91.0689Z" fill="black"/>
<path opacity="0.1" d="M64.2919 105.93C63.3879 106.108 62.4328 106.226 61.5544 105.946C60.4428 105.589 59.6123 104.636 59.0756 103.6C58.6033 102.679 58.3188 101.673 58.2387 100.642C58.0822 98.5855 58.7274 96.3796 57.8139 94.5308C57.6494 94.1546 57.3785 93.8344 57.0345 93.6095C56.632 93.3704 56.1432 93.3449 55.6992 93.2047C54.9326 92.9656 54.3161 92.4014 53.7283 91.8531L51.6137 89.8863C51.1391 89.393 50.5825 88.9854 49.9686 88.6814C48.8442 88.2064 47.5186 88.4773 46.4549 89.0703C45.7873 89.4432 45.0462 89.9501 44.3339 90.0266C44.4616 90.0739 44.5829 90.137 44.6948 90.2146L44.056 90.0329C43.8594 90.0227 43.6674 89.9693 43.4938 89.8767L44.056 90.0329C44.1484 90.0409 44.2414 90.0409 44.3339 90.0329C43.4331 89.6855 42.2672 90.0329 41.4047 89.5261C40.9329 89.2194 40.5811 88.7602 40.4081 88.2255C40.164 87.5647 40.0904 86.8533 40.194 86.1567C39.8029 87.1521 39.787 88.2553 40.1493 89.2615C40.3223 89.7962 40.6742 90.2554 41.146 90.5621C42.0084 91.0562 43.1711 90.7215 44.0751 91.0689C44.7875 90.9892 45.5285 90.4856 46.1962 90.1126C47.2631 89.5165 48.5887 89.2456 49.7099 89.7237C50.324 90.0259 50.8798 90.4338 51.3518 90.9287L53.4664 92.8955C54.0574 93.4406 54.6739 94.0048 55.4405 94.2471C55.8845 94.3873 56.3732 94.4128 56.7757 94.6487C57.1198 94.8736 57.3906 95.1938 57.5551 95.5699C58.4687 97.422 57.8235 99.6247 57.98 101.681C58.0577 102.713 58.3423 103.719 58.8169 104.639C59.3503 105.678 60.1809 106.631 61.2957 106.988C62.1741 107.269 63.1292 107.151 64.0332 106.972C66.2373 106.534 68.3586 105.754 70.3196 104.658C70.1759 104.438 70.0321 104.215 69.8916 103.989C68.1245 104.892 66.2398 105.546 64.2919 105.93Z" fill="black"/>
<path opacity="0.1" d="M66.6046 91.3654C66.4208 91.8015 66.2713 92.2513 66.1574 92.7106C66.1383 92.8126 66.1255 92.9114 66.1159 93.0134C66.3522 92.4885 66.5166 91.9341 66.6046 91.3654Z" fill="black"/>
</g>
<path opacity="0.1" d="M49.1445 106.45C48.2501 107.524 46.6146 107.983 45.3625 107.358C45.0033 107.128 44.6262 106.928 44.2349 106.759C43.3852 106.488 42.4972 106.934 41.6187 107.077C40.5926 107.244 39.5412 107.016 38.6768 106.44C38.5216 106.502 38.3626 106.554 38.2008 106.596C38.6596 107.006 39.2051 107.308 39.7968 107.479C40.3885 107.65 41.0112 107.686 41.6187 107.584C42.4972 107.428 43.3852 106.985 44.2349 107.266C44.6262 107.435 45.0033 107.635 45.3625 107.865C46.6146 108.502 48.2373 108.034 49.1445 106.956C49.7792 106.157 50.0883 105.149 50.0102 104.132C49.9772 104.977 49.6739 105.789 49.1445 106.45V106.45Z" fill="black"/>
<defs>
<linearGradient id="paint0_linear" x1="43.1488" y1="228.222" x2="43.1488" y2="77.2057" gradientUnits="userSpaceOnUse">
<stop stop-color="#808080" stop-opacity="0.25"/>
<stop offset="0.54" stop-color="#808080" stop-opacity="0.12"/>
<stop offset="1" stop-color="#808080" stop-opacity="0.1"/>
</linearGradient>
<linearGradient id="paint1_linear" x1="1786.91" y1="8303.66" x2="2025.17" y2="8303.66" gradientUnits="userSpaceOnUse">
<stop stop-color="#808080" stop-opacity="0.25"/>
<stop offset="0.54" stop-color="#808080" stop-opacity="0.12"/>
<stop offset="1" stop-color="#808080" stop-opacity="0.1"/>
</linearGradient>
</defs>
</svg>
