<?xml version="1.0" encoding="utf-8"?>
<!-- Generator: Adobe Illustrator 23.0.1, SVG Export Plug-In . SVG Version: 6.00 Build 0)  -->
<svg version="1.1" id="Camada_1" xmlns="http://www.w3.org/2000/svg" xmlns:xlink="http://www.w3.org/1999/xlink" x="0px" y="0px"
	 viewBox="0 0 1080 1080" style="enable-background:new 0 0 1080 1080;" xml:space="preserve">
<style type="text/css">
	.st0{fill:#466DD8;}
	.st1{fill:#A4B5E4;}
	.st2{fill:#01FDD7;}
	.st3{fill:#87A6FD;}
	.st4{fill:#0A3DAC;}
	.st5{fill:#3056BA;}
	.st6{fill:#456DD8;}
	.st7{fill:#7498FC;}
	.st8{fill:#7598FC;}
	.st9{fill:#002799;}
	.st10{fill:#3BFEE0;}
	.st11{fill:#577AC6;}
	.st12{fill:#0A3FAD;}
	.st13{fill:#2F56BB;}
</style>
<g>
	<path class="st0" d="M515.4,656.1c15.3-15.3,30.7-30.7,46-46c2-2,3.5-4.3,6.3-5.3c1,2.5,0.8,5,0.8,7.8c0,82,0,164,0,246.2
		c-6.8,1.5-13.8,2.3-20.9,3.3c-6.8,1-14.1,0.3-20.9,2.8c-11.8,0-23.6,0-35.7,0c-0.8-0.8-1.8-0.8-2.8-1c-6.5-2-13.3,0.3-19.9-2.3
		c-1.3-12.3,1-24.6,0.8-37c-0.3-12.3,0-24.6,0-37.2c0-41.5,0-82.7,0-124.2c0-1.8-1.3-4.5,2-5.3c0.5,0,1.3,0.3,1.8,0.3
		c1.5,1,2.3,2.8,4,3c0.5,0.8,1,1,1.8,1c1.3,0.3,2.8,0.8,4,1c3.5,1.5,7,4.5,11.3,2.3c0.3-0.3,0.5-0.3,0.8-0.5c2-0.5,4.8,1.3,6.3-1.5
		c1.3-0.3,2.3-0.5,3.5-0.8c3-0.8,6-1.3,7-4.8l0,0C513.6,657.9,514.9,657.4,515.4,656.1z"/>
	<path class="st1" d="M527.2,864.3c6.8-2.5,13.8-1.5,20.9-2.8c7-1,13.8-1.8,20.9-3.3c4-0.5,8-1,12.1-1.5c-3.3,3.3-7.5,2.5-11.3,3.5
		c-5.8,1.5-12.1,1-17.4,4C543.5,864.3,535.2,864.3,527.2,864.3z"/>
	<path class="st1" d="M468.9,861.1c6.3,2.5,13.3,0.3,19.9,2.3c1,0.3,2,0.3,2.8,1c-7,0-13.8,0-20.9,0c-0.5-1.5-3-1-3-2.8
		C468.1,861.6,468.6,861.3,468.9,861.1z"/>
	<path class="st2" d="M745.7,358.6c0.5,0.3,0.8,0.8,1.3,1c0,2.3,1.5,3,3.5,3c1.3,1.3,2.3,2.5,3.5,3.5c0.3,3,2,4.8,5,5
		c1.5,1.5,3.3,3.3,4.8,4.8c0,2.5,1.5,4,4,4c1.5,1.5,3.3,3.3,4.8,4.8c0.8,3.3,2.8,5.3,6,6c1.5,1.5,3.3,3.3,4.8,4.8c0.3,3,2,4.8,5,5
		c1.8,1.5,3.5,3,4.8,4.8c1.5,5.8,4,2.5,6,0.5c31.9-31.7,63.6-63.6,95.3-95.3c12.6-12.3,28.4-13.6,42.5-3c1,0.8,2,1,3.3,1
		c0.3,0.3,0.3,0.3,0.3,0.8c1,4.8,5.3,8.6,5.3,13.8c0,1,0.8,2.3,2,2.5c0,0.8,0.3,1.3,0.3,2c-1.3,1.3-1.3,2.5,0,3.8
		c0,0.8-0.3,1.3-0.3,2c-3.3,5-4.5,11.1-7.3,16.3c0,0.3-0.3,0.5-0.3,0.5c-6.3,3.5-10.3,9.6-15.3,14.3c-2,2-3,2.8-5.5,0
		c-12.6-14.1-36.2-14.1-48.5-0.5c-12.6,13.8-11.8,34.7,1.8,47.3c2.5,2.3,2,3.3,0,5.3c-18.4,18.4-36.7,37-55.3,55.1
		c-10.6,10.3-28.2,12.8-41,2.3c-1.5-1.3-3-2.8-5-3c-1.3-0.8-2.3-1.8-3-3c-1.3-3.3-3.5-5.5-6.8-6.8c-1.3-0.8-2.3-1.8-3-3
		c-4.8-7-10.8-12.8-17.9-17.9c-0.8-0.8-1.3-1.3-2-2c-1-3-3-5-5.8-5.8c-1.8-1-3-2.5-4-4c-2.8-4.5-4,0-5.3,1
		c-68.7,68.4-137.3,137.1-205.7,205.7c-2.5,2.5-5,5-7.8,6.5c-7.3,4-15.1,7-23.9,4.3c-3-1-6.3-3-9.8-2.3c-0.3,0-0.5-0.3-0.5-0.5
		c-1-3.8-4.8-4.8-7-7c-17.1-17.4-34.2-34.5-51.6-51.6c-1.3-1.3-2.5-3.3-4.5-3.5l0,0c-2.5-4.5-4.3-1-6,0.8
		c-63.9,63.9-128,127.7-191.9,191.9c-1,1-2.3,2-2.3,3.5c-0.5,0.5-1,0.8-1.5,1.3c-0.8,0.3-1.8,0-2.3,0.5c-9.1,5.5-18.4,6.8-28.7,3.5
		c-2.5-0.8-4.5-3-7.3-2.3c-0.5-0.5-1-0.8-1.8-1.3c-0.3-1.8-1.3-2.8-3.3-2.8l0,0c-2.8-6.3-5.3-12.3-6.5-19.1c-0.5-2.8,2.3-5.3,0-7.8
		c0-0.8,0.3-1.3,0.3-2c1-0.3,1.8-1,2-2c1.5-6.3,5.5-10.6,10.1-14.8c17.1-16.8,33.9-33.9,51-51c1.5-1.5,3.3-2.8,3-5.3
		c1-1.3,2-2.5,3.3-3.8c27.9-27.9,55.8-55.8,83.7-84c15.3-15.3,30.4-30.7,45.5-46c8.6-8.6,17.6-16.8,25.9-25.7
		c11.8-12.1,30.7-14.6,44.5-3.8c5,4,9.1,8.6,13.6,12.8c8.3,7.8,15.6,16.3,24.4,23.6c6.3,8.3,14.6,14.6,21.4,22.4c2.5,3,4,2.5,6.3,0
		c23.1-23.1,46.3-46.3,69.4-69.4c1.3-1.3,2.3-2.5,3.3-3.8c0.3-0.5,0.8-0.8,1-1.3l0,0c0.3-0.3,0.8-0.8,1-1c0.3-0.3,0.8-0.8,1-1
		c0.3-0.3,0.8-0.8,1-1c0.3-0.3,0.8-0.8,1-1c0.3-0.3,0.8-0.8,1-1c0.3-0.3,0.8-0.8,1-1c0.3-0.3,0.8-0.8,1-1c0.3-0.3,0.8-0.8,1-1
		c0.3-0.3,0.8-0.8,1-1c0.3-0.3,0.8-0.8,1-1c0.3-0.3,0.8-0.8,1-1c0.3-0.3,0.8-0.8,1-1c0.3-0.3,0.8-0.8,1-1s0.8-0.8,1-1
		c0.3-0.3,0.8-0.8,1-1s0.8-0.8,1-1c0.3-0.3,0.8-0.8,1-1s0.8-0.8,1-1c0.3-0.3,0.8-0.8,1-1c0.3-0.3,0.8-0.8,1-1s0.8-0.8,1-1
		c0.3-0.3,0.8-0.8,1-1s0.8-0.8,1-1c0.3-0.3,0.8-0.8,1-1s0.8-0.8,1-1c0.3-0.3,0.8-0.8,1-1c0.3-0.3,0.8-0.8,1-1c0.3-0.3,0.8-0.8,1-1
		c0.3-0.3,0.8-0.8,1-1s0.8-0.8,1-1c0.3-0.3,0.8-0.8,1-1s0.8-0.8,1-1c0.3-0.3,0.8-0.8,1-1c0.3-0.3,0.8-0.8,1-1c0.3-0.3,0.8-0.8,1-1
		c0.3-0.3,0.8-0.8,1-1s0.8-0.8,1-1c0.3-0.3,0.8-0.8,1-1s0.8-0.8,1-1c0.3-0.3,0.8-0.8,1-1s0.8-0.8,1-1c0.3-0.3,0.8-0.8,1-1
		c0.3-0.3,0.8-0.8,1-1c0.3-0.3,0.8-0.8,1-1c0.3-0.3,0.8-0.8,1-1s0.8-0.8,1-1c0.3-0.3,0.8-0.8,1-1s0.8-0.8,1-1c0.3-0.3,0.8-0.8,1-1
		c0.3-0.3,0.8-0.8,1-1c0.3-0.3,0.8-0.8,1-1c0.3-0.3,0.8-0.8,1-1s0.8-0.8,1-1c0.3-0.3,0.8-0.8,1-1c0.3-0.3,0.8-0.8,1-1
		c0.3-0.3,0.8-0.8,1-1c0.3-0.3,0.8-0.8,1-1c0.3-0.3,0.8-0.8,1-1c0.3-0.3,0.8-0.8,1-1c0.3-0.3,0.8-0.8,1-1c0.3-0.3,0.8-0.8,1-1
		c0.3-0.3,0.8-0.8,1-1c0.3-0.3,0.8-0.8,1-1c0.3-0.3,0.8-0.8,1-1c0.3-0.3,0.8-0.8,1-1c0.3-0.3,0.8-0.8,1-1c0.3-0.3,0.8-0.8,1-1
		c0.3-0.3,0.8-0.8,1-1s0.8-0.8,1-1c0.3-0.3,0.8-0.8,1-1c0.3-0.3,0.8-0.8,1-1c0.3-0.3,0.8-0.8,1-1c0.3-0.3,0.8-0.8,1-1
		c0.3-0.3,0.8-0.8,1-1c0.3-0.3,0.8-0.8,1-1s0.8-0.8,1-1c0.3-0.3,0.8-0.8,1-1c0.3-0.3,0.8-0.8,1-1c0.3-0.3,0.8-0.8,1-1
		c0.3-0.3,0.8-0.8,1-1c0.3-0.3,0.8-0.8,1-1c0.3-0.3,0.8-0.8,1-1c0.3-0.3,0.8-0.8,1-1c0.3-0.3,0.8-0.8,1-1s0.8-0.8,1-1
		c0.3-0.3,0.8-0.8,1-1c0.3-0.3,0.8-0.8,1-1c0.3-0.3,0.8-0.8,1-1c0.3-0.3,0.8-0.8,1-1c0.3-0.3,0.8-0.8,1-1c0.3-0.3,0.8-0.8,1-1
		s0.8-0.8,1-1c0.3-0.3,0.8-0.8,1-1c0.3-0.3,0.8-0.8,1-1c0.3-0.3,0.8-0.8,1-1c0.3-0.3,0.8-0.8,1-1c0.3-0.3,0.8-0.8,1-1
		c0.3-0.3,0.8-0.8,1-1c0.3-0.3,0.8-0.8,1-1c0.3-0.3,0.8-0.8,1-1s0.8-0.5,1-0.8c1.8-0.3,2.8-1.8,3.8-3c10.1-10.1,19.9-20.1,30.2-29.9
		c9.1-8.8,19.6-12.3,32.2-8.6c1.5,0.5,3,0.5,4.3,0.5C742.2,356.1,743.5,358.6,745.7,358.6z"/>
	<path class="st3" d="M360,540.9c-15.1,15.3-30.4,30.7-45.5,46c-27.9,27.9-55.8,55.8-83.7,84c-1.3,1.3-2,2.5-3.3,3.8
		c-0.3,0-0.5-0.3-1-0.3c-3.5-10.1-7.3-20.1-10.3-30.2c-6.8-24.1-11.1-48.5-12.1-73.7c-1-26.7,1-52.8,6.5-78.7
		c6.5-30.9,18.1-60.1,33.9-87.3c15.6-26.9,34.5-51,57.1-71.9c17.4-16.1,36.2-29.9,56.8-41.7c0.5-0.3,1-0.3,1.5-0.3
		C359.7,374,360,457.4,360,540.9z"/>
	<path class="st4" d="M673.3,818.3c-0.3,0.3-0.5,0.5-0.8,0.5c-1,0-2,0-3,0.3c0-104.9,0-210,0-314.8c0-0.5,0-1.3,0-1.8
		c14.3-14.6,28.7-28.9,43-43.5c4.3-4.5,8.8-8.8,13.3-13.1c2.5-0.3,3.8,1.5,5.3,3c12.3,12.3,24.6,24.6,37,37
		c5.3,5.3,10.3,10.8,18.1,12.8c0,64.4,0,128.5,0,192.9c0,0.8,0.3,1.5,0.3,2.3c-0.3,0.5-0.5,1-0.8,1.5c-3.3,2.5-4.3,6.3-5.5,10.1
		c0,0.3-0.3,0.5-0.3,0.8c-3.3,3-5.3,6.8-6.5,11.1c-0.5,0.8-1,1.8-1.5,2.5c-1.3,0.3-1.8,1-1.5,2.3c0,0.3-0.3,0.5-0.5,0.8
		c-1.3,0.3-1.8,1-1.5,2.3c0,0.3-0.3,0.5-0.5,0.8c-2.8,2-4.5,4.8-5.5,8c0,0.3-0.3,0.5-0.5,0.8c-1.3,0.3-1.8,1-1.5,2
		c-0.5,0.5-1,1.3-1.5,1.8c-1.3,0.3-1.8,1-1.5,2.3c-0.3,0.3-0.5,0.5-0.5,0.8c-1.5,0.5-2.5,1.5-2.5,3.3c-0.5,0.5-1,1.3-1.5,1.8
		c-1.5,0.5-2.5,1.5-2.5,3.3c-0.5,0.5-1,1.3-1.5,1.8c-1.3,0.3-1.8,1-1.5,2c-1.3,1.3-2.3,2.5-3.5,3.8c-2,0.8-3.3,2-3.5,4
		c-2.5,2.5-4.8,5.3-7.3,7.8c-4.8,3-8.6,7-11.8,11.6c-2.3,2-4.5,4-6.8,6.3c-2.3,0.3-3.5,1.5-4,3.5c-1,0.8-2,1.5-2.8,2.3
		c-1.8,0-2.8,1-3,2.5c-0.5,0.5-1.3,1-1.8,1.3c-1.8,0-2.8,1-3,2.5c-0.5,0.5-1.3,1-1.8,1.5c-1.8,0-2.8,0.8-3.3,2.3
		c-0.3,0.3-0.5,0.5-0.8,0.5c-1.3-0.3-2,0.3-2.3,1.5c-0.5,0.5-1.3,1-1.8,1.5c-1.3-0.3-2,0.3-2.3,1.5c-0.3,0.3-0.5,0.5-0.8,0.5
		c-4.3,1.5-8,4-11.1,7.3c-0.3,0.3-0.5,0.5-0.8,0.5C674.3,816.8,673.6,817.3,673.3,818.3z"/>
	<path class="st5" d="M669.5,504.2c0,104.9,0,210,0,314.8c-1.8,2.5-6.3,1.8-7,5.5c-6,4-12.3,7-18.6,10.1c-1.3-0.3-2,0.3-2.5,1.3
		c-2.8,1.3-5.3,2.3-8,3.5c-0.5-0.5-1.3-0.3-1.8,0c-10.3,4.5-20.9,8-31.4,11.8c-5.8,2-12.1,2.5-17.6,5.3c-0.5,0-1.3,0.3-1.8,0.3
		c-4,0.5-8,1-12.1,1.5c0-82,0-164,0-246.2c0-2.5,0-5.3-0.8-7.8c6-8,13.8-14.3,20.9-21.6c11.1-11.3,22.4-22.1,33.4-33.2
		c2.5,0,3.5-2.3,5-3.5C641.4,532.1,655.5,518,669.5,504.2z"/>
	<path class="st6" d="M568.7,497.4c-1,1.3-2,2.5-3.3,3.8c-23.1,23.1-46.3,46.3-69.4,69.4c-2.5,2.5-3.8,3-6.3,0
		c-6.8-7.8-15.1-14.3-21.4-22.4c2.3-1.8,1.3-4.3,1.3-6.5c0-79,0-157.9,0-236.6c0-4.3,0-8.6-1-12.8c1.5-2.8,1.5-5.8,0-8.6
		c0.8-6-1.3-12.1-1-18.1c1.5-1.3,1.5-2.5,0-3.8c0-2.3,0-4.8,0-7c5.5-1,10.8-1.8,16.3-2c1.8,0,3.8,0.8,4.5-1.8
		c15.1,0,30.4,0,45.5,0.3c0.3,1.5,1.3,1.5,2.5,1.8c8,0.3,15.8,1.3,23.6,2.8c1.3,0.3,3,0.5,4.3-0.5c0.8,0,1.5,0.3,2,0.3
		c0.8,0.8,1.3,1.5,2,2.3c0,77.2,0,154.2,0,231.4c0,2-0.3,4.3,1,6.3c0,0.3,0,0.8,0,1l0,0C569.4,496.7,568.9,496.9,568.7,497.4z"/>
	<path class="st7" d="M468.6,292.2c1.3,4.3,1,8.6,1,12.8c0,79,0,157.9,0,236.6c0,2.3,0.8,4.8-1.3,6.5c-8.8-7.3-16.1-15.8-24.4-23.6
		c-4.5-4.3-8.6-9.1-13.6-12.8c-13.8-10.8-32.7-8.3-44.5,3.8c-8.6,8.8-17.4,17.1-25.9,25.7c0-83.5,0-167,0-250.7
		c0.8-0.5,1.8-0.8,2.5-1.3c1.5,0.3,2.3-0.3,2.5-1.8c0.5,0,1-0.3,1.5-0.3c1.5,0.3,2.5-0.3,2.5-1.8c3-1.5,5.8-3.8,9.3-4.3
		c1.5,0.3,2.5,0,2.5-1.8c0.5,0,1-0.3,1.5-0.3c1.3,0.3,2.3,0,2.5-1.5c1-0.8,2.3-1.3,3.5-1.3c5.8-1.5,11.3-3,16.1-6.8c1-0.3,2-0.8,3-1
		c1.5,1.5,1.8,0.5,2-0.8c1.3-1,2.5-1.3,4-1.3c1.5,1.5,1.8,0.5,2-0.8c1-0.3,2-0.8,3-1c4.3,0,8.8,0,11.8-3.8c0.8,0,1.3-0.3,2-0.3
		c2.8,2,4.5,1,6-1.8c1,0,2-0.3,3-0.3c2.5,2,3.8,0.5,5-1.5c1.3-0.3,2.5-0.3,3.8-0.5c2.5,2,4.3,0.3,6-1.5c0.8,0,1.3,0,2-0.3
		c3.3,2,6.5,0,9.6-0.3c0,2.3,0,4.8,0,7c-1,1.3-1,2.5,0,3.8c-0.3,6,1.8,12.1,1,18.1C467.3,286.4,467.3,289.5,468.6,292.2z"/>
	<path class="st8" d="M468.9,861.1c-0.5,0.3-1,0.3-1.5,0.5c-0.5,0-1.3-0.3-1.8-0.3c-0.3-1.3-0.5-2.3-2-1c-1,0-2,0-3,0.3
		c-1,0-2-0.3-3-0.3c-0.8-1-2-0.8-3-0.5c-0.8,0-1.3-0.3-2-0.3c-0.8-1-1.8-0.8-3-0.8c-1,0-2-0.3-3-0.3c-1.8-1-3.8-2-6-1.5
		c-1,0-2-0.3-2.8-0.3c-0.3-1.5-1.3-1.5-2.5-2c-11.8-3.3-23.6-6-35-10.8c-4.3-1.8-8.3-4.5-13.1-4.8c-1.8,0-3.3-1-4.8-1.8
		c-5.5-4-11.6-6.8-17.9-9.1c-1-0.5-2-1-3-1.5c-0.8-1.8-2.3-2.3-4-2.5c-0.3-0.3-0.5-0.3-1-0.5c-0.3-0.5-0.8-1-1-1.5
		c0-2.5-0.3-5,0-7.3c2-11.8,2.3-23.9,2.8-35.7c0.5-12.3,0-24.9,0-37.5c0-14.8,0-29.7,0-44.3c0-13.8,0-27.7,0-41.5c0-1.8,1-4.3-2-4.8
		c0.8-1,1.5-2,2.3-2.8c2-0.3,3-2,4.3-3c11.1-11.1,22.4-22.1,33.4-33.4c4.5-4.5,9.6-8.8,13.6-14.1c3.5,1.5,5.3,4.8,8,7
		c0,1.8,1,2.8,3,3c2.3,2.3,4.8,4.8,7,7c0,1.8,1,2.8,3,3c2.3,2.3,4.8,4.8,7,7c0.3,2.3,1.8,3.5,4,3.8c2,2,4,4,6,6c0,1.8,1,2.8,3,3
		c2.3,2.3,4.5,4.8,7,7c0.3,1.8,1,2.8,3,3c3,3,6,5.8,9.1,8.8c0.8,0.8,1.3,1.3,2,2c-3.3,0.8-2,3.5-2,5.3c0,41.5,0,82.7,0,124.2
		c0,12.3-0.3,24.6,0,37.2C469.9,836.4,467.8,848.7,468.9,861.1z"/>
	<path class="st3" d="M356.7,650.6c3,0.5,2,3,2,4.8c0,13.8,0,27.7,0,41.5c0,14.8,0,29.7,0,44.3c0,12.6,0.3,24.9,0,37.5
		c-0.5,11.8-0.8,23.9-2.8,35.7c-0.5,2.5,0,5,0,7.3c-4-1.3-6.5-5-10.8-5.8c-0.3-0.3-0.8-0.3-1-0.5c-0.3-1-1-1.5-2-1.5
		c-0.3,0-0.8-0.3-1-0.3c-1-2-2.8-3.3-5-3.5c-0.3-0.3-0.5-0.3-1-0.5c-1-2.8-3.5-3.8-6-4.5c-0.3,0-0.8-0.3-1-0.3
		c-0.3-1.8-1.3-2.5-3-2.5c-0.8-0.5-1.3-0.8-2-1.3c0-1.3-0.8-1.8-2-1.8c-0.8-0.5-1.3-1-2-1.3c-0.3-1.8-1.3-2.5-3-2.5
		c-1-0.8-2-1.5-3-2.3c-0.5-2-1.8-3.3-4-3.5c-1-0.8-2-1.5-3-2.3c-1-2.8-3-4.8-5.8-5.5c-4.8-3.8-9.1-8.3-13.1-12.8
		c-1.3-3.3-3.5-5.5-6.5-6.8c-0.8-1-1.5-2-2.3-3c0-1.8-1-2.8-2.8-3c-0.8-1-1.5-2-2.3-3c0-1.8-1-2.8-2.5-3c-1-0.3-1.3-1-1.3-2
		c0-1.8-1-2.8-2.5-3c-0.3-0.3-0.3-0.5-0.5-0.8c0-1,0-2.3,0-3.3c1.5-1.5,3-3.3,4.3-4.8c1.8-0.3,2.5-1,2.8-2.8c2.3-2.3,4.8-4.8,7-7
		c1.8-0.3,2.5-1,2.8-2.8c2.3-2.3,4.8-4.8,7-7c1.8-0.3,2.5-1,2.8-2.8c2.3-2.3,4.8-4.8,7-7c1.8-0.3,2.5-1,2.8-2.8c2-2,4-4,6-6.3
		c2-0.5,3.3-1.5,3.8-3.8c2-2,4-4,6-6.3c2-0.5,3.3-1.5,3.8-3.8c2-2,4-4,6-6.3c2-0.5,3.3-1.8,3.8-3.8c2-2,4-4,6-6.3
		c2-0.5,3.3-1.5,3.8-3.8c2-2,4-4,6-6.3c2-0.5,3.3-1.8,3.8-3.8C354.2,652.8,355.4,651.8,356.7,650.6z"/>
	<path class="st9" d="M786.5,691.3c0-64.4,0-128.5,0-192.9c2,0,4.3-0.3,6,1.3c1.3,1,3.3,1,4.3,0.5c3.3-2,7-1.3,10.3-2.8
		c2.5-1.3,3.8-1,4.5,2.5c3,13.6,4.3,27.2,5.3,41c1.5,27.4-0.5,54.6-6.3,81.5c-3.8,17.4-8.8,34.5-15.8,51c-1.8,4-3.8,8-4.5,12.3
		c0,0.3,0,0.5-0.3,1c-2,0.3-2.8,1.3-1.8,3.3c-0.3,0.5-0.5,1-0.8,1.5C787.5,691.1,787,691.1,786.5,691.3z"/>
	<path class="st10" d="M771.6,471.5c2,0.3,3.5,1.8,5,3c12.8,10.6,30.7,8,41-2.3c18.6-18.1,37-36.7,55.3-55.1c2-2,2.5-3,0-5.3
		c-13.8-12.8-14.3-33.4-1.8-47.3c12.3-13.6,36-13.6,48.5,0.5c2.5,2.8,3.5,2,5.5,0c5.3-4.8,9.3-10.8,15.3-14.3
		c-0.3,2.3-2,3.3-3.5,4.5c-39,39-77.7,78-116.7,116.7c-10.8,10.8-23.4,13.6-37.7,8.3C778.4,478.8,774.1,476.1,771.6,471.5z"/>
	<path class="st10" d="M476.4,644c3.5-0.5,6.8,1.3,9.8,2.3c9.1,3,16.6,0,23.9-4.3c3-1.5,5.5-4.3,7.8-6.5
		c68.7-68.7,137.1-137.1,205.7-205.7c1.3-1.3,2.5-5.5,5.3-1c-2.5,0-3.8,1.8-5.3,3.3c-67.9,67.9-135.8,135.8-203.7,203.7
		c-6.5,6.5-13.6,12.1-23.1,13.1C489.5,649.8,482.4,648.8,476.4,644z"/>
	<path class="st11" d="M790.5,685.3c0.5-4.5,2.8-8.3,4.5-12.3c7-16.3,12.1-33.4,15.8-51c5.8-26.7,7.8-54.1,6.3-81.5
		c-0.8-13.8-2-27.4-5.3-41c-0.8-3.3-2.3-3.5-4.5-2.5c-3.3,1.5-7,0.8-10.3,2.8c-1,0.8-3,0.5-4.3-0.5c-2-1.5-4-1.3-6-1.3
		c-7.5-2-12.8-7.5-18.1-12.8c-12.3-12.3-24.6-24.6-37-37c-1.5-1.5-2.8-3.3-5.3-3c2.3-3.3,3.8-0.8,5.3,0.8c12.1,12.1,24.1,23.9,36,36
		c4,4,8,8,12.8,11.6c2.3,1.8,5,1.5,7.3,2.5c7.3,3.3,14.6,0.5,21.6-1.8c3.5-1.3,3.5,0.3,4,2.5c2.3,9.1,3.5,18.4,4.3,27.9
		c2.3,29.4,2.3,59.1-3.3,88.3c-4.5,24.1-11.8,47.5-21.9,70.2C792,684.3,791.5,685,790.5,685.3z"/>
	<path class="st10" d="M212.4,777.3c0-1.8,1.3-2.5,2.3-3.5c63.9-63.9,127.7-128,191.9-191.9c1.5-1.5,3.5-5,6-0.8
		c-2.8-0.5-4.3,1.3-5.8,3c-62.9,62.9-126,126-188.9,188.9C216.1,774.8,214.9,777.1,212.4,777.3z"/>
	<path class="st11" d="M568.7,257.8c-0.8-0.8-1.3-1.5-2-2.3c6.3-0.8,12.3,1.8,18.4,3.3c60.9,15.3,112.7,46.3,154.9,92.8
		c2,2.3,4.8,4,6,7c-2.3,0-3.5-2.5-5.5-3c-0.5-1-1-2-1.8-3c-7.5-9.1-16.1-17.1-25.1-25.1c-13.3-11.8-27.4-22.4-42.8-31.4
		c-2-1.3-4-2.3-5.8-3.5c-11.3-6.5-22.9-12.3-34.7-17.1c-12.3-5-24.4-10.1-37.5-12.8C584.5,261,577,257.5,568.7,257.8z"/>
	<path class="st10" d="M940.6,309.3c-1.3,0-2.3-0.3-3.3-1c-14.1-10.6-30.2-9.6-42.5,3c-31.7,31.7-63.6,63.6-95.3,95.3
		c-2,2-4.5,5.5-6-0.5c3,1.5,4.5-0.5,6.3-2.3c30.4-30.4,60.9-60.9,91-91.3c6.5-6.5,13.6-12.6,23.4-13.3
		C924.5,298.5,933.8,300.8,940.6,309.3z"/>
	<path class="st10" d="M226.4,674.5c0.3,0,0.5,0,1,0.3c0.3,2.5-1.8,3.8-3,5.3c-17.1,17.1-33.9,33.9-51,51
		c-4.3,4.3-8.6,8.8-10.1,14.8c-0.3,1-0.8,1.8-2,2c0-6.8,4.3-11.6,8.6-16.1c17.4-17.6,35.2-35.2,52.6-52.8
		C223.9,677.5,225.2,676,226.4,674.5z"/>
	<path class="st10" d="M412.3,581.2c2.3,0.3,3.3,2,4.5,3.5c17.4,17.1,34.5,34.2,51.6,51.6c2.3,2.5,6.3,3.3,7,7c-3-0.8-5-3-7-5
		c-18.1-17.9-36.2-36-54.1-54.1C413.5,583.7,412.3,582.9,412.3,581.2z"/>
	<path class="st1" d="M410.3,597c-4,5.3-9.1,9.6-13.6,14.1c-11.1,11.3-22.1,22.4-33.4,33.4c-1.3,1.3-2.3,3-4.3,3
		c-0.3-2,1.5-2.8,2.5-4c14.8-15.1,29.9-29.9,45-44.8C407.5,598,408,595.5,410.3,597z"/>
	<path class="st11" d="M669.5,504.2c-14.1,14.1-28.2,27.9-42.5,42c-1.5,1.5-2.5,3.5-5,3.5c1-2.8,3.5-4.3,5.3-6.3
		c12.8-13.1,25.7-25.9,38.7-38.7c1-1,1.8-2.5,3.5-2.5C669.5,503,669.5,503.5,669.5,504.2z"/>
	<path class="st1" d="M387.4,838.7c4.8,0.3,8.8,3,13.1,4.8c11.3,4.8,23.1,7.5,35,10.8c1.3,0.3,2.3,0.5,2.5,2c-4,1-7.5-1.3-11.1-2.3
		c-12.1-3.5-24.1-7.8-35.7-12.6C389.6,841.2,387.9,840.7,387.4,838.7z"/>
	<path class="st1" d="M582.5,856.8c5.5-3,11.8-3.3,17.6-5.3c10.6-3.5,21.1-7.3,31.4-11.8c0.5-0.3,1.3-0.5,1.8,0
		c-3.8,4.3-9.3,5-14.3,6.8c-11.1,4.3-22.1,8-33.7,10.6C584.3,857.3,583.3,857.5,582.5,856.8z"/>
	<path class="st10" d="M172.6,780.3c2.8-0.8,5,1.5,7.3,2.3c10.3,3.3,19.6,1.8,28.7-3.5c0.8-0.5,1.5-0.3,2.3-0.5
		c-5.8,7-14.1,8.3-22.1,7.8C182.9,786.1,176.6,785.6,172.6,780.3z"/>
	<path class="st11" d="M564.4,255c-1.3,1-2.8,0.8-4.3,0.5c-7.8-1.5-15.6-2.8-23.6-2.8c-1.3,0-2.3-0.3-2.5-1.8
		C544.5,250.5,554.6,251.7,564.4,255z"/>
	<path class="st3" d="M467.6,254.8c-3.3,0.3-6.3,2.3-9.6,0.3c9.8-3.5,20.1-4.8,30.7-4c-0.8,2.5-3,1.5-4.5,1.8
		C478.4,252.7,472.9,253.5,467.6,254.8z"/>
	<path class="st10" d="M161,749.7c2.3,2.5-0.5,5,0,7.8c1.3,6.8,3.8,12.8,6.5,19.1c-2.3-0.8-3.8-3-4.3-5c-1.8-4.8-3-10.1-4.3-15.1
		C158.5,753.9,159,751.4,161,749.7z"/>
	<path class="st10" d="M741,440.8c7,4.8,12.8,10.8,17.9,17.9C752,453.4,746,447.6,741,440.8z"/>
	<path class="st10" d="M941.1,350.1c2.8-5.3,4-11.3,7.3-16.3C947.4,340,946.7,346,941.1,350.1z"/>
	<path class="st1" d="M364.7,827.9c6.3,2.5,12.3,5.3,17.9,9.1C376.1,835.4,370,832.6,364.7,827.9z"/>
	<path class="st10" d="M948.2,326.2c-1.3-0.3-2-1.5-2-2.5c0-5.3-4-9.1-5.3-13.8C946.4,314.1,947.7,319.9,948.2,326.2z"/>
	<path class="st11" d="M721.8,781.1c3-4.8,7-8.6,11.8-11.6C730.6,774.1,726.9,778.1,721.8,781.1z"/>
	<path class="st3" d="M404.2,269.6c-4.8,3.8-10.6,5.3-16.1,6.8C392.9,272.4,398.7,270.8,404.2,269.6z"/>
	<path class="st1" d="M345.1,816c4.3,0.8,7,4.5,10.8,5.8c0.3,0.5,0.8,1,1,1.5C352.2,822.3,348.1,820.1,345.1,816z"/>
	<path class="st11" d="M676.3,816.6c3-3.5,6.8-5.8,11.1-7.3C684.6,812.8,680.8,815,676.3,816.6z"/>
	<path class="st11" d="M662.7,824.6c0.8-3.8,5-3.3,7-5.5c1,0,2,0,3-0.3C670,822.1,666.5,823.6,662.7,824.6z"/>
	<path class="st1" d="M494.8,665.2c-4.3,2.3-7.8-0.8-11.3-2.3C487.5,662.1,491.2,663.4,494.8,665.2z"/>
	<path class="st11" d="M773.6,717.2c1-4.3,3.3-8,6.5-11.1C778.7,710.2,777.2,714.2,773.6,717.2z"/>
	<path class="st3" d="M430.1,261c-3.3,3.8-7.5,3.8-11.8,3.8C421.8,262.3,426.1,261.8,430.1,261z"/>
	<path class="st11" d="M780.4,705.1c1.3-3.8,2.3-7.5,5.5-10.1C785.5,699.1,783.5,702.4,780.4,705.1z"/>
	<path class="st10" d="M761.8,461.5c3.3,1.3,5.5,3.5,6.8,6.8C765.3,467,763.1,464.7,761.8,461.5z"/>
	<path class="st1" d="M281,761.5c3,1.5,5.5,3.5,6.5,6.8C284.5,767,282,765,281,761.5z"/>
	<path class="st11" d="M762.8,733.8c1-3.3,2.8-6,5.5-8C767.4,729,765.8,732.1,762.8,733.8z"/>
	<path class="st10" d="M733.2,432.8c3,1,5,3,5.8,5.8C736.2,437.6,734.2,435.6,733.2,432.8z"/>
	<path class="st10" d="M778.7,391.1c-3.3-0.5-5.3-2.8-6-6C775.4,386.5,777.4,388.5,778.7,391.1z"/>
	<path class="st1" d="M300.6,781.3c3,0.8,4.8,2.8,5.8,5.5C303.4,786.4,301.6,784.1,300.6,781.3z"/>
	<path class="st1" d="M512.4,657.6c-1,3.5-4.3,4-7,4.8C506.8,659.9,509.6,658.6,512.4,657.6z"/>
	<path class="st1" d="M329.3,805c2.5,0.8,4.8,1.8,6,4.5C332.3,809,330,808,329.3,805z"/>
	<path class="st10" d="M788.7,401.1c-3-0.3-4.8-2-5-5C786,397.1,787.7,398.6,788.7,401.1z"/>
	<path class="st10" d="M759.1,371.4c-3-0.3-4.8-2-5-5C756.3,367.4,758.1,368.9,759.1,371.4z"/>
	<path class="st1" d="M501.5,662.9c-1.5,2.8-4,1-6.3,1.5C496.8,660.9,499.5,663.4,501.5,662.9z"/>
	<path class="st3" d="M437.9,259c-1.5,2.5-3.3,3.8-6,1.8C433.9,259.3,435.9,259,437.9,259z"/>
	<path class="st1" d="M336.1,810c2.3,0.5,4,1.5,5,3.5C338.6,813.5,336.6,812.8,336.1,810z"/>
	<path class="st3" d="M455.8,255.3c-1.8,1.8-3.5,3.5-6,1.5C451.8,255.3,453.8,255,455.8,255.3z"/>
	<path class="st1" d="M440.9,856.8c2.3-0.5,4,0.5,6,1.5C444.5,859.3,442.5,858.8,440.9,856.8z"/>
	<path class="st1" d="M333.1,673.7c-0.5,2-1.8,3.3-3.8,3.8C329.5,675.2,330.8,674,333.1,673.7z"/>
	<path class="st1" d="M343.1,663.7c-0.5,2-1.8,3.3-3.8,3.8C339.6,665.2,340.9,663.9,343.1,663.7z"/>
	<path class="st11" d="M711,790.9c0.5-2,1.8-3.3,4-3.5C714.5,789.1,713,790.4,711,790.9z"/>
	<path class="st1" d="M352.9,653.8c-0.5,2-1.8,3.3-3.8,3.8C349.4,655.4,350.7,654.1,352.9,653.8z"/>
	<path class="st1" d="M441.9,627.9c-2.3-0.3-3.5-1.8-4-3.8C440.2,624.4,441.4,625.7,441.9,627.9z"/>
	<path class="st11" d="M741,761.5c0.3-2.3,1.5-3.5,3.5-4C744.2,759.5,743,760.7,741,761.5z"/>
	<path class="st3" d="M446,257c-1.3,2-2.5,3.5-5,1.5C442.5,257.5,444,256.8,446,257z"/>
	<path class="st10" d="M767.9,380.2c-2.5,0-4-1.5-4-4C765.8,377,767.1,378.2,767.9,380.2z"/>
	<path class="st1" d="M313.4,693.6c-0.5,2-1.8,3.3-3.8,3.8C309.9,694.8,310.9,693.6,313.4,693.6z"/>
	<path class="st1" d="M309.4,789.1c2.3,0.3,3.5,1.5,4,3.5C310.9,792.9,309.9,791.4,309.4,789.1z"/>
	<path class="st1" d="M323.3,683.5c-0.5,2-1.8,3.3-3.8,3.8C319.7,685,321,683.8,323.3,683.5z"/>
	<path class="st10" d="M948.7,332c-1.3-1.3-1.3-2.5,0-3.8C949.7,329.2,949.7,330.7,948.7,332z"/>
	<path class="st10" d="M750.5,362.6c-2,0-3.5-0.8-3.5-3C748.7,359.9,749.8,360.9,750.5,362.6z"/>
	<path class="st1" d="M358,823.8c1.8,0.3,3.3,0.8,4,2.5C360,826.6,358.5,826.1,358,823.8z"/>
	<path class="st1" d="M460.8,646.8c-1.8,0-2.8-1-3-3C459.6,644,460.6,644.8,460.8,646.8z"/>
	<path class="st1" d="M273.7,733.1c-0.3,1.8-1,2.5-2.8,2.8C270.9,734.1,272,733.1,273.7,733.1z"/>
	<path class="st1" d="M325.3,802.2c1.8,0,2.8,0.8,3,2.5C326.3,805,325.5,803.7,325.3,802.2z"/>
	<path class="st11" d="M695.2,803.5c0.5-1.5,1.5-2.5,3.3-2.3C697.9,802.7,696.9,803.7,695.2,803.5z"/>
	<path class="st11" d="M700.2,799.7c0.5-1.8,1.3-2.5,3-2.5C703,798.7,702,799.7,700.2,799.7z"/>
	<path class="st1" d="M267.2,744.6c1.8,0.3,2.5,1.3,2.5,3C267.9,747.4,266.9,746.6,267.2,744.6z"/>
	<path class="st1" d="M316.5,795.2c1.8,0,2.8,1,3,2.5C317.5,797.9,316.5,796.9,316.5,795.2z"/>
	<path class="st1" d="M421.1,607.1c-1.8-0.3-2.8-1-3-3C420.1,604.3,421.1,605.3,421.1,607.1z"/>
	<path class="st1" d="M431.1,616.9c-1.8-0.3-2.8-1-3-3C429.9,614.4,430.9,615.1,431.1,616.9z"/>
	<path class="st1" d="M450.7,636.7c-1.8-0.3-2.8-1-3-3C449.7,634,450.7,635,450.7,636.7z"/>
	<path class="st11" d="M705,795.7c0.5-1.8,1.3-2.5,3-2.5C707.8,794.9,706.8,795.7,705,795.7z"/>
	<path class="st11" d="M754.8,744.6c0-1.8,0.8-2.8,2.5-3.3C757.3,743.4,756.3,744.1,754.8,744.6z"/>
	<path class="st10" d="M167.6,776.6c2-0.3,3,0.8,3.3,2.8C169.1,779.1,168.1,778.1,167.6,776.6z"/>
	<path class="st1" d="M276,755.4c1.8,0.3,2.5,1.3,2.8,3C277,758.2,276,757.5,276,755.4z"/>
	<path class="st11" d="M788.5,689.3c-1-2-0.5-3,1.8-3.3C790.5,687.8,790,688.8,788.5,689.3z"/>
	<path class="st1" d="M303.4,703.4c-0.3,1.8-1,2.5-2.8,2.8C300.6,704.4,301.6,703.4,303.4,703.4z"/>
	<path class="st1" d="M293.6,713.2c-0.3,1.8-1,2.5-2.8,2.8C290.8,714.2,291.8,713.2,293.6,713.2z"/>
	<path class="st1" d="M270.9,749.7c1.8,0.3,2.5,1.3,2.5,3C272,752.4,270.9,751.4,270.9,749.7z"/>
	<path class="st1" d="M283.5,723.3c-0.3,1.8-1,2.5-2.8,2.8C281,724,281.8,723.3,283.5,723.3z"/>
	<path class="st11" d="M750.8,749.7c0-1.8,1-2.8,2.5-3.3C753.5,748.4,752.5,749.2,750.8,749.7z"/>
	<path class="st1" d="M454.8,859.6c1-0.3,2-0.3,3,0.5C456.3,861.8,455.5,861.3,454.8,859.6z"/>
	<path class="st1" d="M266.7,740.6c0,1,0,2.3,0,3.3C264.2,742.9,264.4,741.6,266.7,740.6z"/>
	<path class="st1" d="M471.6,657.6c-0.8-0.8-1.3-1.3-2-2c1.5,0.5,3.5-0.3,3.8,2.3C472.9,657.6,472.4,657.6,471.6,657.6z"/>
	<path class="st1" d="M460.8,860.6c1,0,2,0,3-0.3c0,0.3,0,0.8,0,1C462.3,862.8,461.3,862.3,460.8,860.6z"/>
	<path class="st1" d="M449.7,858.5c1,0,2.3-0.3,3,0.8C451.3,861.1,450.5,860.3,449.7,858.5z"/>
	<path class="st1" d="M515.4,656.1c-0.8,1.3-1.8,1.8-3,1.5C512.6,655.6,513.9,655.9,515.4,656.1z"/>
	<path class="st3" d="M409.3,267.6c-0.3,1.3-0.5,2.3-2,0.8C407.7,267.8,408.5,267.6,409.3,267.6z"/>
	<path class="st11" d="M768.6,725c-0.3-1.3,0.3-2,1.5-2.3C770.4,724,769.9,724.8,768.6,725z"/>
	<path class="st11" d="M770.6,722c-0.3-1.3,0.3-2,1.5-2.3C772.4,721,771.9,721.7,770.6,722z"/>
	<path class="st11" d="M747.7,753.4c0-1.3,0.5-1.8,1.5-2C749.5,752.7,749,753.4,747.7,753.4z"/>
	<path class="st1" d="M479.4,661.6c-0.8,0-1.5-0.3-1.8-1C479.2,659.4,479.4,660.1,479.4,661.6z"/>
	<path class="st3" d="M364.7,287.4c0,1.5-1,2-2.5,1.8C362.7,287.9,363.5,287.4,364.7,287.4z"/>
	<path class="st11" d="M786.5,691.3c0.5,0,1-0.3,1.5-0.3c0.5,1.3-0.3,2-1.3,2.5C786.5,692.8,786.5,692.1,786.5,691.3z"/>
	<path class="st3" d="M368.8,285.4c0,1.8-1,2-2.5,1.8C366.8,285.9,367.5,285.4,368.8,285.4z"/>
	<path class="st1" d="M321.2,799.2c1.3,0,1.8,0.5,2,1.8C322,801,321.2,800.5,321.2,799.2z"/>
	<path class="st3" d="M380.6,279.4c0,1.5-1,2-2.5,1.8C378.6,280.2,379.3,279.4,380.6,279.4z"/>
	<path class="st3" d="M384.6,277.6c-0.3,1.5-1,2-2.5,1.5C382.6,278.1,383.4,277.4,384.6,277.6z"/>
	<path class="st11" d="M692.2,805.7c0.3-1.3,1-1.8,2.3-1.5C694.2,805.2,693.4,805.7,692.2,805.7z"/>
	<path class="st11" d="M688.4,808.5c0.3-1.3,1-1.8,2.3-1.5C690.2,808.3,689.7,808.8,688.4,808.5z"/>
	<path class="st1" d="M342.1,814c1,0,1.8,0.5,2,1.5C342.6,815.8,342.1,815.3,342.1,814z"/>
	<path class="st3" d="M415.3,265.6c-0.3,1.3-0.5,2.5-2,0.8C413.8,265.8,414.3,265.6,415.3,265.6z"/>
	<path class="st1" d="M641.4,836.2c0.5-1,1.3-1.5,2.5-1.3C643.6,836.2,642.9,836.7,641.4,836.2z"/>
	<path class="st11" d="M757.8,740.6c-0.3-1.3,0.3-2,1.5-2.3C759.6,739.9,759.1,740.6,757.8,740.6z"/>
	<path class="st11" d="M760.6,736.8c-0.3-1.3,0.5-2,1.5-2C762.6,735.8,761.8,736.6,760.6,736.8z"/>
	<path class="st3" d="M463.8,861.3c0-0.3,0-0.8,0-1c1.5-1.3,1.8-0.3,2,1C465.1,861.3,464.3,861.3,463.8,861.3z"/>
	<path class="st11" d="M673.3,818.3c0.3-1.3,1-1.8,2.3-1.5C675.3,818.1,674.6,818.8,673.3,818.3z"/>
	<path class="st12" d="M670.5,296.2c15.3,9.1,29.4,19.6,42.8,31.4c8.8,7.8,17.6,15.8,25.1,25.1c0.8,0.8,1.3,2,1.8,3
		c-1.5-0.3-3-0.3-4.3-0.5c-12.3-3.5-23.1-0.3-32.2,8.6c-10.3,9.8-20.1,20.1-30.2,29.9c-1.3,1.3-2,2.5-3.8,3l-0.3-0.3
		c0-31.4,0-62.9,0-94.3C669.8,300,669,297.8,670.5,296.2z"/>
	<path class="st12" d="M588.6,477.6c-0.3,0.3-0.8,0.8-1,1l0,0C587.8,478.1,588.1,477.8,588.6,477.6
		C588.6,477.3,588.6,477.6,588.6,477.6z"/>
	<path class="st12" d="M587.6,478.6c-0.3,0.3-0.8,0.8-1,1l0,0C586.8,479.1,587,478.8,587.6,478.6
		C587.6,478.3,587.6,478.6,587.6,478.6z"/>
	<path class="st12" d="M586.5,479.3c-0.3,0.3-0.8,0.8-1,1l0,0C585.8,480.1,586,479.8,586.5,479.3L586.5,479.3z"/>
	<path class="st12" d="M585.5,480.3c-0.3,0.3-0.8,0.8-1,1l0,0C584.8,481.1,585,480.6,585.5,480.3L585.5,480.3z"/>
	<path class="st12" d="M584.5,481.3c-0.3,0.3-0.8,0.8-1,1l0,0C583.8,482.1,584,481.6,584.5,481.3L584.5,481.3z"/>
	<path class="st12" d="M583.5,482.3c-0.3,0.3-0.8,0.8-1,1l0,0C582.8,483.1,583.3,482.6,583.5,482.3L583.5,482.3z"/>
	<path class="st12" d="M582.5,483.3c-0.3,0.3-0.8,0.8-1,1l0,0C581.8,484.1,582.3,483.6,582.5,483.3L582.5,483.3z"/>
	<path class="st12" d="M581.5,484.4c-0.3,0.3-0.8,0.8-1,1l0,0C580.8,485.1,581.3,484.6,581.5,484.4L581.5,484.4z"/>
	<path class="st12" d="M580.5,485.4c-0.3,0.3-0.8,0.8-1,1l0,0C579.8,485.9,580.3,485.6,580.5,485.4L580.5,485.4z"/>
	<path class="st12" d="M579.5,486.4c-0.3,0.3-0.8,0.8-1,1l0,0C578.8,486.9,579.3,486.6,579.5,486.4L579.5,486.4z"/>
	<path class="st12" d="M578.5,487.4c-0.3,0.3-0.8,0.8-1,1l0,0C578,487.9,578.2,487.6,578.5,487.4L578.5,487.4z"/>
	<path class="st12" d="M577.5,488.4c-0.3,0.3-0.8,0.8-1,1l0,0C577,488.9,577.2,488.6,577.5,488.4L577.5,488.4z"/>
	<path class="st12" d="M575.7,490.4c-0.3,0.3-0.8,0.8-1,1l0,0C575,490.9,575.2,490.6,575.7,490.4
		C575.5,490.4,575.7,490.4,575.7,490.4z"/>
	<path class="st12" d="M574.7,491.4c-0.3,0.3-0.8,0.8-1,1l0,0C574,491.9,574.2,491.6,574.7,491.4
		C574.5,491.1,574.7,491.4,574.7,491.4z"/>
	<path class="st12" d="M573.7,492.4c-0.3,0.3-0.8,0.8-1,1l0,0C573,492.9,573.2,492.6,573.7,492.4
		C573.7,492.1,573.7,492.4,573.7,492.4z"/>
	<path class="st12" d="M572.7,493.4c-0.3,0.3-0.8,0.8-1,1l0,0C572,493.9,572.2,493.7,572.7,493.4L572.7,493.4z"/>
	<path class="st12" d="M597.4,468.5c-0.3,0.3-0.8,0.8-1,1l0,0C596.6,469.3,597.1,468.8,597.4,468.5L597.4,468.5z"/>
	<path class="st12" d="M571.7,494.4c-0.3,0.3-0.8,0.8-1,1l0,0C571,494.9,571.2,494.7,571.7,494.4L571.7,494.4z"/>
	<path class="st12" d="M569.7,496.4c0-0.3,0-0.8,0-1c0.3,0,0.5,0,1,0l0,0C570.5,495.7,569.9,495.9,569.7,496.4z"/>
	<path class="st12" d="M568.7,497.4c0.3-0.5,0.8-0.8,1-1.3C569.4,496.7,568.9,496.9,568.7,497.4z"/>
	<path class="st12" d="M598.4,467.5c-0.3,0.3-0.8,0.8-1,1l0,0C597.6,468.3,598.1,467.8,598.4,467.5L598.4,467.5z"/>
	<path class="st12" d="M599.4,466.5c-0.3,0.3-0.8,0.8-1,1l0,0C598.6,467.3,599.1,466.7,599.4,466.5L599.4,466.5z"/>
	<path class="st12" d="M600.4,465.5c-0.3,0.3-0.8,0.8-1,1l0,0C599.6,466.2,599.9,465.7,600.4,465.5L600.4,465.5z"/>
	<path class="st12" d="M601.4,464.7c-0.3,0.3-0.8,0.8-1,1l0,0C600.6,465.2,600.9,465,601.4,464.7
		C601.4,464.5,601.4,464.7,601.4,464.7z"/>
	<path class="st12" d="M602.4,463.7c-0.3,0.3-0.8,0.8-1,1l0,0C601.6,464.2,601.9,464,602.4,463.7
		C602.4,463.5,602.4,463.7,602.4,463.7z"/>
	<path class="st12" d="M603.4,462.7c-0.3,0.3-0.8,0.8-1,1l0,0C602.6,463.2,602.9,463,603.4,462.7
		C603.4,462.5,603.4,462.7,603.4,462.7z"/>
	<path class="st12" d="M604.4,461.7c-0.3,0.3-0.8,0.8-1,1l0,0C603.6,462.2,603.9,462,604.4,461.7L604.4,461.7z"/>
	<path class="st12" d="M605.4,460.7c-0.3,0.3-0.8,0.8-1,1l0,0C604.7,461.2,604.9,461,605.4,460.7
		C605.2,460.5,605.4,460.7,605.4,460.7z"/>
	<path class="st12" d="M657.7,408.2c-0.3,0.3-0.8,0.8-1,1l0,0C657,408.7,657.5,408.4,657.7,408.2L657.7,408.2z"/>
	<path class="st12" d="M606.4,459.7c-0.3,0.3-0.8,0.8-1,1l0,0C605.7,460.2,605.9,460,606.4,459.7
		C606.2,459.7,606.4,459.7,606.4,459.7z"/>
	<path class="st12" d="M669.8,396.3c-0.3,0.3-0.8,0.5-1,0.8l0,0C669,396.8,669.3,396.6,669.8,396.3
		C669.5,396.3,669.8,396.3,669.8,396.3z"/>
	<path class="st12" d="M668.8,397.3c-0.3,0.3-0.8,0.8-1,1l0,0C668,397.8,668.3,397.6,668.8,397.3
		C668.5,397.3,668.8,397.3,668.8,397.3z"/>
	<path class="st12" d="M607.4,458.7c-0.3,0.3-0.8,0.8-1,1l0,0C606.7,459.2,606.9,459,607.4,458.7L607.4,458.7z"/>
	<path class="st12" d="M608.4,457.7c-0.3,0.3-0.8,0.8-1,1l0,0C607.7,458.2,607.9,457.9,608.4,457.7
		C608.2,457.7,608.4,457.7,608.4,457.7z"/>
	<path class="st12" d="M667.8,398.3c-0.3,0.3-0.8,0.8-1,1l0,0C667,398.8,667.3,398.6,667.8,398.3
		C667.5,398.1,667.8,398.3,667.8,398.3z"/>
	<path class="st12" d="M666.8,399.4c-0.3,0.3-0.8,0.8-1,1l0,0C666,399.9,666.3,399.6,666.8,399.4
		C666.5,399.1,666.8,399.4,666.8,399.4z"/>
	<path class="st12" d="M609.2,456.7c-0.3,0.3-0.8,0.8-1,1l0,0C608.7,457.2,608.9,456.9,609.2,456.7L609.2,456.7z"/>
	<path class="st12" d="M665.8,400.4c-0.3,0.3-0.8,0.8-1,1l0,0C665,400.9,665.3,400.6,665.8,400.4L665.8,400.4z"/>
	<path class="st12" d="M610.2,455.7c-0.3,0.3-0.8,0.8-1,1l0,0C609.7,456.2,609.9,455.9,610.2,455.7L610.2,455.7z"/>
	<path class="st12" d="M611.2,454.7c-0.3,0.3-0.8,0.8-1,1l0,0C610.4,455.2,610.9,454.9,611.2,454.7L611.2,454.7z"/>
	<path class="st12" d="M612.2,453.7c-0.3,0.3-0.8,0.8-1,1l0,0C611.4,454.4,611.9,453.9,612.2,453.7L612.2,453.7z"/>
	<path class="st12" d="M613.2,452.7c-0.3,0.3-0.8,0.8-1,1l0,0C612.4,453.4,613,452.9,613.2,452.7L613.2,452.7z"/>
	<path class="st12" d="M614.2,451.7c-0.3,0.3-0.8,0.8-1,1l0,0C613.5,452.4,614,451.9,614.2,451.7L614.2,451.7z"/>
	<path class="st12" d="M615.2,450.7c-0.3,0.3-0.8,0.8-1,1l0,0C614.5,451.4,615,450.9,615.2,450.7L615.2,450.7z"/>
	<path class="st12" d="M664.8,401.4c-0.3,0.3-0.8,0.8-1,1l0,0C664,401.9,664.3,401.6,664.8,401.4L664.8,401.4z"/>
	<path class="st12" d="M616.2,449.6c-0.3,0.3-0.8,0.8-1,1l0,0C615.5,450.4,615.7,449.9,616.2,449.6L616.2,449.6z"/>
	<path class="st12" d="M617.2,448.6c-0.3,0.3-0.8,0.8-1,1l0,0C616.5,449.4,616.7,449.1,617.2,448.6L617.2,448.6z"/>
	<path class="st12" d="M618.2,447.9c-0.3,0.3-0.8,0.8-1,1l0,0C617.5,448.4,617.7,448.1,618.2,447.9
		C618.2,447.6,618.2,447.9,618.2,447.9z"/>
	<path class="st12" d="M663.7,402.1c-0.3,0.3-0.8,0.8-1,1l0,0C663,402.9,663.2,402.6,663.7,402.1L663.7,402.1z"/>
	<path class="st12" d="M619.2,446.9c-0.3,0.3-0.8,0.8-1,1l0,0C618.5,447.4,618.7,447.1,619.2,446.9
		C619.2,446.6,619.2,446.9,619.2,446.9z"/>
	<path class="st12" d="M662.7,403.1c-0.3,0.3-0.8,0.8-1,1l0,0C662,403.9,662.2,403.4,662.7,403.1L662.7,403.1z"/>
	<path class="st12" d="M661.7,404.1c-0.3,0.3-0.8,0.8-1,1l0,0C661,404.9,661.5,404.4,661.7,404.1L661.7,404.1z"/>
	<path class="st12" d="M660.7,405.1c-0.3,0.3-0.8,0.8-1,1l0,0C660,405.9,660.5,405.4,660.7,405.1L660.7,405.1z"/>
	<path class="st12" d="M659.7,406.1c-0.3,0.3-0.8,0.8-1,1l0,0C659,406.9,659.5,406.4,659.7,406.1L659.7,406.1z"/>
	<path class="st12" d="M620.2,445.9c-0.3,0.3-0.8,0.8-1,1l0,0C619.5,446.4,619.7,446.1,620.2,445.9L620.2,445.9z"/>
	<path class="st12" d="M658.7,407.1c-0.3,0.3-0.8,0.8-1,1l0,0C658,407.9,658.5,407.4,658.7,407.1L658.7,407.1z"/>
	<path class="st12" d="M656.7,409.2c-0.3,0.3-0.8,0.8-1,1l0,0C656.2,409.7,656.5,409.4,656.7,409.2L656.7,409.2z"/>
	<path class="st12" d="M655.7,410.2c-0.3,0.3-0.8,0.8-1,1l0,0C655.2,410.7,655.5,410.4,655.7,410.2L655.7,410.2z"/>
	<path class="st12" d="M654.7,411.2c-0.3,0.3-0.8,0.8-1,1l0,0C654.2,411.7,654.4,411.4,654.7,411.2L654.7,411.2z"/>
	<path class="st12" d="M653.9,412.2c-0.3,0.3-0.8,0.8-1,1l0,0C653.2,412.7,653.4,412.4,653.9,412.2L653.9,412.2z"/>
	<path class="st12" d="M652.9,413.2c-0.3,0.3-0.8,0.8-1,1l0,0C652.2,413.7,652.4,413.4,652.9,413.2
		C652.7,413.2,652.9,413.2,652.9,413.2z"/>
	<path class="st12" d="M651.9,414.2c-0.3,0.3-0.8,0.8-1,1l0,0C651.2,414.7,651.4,414.4,651.9,414.2L651.9,414.2z"/>
	<path class="st12" d="M621.2,444.9c-0.3,0.3-0.8,0.8-1,1l0,0C620.5,445.4,620.7,445.1,621.2,444.9
		C621,444.6,621.2,444.9,621.2,444.9z"/>
	<path class="st12" d="M650.9,415.2c-0.3,0.3-0.8,0.8-1,1l0,0C650.2,415.7,650.4,415.4,650.9,415.2
		C650.9,414.9,650.9,415.2,650.9,415.2z"/>
	<path class="st12" d="M649.9,416.2c-0.3,0.3-0.8,0.8-1,1l0,0C649.2,416.7,649.4,416.5,649.9,416.2L649.9,416.2z"/>
	<path class="st12" d="M648.9,417.2c-0.3,0.3-0.8,0.8-1,1l0,0C648.2,417.7,648.4,417.5,648.9,417.2
		C648.9,417,648.9,417.2,648.9,417.2z"/>
	<path class="st12" d="M622.3,443.9c-0.3,0.3-0.8,0.8-1,1l0,0C621.5,444.4,621.8,444.1,622.3,443.9
		C622,443.9,622.3,443.9,622.3,443.9z"/>
	<path class="st12" d="M623.3,442.9c-0.3,0.3-0.8,0.8-1,1l0,0C622.5,443.4,622.8,443.1,623.3,442.9
		C623,442.9,623.3,442.9,623.3,442.9z"/>
	<path class="st12" d="M624.3,441.9c-0.3,0.3-0.8,0.8-1,1l0,0C623.5,442.4,623.8,442.1,624.3,441.9L624.3,441.9z"/>
	<path class="st12" d="M647.9,418c-0.3,0.3-0.8,0.8-1,1l0,0C647.2,418.7,647.4,418.5,647.9,418L647.9,418z"/>
	<path class="st12" d="M625,440.8c-0.3,0.3-0.8,0.8-1,1l0,0C624.5,441.3,624.8,441.1,625,440.8L625,440.8z"/>
	<path class="st12" d="M626,439.8c-0.3,0.3-0.8,0.8-1,1l0,0C625.3,440.3,625.8,440.1,626,439.8L626,439.8z"/>
	<path class="st12" d="M627,438.8c-0.3,0.3-0.8,0.8-1,1l0,0C626.3,439.3,626.8,439.1,627,438.8L627,438.8z"/>
	<path class="st12" d="M596.4,469.5c-0.3,0.3-0.8,0.8-1,1l0,0C595.6,470,596.1,469.8,596.4,469.5L596.4,469.5z"/>
	<path class="st12" d="M646.9,419c-0.3,0.3-0.8,0.8-1,1l0,0C646.1,419.7,646.4,419.2,646.9,419L646.9,419z"/>
	<path class="st12" d="M645.9,420c-0.3,0.3-0.8,0.8-1,1l0,0C645.1,420.7,645.6,420.2,645.9,420L645.9,420z"/>
	<path class="st12" d="M644.9,421c-0.3,0.3-0.8,0.8-1,1l0,0C644.1,421.7,644.6,421.2,644.9,421L644.9,421z"/>
	<path class="st12" d="M643.9,422c-0.3,0.3-0.8,0.8-1,1l0,0C643.1,422.7,643.6,422.2,643.9,422L643.9,422z"/>
	<path class="st12" d="M642.9,423c-0.3,0.3-0.8,0.8-1,1l0,0C642.1,423.7,642.6,423.2,642.9,423L642.9,423z"/>
	<path class="st12" d="M641.9,424c-0.3,0.3-0.8,0.8-1,1l0,0C641.1,424.5,641.6,424.2,641.9,424L641.9,424z"/>
	<path class="st12" d="M640.9,425c-0.3,0.3-0.8,0.8-1,1l0,0C640.4,425.5,640.6,425.3,640.9,425L640.9,425z"/>
	<path class="st12" d="M628,437.8c-0.3,0.3-0.8,0.8-1,1l0,0C627.3,438.6,627.8,438.1,628,437.8L628,437.8z"/>
	<path class="st12" d="M639.9,426c-0.3,0.3-0.8,0.8-1,1l0,0C639.4,426.5,639.6,426.3,639.9,426L639.9,426z"/>
	<path class="st12" d="M576.7,489.4c-0.3,0.3-0.8,0.8-1,1l0,0C576,489.9,576.2,489.6,576.7,489.4L576.7,489.4z"/>
	<path class="st12" d="M630.1,435.8c-0.3,0.3-0.8,0.8-1,1l0,0C629.3,436.6,629.8,436.1,630.1,435.8L630.1,435.8z"/>
	<path class="st12" d="M639.1,427c-0.3,0.3-0.8,0.8-1,1l0,0C638.3,427.5,638.6,427.3,639.1,427L639.1,427z"/>
	<path class="st12" d="M631.1,434.8c-0.3,0.3-0.8,0.8-1,1l0,0C630.3,435.6,630.6,435.1,631.1,434.8L631.1,434.8z"/>
	<path class="st12" d="M594.3,471.5c-0.3,0.3-0.8,0.8-1,1l0,0C593.8,472,594.1,471.8,594.3,471.5L594.3,471.5z"/>
	<path class="st12" d="M632.1,433.8c-0.3,0.3-0.8,0.8-1,1l0,0C631.3,434.6,631.6,434.1,632.1,433.8L632.1,433.8z"/>
	<path class="st12" d="M595.3,470.5c-0.3,0.3-0.8,0.8-1,1l0,0C594.6,471,595.1,470.8,595.3,470.5L595.3,470.5z"/>
	<path class="st12" d="M633.1,433.1c-0.3,0.3-0.8,0.8-1,1l0,0C632.3,433.6,632.6,433.3,633.1,433.1
		C633.1,432.8,633.1,433.1,633.1,433.1z"/>
	<path class="st12" d="M593.6,472.5c-0.3,0.3-0.8,0.8-1,1l0,0C592.8,473,593.1,472.8,593.6,472.5
		C593.3,472.5,593.6,472.5,593.6,472.5z"/>
	<path class="st12" d="M634.1,432c-0.3,0.3-0.8,0.8-1,1l0,0C633.3,432.5,633.6,432.3,634.1,432L634.1,432z"/>
	<path class="st12" d="M635.1,431c-0.3,0.3-0.8,0.8-1,1l0,0C634.3,431.5,634.6,431.3,635.1,431L635.1,431z"/>
	<path class="st12" d="M636.1,430c-0.3,0.3-0.8,0.8-1,1l0,0C635.3,430.5,635.6,430.3,636.1,430L636.1,430z"/>
	<path class="st12" d="M637.1,429c-0.3,0.3-0.8,0.8-1,1l0,0C636.3,429.5,636.6,429.3,637.1,429L637.1,429z"/>
	<path class="st12" d="M592.6,473.5c-0.3,0.3-0.8,0.8-1,1l0,0C591.8,474,592.1,473.8,592.6,473.5
		C592.3,473.5,592.6,473.5,592.6,473.5z"/>
	<path class="st12" d="M591.6,474.5c-0.3,0.3-0.8,0.8-1,1l0,0C590.8,475,591.1,474.8,591.6,474.5
		C591.3,474.5,591.6,474.5,591.6,474.5z"/>
	<path class="st12" d="M590.6,475.5c-0.3,0.3-0.8,0.8-1,1l0,0C589.8,476.1,590.1,475.8,590.6,475.5L590.6,475.5z"/>
	<path class="st12" d="M589.6,476.6c-0.3,0.3-0.8,0.8-1,1l0,0C588.8,477.1,589.1,476.8,589.6,476.6L589.6,476.6z"/>
	<path class="st12" d="M638.1,428c-0.3,0.3-0.8,0.8-1,1l0,0C637.3,428.5,637.6,428.3,638.1,428C637.8,428,638.1,428,638.1,428z"/>
	<path class="st12" d="M629,436.8c-0.3,0.3-0.8,0.8-1,1l0,0C628.3,437.6,628.8,437.1,629,436.8L629,436.8z"/>
	<path class="st13" d="M629,436.8c-0.3,0.3-0.8,0.8-1,1s-0.8,0.8-1,1c-0.3,0.3-0.8,0.8-1,1c-0.3,0.3-0.8,0.8-1,1
		c-0.3,0.3-0.8,0.8-1,1c-0.3,0.3-0.8,0.8-1,1c-0.3,0.3-0.8,0.8-1,1c-0.3,0.3-0.8,0.8-1,1s-0.8,0.8-1,1c-0.3,0.3-0.8,0.8-1,1
		c-0.3,0.3-0.8,0.8-1,1c-0.3,0.3-0.8,0.8-1,1c-0.3,0.3-0.8,0.8-1,1c-0.3,0.3-0.8,0.8-1,1c-0.3,0.3-0.8,0.8-1,1c-0.3,0.3-0.8,0.8-1,1
		s-0.8,0.8-1,1s-0.8,0.8-1,1c-0.3,0.3-0.8,0.8-1,1s-0.8,0.8-1,1c-0.3,0.3-0.8,0.8-1,1c-0.3,0.3-0.8,0.8-1,1c-0.3,0.3-0.8,0.8-1,1
		s-0.8,0.8-1,1s-0.8,0.8-1,1c-0.3,0.3-0.8,0.8-1,1s-0.8,0.8-1,1c-0.3,0.3-0.8,0.8-1,1c-0.3,0.3-0.8,0.8-1,1c-0.3,0.3-0.8,0.8-1,1
		c-0.3,0.3-0.8,0.8-1,1c-0.3,0.3-0.8,0.8-1,1s-0.8,0.8-1,1s-0.8,0.8-1,1c-0.3,0.3-0.8,0.8-1,1s-0.8,0.8-1,1c-0.3,0.3-0.8,0.8-1,1
		c-0.3,0.3-0.8,0.8-1,1c-0.3,0.3-0.8,0.8-1,1s-0.8,0.8-1,1s-0.8,0.8-1,1c-0.3,0.3-0.8,0.8-1,1s-0.8,0.8-1,1c-0.3,0.3-0.8,0.8-1,1
		c-0.3,0.3-0.8,0.8-1,1c-0.3,0.3-0.8,0.8-1,1s-0.8,0.8-1,1s-0.8,0.8-1,1s-0.8,0.8-1,1c-0.3,0.3-0.8,0.8-1,1c-0.3,0.3-0.8,0.8-1,1
		c-0.3,0.3-0.8,0.8-1,1c-0.3,0.3-0.8,0.8-1,1c-0.3,0.3-0.8,0.8-1,1c-0.3,0.3-0.8,0.8-1,1c-0.3,0.3-0.8,0.8-1,1c-0.3,0.3-0.8,0.8-1,1
		c-0.3,0.3-0.8,0.8-1,1c-0.3,0.3-0.8,0.8-1,1c-0.3,0-0.5,0-1,0c-1.3-2-1-4-1-6.3c0-77.2,0-154.2,0-231.4c8.3,0,15.8,3.3,23.9,5
		c13.1,2.8,25.1,7.8,37.5,12.8c12.1,4.8,23.6,10.6,34.7,17.1c2,1.3,4,2.3,5.8,3.5c-1.8,1.8-1,3.8-1,5.5c0,31.4,0,62.9,0,94.3
		c-0.3,0.3-0.8,0.8-1,1c-0.3,0.3-0.8,0.8-1,1c-0.3,0.3-0.8,0.8-1,1c-0.3,0.3-0.8,0.8-1,1c-0.3,0.3-0.8,0.8-1,1c-0.3,0.3-0.8,0.8-1,1
		c-0.3,0.3-0.8,0.8-1,1c-0.3,0.3-0.8,0.8-1,1c-0.3,0.3-0.8,0.8-1,1c-0.3,0.3-0.8,0.8-1,1c-0.3,0.3-0.8,0.8-1,1c-0.3,0.3-0.8,0.8-1,1
		c-0.3,0.3-0.8,0.8-1,1c-0.3,0.3-0.8,0.8-1,1c-0.3,0.3-0.8,0.8-1,1c-0.3,0.3-0.8,0.8-1,1c-0.3,0.3-0.8,0.8-1,1c-0.3,0.3-0.8,0.8-1,1
		c-0.3,0.3-0.8,0.8-1,1c-0.3,0.3-0.8,0.8-1,1c-0.3,0.3-0.8,0.8-1,1c-0.3,0.3-0.8,0.8-1,1c-0.3,0.3-0.8,0.8-1,1c-0.3,0.3-0.8,0.8-1,1
		c-0.3,0.3-0.8,0.8-1,1c-0.3,0.3-0.8,0.8-1,1c-0.3,0.3-0.8,0.8-1,1c-0.3,0.3-0.8,0.8-1,1c-0.3,0.3-0.8,0.8-1,1c-0.3,0.3-0.8,0.8-1,1
		c-0.3,0.3-0.8,0.8-1,1c-0.3,0.3-0.8,0.8-1,1c-0.3,0.3-0.8,0.8-1,1c-0.3,0.3-0.8,0.8-1,1c-0.3,0.3-0.8,0.8-1,1c-0.3,0.3-0.8,0.8-1,1
		c-0.3,0.3-0.8,0.8-1,1c-0.3,0.3-0.8,0.8-1,1c-0.3,0.3-0.8,0.8-1,1c-0.3,0.3-0.8,0.8-1,1C629.8,436.1,629.3,436.6,629,436.8z"/>
	<path class="st3" d="M468.6,292.2c-1.3-2.8-1.3-5.8,0-8.6C470.1,286.4,470.1,289.2,468.6,292.2z"/>
	<path class="st3" d="M467.6,265.6c-1.3-1.3-1.3-2.5,0-3.8C469.1,263.1,468.9,264.3,467.6,265.6z"/>
</g>
</svg>
