<?xml version="1.0" encoding="utf-8"?>
<!-- Generator: Adobe Illustrator 23.0.1, SVG Export Plug-In . SVG Version: 6.00 Build 0)  -->
<svg version="1.1" id="Camada_1" xmlns="http://www.w3.org/2000/svg" xmlns:xlink="http://www.w3.org/1999/xlink" x="0px" y="0px"
	 viewBox="0 0 1080 1080" style="enable-background:new 0 0 1080 1080;" xml:space="preserve">
<style type="text/css">
	.st0{fill:#979797;}
	.st1{fill:#3D75FE;}
	.st2{fill:#3E76FE;}
	.st3{fill:#06FCD9;}
</style>
<g>
	<path class="st0" d="M197.4,335.2c0,27.3-0.2,54.6-0.2,81.9c0,12.9,0,25.9,0,38.8c0,2.7-0.7,3.7-3.6,3.6c-6.1-0.2-12.2-0.2-18.3,0
		c-3.1,0.2-3.7-1.2-3.7-3.9c0.2-13.9,0-28,0.2-41.9c0-3.1-0.8-3.9-3.9-3.9c-16.6,0.2-33.4,0.2-50,0c-3.1,0-4.1,0.8-3.9,3.9
		c0.2,13.7,0,27.5,0.2,41.2c0,3.9-1.2,4.9-4.9,4.7c-5.6-0.3-11.2-0.2-16.6,0c-3.1,0.2-3.9-1-3.9-4.1c0.2-37.8,0-75.8,0-113.6
		c0-2.2,0-4.4-0.2-6.6c8.3,0,16.6,0,24.8,0c0,15.1,0.2,30.2,0,45.3c0,3.4,1,4.4,4.4,4.4c16.6-0.2,33.1-0.2,49.7,0
		c3.7,0,4.9-1,4.7-4.7c-0.2-14.9,0-30,0-44.9C180.9,335.2,189.3,335.2,197.4,335.2z"/>
	<path class="st0" d="M680.2,335.2c0,10.7,0,21.5-0.2,32.2c0,2.9,0.8,3.2,3.6,2.4c14.2-4.2,27.6-2.5,39.2,7.5
		c8.6,7.5,13.6,17,13.9,28.3c0.3,16.6,0,33.1,0.2,49.7c0,3.2-0.8,4.4-4.1,4.2c-5.1-0.2-10.2-0.2-15.1,0c-3.1,0.2-4.1-0.8-3.9-3.9
		c0.2-14.6,0-29.2,0-43.9c0-6.8-1.4-13.2-7.5-17.5c-5.3-3.7-11-4.6-16.8-1.5c-5.8,3.1-9.2,8-9.3,14.6c-0.2,15.9-0.2,31.9,0,47.6
		c0,3.4-0.8,4.6-4.4,4.4c-5.1-0.3-10.2-0.3-15.1,0c-3.2,0.2-3.9-1-3.9-4.1c0.2-40,0-80.2,0-120.2
		C664.6,335.2,672.4,335.2,680.2,335.2z"/>
	<path class="st0" d="M514.1,335.2c0,27-0.2,54.1-0.2,81c0,13.2,0,26.4,0,39.5c0,2.7-0.8,3.7-3.6,3.6c-5.3-0.2-10.7-0.2-15.9,0
		c-3.2,0.2-3.9-1-3.9-3.9c0.2-40,0-80.2,0-120.2C498.6,335.2,506.3,335.2,514.1,335.2z"/>
	<path class="st1" d="M859.8,639.5c0-31.5,0-63.1,0-94.6c0-5.4,0.2-5.6,5.8-5.6c9.8,0,19.7,0.2,29.5,0c3.7,0,4.9,1.2,4.9,4.9
		c-0.2,32.6,0,65.1,0,97.8c0,0.8,0,1.5,0,2.4c0,0.7-0.2,1.7,0.7,2c1.2,0.5,1.5-0.5,2-1.2c4.9-5.8,9.8-11.7,14.7-17.5
		c8.5-10,16.8-20,25.1-30c1.4-1.5,2.7-2.2,4.7-2.2c14.4,0,28.7,0,43.1,0c1.4,0,2.9-0.2,3.7,1.4c0.8,1.7-0.5,2.5-1.4,3.7
		c-14.2,17.1-28.5,34.1-42.7,51.2c-2.7,3.2-7.3,6.3-7.5,10c-0.2,3.7,4.4,7,7,10.2c16.1,21,32.4,41.9,48.7,62.7
		c1,1.2,2.7,2.5,1.7,4.4c-1,1.9-3.1,1.2-4.6,1.2c-13.4,0-26.6,0-40,0c-2.4,0-4.1-0.5-5.6-2.5c-10.7-13.9-21.5-27.8-32-41.7
		c-1.9-2.5-3.2-2.4-4.9,0c-0.2,0.3-0.5,0.7-0.7,0.8c-11.2,9.2-13.4,21.2-12.2,34.9c0.8,9.8,0.7,8.5-8.3,8.5c-8.6,0-17.3,0-25.9,0
		c-5.4,0-5.6-0.2-5.6-5.8c0-7,0-13.9,0-21C859.8,689,859.8,664.3,859.8,639.5z"/>
	<path class="st1" d="M602.6,609.2c0,42.2,0,84.3,0,126.5c0,3.6-1,4.7-4.6,4.7c-10.3-0.2-20.7,0-31,0c-1.5,0-3.6,0.3-4.1-1.5
		c-1-3.7-3.1-2-4.9-1.2c-10.2,4.6-20.7,7.5-31.7,7.3c-27.5-0.7-49.3-12-64.6-35.1c-25.4-38.7-10.9-91,30.9-111
		c21.7-10.3,43.9-10.2,65.9-0.2c1.9,0.8,3.7,2.5,4.2-1.4c0.2-1.4,1.9-1.7,3.2-1.7c5.8,0.2,11.7-0.3,17.5,0.3
		c-0.3,0.5-0.5,0.8-0.8,1.4c-3.6,3.9-3.6,3.9,0.2,7.3c1,1,2,2,3.1,3.1c4.7,4.9,4.7,4.9,9.7,0C599.2,603.7,600.4,604.1,602.6,609.2z
		 M492.7,652.1c-0.3,1-0.8,2.2-1.2,3.2c-7.3,19,3.6,41.9,23.1,47.6c14.4,4.2,27.1,1.2,37.6-9.7c10.3-10.7,13.1-23.6,8.1-37.5
		c-4.9-13.9-15.1-22-29.8-24.2c-9.7-1.5-18.3,1.4-26.3,6.6c-1.5-0.2-2.4-1.4-3.4-2.4c-3.7-3.6-7.3-7.3-10.9-11
		c-1.7-1.7-2.7-1.7-4.4,0c-2.2,2.4-4.4,4.7-6.8,6.8c-2.4,2.2-2.2,3.7,0,6.1C483.4,642.6,489,646.5,492.7,652.1z M523.4,609.5
		c-3.6,0-6.6,2.9-6.8,6.4c-0.2,3.7,2.9,7,6.6,7c3.6,0,6.6-2.9,6.8-6.4C530.2,612.6,527.1,609.5,523.4,609.5z M463.9,672.1
		c0,3.6,3.1,6.6,6.6,6.6c3.7,0,6.8-3.1,6.8-6.8c0-3.6-3.1-6.6-6.6-6.6C466.9,665.3,463.9,668.3,463.9,672.1z M577.8,665.3
		c-3.6,0-6.6,2.9-6.8,6.4c-0.2,3.7,2.9,7,6.6,7c3.6,0,6.6-2.9,6.8-6.4C584.6,668.5,581.5,665.5,577.8,665.3z M530.2,723.6
		c0.2-3.6-2.7-6.8-6.3-7c-3.7-0.2-7.1,2.7-7.1,6.4c-0.2,3.7,2.9,7,6.6,7C527,730,530,727.2,530.2,723.6z"/>
	<path class="st2" d="M167.2,539.3c27,0,53.7,0,80.7,0c5.3,0,5.4,0.2,5.4,5.4c0,10.7,0,21.2,0,31.9c0,5.4,0,5.4-5.8,5.4
		c-18.3,0-36.8,0.2-55.1,0c-3.7,0-4.6,1.2-4.6,4.6c0.2,49.3,0,98.8,0,148.2c0,5.6,0,5.6-5.6,5.6c-10.5,0-21,0-31.4,0
		c-5.6,0-5.6,0-5.6-5.6c0-49.3,0-98.5,0.2-147.8c0-3.9-1-5.1-4.9-5.1c-18.5,0.2-37,0.2-55.4,0.2c-4.9,0-5.3-0.5-5.3-5.4
		c0-10.7,0-21.5,0-32.2c0-4.6,0.7-5.1,5.1-5.1C112.3,539.3,139.7,539.3,167.2,539.3z"/>
	<path class="st2" d="M746,591.2c17.6,0.2,34.9,7.3,49.7,20.9c2.4,2.2,2.4,3.6,0,5.8c-7.5,7.1-14.7,14.6-22,21.9
		c-2.4,2.4-3.9,3.1-7,0.5c-11.9-10-25.4-11.9-39.3-5.3c-13.9,6.8-21,18.6-20.5,34.1c0.5,14.6,8,25.6,21,31.9s25.9,4.4,37.6-4.2
		c4.9-3.7,4.9-3.9,9.2,0.3c7.1,7.1,14.2,14.4,21.5,21.4c2,2,2.2,3.2,0,5.3c-11.2,10.2-24.2,17-39.2,19.7c-4.7,0.8-9.5,1.4-14.2,1.2
		c-30-1.2-52.7-14.6-67-40.9c-16.4-30.5-10.7-67,14.2-91C704.6,598.5,722.6,591.2,746,591.2z"/>
	<path class="st1" d="M314.9,667.7c0-22.2,0-44.4,0-66.8c0-5.1,0.3-5.4,5.6-5.4c10,0,19.8,0,29.8,0c1.7,0,3.7-0.3,4.2,1.7
		c1,3.4,2.9,2,4.7,1.2c9.3-4.2,18.8-6.8,29.2-7.1c3.2-0.2,4.6,0.8,4.6,4.4c-0.2,10.5-0.2,21,0,31.4c0,3.2-1.2,4.2-4.4,4.4
		c-19,1.4-33.7,17.1-33.7,36.4c0,22.4,0,44.8,0,67.1c0,5.1-0.2,5.3-5.3,5.3c-10,0-19.8,0-29.8,0c-4.7,0-4.9-0.3-5.1-5.1
		C314.9,712.8,314.9,690.2,314.9,667.7z"/>
	<path class="st0" d="M447.3,415.1c0,13.6,0,27.1,0,40.7c0,3.2-0.8,4.4-4.2,4.2c-4.4-0.2-8.8,0-13.2-0.2c-2.4,0-4.7,0.8-6.3-2.4
		c-0.8-1.7-2.5,0.2-3.7,0.7c-13.4,5.8-27,5.8-40.2-0.3c-30.7-14.4-36.3-57.1-10.3-78.7c15.6-12.9,32.7-14.6,51-6.8
		c1.4,0.5,3.1,2,3.9-0.8c0.3-1.5,2-1.2,3.4-1.2c5.3,0,10.7,0.2,15.9,0c3.1-0.2,3.7,1,3.7,3.9C447.3,387.6,447.3,401.3,447.3,415.1z
		 M424.2,414.9c0-13.2-10.5-23.9-23.7-23.9c-12.9,0-24.4,10.9-23.9,23.9c0.5,14.6,10.5,23.7,23.9,23.9
		C414.4,439,424.4,427.6,424.2,414.9z"/>
	<path class="st0" d="M289.6,426.7c-8.5,0-16.8,0-25.3,0c-1,0-2.2-0.5-2.9,0.5c-0.8,1.4,0.7,2.2,1.4,2.9c6.6,8.6,21.4,12.4,32.2,3.9
		c2.5-2,3.9-1.5,5.8,0.3c3.7,3.9,7.6,7.8,11.5,11.5c2,1.9,1.7,3.4-0.3,5.1c-26.1,22.7-68.7,9.7-76.8-24.1
		c-6.1-24.6,5.9-49.7,30.3-57c15.9-4.7,38.3-1.9,49.3,14.9c8,12,9.2,25.1,4.6,38.8c-0.8,2.4-2.4,3.1-4.7,2.9
		C306.4,426.7,298.1,426.7,289.6,426.7z M278.6,404c3.9,0,7.8,0.2,11.5,0c2.2-0.2,5.4,1.4,6.3-1.2c1-2.9-1.9-4.9-3.7-7.1
		c-0.2-0.3-0.7-0.5-1-0.7c-10-5.8-22.2-5.1-30,5.3c-0.7,0.8-1.5,1.7-1,2.7c0.5,1.4,2,1,3.1,1C268.8,404,273.7,404,278.6,404z"/>
	<path class="st0" d="M570,412.8c0-5.8-0.2-10.3,0-15.1c0.2-3.2-1-4.1-4.1-3.9c-5.3,0.2-10.7,0-15.9,0.2c-2.5,0-3.6-0.8-3.4-3.4
		c0.2-5.8,0.2-11.4,0-17.1c0-2.5,1-3.4,3.4-3.4c5.3,0.2,10.7-0.2,15.9,0.2c3.1,0.2,4.2-0.7,4.1-3.9c-0.2-5.8,0-11.7-0.2-17.5
		c0-2.7,1-3.7,3.6-3.6c5.4,0.2,10.9,0.2,16.3,0c2.5,0,3.4,1,3.4,3.6c-0.2,5.9,0,11.9,0,17.8c0,2.7,0.8,3.7,3.6,3.6
		c7.1-0.2,14.2,0,21.4-0.2c2.9,0,3.9,0.8,3.9,3.7c-0.2,5.4-0.2,10.9,0,16.3c0.2,2.9-1.2,3.7-3.9,3.7c-7.1-0.2-14.2,0-21.4,0
		c-1.7,0-3.6,0-3.6,2.4c0.2,9-0.7,18.1,0.5,27.1c0.8,8,5.6,12.9,13.2,14.7c2.7,0.7,3.6,1.9,3.4,4.4c-0.2,5.6-0.2,11.2,0,16.6
		c0,2.4-1,3.2-3.2,3.1c-17.1-1.9-31.2-13.1-35.8-29.7C569.5,425.7,570.5,418.8,570,412.8z"/>
	<path class="st3" d="M602.6,609.2c-2.2-5.1-3.4-5.4-7.1-1.9c-4.9,4.9-4.9,4.9-9.7,0c-1-1-2-2-3.1-3.1c-3.7-3.4-3.7-3.4-0.2-7.3
		c0.3-0.3,0.5-0.8,0.8-1.4c4.1-3.1,4.2-3.2,0.5-6.6c-2.4-2.2-2.2-3.9,0-5.9c2.4-2.2,4.6-4.6,6.8-7c1.4-1.4,2.5-1.4,3.9,0
		c6.8,7,13.6,13.7,20.5,20.5c1.5,1.4,1.4,2.5,0,3.9c-2.7,2.5-5.4,5.1-7.8,8C605.5,610.5,604.1,608.8,602.6,609.2z"/>
	<path class="st3" d="M504.2,638.2c-0.2,1.4,0.7,2,1.5,2.9c2.5,2.4,5.1,4.7,7.3,7.5c2.9,3.4,6.1,5.1,10.9,4.9
		c5.9-0.3,11.4,4.6,13.4,11c2,5.9,0,12.7-4.7,16.8c-5.1,4.2-12,5.3-17.3,2.5c-6.3-3.2-9.7-8.5-9.2-15.6c0.2-2.5-0.5-4.2-2.4-5.8
		c-3.9-3.4-6.6-7.8-11.4-10.3c-3.7-5.6-9.3-9.5-13.9-14.2c-2.2-2.2-2.5-3.9,0-6.1c2.4-2.2,4.7-4.4,6.8-6.8c1.5-1.7,2.7-1.7,4.4,0
		c3.6,3.7,7.3,7.3,10.9,11C501.9,636.8,502.7,638,504.2,638.2z"/>
	<path class="st3" d="M523.4,609.5c3.7,0,6.8,3.2,6.6,7c-0.2,3.6-3.2,6.4-6.8,6.4c-3.7,0-6.8-3.2-6.6-7
		C516.8,612.4,519.8,609.3,523.4,609.5z"/>
	<path class="st3" d="M463.9,672.1c0-3.7,3.1-7,6.8-6.8c3.6,0,6.6,3.1,6.6,6.6c0,3.7-3.1,6.8-6.8,6.8
		C466.9,678.7,463.9,675.8,463.9,672.1z"/>
	<path class="st3" d="M577.8,665.3c3.7,0,6.8,3.2,6.6,7c-0.2,3.6-3.2,6.4-6.8,6.4c-3.7,0-6.8-3.2-6.6-7
		C571.2,668.2,574.3,665.3,577.8,665.3z"/>
	<path class="st3" d="M530.2,723.6c-0.2,3.6-3.2,6.4-6.8,6.4c-3.7,0-6.8-3.2-6.6-7c0.2-3.7,3.4-6.6,7.1-6.4
		C527.5,716.8,530.2,720,530.2,723.6z"/>
</g>
</svg>
