<?xml version="1.0" encoding="utf-8"?>
<!-- Generator: Adobe Illustrator 24.1.2, SVG Export Plug-In . SVG Version: 6.00 Build 0)  -->
<svg version="1.1" id="Camada_1" xmlns="http://www.w3.org/2000/svg" xmlns:xlink="http://www.w3.org/1999/xlink" x="0px" y="0px"
	 viewBox="0 0 256 256" style="enable-background:new 0 0 256 256;" xml:space="preserve">
<style type="text/css">
	.st0{fill-rule:evenodd;clip-rule:evenodd;fill:#FFFFFF;}
	.st1{fill:#FFFFFF;}
</style>
<g>
	<path class="st0" d="M128,3.2C57.3,3.2,0,60.5,0,131.2c0,56.6,36.7,104.5,87.5,121.5c6.4,1.2,8.8-2.8,8.8-6.2
		c0-3.1-0.1-13.1-0.2-23.8C60.5,230.4,53,207.5,53,207.5c-5.8-14.8-14.2-18.7-14.2-18.7c-11.6-7.9,0.9-7.8,0.9-7.8
		c12.8,0.9,19.6,13.2,19.6,13.2c11.4,19.6,29.9,13.9,37.3,10.6c1.2-8.3,4.5-13.9,8.1-17.1c-28.4-3.2-58.3-14.2-58.3-63.3
		c0-14,5-25.4,13.2-34.4c-1.3-3.2-5.7-16.2,1.2-33.9c0,0,10.8-3.4,35.2,13.1c10.2-2.8,21.2-4.3,32-4.3c10.9,0.1,21.8,1.5,32.1,4.3
		c24.4-16.6,35.2-13.1,35.2-13.1c7,17.6,2.6,30.6,1.3,33.9c8.2,9,13.2,20.4,13.2,34.4c0,49.2-29.9,60-58.4,63.2
		c4.6,4,8.7,11.8,8.7,23.7c0,17.1-0.1,30.9-0.1,35.1c0,3.4,2.3,7.4,8.8,6.1c50.8-16.9,87.4-64.9,87.4-121.4
		C256,60.5,198.7,3.2,128,3.2z"/>
	<path class="st1" d="M48.5,186.9c-0.3,0.6-1.3,0.8-2.2,0.4c-0.9-0.4-1.5-1.3-1.2-1.9c0.3-0.6,1.3-0.8,2.2-0.4
		C48.3,185.4,48.8,186.3,48.5,186.9L48.5,186.9z"/>
	<path class="st1" d="M53.7,192.7c-0.6,0.6-1.8,0.3-2.6-0.6c-0.8-0.9-1-2.1-0.4-2.7c0.6-0.6,1.8-0.3,2.6,0.6
		C54.1,191,54.3,192.1,53.7,192.7L53.7,192.7z"/>
	<path class="st1" d="M58.7,200.1c-0.8,0.6-2.1,0-2.9-1.1c-0.8-1.1-0.8-2.5,0-3.1c0.8-0.6,2.1-0.1,2.9,1.1
		C59.5,198.2,59.5,199.5,58.7,200.1L58.7,200.1z"/>
	<path class="st1" d="M65.6,207.2c-0.7,0.8-2.2,0.6-3.3-0.5c-1.1-1-1.4-2.5-0.7-3.3c0.7-0.8,2.2-0.6,3.3,0.5
		C66,205,66.4,206.4,65.6,207.2L65.6,207.2z"/>
	<path class="st1" d="M75.2,211.4c-0.3,1-1.8,1.5-3.2,1c-1.4-0.4-2.4-1.6-2.1-2.6c0.3-1,1.8-1.5,3.2-1
		C74.5,209.2,75.5,210.3,75.2,211.4L75.2,211.4z"/>
	<path class="st1" d="M85.6,212.1c0,1.1-1.2,1.9-2.7,1.9c-1.5,0-2.8-0.8-2.8-1.9c0-1.1,1.2-1.9,2.7-2
		C84.4,210.2,85.6,211.1,85.6,212.1L85.6,212.1z"/>
	<path class="st1" d="M95.4,210.5c0.2,1-0.9,2.1-2.4,2.4c-1.5,0.3-2.9-0.4-3.1-1.4c-0.2-1.1,0.9-2.1,2.4-2.4
		C93.8,208.8,95.2,209.4,95.4,210.5L95.4,210.5z"/>
</g>
</svg>
