<?xml version="1.0" encoding="utf-8"?>
<!-- Generator: Adobe Illustrator 23.0.1, SVG Export Plug-In . SVG Version: 6.00 Build 0)  -->
<svg version="1.1" id="Camada_1" xmlns="http://www.w3.org/2000/svg" xmlns:xlink="http://www.w3.org/1999/xlink" x="0px" y="0px"
	 viewBox="0 0 1080 1080" style="enable-background:new 0 0 1080 1080;" xml:space="preserve">
<style type="text/css">
	.st0{fill:#4959CD;}
	.st1{fill:none;}
	.st2{fill:#FFFFFF;}
</style>
<path class="st0" d="M954.9,1080H125.1c-5.5,0-10-4.5-10-10V10c0-5.5,4.5-10,10-10h829.9c5.5,0,10,4.5,10,10v1060
	C964.9,1075.5,960.5,1080,954.9,1080z"/>
<g>
	<rect x="190.7" y="686.1" class="st1" width="610.5" height="295.1"/>
	<path class="st2" d="M278.8,784.3v9.3h-71.6V692.2h69.5v9.3h-58.8v36h52.4v9.1h-52.4v37.6H278.8z"/>
	<path class="st2" d="M433.8,725.1c5.5,5.5,8.2,13.6,8.2,24.3v44.1h-10.3v-43.1c0-7.9-1.9-13.9-5.7-18.1c-3.8-4.1-9.2-6.2-16.1-6.2
		c-7.9,0-14.1,2.4-18.7,7.3c-4.5,4.9-6.8,11.6-6.8,20.2v39.9h-10.3v-43.1c0-7.9-1.9-13.9-5.7-18.1c-3.8-4.1-9.2-6.2-16.3-6.2
		c-7.8,0-14,2.4-18.6,7.3c-4.6,4.9-6.9,11.6-6.9,20.2v39.9h-10.3v-76.1h9.8v13.9c2.7-4.6,6.5-8.2,11.3-10.7
		c4.8-2.5,10.4-3.8,16.6-3.8c6.4,0,11.9,1.4,16.6,4.1c4.7,2.7,8.2,6.7,10.5,12c2.8-5,6.8-8.9,12.1-11.8c5.3-2.8,11.3-4.3,18-4.3
		C420.8,716.8,428.3,719.6,433.8,725.1z"/>
	<path class="st2" d="M543,721.7c5.8,3.2,10.3,7.8,13.6,13.7c3.3,5.9,4.9,12.6,4.9,20.1c0,7.6-1.6,14.4-4.9,20.3
		c-3.3,5.9-7.8,10.4-13.5,13.7c-5.7,3.2-12.2,4.8-19.5,4.8c-6.2,0-11.7-1.3-16.7-3.8c-5-2.6-9-6.3-12.2-11.2v42.4h-10.3V717.4h9.8
		v15.1c3.1-5,7.2-8.9,12.2-11.6c5.1-2.7,10.8-4.1,17.2-4.1C530.7,716.8,537.2,718.4,543,721.7z M537.3,781.4
		c4.3-2.5,7.7-6,10.2-10.5c2.5-4.5,3.7-9.7,3.7-15.5c0-5.8-1.2-10.9-3.7-15.4c-2.5-4.5-5.9-8-10.2-10.5c-4.3-2.5-9.2-3.8-14.5-3.8
		c-5.4,0-10.3,1.3-14.5,3.8c-4.3,2.5-7.7,6-10.1,10.5s-3.7,9.6-3.7,15.4c0,5.8,1.2,11,3.7,15.5c2.5,4.5,5.8,8,10.1,10.5
		c4.3,2.5,9.1,3.7,14.5,3.7C528.2,785.1,533,783.9,537.3,781.4z"/>
	<path class="st2" d="M637,788.9c-1.9,1.7-4.3,3.1-7.2,4c-2.8,0.9-5.8,1.4-8.9,1.4c-7.1,0-12.6-1.9-16.5-5.8
		c-3.9-3.9-5.8-9.3-5.8-16.4v-46h-13.6v-8.7h13.6v-16.6H609v16.6h23.2v8.7H609v45.4c0,4.5,1.1,8,3.4,10.3c2.3,2.4,5.5,3.5,9.8,3.5
		c2.1,0,4.2-0.3,6.2-1c2-0.7,3.7-1.6,5.1-2.9L637,788.9z"/>
	<path class="st2" d="M732.7,717.4l-38.1,85.3c-3.1,7.1-6.7,12.2-10.7,15.2c-4.1,3-8.9,4.5-14.6,4.5c-3.7,0-7.1-0.6-10.3-1.7
		c-3.2-1.2-5.9-2.9-8.3-5.2l4.8-7.7c3.9,3.9,8.5,5.8,13.9,5.8c3.5,0,6.4-1,8.9-2.9c2.5-1.9,4.8-5.2,6.9-9.8l3.3-7.4l-34-76h10.7
		l28.7,64.7l28.7-64.7H732.7z"/>
	<path class="st2" d="M202.7,865.9h23.4v82.2h50.8v19.1h-74.3V865.9z"/>
	<path class="st2" d="M304.1,874.9c-2.6-2.4-3.9-5.4-3.9-9c0-3.6,1.3-6.6,3.9-9c2.6-2.4,6-3.6,10.1-3.6c4.1,0,7.5,1.2,10.1,3.5
		c2.6,2.3,3.9,5.2,3.9,8.7c0,3.8-1.3,6.9-3.9,9.3s-6,3.7-10.1,3.7C310.1,878.5,306.8,877.3,304.1,874.9z M303,889.4h22.6v77.9H303
		V889.4z"/>
	<path class="st2" d="M368.3,966c-6.2-1.6-11.1-3.6-14.8-6l7.5-16.2c3.5,2.2,7.7,4,12.6,5.4c4.9,1.4,9.7,2.1,14.5,2.1
		c9.6,0,14.3-2.4,14.3-7.1c0-2.2-1.3-3.8-3.9-4.8c-2.6-1-6.6-1.8-12-2.5c-6.4-1-11.6-2.1-15.8-3.3c-4.1-1.3-7.7-3.5-10.8-6.7
		s-4.6-7.7-4.6-13.6c0-4.9,1.4-9.3,4.3-13.1c2.8-3.8,7-6.8,12.4-8.9c5.5-2.1,11.9-3.2,19.3-3.2c5.5,0,11,0.6,16.4,1.8
		c5.5,1.2,10,2.9,13.5,5l-7.5,16.1c-6.9-3.9-14.3-5.8-22.4-5.8c-4.8,0-8.4,0.7-10.9,2c-2.4,1.4-3.6,3.1-3.6,5.2
		c0,2.4,1.3,4.1,3.9,5.1c2.6,1,6.8,1.9,12.4,2.8c6.4,1.1,11.6,2.2,15.6,3.4c4.1,1.2,7.6,3.4,10.6,6.6c3,3.2,4.5,7.6,4.5,13.3
		c0,4.8-1.4,9.1-4.3,12.9c-2.9,3.8-7.1,6.7-12.7,8.8c-5.5,2.1-12.1,3.1-19.8,3.1C380.8,968.4,374.4,967.6,368.3,966z"/>
	<path class="st2" d="M502.6,963.5c-2.2,1.6-4.9,2.9-8.2,3.7c-3.2,0.8-6.6,1.2-10.2,1.2c-9.3,0-16.4-2.4-21.5-7.1
		c-5.1-4.7-7.6-11.7-7.6-20.8v-32h-12v-17.4h12v-19h22.6v19h19.4v17.4h-19.4v31.7c0,3.3,0.8,5.8,2.5,7.6c1.7,1.8,4.1,2.7,7.2,2.7
		c3.6,0,6.6-1,9.1-2.9L502.6,963.5z"/>
	<path class="st2" d="M519.4,967.2h72.4v5.2h-72.4V967.2z"/>
</g>
<path class="st2" d="M876.7,127H220.9c-7.5,0-13.6-6.1-13.6-13.6V96.6c0-7.5,6.1-13.6,13.6-13.6h655.8c7.5,0,13.6,6.1,13.6,13.6
	v16.8C890.3,120.9,884.2,127,876.7,127z"/>
<g>
</g>
<g>
</g>
<g>
</g>
<g>
</g>
<g>
</g>
<g>
</g>
</svg>
