<?xml version="1.0" encoding="utf-8"?>
<!-- Generator: Adobe Illustrator 23.0.1, SVG Export Plug-In . SVG Version: 6.00 Build 0)  -->
<svg version="1.1" id="Camada_1" xmlns="http://www.w3.org/2000/svg" xmlns:xlink="http://www.w3.org/1999/xlink" x="0px" y="0px"
	 viewBox="0 0 1080 1080" style="enable-background:new 0 0 1080 1080;" xml:space="preserve">
<g>
	<path d="M412,919.2c0,31.1,0.5,62.8-0.2,94.5c-0.4,18.7-17.2,27.8-37.7,21c-57.3-19-109.5-47.4-156.4-85.3
		C114.7,866,50.4,759,32,627.9c-24.6-175.6,29.3-326,158-448.1c76.5-72.5,168.4-116.2,272.6-130.8c156.7-22,296.9,17.9,417,121.6
		c88.5,76.4,144.6,173.1,165.2,288.4c28.2,157.4-9.6,298.5-111.7,421.4C873.6,952,798.5,1002.2,710.6,1033
		c-4.6,1.6-9.3,3.2-14.1,3.6c-18.2,1.5-28.7-8-28.8-26.2c-0.1-41.9-0.3-83.8,0.3-125.7c0.5-38.7-4.4-75.5-33.3-106.6
		c18.8-3.4,36.3-6,53.5-9.9c50.2-11.3,95.6-31.5,129.3-72.5c30.3-36.9,43-80.5,48-126.9c3.8-35,3.9-69.8-6.8-103.9
		c-8-25.6-21.1-48.2-37.7-69.1c-2.8-3.6-4.4-10.4-3.2-14.7c11.8-40.6,8.3-80.3-5.5-119.7c-2.4-6.8-6.3-8.4-12.7-8.3
		c-24.5,0.3-47.3,7.9-68.9,18.4c-18.6,9-36.1,20.3-54.5,29.8c-4.8,2.5-11.5,4-16.5,2.8c-80.2-19.5-160.1-19.4-240.3,0
		c-5,1.2-12-0.3-16.5-3.1c-29.5-18.2-59.3-36.1-93.5-43.4c-46.1-10-39.8-8.4-49.7,29.9c-8.2,31.7-7.4,63.5,2.3,95.1
		c1,3.4,0,9-2.2,11.6c-45.8,53.2-54.1,115.6-45.2,182.2c5.9,43.7,18.8,84.8,47.4,119.6c33.1,40.2,77.6,60.6,126.9,72.1
		c17.7,4.2,35.8,6.8,55.3,10.4c-17.1,18.6-26.3,39.8-30.6,63.5c-0.5,2.6-4.4,5.5-7.4,6.7C350.9,869.9,297.6,860.2,264,804
		c-15.6-26-37.5-45-68.1-51.2c-8.1-1.6-17-1.2-25.2,0.5c-9.9,2.1-11.3,8.1-4.3,15.8c3.8,4.2,8.1,8.2,12.9,11.1
		c27.4,16.5,44.7,41.2,56.5,70c19.4,47.5,56.8,68.5,105.4,71.7C364,923.3,387.2,920.2,412,919.2z"/>
	<path d="M370.8,876.5c-3.8,2-7.7,5.8-11.4,5.7c-3.8-0.2-7.4-4.3-11.1-6.6c2.9-2.5,5.7-6.9,8.9-7.2c4.3-0.4,8.9,2.3,13.3,3.7
		C370.6,873.5,370.7,875,370.8,876.5z"/>
	<path d="M295.2,850.2c-6.3,3.4-10.2,6.8-11.5,6c-4.3-2.7-7.8-6.8-11.1-10.8c-0.2-0.3,5-6.4,5.9-6
		C283.4,841.6,287.7,845.1,295.2,850.2z"/>
	<path d="M318.3,879.1c-4.7-4.9-8.2-8.5-11.6-12.1c2.9-2,6.6-6.3,8.5-5.6c4.6,1.7,8.4,5.6,12.5,8.7
		C325.2,872.5,322.7,874.9,318.3,879.1z"/>
	<path d="M409.8,871.8c-4.7,2-9.3,5.2-14.1,5.6c-2.5,0.2-5.5-4.3-8.2-6.7c4.3-2.6,8.4-6.3,13.1-7.5c2.5-0.6,6.1,3,9.1,4.7
		C409.7,869.2,409.7,870.5,409.8,871.8z"/>
	<path d="M254.5,806c4.1,6.7,7.2,10.5,8.7,14.9c0.5,1.3-3.2,4.1-4.9,6.2c-3.4-3.8-7.2-7.3-9.8-11.5
		C247.8,814.6,251.1,811.2,254.5,806z"/>
	<path d="M233.7,780.5c3.9,5.6,6.7,9.3,8.8,13.2c0.2,0.4-4.9,4.5-5.4,4.1c-3.2-2.5-6.3-5.4-8.4-8.9C228.1,788,231,784.9,233.7,780.5
		z"/>
</g>
<g>
</g>
<g>
</g>
<g>
</g>
<g>
</g>
<g>
</g>
<g>
</g>
</svg>
