<?xml version="1.0" encoding="utf-8"?>
<!-- Generator: Adobe Illustrator 23.0.1, SVG Export Plug-In . SVG Version: 6.00 Build 0)  -->
<svg version="1.1" id="Camada_1" xmlns="http://www.w3.org/2000/svg" xmlns:xlink="http://www.w3.org/1999/xlink" x="0px" y="0px"
	 viewBox="0 0 1080 1080" style="enable-background:new 0 0 1080 1080;" xml:space="preserve">
<style type="text/css">
	.st0{fill:#466DD8;}
	.st1{fill:#A4B5E4;}
	.st2{fill:#01FDD7;}
	.st3{fill:#87A6FD;}
	.st4{fill:#0A3DAC;}
	.st5{fill:#3056BA;}
	.st6{fill:#456DD8;}
	.st7{fill:#7498FC;}
	.st8{fill:#7598FC;}
	.st9{fill:#002799;}
	.st10{fill:#3BFEE0;}
	.st11{fill:#577AC6;}
	.st12{fill:#0A3FAD;}
	.st13{fill:#2F56BB;}
	.st14{fill:#979797;}
	.st15{fill:#3D75FE;}
	.st16{fill:#3E76FE;}
	.st17{fill:#06FCD9;}
</style>
<g>
	<path class="st0" d="M215.5,579.6c6.1-6.1,12.2-12.2,18.3-18.3c0.8-0.8,1.4-1.7,2.5-2.1c0.4,1,0.3,2,0.3,3.1c0,32.6,0,65.2,0,97.9
		c-2.7,0.6-5.5,0.9-8.3,1.3c-2.7,0.4-5.6,0.1-8.3,1.1c-4.7,0-9.4,0-14.2,0c-0.3-0.3-0.7-0.3-1.1-0.4c-2.6-0.8-5.3,0.1-7.9-0.9
		c-0.5-4.9,0.4-9.8,0.3-14.7c-0.1-4.9,0-9.8,0-14.8c0-16.5,0-32.9,0-49.4c0-0.7-0.5-1.8,0.8-2.1c0.2,0,0.5,0.1,0.7,0.1
		c0.6,0.4,0.9,1.1,1.6,1.2c0.2,0.3,0.4,0.4,0.7,0.4c0.5,0.1,1.1,0.3,1.6,0.4c1.4,0.6,2.8,1.8,4.5,0.9c0.1-0.1,0.2-0.1,0.3-0.2
		c0.8-0.2,1.9,0.5,2.5-0.6c0.5-0.1,0.9-0.2,1.4-0.3c1.2-0.3,2.4-0.5,2.8-1.9l0,0C214.8,580.3,215.3,580.1,215.5,579.6z"/>
	<path class="st1" d="M220.2,662.4c2.7-1,5.5-0.6,8.3-1.1c2.8-0.4,5.5-0.7,8.3-1.3c1.6-0.2,3.2-0.4,4.8-0.6c-1.3,1.3-3,1-4.5,1.4
		c-2.3,0.6-4.8,0.4-6.9,1.6C226.7,662.4,223.4,662.4,220.2,662.4z"/>
	<path class="st1" d="M197,661.1c2.5,1,5.3,0.1,7.9,0.9c0.4,0.1,0.8,0.1,1.1,0.4c-2.8,0-5.5,0-8.3,0c-0.2-0.6-1.2-0.4-1.2-1.1
		C196.7,661.3,196.9,661.2,197,661.1z"/>
	<path class="st2" d="M307.1,461.3c0.2,0.1,0.3,0.3,0.5,0.4c0,0.9,0.6,1.2,1.4,1.2c0.5,0.5,0.9,1,1.4,1.4c0.1,1.2,0.8,1.9,2,2
		c0.6,0.6,1.3,1.3,1.9,1.9c0,1,0.6,1.6,1.6,1.6c0.6,0.6,1.3,1.3,1.9,1.9c0.3,1.3,1.1,2.1,2.4,2.4c0.6,0.6,1.3,1.3,1.9,1.9
		c0.1,1.2,0.8,1.9,2,2c0.7,0.6,1.4,1.2,1.9,1.9c0.6,2.3,1.6,1,2.4,0.2c12.7-12.6,25.3-25.3,37.9-37.9c5-4.9,11.3-5.4,16.9-1.2
		c0.4,0.3,0.8,0.4,1.3,0.4c0.1,0.1,0.1,0.1,0.1,0.3c0.4,1.9,2.1,3.4,2.1,5.5c0,0.4,0.3,0.9,0.8,1c0,0.3,0.1,0.5,0.1,0.8
		c-0.5,0.5-0.5,1,0,1.5c0,0.3-0.1,0.5-0.1,0.8c-1.3,2-1.8,4.4-2.9,6.5c0,0.1-0.1,0.2-0.1,0.2c-2.5,1.4-4.1,3.8-6.1,5.7
		c-0.8,0.8-1.2,1.1-2.2,0c-5-5.6-14.4-5.6-19.3-0.2c-5,5.5-4.7,13.8,0.7,18.8c1,0.9,0.8,1.3,0,2.1c-7.3,7.3-14.6,14.7-22,21.9
		c-4.2,4.1-11.2,5.1-16.3,0.9c-0.6-0.5-1.2-1.1-2-1.2c-0.5-0.3-0.9-0.7-1.2-1.2c-0.5-1.3-1.4-2.2-2.7-2.7c-0.5-0.3-0.9-0.7-1.2-1.2
		c-1.9-2.8-4.3-5.1-7.1-7.1c-0.3-0.3-0.5-0.5-0.8-0.8c-0.4-1.2-1.2-2-2.3-2.3c-0.7-0.4-1.2-1-1.6-1.6c-1.1-1.8-1.6,0-2.1,0.4
		c-27.3,27.2-54.6,54.5-81.8,81.8c-1,1-2,2-3.1,2.6c-2.9,1.6-6,2.8-9.5,1.7c-1.2-0.4-2.5-1.2-3.9-0.9c-0.1,0-0.2-0.1-0.2-0.2
		c-0.4-1.5-1.9-1.9-2.8-2.8c-6.8-6.9-13.6-13.7-20.5-20.5c-0.5-0.5-1-1.3-1.8-1.4l0,0c-1-1.8-1.7-0.4-2.4,0.3
		c-25.4,25.4-50.9,50.8-76.3,76.3c-0.4,0.4-0.9,0.8-0.9,1.4c-0.2,0.2-0.4,0.3-0.6,0.5c-0.3,0.1-0.7,0-0.9,0.2
		c-3.6,2.2-7.3,2.7-11.4,1.4c-1-0.3-1.8-1.2-2.9-0.9c-0.2-0.2-0.4-0.3-0.7-0.5c-0.1-0.7-0.5-1.1-1.3-1.1l0,0
		c-1.1-2.5-2.1-4.9-2.6-7.6c-0.2-1.1,0.9-2.1,0-3.1c0-0.3,0.1-0.5,0.1-0.8c0.4-0.1,0.7-0.4,0.8-0.8c0.6-2.5,2.2-4.2,4-5.9
		c6.8-6.7,13.5-13.5,20.3-20.3c0.6-0.6,1.3-1.1,1.2-2.1c0.4-0.5,0.8-1,1.3-1.5c11.1-11.1,22.2-22.2,33.3-33.4
		c6.1-6.1,12.1-12.2,18.1-18.3c3.4-3.4,7-6.7,10.3-10.2c4.7-4.8,12.2-5.8,17.7-1.5c2,1.6,3.6,3.4,5.4,5.1c3.3,3.1,6.2,6.5,9.7,9.4
		c2.5,3.3,5.8,5.8,8.5,8.9c1,1.2,1.6,1,2.5,0c9.2-9.2,18.4-18.4,27.6-27.6c0.5-0.5,0.9-1,1.3-1.5c0.1-0.2,0.3-0.3,0.4-0.5l0,0
		c0.1-0.1,0.3-0.3,0.4-0.4c0.1-0.1,0.3-0.3,0.4-0.4c0.1-0.1,0.3-0.3,0.4-0.4c0.1-0.1,0.3-0.3,0.4-0.4c0.1-0.1,0.3-0.3,0.4-0.4
		c0.1-0.1,0.3-0.3,0.4-0.4c0.1-0.1,0.3-0.3,0.4-0.4c0.1-0.1,0.3-0.3,0.4-0.4c0.1-0.1,0.3-0.3,0.4-0.4c0.1-0.1,0.3-0.3,0.4-0.4
		c0.1-0.1,0.3-0.3,0.4-0.4c0.1-0.1,0.3-0.3,0.4-0.4c0.1-0.1,0.3-0.3,0.4-0.4c0.1-0.1,0.3-0.3,0.4-0.4c0.1-0.1,0.3-0.3,0.4-0.4
		c0.1-0.1,0.3-0.3,0.4-0.4c0.1-0.1,0.3-0.3,0.4-0.4c0.1-0.1,0.3-0.3,0.4-0.4c0.1-0.1,0.3-0.3,0.4-0.4c0.1-0.1,0.3-0.3,0.4-0.4
		c0.1-0.1,0.3-0.3,0.4-0.4c0.1-0.1,0.3-0.3,0.4-0.4c0.1-0.1,0.3-0.3,0.4-0.4c0.1-0.1,0.3-0.3,0.4-0.4c0.1-0.1,0.3-0.3,0.4-0.4
		c0.1-0.1,0.3-0.3,0.4-0.4c0.1-0.1,0.3-0.3,0.4-0.4c0.1-0.1,0.3-0.3,0.4-0.4c0.1-0.1,0.3-0.3,0.4-0.4c0.1-0.1,0.3-0.3,0.4-0.4
		c0.1-0.1,0.3-0.3,0.4-0.4c0.1-0.1,0.3-0.3,0.4-0.4c0.1-0.1,0.3-0.3,0.4-0.4c0.1-0.1,0.3-0.3,0.4-0.4c0.1-0.1,0.3-0.3,0.4-0.4
		c0.1-0.1,0.3-0.3,0.4-0.4c0.1-0.1,0.3-0.3,0.4-0.4c0.1-0.1,0.3-0.3,0.4-0.4c0.1-0.1,0.3-0.3,0.4-0.4c0.1-0.1,0.3-0.3,0.4-0.4
		c0.1-0.1,0.3-0.3,0.4-0.4c0.1-0.1,0.3-0.3,0.4-0.4c0.1-0.1,0.3-0.3,0.4-0.4c0.1-0.1,0.3-0.3,0.4-0.4c0.1-0.1,0.3-0.3,0.4-0.4
		c0.1-0.1,0.3-0.3,0.4-0.4c0.1-0.1,0.3-0.3,0.4-0.4c0.1-0.1,0.3-0.3,0.4-0.4s0.3-0.3,0.4-0.4s0.3-0.3,0.4-0.4s0.3-0.3,0.4-0.4
		s0.3-0.3,0.4-0.4s0.3-0.3,0.4-0.4s0.3-0.3,0.4-0.4s0.3-0.3,0.4-0.4s0.3-0.3,0.4-0.4s0.3-0.3,0.4-0.4s0.3-0.3,0.4-0.4
		s0.3-0.3,0.4-0.4s0.3-0.3,0.4-0.4s0.3-0.3,0.4-0.4s0.3-0.3,0.4-0.4s0.3-0.3,0.4-0.4s0.3-0.3,0.4-0.4s0.3-0.3,0.4-0.4
		s0.3-0.3,0.4-0.4s0.3-0.3,0.4-0.4s0.3-0.3,0.4-0.4s0.3-0.3,0.4-0.4s0.3-0.3,0.4-0.4s0.3-0.3,0.4-0.4s0.3-0.3,0.4-0.4
		s0.3-0.3,0.4-0.4s0.3-0.3,0.4-0.4s0.3-0.3,0.4-0.4s0.3-0.3,0.4-0.4s0.3-0.3,0.4-0.4s0.3-0.3,0.4-0.4s0.3-0.3,0.4-0.4
		s0.3-0.3,0.4-0.4s0.3-0.3,0.4-0.4s0.3-0.3,0.4-0.4s0.3-0.3,0.4-0.4s0.3-0.3,0.4-0.4s0.3-0.3,0.4-0.4s0.3-0.3,0.4-0.4
		s0.3-0.3,0.4-0.4s0.3-0.3,0.4-0.4s0.3-0.3,0.4-0.4s0.3-0.3,0.4-0.4s0.3-0.3,0.4-0.4s0.3-0.3,0.4-0.4s0.3-0.3,0.4-0.4
		s0.3-0.3,0.4-0.4s0.3-0.3,0.4-0.4s0.3-0.3,0.4-0.4s0.3-0.3,0.4-0.4s0.3-0.3,0.4-0.4s0.3-0.3,0.4-0.4s0.3-0.3,0.4-0.4
		s0.3-0.2,0.4-0.3c0.7-0.1,1.1-0.7,1.5-1.2c4-4,7.9-8,12-11.9c3.6-3.5,7.8-4.9,12.8-3.4c0.6,0.2,1.2,0.2,1.7,0.2
		C305.7,460.3,306.2,461.3,307.1,461.3z"/>
	<path class="st3" d="M153.7,533.8c-6,6.1-12.1,12.2-18.1,18.3c-11.1,11.1-22.2,22.2-33.3,33.4c-0.5,0.5-0.8,1-1.3,1.5
		c-0.1,0-0.2-0.1-0.4-0.1c-1.4-4-2.9-8-4.1-12c-2.7-9.6-4.4-19.3-4.8-29.3c-0.4-10.6,0.4-21,2.6-31.3c2.6-12.3,7.2-23.9,13.5-34.7
		c6.2-10.7,13.7-20.3,22.7-28.6c6.9-6.4,14.4-11.9,22.6-16.6c0.2-0.1,0.4-0.1,0.6-0.1C153.6,467.4,153.7,500.6,153.7,533.8z"/>
	<path class="st4" d="M278.3,644.1c-0.1,0.1-0.2,0.2-0.3,0.2c-0.4,0-0.8,0-1.2,0.1c0-41.7,0-83.5,0-125.2c0-0.2,0-0.5,0-0.7
		c5.7-5.8,11.4-11.5,17.1-17.3c1.7-1.8,3.5-3.5,5.3-5.2c1-0.1,1.5,0.6,2.1,1.2c4.9,4.9,9.8,9.8,14.7,14.7c2.1,2.1,4.1,4.3,7.2,5.1
		c0,25.6,0,51.1,0,76.7c0,0.3,0.1,0.6,0.1,0.9c-0.1,0.2-0.2,0.4-0.3,0.6c-1.3,1-1.7,2.5-2.2,4c0,0.1-0.1,0.2-0.1,0.3
		c-1.3,1.2-2.1,2.7-2.6,4.4c-0.2,0.3-0.4,0.7-0.6,1c-0.5,0.1-0.7,0.4-0.6,0.9c0,0.1-0.1,0.2-0.2,0.3c-0.5,0.1-0.7,0.4-0.6,0.9
		c0,0.1-0.1,0.2-0.2,0.3c-1.1,0.8-1.8,1.9-2.2,3.2c0,0.1-0.1,0.2-0.2,0.3c-0.5,0.1-0.7,0.4-0.6,0.8c-0.2,0.2-0.4,0.5-0.6,0.7
		c-0.5,0.1-0.7,0.4-0.6,0.9c-0.1,0.1-0.2,0.2-0.2,0.3c-0.6,0.2-1,0.6-1,1.3c-0.2,0.2-0.4,0.5-0.6,0.7c-0.6,0.2-1,0.6-1,1.3
		c-0.2,0.2-0.4,0.5-0.6,0.7c-0.5,0.1-0.7,0.4-0.6,0.8c-0.5,0.5-0.9,1-1.4,1.5c-0.8,0.3-1.3,0.8-1.4,1.6c-1,1-1.9,2.1-2.9,3.1
		c-1.9,1.2-3.4,2.8-4.7,4.6c-0.9,0.8-1.8,1.6-2.7,2.5c-0.9,0.1-1.4,0.6-1.6,1.4c-0.4,0.3-0.8,0.6-1.1,0.9c-0.7,0-1.1,0.4-1.2,1
		c-0.2,0.2-0.5,0.4-0.7,0.5c-0.7,0-1.1,0.4-1.2,1c-0.2,0.2-0.5,0.4-0.7,0.6c-0.7,0-1.1,0.3-1.3,0.9c-0.1,0.1-0.2,0.2-0.3,0.2
		c-0.5-0.1-0.8,0.1-0.9,0.6c-0.2,0.2-0.5,0.4-0.7,0.6c-0.5-0.1-0.8,0.1-0.9,0.6c-0.1,0.1-0.2,0.2-0.3,0.2c-1.7,0.6-3.2,1.6-4.4,2.9
		c-0.1,0.1-0.2,0.2-0.3,0.2C278.7,643.5,278.4,643.7,278.3,644.1z"/>
	<path class="st5" d="M276.8,519.2c0,41.7,0,83.5,0,125.2c-0.7,1-2.5,0.7-2.8,2.2c-2.4,1.6-4.9,2.8-7.4,4c-0.5-0.1-0.8,0.1-1,0.5
		c-1.1,0.5-2.1,0.9-3.2,1.4c-0.2-0.2-0.5-0.1-0.7,0c-4.1,1.8-8.3,3.2-12.5,4.7c-2.3,0.8-4.8,1-7,2.1c-0.2,0-0.5,0.1-0.7,0.1
		c-1.6,0.2-3.2,0.4-4.8,0.6c0-32.6,0-65.2,0-97.9c0-1,0-2.1-0.3-3.1c2.4-3.2,5.5-5.7,8.3-8.6c4.4-4.5,8.9-8.8,13.3-13.2
		c1,0,1.4-0.9,2-1.4C265.6,530.3,271.2,524.7,276.8,519.2z"/>
	<path class="st6" d="M236.7,516.5c-0.4,0.5-0.8,1-1.3,1.5c-9.2,9.2-18.4,18.4-27.6,27.6c-1,1-1.5,1.2-2.5,0c-2.7-3.1-6-5.7-8.5-8.9
		c0.9-0.7,0.5-1.7,0.5-2.6c0-31.4,0-62.8,0-94.1c0-1.7,0-3.4-0.4-5.1c0.6-1.1,0.6-2.3,0-3.4c0.3-2.4-0.5-4.8-0.4-7.2
		c0.6-0.5,0.6-1,0-1.5c0-0.9,0-1.9,0-2.8c2.2-0.4,4.3-0.7,6.5-0.8c0.7,0,1.5,0.3,1.8-0.7c6,0,12.1,0,18.1,0.1c0.1,0.6,0.5,0.6,1,0.7
		c3.2,0.1,6.3,0.5,9.4,1.1c0.5,0.1,1.2,0.2,1.7-0.2c0.3,0,0.6,0.1,0.8,0.1c0.3,0.3,0.5,0.6,0.8,0.9c0,30.7,0,61.3,0,92
		c0,0.8-0.1,1.7,0.4,2.5c0,0.1,0,0.3,0,0.4l0,0C237,516.2,236.8,516.3,236.7,516.5z"/>
	<path class="st7" d="M196.9,434.9c0.5,1.7,0.4,3.4,0.4,5.1c0,31.4,0,62.8,0,94.1c0,0.9,0.3,1.9-0.5,2.6c-3.5-2.9-6.4-6.3-9.7-9.4
		c-1.8-1.7-3.4-3.6-5.4-5.1c-5.5-4.3-13-3.3-17.7,1.5c-3.4,3.5-6.9,6.8-10.3,10.2c0-33.2,0-66.4,0-99.7c0.3-0.2,0.7-0.3,1-0.5
		c0.6,0.1,0.9-0.1,1-0.7c0.2,0,0.4-0.1,0.6-0.1c0.6,0.1,1-0.1,1-0.7c1.2-0.6,2.3-1.5,3.7-1.7c0.6,0.1,1,0,1-0.7
		c0.2,0,0.4-0.1,0.6-0.1c0.5,0.1,0.9,0,1-0.6c0.4-0.3,0.9-0.5,1.4-0.5c2.3-0.6,4.5-1.2,6.4-2.7c0.4-0.1,0.8-0.3,1.2-0.4
		c0.6,0.6,0.7,0.2,0.8-0.3c0.5-0.4,1-0.5,1.6-0.5c0.6,0.6,0.7,0.2,0.8-0.3c0.4-0.1,0.8-0.3,1.2-0.4c1.7,0,3.5,0,4.7-1.5
		c0.3,0,0.5-0.1,0.8-0.1c1.1,0.8,1.8,0.4,2.4-0.7c0.4,0,0.8-0.1,1.2-0.1c1,0.8,1.5,0.2,2-0.6c0.5-0.1,1-0.1,1.5-0.2
		c1,0.8,1.7,0.1,2.4-0.6c0.3,0,0.5,0,0.8-0.1c1.3,0.8,2.6,0,3.8-0.1c0,0.9,0,1.9,0,2.8c-0.4,0.5-0.4,1,0,1.5
		c-0.1,2.4,0.7,4.8,0.4,7.2C196.4,432.6,196.4,433.8,196.9,434.9z"/>
	<path class="st8" d="M197,661.1c-0.2,0.1-0.4,0.1-0.6,0.2c-0.2,0-0.5-0.1-0.7-0.1c-0.1-0.5-0.2-0.9-0.8-0.4c-0.4,0-0.8,0-1.2,0.1
		c-0.4,0-0.8-0.1-1.2-0.1c-0.3-0.4-0.8-0.3-1.2-0.2c-0.3,0-0.5-0.1-0.8-0.1c-0.3-0.4-0.7-0.3-1.2-0.3c-0.4,0-0.8-0.1-1.2-0.1
		c-0.7-0.4-1.5-0.8-2.4-0.6c-0.4,0-0.8-0.1-1.1-0.1c-0.1-0.6-0.5-0.6-1-0.8c-4.7-1.3-9.4-2.4-13.9-4.3c-1.7-0.7-3.3-1.8-5.2-1.9
		c-0.7,0-1.3-0.4-1.9-0.7c-2.2-1.6-4.6-2.7-7.1-3.6c-0.4-0.2-0.8-0.4-1.2-0.6c-0.3-0.7-0.9-0.9-1.6-1c-0.1-0.1-0.2-0.1-0.4-0.2
		c-0.1-0.2-0.3-0.4-0.4-0.6c0-1-0.1-2,0-2.9c0.8-4.7,0.9-9.5,1.1-14.2c0.2-4.9,0-9.9,0-14.9c0-5.9,0-11.8,0-17.6c0-5.5,0-11,0-16.5
		c0-0.7,0.4-1.7-0.8-1.9c0.3-0.4,0.6-0.8,0.9-1.1c0.8-0.1,1.2-0.8,1.7-1.2c4.4-4.4,8.9-8.8,13.3-13.3c1.8-1.8,3.8-3.5,5.4-5.6
		c1.4,0.6,2.1,1.9,3.2,2.8c0,0.7,0.4,1.1,1.2,1.2c0.9,0.9,1.9,1.9,2.8,2.8c0,0.7,0.4,1.1,1.2,1.2c0.9,0.9,1.9,1.9,2.8,2.8
		c0.1,0.9,0.7,1.4,1.6,1.5c0.8,0.8,1.6,1.6,2.4,2.4c0,0.7,0.4,1.1,1.2,1.2c0.9,0.9,1.8,1.9,2.8,2.8c0.1,0.7,0.4,1.1,1.2,1.2
		c1.2,1.2,2.4,2.3,3.6,3.5c0.3,0.3,0.5,0.5,0.8,0.8c-1.3,0.3-0.8,1.4-0.8,2.1c0,16.5,0,32.9,0,49.4c0,4.9-0.1,9.8,0,14.8
		C197.4,651.3,196.6,656.2,197,661.1z"/>
	<path class="st3" d="M152.4,577.4c1.2,0.2,0.8,1.2,0.8,1.9c0,5.5,0,11,0,16.5c0,5.9,0,11.8,0,17.6c0,5,0.1,9.9,0,14.9
		c-0.2,4.7-0.3,9.5-1.1,14.2c-0.2,1,0,2,0,2.9c-1.6-0.5-2.6-2-4.3-2.3c-0.1-0.1-0.3-0.1-0.4-0.2c-0.1-0.4-0.4-0.6-0.8-0.6
		c-0.1,0-0.3-0.1-0.4-0.1c-0.4-0.8-1.1-1.3-2-1.4c-0.1-0.1-0.2-0.1-0.4-0.2c-0.4-1.1-1.4-1.5-2.4-1.8c-0.1,0-0.3-0.1-0.4-0.1
		c-0.1-0.7-0.5-1-1.2-1c-0.3-0.2-0.5-0.3-0.8-0.5c0-0.5-0.3-0.7-0.8-0.7c-0.3-0.2-0.5-0.4-0.8-0.5c-0.1-0.7-0.5-1-1.2-1
		c-0.4-0.3-0.8-0.6-1.2-0.9c-0.2-0.8-0.7-1.3-1.6-1.4c-0.4-0.3-0.8-0.6-1.2-0.9c-0.4-1.1-1.2-1.9-2.3-2.2c-1.9-1.5-3.6-3.3-5.2-5.1
		c-0.5-1.3-1.4-2.2-2.6-2.7c-0.3-0.4-0.6-0.8-0.9-1.2c0-0.7-0.4-1.1-1.1-1.2c-0.3-0.4-0.6-0.8-0.9-1.2c0-0.7-0.4-1.1-1-1.2
		c-0.4-0.1-0.5-0.4-0.5-0.8c0-0.7-0.4-1.1-1-1.2c-0.1-0.1-0.1-0.2-0.2-0.3c0-0.4,0-0.9,0-1.3c0.6-0.6,1.2-1.3,1.7-1.9
		c0.7-0.1,1-0.4,1.1-1.1c0.9-0.9,1.9-1.9,2.8-2.8c0.7-0.1,1-0.4,1.1-1.1c0.9-0.9,1.9-1.9,2.8-2.8c0.7-0.1,1-0.4,1.1-1.1
		c0.9-0.9,1.9-1.9,2.8-2.8c0.7-0.1,1-0.4,1.1-1.1c0.8-0.8,1.6-1.6,2.4-2.5c0.8-0.2,1.3-0.6,1.5-1.5c0.8-0.8,1.6-1.6,2.4-2.5
		c0.8-0.2,1.3-0.6,1.5-1.5c0.8-0.8,1.6-1.6,2.4-2.5c0.8-0.2,1.3-0.7,1.5-1.5c0.8-0.8,1.6-1.6,2.4-2.5c0.8-0.2,1.3-0.6,1.5-1.5
		c0.8-0.8,1.6-1.6,2.4-2.5c0.8-0.2,1.3-0.7,1.5-1.5C151.4,578.3,151.9,577.9,152.4,577.4z"/>
	<path class="st9" d="M323.3,593.6c0-25.6,0-51.1,0-76.7c0.8,0,1.7-0.1,2.4,0.5c0.5,0.4,1.3,0.4,1.7,0.2c1.3-0.8,2.8-0.5,4.1-1.1
		c1-0.5,1.5-0.4,1.8,1c1.2,5.4,1.7,10.8,2.1,16.3c0.6,10.9-0.2,21.7-2.5,32.4c-1.5,6.9-3.5,13.7-6.3,20.3c-0.7,1.6-1.5,3.2-1.8,4.9
		c0,0.1,0,0.2-0.1,0.4c-0.8,0.1-1.1,0.5-0.7,1.3c-0.1,0.2-0.2,0.4-0.3,0.6C323.7,593.5,323.5,593.5,323.3,593.6z"/>
	<path class="st10" d="M317.4,506.2c0.8,0.1,1.4,0.7,2,1.2c5.1,4.2,12.2,3.2,16.3-0.9c7.4-7.2,14.7-14.6,22-21.9
		c0.8-0.8,1-1.2,0-2.1c-5.5-5.1-5.7-13.3-0.7-18.8c4.9-5.4,14.3-5.4,19.3,0.2c1,1.1,1.4,0.8,2.2,0c2.1-1.9,3.7-4.3,6.1-5.7
		c-0.1,0.9-0.8,1.3-1.4,1.8c-15.5,15.5-30.9,31-46.4,46.4c-4.3,4.3-9.3,5.4-15,3.3C320.1,509.1,318.4,508,317.4,506.2z"/>
	<path class="st10" d="M200,574.8c1.4-0.2,2.7,0.5,3.9,0.9c3.6,1.2,6.6,0,9.5-1.7c1.2-0.6,2.2-1.7,3.1-2.6
		c27.3-27.3,54.5-54.5,81.8-81.8c0.5-0.5,1-2.2,2.1-0.4c-1,0-1.5,0.7-2.1,1.3c-27,27-54,54-81,81c-2.6,2.6-5.4,4.8-9.2,5.2
		C205.2,577.1,202.4,576.7,200,574.8z"/>
	<path class="st11" d="M324.9,591.2c0.2-1.8,1.1-3.3,1.8-4.9c2.8-6.5,4.8-13.3,6.3-20.3c2.3-10.6,3.1-21.5,2.5-32.4
		c-0.3-5.5-0.8-10.9-2.1-16.3c-0.3-1.3-0.9-1.4-1.8-1c-1.3,0.6-2.8,0.3-4.1,1.1c-0.4,0.3-1.2,0.2-1.7-0.2c-0.8-0.6-1.6-0.5-2.4-0.5
		c-3-0.8-5.1-3-7.2-5.1c-4.9-4.9-9.8-9.8-14.7-14.7c-0.6-0.6-1.1-1.3-2.1-1.2c0.9-1.3,1.5-0.3,2.1,0.3c4.8,4.8,9.6,9.5,14.3,14.3
		c1.6,1.6,3.2,3.2,5.1,4.6c0.9,0.7,2,0.6,2.9,1c2.9,1.3,5.8,0.2,8.6-0.7c1.4-0.5,1.4,0.1,1.6,1c0.9,3.6,1.4,7.3,1.7,11.1
		c0.9,11.7,0.9,23.5-1.3,35.1c-1.8,9.6-4.7,18.9-8.7,27.9C325.5,590.8,325.3,591.1,324.9,591.2z"/>
	<path class="st10" d="M95,627.8c0-0.7,0.5-1,0.9-1.4c25.4-25.4,50.8-50.9,76.3-76.3c0.6-0.6,1.4-2,2.4-0.3
		c-1.1-0.2-1.7,0.5-2.3,1.2c-25,25-50.1,50.1-75.1,75.1C96.5,626.8,96,627.7,95,627.8z"/>
	<path class="st11" d="M236.7,421.2c-0.3-0.3-0.5-0.6-0.8-0.9c2.5-0.3,4.9,0.7,7.3,1.3c24.2,6.1,44.8,18.4,61.6,36.9
		c0.8,0.9,1.9,1.6,2.4,2.8c-0.9,0-1.4-1-2.2-1.2c-0.2-0.4-0.4-0.8-0.7-1.2c-3-3.6-6.4-6.8-10-10c-5.3-4.7-10.9-8.9-17-12.5
		c-0.8-0.5-1.6-0.9-2.3-1.4c-4.5-2.6-9.1-4.9-13.8-6.8c-4.9-2-9.7-4-14.9-5.1C243,422.5,240,421.1,236.7,421.2z"/>
	<path class="st10" d="M384.6,441.7c-0.5,0-0.9-0.1-1.3-0.4c-5.6-4.2-12-3.8-16.9,1.2c-12.6,12.6-25.3,25.3-37.9,37.9
		c-0.8,0.8-1.8,2.2-2.4-0.2c1.2,0.6,1.8-0.2,2.5-0.9c12.1-12.1,24.2-24.2,36.2-36.3c2.6-2.6,5.4-5,9.3-5.3
		C378.2,437.4,381.9,438.3,384.6,441.7z"/>
	<path class="st10" d="M100.6,586.9c0.1,0,0.2,0,0.4,0.1c0.1,1-0.7,1.5-1.2,2.1c-6.8,6.8-13.5,13.5-20.3,20.3
		c-1.7,1.7-3.4,3.5-4,5.9c-0.1,0.4-0.3,0.7-0.8,0.8c0-2.7,1.7-4.6,3.4-6.4c6.9-7,14-14,20.9-21C99.6,588.1,100.1,587.5,100.6,586.9z
		"/>
	<path class="st10" d="M174.5,549.8c0.9,0.1,1.3,0.8,1.8,1.4c6.9,6.8,13.7,13.6,20.5,20.5c0.9,1,2.5,1.3,2.8,2.8
		c-1.2-0.3-2-1.2-2.8-2c-7.2-7.1-14.4-14.3-21.5-21.5C175,550.8,174.5,550.5,174.5,549.8z"/>
	<path class="st1" d="M173.7,556.1c-1.6,2.1-3.6,3.8-5.4,5.6c-4.4,4.5-8.8,8.9-13.3,13.3c-0.5,0.5-0.9,1.2-1.7,1.2
		c-0.1-0.8,0.6-1.1,1-1.6c5.9-6,11.9-11.9,17.9-17.8C172.6,556.5,172.8,555.5,173.7,556.1z"/>
	<path class="st11" d="M276.8,519.2c-5.6,5.6-11.2,11.1-16.9,16.7c-0.6,0.6-1,1.4-2,1.4c0.4-1.1,1.4-1.7,2.1-2.5
		c5.1-5.2,10.2-10.3,15.4-15.4c0.4-0.4,0.7-1,1.4-1C276.8,518.7,276.8,518.9,276.8,519.2z"/>
	<path class="st1" d="M164.6,652.2c1.9,0.1,3.5,1.2,5.2,1.9c4.5,1.9,9.2,3,13.9,4.3c0.5,0.1,0.9,0.2,1,0.8c-1.6,0.4-3-0.5-4.4-0.9
		c-4.8-1.4-9.6-3.1-14.2-5C165.5,653.2,164.8,653,164.6,652.2z"/>
	<path class="st1" d="M242.2,659.4c2.2-1.2,4.7-1.3,7-2.1c4.2-1.4,8.4-2.9,12.5-4.7c0.2-0.1,0.5-0.2,0.7,0c-1.5,1.7-3.7,2-5.7,2.7
		c-4.4,1.7-8.8,3.2-13.4,4.2C242.9,659.6,242.5,659.7,242.2,659.4z"/>
	<path class="st10" d="M79.2,629c1.1-0.3,2,0.6,2.9,0.9c4.1,1.3,7.8,0.7,11.4-1.4c0.3-0.2,0.6-0.1,0.9-0.2c-2.3,2.8-5.6,3.3-8.8,3.1
		C83.3,631.3,80.8,631.1,79.2,629z"/>
	<path class="st11" d="M235,420.1c-0.5,0.4-1.1,0.3-1.7,0.2c-3.1-0.6-6.2-1.1-9.4-1.1c-0.5,0-0.9-0.1-1-0.7
		C227.1,418.3,231.1,418.8,235,420.1z"/>
	<path class="st3" d="M196.5,420c-1.3,0.1-2.5,0.9-3.8,0.1c3.9-1.4,8-1.9,12.2-1.6c-0.3,1-1.2,0.6-1.8,0.7
		C200.8,419.2,198.6,419.5,196.5,420z"/>
	<path class="st10" d="M74.6,616.8c0.9,1-0.2,2,0,3.1c0.5,2.7,1.5,5.1,2.6,7.6c-0.9-0.3-1.5-1.2-1.7-2c-0.7-1.9-1.2-4-1.7-6
		C73.6,618.5,73.8,617.5,74.6,616.8z"/>
	<path class="st10" d="M305.2,494c2.8,1.9,5.1,4.3,7.1,7.1C309.6,499,307.2,496.7,305.2,494z"/>
	<path class="st10" d="M384.8,457.9c1.1-2.1,1.6-4.5,2.9-6.5C387.3,453.9,387,456.3,384.8,457.9z"/>
	<path class="st1" d="M155.6,647.9c2.5,1,4.9,2.1,7.1,3.6C160.1,650.9,157.7,649.8,155.6,647.9z"/>
	<path class="st10" d="M387.6,448.4c-0.5-0.1-0.8-0.6-0.8-1c0-2.1-1.6-3.6-2.1-5.5C386.9,443.6,387.4,445.9,387.6,448.4z"/>
	<path class="st11" d="M297.6,629.3c1.2-1.9,2.8-3.4,4.7-4.6C301.1,626.5,299.6,628.1,297.6,629.3z"/>
	<path class="st3" d="M171.3,425.9c-1.9,1.5-4.2,2.1-6.4,2.7C166.8,427,169.1,426.4,171.3,425.9z"/>
	<path class="st1" d="M147.8,643.2c1.7,0.3,2.8,1.8,4.3,2.3c0.1,0.2,0.3,0.4,0.4,0.6C150.6,645.7,149,644.8,147.8,643.2z"/>
	<path class="st11" d="M279.5,643.4c1.2-1.4,2.7-2.3,4.4-2.9C282.8,641.9,281.3,642.8,279.5,643.4z"/>
	<path class="st11" d="M274.1,646.6c0.3-1.5,2-1.3,2.8-2.2c0.4,0,0.8,0,1.2-0.1C277,645.6,275.6,646.2,274.1,646.6z"/>
	<path class="st1" d="M207.3,583.2c-1.7,0.9-3.1-0.3-4.5-0.9C204.4,582,205.9,582.5,207.3,583.2z"/>
	<path class="st11" d="M318.2,603.9c0.4-1.7,1.3-3.2,2.6-4.4C320.2,601.1,319.6,602.7,318.2,603.9z"/>
	<path class="st3" d="M181.6,422.5c-1.3,1.5-3,1.5-4.7,1.5C178.3,423,180,422.8,181.6,422.5z"/>
	<path class="st11" d="M320.9,599.1c0.5-1.5,0.9-3,2.2-4C322.9,596.7,322.1,598,320.9,599.1z"/>
	<path class="st10" d="M313.5,502.2c1.3,0.5,2.2,1.4,2.7,2.7C314.9,504.4,314,503.5,313.5,502.2z"/>
	<path class="st1" d="M122.3,621.5c1.2,0.6,2.2,1.4,2.6,2.7C123.7,623.7,122.7,622.9,122.3,621.5z"/>
	<path class="st11" d="M313.9,610.5c0.4-1.3,1.1-2.4,2.2-3.2C315.7,608.6,315.1,609.8,313.9,610.5z"/>
	<path class="st10" d="M302.1,490.8c1.2,0.4,2,1.2,2.3,2.3C303.3,492.7,302.5,491.9,302.1,490.8z"/>
	<path class="st10" d="M320.2,474.2c-1.3-0.2-2.1-1.1-2.4-2.4C318.9,472.4,319.7,473.2,320.2,474.2z"/>
	<path class="st1" d="M130.1,629.4c1.2,0.3,1.9,1.1,2.3,2.2C131.2,631.4,130.5,630.5,130.1,629.4z"/>
	<path class="st1" d="M214.3,580.2c-0.4,1.4-1.7,1.6-2.8,1.9C212.1,581.1,213.2,580.6,214.3,580.2z"/>
	<path class="st1" d="M141.5,638.8c1,0.3,1.9,0.7,2.4,1.8C142.7,640.4,141.8,640,141.5,638.8z"/>
	<path class="st10" d="M324.2,478.2c-1.2-0.1-1.9-0.8-2-2C323.1,476.6,323.8,477.2,324.2,478.2z"/>
	<path class="st10" d="M312.4,466.4c-1.2-0.1-1.9-0.8-2-2C311.3,464.8,312,465.4,312.4,466.4z"/>
	<path class="st1" d="M210,582.3c-0.6,1.1-1.6,0.4-2.5,0.6C208.1,581.5,209.2,582.5,210,582.3z"/>
	<path class="st3" d="M184.7,421.7c-0.6,1-1.3,1.5-2.4,0.7C183.1,421.8,183.9,421.7,184.7,421.7z"/>
	<path class="st1" d="M144.2,640.8c0.9,0.2,1.6,0.6,2,1.4C145.2,642.2,144.4,641.9,144.2,640.8z"/>
	<path class="st3" d="M191.8,420.2c-0.7,0.7-1.4,1.4-2.4,0.6C190.2,420.2,191,420.1,191.8,420.2z"/>
	<path class="st1" d="M185.9,659.4c0.9-0.2,1.6,0.2,2.4,0.6C187.3,660.4,186.5,660.2,185.9,659.4z"/>
	<path class="st1" d="M143,586.6c-0.2,0.8-0.7,1.3-1.5,1.5C141.6,587.2,142.1,586.7,143,586.6z"/>
	<path class="st1" d="M147,582.6c-0.2,0.8-0.7,1.3-1.5,1.5C145.6,583.2,146.1,582.7,147,582.6z"/>
	<path class="st11" d="M293.3,633.2c0.2-0.8,0.7-1.3,1.6-1.4C294.7,632.5,294.1,633,293.3,633.2z"/>
	<path class="st1" d="M150.9,578.7c-0.2,0.8-0.7,1.3-1.5,1.5C149.5,579.3,150,578.8,150.9,578.7z"/>
	<path class="st1" d="M186.3,568.4c-0.9-0.1-1.4-0.7-1.6-1.5C185.6,567,186.1,567.5,186.3,568.4z"/>
	<path class="st11" d="M305.2,621.5c0.1-0.9,0.6-1.4,1.4-1.6C306.5,620.7,306,621.2,305.2,621.5z"/>
	<path class="st3" d="M187.9,420.9c-0.5,0.8-1,1.4-2,0.6C186.5,421.1,187.1,420.8,187.9,420.9z"/>
	<path class="st10" d="M315.9,469.9c-1,0-1.6-0.6-1.6-1.6C315.1,468.6,315.6,469.1,315.9,469.9z"/>
	<path class="st1" d="M135.2,594.5c-0.2,0.8-0.7,1.3-1.5,1.5C133.8,595,134.2,594.5,135.2,594.5z"/>
	<path class="st1" d="M133.6,632.5c0.9,0.1,1.4,0.6,1.6,1.4C134.2,634,133.8,633.4,133.6,632.5z"/>
	<path class="st1" d="M139.1,590.5c-0.2,0.8-0.7,1.3-1.5,1.5C137.7,591.1,138.2,590.6,139.1,590.5z"/>
	<path class="st10" d="M387.8,450.7c-0.5-0.5-0.5-1,0-1.5C388.2,449.6,388.2,450.2,387.8,450.7z"/>
	<path class="st10" d="M309,462.9c-0.8,0-1.4-0.3-1.4-1.2C308.3,461.8,308.7,462.2,309,462.9z"/>
	<path class="st1" d="M152.9,646.3c0.7,0.1,1.3,0.3,1.6,1C153.7,647.4,153.1,647.2,152.9,646.3z"/>
	<path class="st1" d="M193.8,575.9c-0.7,0-1.1-0.4-1.2-1.2C193.3,574.8,193.7,575.1,193.8,575.9z"/>
	<path class="st1" d="M119.4,610.2c-0.1,0.7-0.4,1-1.1,1.1C118.3,610.6,118.7,610.2,119.4,610.2z"/>
	<path class="st1" d="M139.9,637.7c0.7,0,1.1,0.3,1.2,1C140.3,638.8,140,638.3,139.9,637.7z"/>
	<path class="st11" d="M287,638.2c0.2-0.6,0.6-1,1.3-0.9C288.1,637.9,287.7,638.3,287,638.2z"/>
	<path class="st11" d="M289,636.7c0.2-0.7,0.5-1,1.2-1C290.1,636.3,289.7,636.7,289,636.7z"/>
	<path class="st1" d="M116.8,614.8c0.7,0.1,1,0.5,1,1.2C117.1,615.9,116.7,615.6,116.8,614.8z"/>
	<path class="st1" d="M136.4,634.9c0.7,0,1.1,0.4,1.2,1C136.8,636,136.4,635.6,136.4,634.9z"/>
	<path class="st1" d="M178,560.1c-0.7-0.1-1.1-0.4-1.2-1.2C177.6,559,178,559.4,178,560.1z"/>
	<path class="st1" d="M182,564c-0.7-0.1-1.1-0.4-1.2-1.2C181.5,563,181.9,563.3,182,564z"/>
	<path class="st1" d="M189.8,571.9c-0.7-0.1-1.1-0.4-1.2-1.2C189.4,570.8,189.8,571.2,189.8,571.9z"/>
	<path class="st11" d="M290.9,635.1c0.2-0.7,0.5-1,1.2-1C292,634.8,291.6,635.1,290.9,635.1z"/>
	<path class="st11" d="M310.7,614.8c0-0.7,0.3-1.1,1-1.3C311.7,614.3,311.3,614.6,310.7,614.8z"/>
	<path class="st10" d="M77.2,627.5c0.8-0.1,1.2,0.3,1.3,1.1C77.8,628.5,77.4,628.1,77.2,627.5z"/>
	<path class="st1" d="M120.3,619.1c0.7,0.1,1,0.5,1.1,1.2C120.7,620.2,120.3,619.9,120.3,619.1z"/>
	<path class="st11" d="M324.1,592.8c-0.4-0.8-0.2-1.2,0.7-1.3C324.9,592.2,324.7,592.6,324.1,592.8z"/>
	<path class="st1" d="M131.2,598.4c-0.1,0.7-0.4,1-1.1,1.1C130.1,598.8,130.5,598.4,131.2,598.4z"/>
	<path class="st1" d="M127.3,602.3c-0.1,0.7-0.4,1-1.1,1.1C126.2,602.7,126.6,602.3,127.3,602.3z"/>
	<path class="st1" d="M118.3,616.8c0.7,0.1,1,0.5,1,1.2C118.7,617.9,118.3,617.5,118.3,616.8z"/>
	<path class="st1" d="M123.3,606.3c-0.1,0.7-0.4,1-1.1,1.1C122.3,606.6,122.6,606.3,123.3,606.3z"/>
	<path class="st11" d="M309.1,616.8c0-0.7,0.4-1.1,1-1.3C310.2,616.3,309.8,616.6,309.1,616.8z"/>
	<path class="st1" d="M191.4,660.5c0.4-0.1,0.8-0.1,1.2,0.2C192,661.4,191.7,661.2,191.4,660.5z"/>
	<path class="st1" d="M116.6,613.2c0,0.4,0,0.9,0,1.3C115.6,614.1,115.7,613.6,116.6,613.2z"/>
	<path class="st1" d="M198.1,580.2c-0.3-0.3-0.5-0.5-0.8-0.8c0.6,0.2,1.4-0.1,1.5,0.9C198.6,580.2,198.4,580.2,198.1,580.2z"/>
	<path class="st1" d="M193.8,660.9c0.4,0,0.8,0,1.2-0.1c0,0.1,0,0.3,0,0.4C194.4,661.8,194,661.6,193.8,660.9z"/>
	<path class="st1" d="M189.4,660.1c0.4,0,0.9-0.1,1.2,0.3C190,661.1,189.7,660.8,189.4,660.1z"/>
	<path class="st1" d="M215.5,579.6c-0.3,0.5-0.7,0.7-1.2,0.6C214.4,579.4,214.9,579.5,215.5,579.6z"/>
	<path class="st3" d="M173.3,425.1c-0.1,0.5-0.2,0.9-0.8,0.3C172.7,425.2,173,425.1,173.3,425.1z"/>
	<path class="st11" d="M316.2,607c-0.1-0.5,0.1-0.8,0.6-0.9C316.9,606.6,316.7,606.9,316.2,607z"/>
	<path class="st11" d="M317,605.8c-0.1-0.5,0.1-0.8,0.6-0.9C317.7,605.4,317.5,605.7,317,605.8z"/>
	<path class="st11" d="M307.9,618.3c0-0.5,0.2-0.7,0.6-0.8C308.6,618,308.4,618.3,307.9,618.3z"/>
	<path class="st1" d="M201.2,581.8c-0.3,0-0.6-0.1-0.7-0.4C201.1,580.9,201.2,581.2,201.2,581.8z"/>
	<path class="st3" d="M155.6,433c0,0.6-0.4,0.8-1,0.7C154.8,433.2,155.1,433,155.6,433z"/>
	<path class="st11" d="M323.3,593.6c0.2,0,0.4-0.1,0.6-0.1c0.2,0.5-0.1,0.8-0.5,1C323.3,594.2,323.3,593.9,323.3,593.6z"/>
	<path class="st3" d="M157.2,432.2c0,0.7-0.4,0.8-1,0.7C156.4,432.4,156.7,432.2,157.2,432.2z"/>
	<path class="st1" d="M138.3,636.5c0.5,0,0.7,0.2,0.8,0.7C138.6,637.2,138.3,637,138.3,636.5z"/>
	<path class="st3" d="M161.9,429.8c0,0.6-0.4,0.8-1,0.7C161.1,430.1,161.4,429.8,161.9,429.8z"/>
	<path class="st3" d="M163.5,429.1c-0.1,0.6-0.4,0.8-1,0.6C162.7,429.3,163,429,163.5,429.1z"/>
	<path class="st11" d="M285.8,639.1c0.1-0.5,0.4-0.7,0.9-0.6C286.6,638.9,286.3,639.1,285.8,639.1z"/>
	<path class="st11" d="M284.3,640.2c0.1-0.5,0.4-0.7,0.9-0.6C285,640.1,284.8,640.3,284.3,640.2z"/>
	<path class="st1" d="M146.6,642.4c0.4,0,0.7,0.2,0.8,0.6C146.8,643.1,146.6,642.9,146.6,642.4z"/>
	<path class="st3" d="M175.7,424.3c-0.1,0.5-0.2,1-0.8,0.3C175.1,424.4,175.3,424.3,175.7,424.3z"/>
	<path class="st1" d="M265.6,651.2c0.2-0.4,0.5-0.6,1-0.5C266.5,651.2,266.2,651.4,265.6,651.2z"/>
	<path class="st11" d="M311.9,613.2c-0.1-0.5,0.1-0.8,0.6-0.9C312.6,612.9,312.4,613.2,311.9,613.2z"/>
	<path class="st11" d="M313,611.7c-0.1-0.5,0.2-0.8,0.6-0.8C313.8,611.3,313.5,611.6,313,611.7z"/>
	<path class="st3" d="M195,661.2c0-0.1,0-0.3,0-0.4c0.6-0.5,0.7-0.1,0.8,0.4C195.5,661.2,195.2,661.2,195,661.2z"/>
	<path class="st11" d="M278.3,644.1c0.1-0.5,0.4-0.7,0.9-0.6C279.1,644,278.8,644.3,278.3,644.1z"/>
	<path class="st12" d="M277.2,436.5c6.1,3.6,11.7,7.8,17,12.5c3.5,3.1,7,6.3,10,10c0.3,0.3,0.5,0.8,0.7,1.2
		c-0.6-0.1-1.2-0.1-1.7-0.2c-4.9-1.4-9.2-0.1-12.8,3.4c-4.1,3.9-8,8-12,11.9c-0.5,0.5-0.8,1-1.5,1.2l-0.1-0.1c0-12.5,0-25,0-37.5
		C276.9,438,276.6,437.1,277.2,436.5z"/>
	<path class="st12" d="M244.6,508.6c-0.1,0.1-0.3,0.3-0.4,0.4l0,0C244.3,508.8,244.4,508.7,244.6,508.6
		C244.6,508.5,244.6,508.6,244.6,508.6z"/>
	<path class="st12" d="M244.2,509c-0.1,0.1-0.3,0.3-0.4,0.4l0,0C243.9,509.2,244,509.1,244.2,509C244.2,508.9,244.2,509,244.2,509z"
		/>
	<path class="st12" d="M243.8,509.3c-0.1,0.1-0.3,0.3-0.4,0.4l0,0C243.5,509.6,243.6,509.5,243.8,509.3L243.8,509.3z"/>
	<path class="st12" d="M243.4,509.7c-0.1,0.1-0.3,0.3-0.4,0.4l0,0C243.1,510,243.2,509.8,243.4,509.7L243.4,509.7z"/>
	<path class="st12" d="M243,510.1c-0.1,0.1-0.3,0.3-0.4,0.4l0,0C242.7,510.4,242.8,510.2,243,510.1L243,510.1z"/>
	<path class="st12" d="M242.6,510.5c-0.1,0.1-0.3,0.3-0.4,0.4l0,0C242.3,510.8,242.5,510.6,242.6,510.5L242.6,510.5z"/>
	<path class="st12" d="M242.2,510.9c-0.1,0.1-0.3,0.3-0.4,0.4l0,0C241.9,511.2,242.1,511,242.2,510.9L242.2,510.9z"/>
	<path class="st12" d="M241.8,511.3c-0.1,0.1-0.3,0.3-0.4,0.4l0,0C241.5,511.6,241.7,511.4,241.8,511.3L241.8,511.3z"/>
	<path class="st12" d="M241.4,511.7c-0.1,0.1-0.3,0.3-0.4,0.4l0,0C241.1,511.9,241.3,511.8,241.4,511.7L241.4,511.7z"/>
	<path class="st12" d="M241,512.1c-0.1,0.1-0.3,0.3-0.4,0.4l0,0C240.7,512.3,240.9,512.2,241,512.1L241,512.1z"/>
	<path class="st12" d="M240.6,512.5c-0.1,0.1-0.3,0.3-0.4,0.4l0,0C240.4,512.7,240.5,512.6,240.6,512.5L240.6,512.5z"/>
	<path class="st12" d="M240.2,512.9c-0.1,0.1-0.3,0.3-0.4,0.4l0,0C240,513.1,240.1,513,240.2,512.9L240.2,512.9z"/>
	<path class="st12" d="M239.5,513.7c-0.1,0.1-0.3,0.3-0.4,0.4l0,0C239.2,513.9,239.3,513.8,239.5,513.7
		C239.4,513.7,239.5,513.7,239.5,513.7z"/>
	<path class="st12" d="M239.1,514.1c-0.1,0.1-0.3,0.3-0.4,0.4l0,0C238.8,514.3,238.9,514.2,239.1,514.1
		C239,514,239.1,514.1,239.1,514.1z"/>
	<path class="st12" d="M238.7,514.5c-0.1,0.1-0.3,0.3-0.4,0.4l0,0C238.4,514.7,238.5,514.6,238.7,514.5
		C238.7,514.4,238.7,514.5,238.7,514.5z"/>
	<path class="st12" d="M238.3,514.9c-0.1,0.1-0.3,0.3-0.4,0.4l0,0C238,515.1,238.1,515,238.3,514.9L238.3,514.9z"/>
	<path class="st12" d="M248.1,505c-0.1,0.1-0.3,0.3-0.4,0.4l0,0C247.8,505.3,248,505.1,248.1,505L248.1,505z"/>
	<path class="st12" d="M237.9,515.3c-0.1,0.1-0.3,0.3-0.4,0.4l0,0C237.6,515.5,237.7,515.4,237.9,515.3L237.9,515.3z"/>
	<path class="st12" d="M237.1,516.1c0-0.1,0-0.3,0-0.4c0.1,0,0.2,0,0.4,0l0,0C237.4,515.8,237.2,515.9,237.1,516.1z"/>
	<path class="st12" d="M236.7,516.5c0.1-0.2,0.3-0.3,0.4-0.5C237,516.2,236.8,516.3,236.7,516.5z"/>
	<path class="st12" d="M248.5,504.6c-0.1,0.1-0.3,0.3-0.4,0.4l0,0C248.2,504.9,248.4,504.7,248.5,504.6L248.5,504.6z"/>
	<path class="st12" d="M248.9,504.2c-0.1,0.1-0.3,0.3-0.4,0.4l0,0C248.6,504.5,248.8,504.3,248.9,504.2L248.9,504.2z"/>
	<path class="st12" d="M249.3,503.8c-0.1,0.1-0.3,0.3-0.4,0.4l0,0C249,504.1,249.1,503.9,249.3,503.8L249.3,503.8z"/>
	<path class="st12" d="M249.7,503.5c-0.1,0.1-0.3,0.3-0.4,0.4l0,0C249.4,503.7,249.5,503.6,249.7,503.5
		C249.7,503.4,249.7,503.5,249.7,503.5z"/>
	<path class="st12" d="M250.1,503.1c-0.1,0.1-0.3,0.3-0.4,0.4l0,0C249.8,503.3,249.9,503.2,250.1,503.1
		C250.1,503,250.1,503.1,250.1,503.1z"/>
	<path class="st12" d="M250.5,502.7c-0.1,0.1-0.3,0.3-0.4,0.4l0,0C250.2,502.9,250.3,502.8,250.5,502.7
		C250.5,502.6,250.5,502.7,250.5,502.7z"/>
	<path class="st12" d="M250.9,502.3c-0.1,0.1-0.3,0.3-0.4,0.4l0,0C250.6,502.5,250.7,502.4,250.9,502.3L250.9,502.3z"/>
	<path class="st12" d="M251.3,501.9c-0.1,0.1-0.3,0.3-0.4,0.4l0,0C251,502.1,251.1,502,251.3,501.9
		C251.2,501.8,251.3,501.9,251.3,501.9z"/>
	<path class="st12" d="M272.1,481c-0.1,0.1-0.3,0.3-0.4,0.4l0,0C271.8,481.2,272,481.1,272.1,481L272.1,481z"/>
	<path class="st12" d="M251.7,501.5c-0.1,0.1-0.3,0.3-0.4,0.4l0,0C251.4,501.7,251.5,501.6,251.7,501.5
		C251.6,501.5,251.7,501.5,251.7,501.5z"/>
	<path class="st12" d="M276.9,476.3c-0.1,0.1-0.3,0.2-0.4,0.3l0,0C276.6,476.5,276.7,476.4,276.9,476.3
		C276.8,476.3,276.9,476.3,276.9,476.3z"/>
	<path class="st12" d="M276.5,476.7c-0.1,0.1-0.3,0.3-0.4,0.4l0,0C276.2,476.9,276.3,476.8,276.5,476.7
		C276.4,476.7,276.5,476.7,276.5,476.7z"/>
	<path class="st12" d="M252.1,501.1c-0.1,0.1-0.3,0.3-0.4,0.4l0,0C251.8,501.3,251.9,501.2,252.1,501.1L252.1,501.1z"/>
	<path class="st12" d="M252.5,500.7c-0.1,0.1-0.3,0.3-0.4,0.4l0,0C252.2,500.9,252.3,500.8,252.5,500.7
		C252.4,500.7,252.5,500.7,252.5,500.7z"/>
	<path class="st12" d="M276.1,477.1c-0.1,0.1-0.3,0.3-0.4,0.4l0,0C275.8,477.3,275.9,477.2,276.1,477.1
		C276,477,276.1,477.1,276.1,477.1z"/>
	<path class="st12" d="M275.7,477.5c-0.1,0.1-0.3,0.3-0.4,0.4l0,0C275.4,477.7,275.5,477.6,275.7,477.5
		C275.6,477.4,275.7,477.5,275.7,477.5z"/>
	<path class="st12" d="M252.8,500.3c-0.1,0.1-0.3,0.3-0.4,0.4l0,0C252.6,500.5,252.7,500.4,252.8,500.3L252.8,500.3z"/>
	<path class="st12" d="M275.3,477.9c-0.1,0.1-0.3,0.3-0.4,0.4l0,0C275,478.1,275.1,478,275.3,477.9L275.3,477.9z"/>
	<path class="st12" d="M253.2,499.9c-0.1,0.1-0.3,0.3-0.4,0.4l0,0C253,500.1,253.1,500,253.2,499.9L253.2,499.9z"/>
	<path class="st12" d="M253.6,499.5c-0.1,0.1-0.3,0.3-0.4,0.4l0,0C253.3,499.7,253.5,499.6,253.6,499.5L253.6,499.5z"/>
	<path class="st12" d="M254,499.1c-0.1,0.1-0.3,0.3-0.4,0.4l0,0C253.7,499.4,253.9,499.2,254,499.1L254,499.1z"/>
	<path class="st12" d="M254.4,498.7c-0.1,0.1-0.3,0.3-0.4,0.4l0,0C254.1,499,254.3,498.8,254.4,498.7L254.4,498.7z"/>
	<path class="st12" d="M254.8,498.3c-0.1,0.1-0.3,0.3-0.4,0.4l0,0C254.5,498.6,254.7,498.4,254.8,498.3L254.8,498.3z"/>
	<path class="st12" d="M255.2,497.9c-0.1,0.1-0.3,0.3-0.4,0.4l0,0C254.9,498.2,255.1,498,255.2,497.9L255.2,497.9z"/>
	<path class="st12" d="M274.9,478.3c-0.1,0.1-0.3,0.3-0.4,0.4l0,0C274.6,478.5,274.7,478.4,274.9,478.3L274.9,478.3z"/>
	<path class="st12" d="M255.6,497.5c-0.1,0.1-0.3,0.3-0.4,0.4l0,0C255.3,497.8,255.4,497.6,255.6,497.5L255.6,497.5z"/>
	<path class="st12" d="M256,497.1c-0.1,0.1-0.3,0.3-0.4,0.4l0,0C255.7,497.4,255.8,497.3,256,497.1L256,497.1z"/>
	<path class="st12" d="M256.4,496.8c-0.1,0.1-0.3,0.3-0.4,0.4l0,0C256.1,497,256.2,496.9,256.4,496.8
		C256.4,496.7,256.4,496.8,256.4,496.8z"/>
	<path class="st12" d="M274.5,478.6c-0.1,0.1-0.3,0.3-0.4,0.4l0,0C274.2,478.9,274.3,478.8,274.5,478.6L274.5,478.6z"/>
	<path class="st12" d="M256.8,496.4c-0.1,0.1-0.3,0.3-0.4,0.4l0,0C256.5,496.6,256.6,496.5,256.8,496.4
		C256.8,496.3,256.8,496.4,256.8,496.4z"/>
	<path class="st12" d="M274.1,479c-0.1,0.1-0.3,0.3-0.4,0.4l0,0C273.8,479.3,273.9,479.1,274.1,479L274.1,479z"/>
	<path class="st12" d="M273.7,479.4c-0.1,0.1-0.3,0.3-0.4,0.4l0,0C273.4,479.7,273.6,479.5,273.7,479.4L273.7,479.4z"/>
	<path class="st12" d="M273.3,479.8c-0.1,0.1-0.3,0.3-0.4,0.4l0,0C273,480.1,273.2,479.9,273.3,479.8L273.3,479.8z"/>
	<path class="st12" d="M272.9,480.2c-0.1,0.1-0.3,0.3-0.4,0.4l0,0C272.6,480.5,272.8,480.3,272.9,480.2L272.9,480.2z"/>
	<path class="st12" d="M257.2,496c-0.1,0.1-0.3,0.3-0.4,0.4l0,0C256.9,496.2,257,496.1,257.2,496L257.2,496z"/>
	<path class="st12" d="M272.5,480.6c-0.1,0.1-0.3,0.3-0.4,0.4l0,0C272.2,480.9,272.4,480.7,272.5,480.6L272.5,480.6z"/>
	<path class="st12" d="M271.7,481.4c-0.1,0.1-0.3,0.3-0.4,0.4l0,0C271.5,481.6,271.6,481.5,271.7,481.4L271.7,481.4z"/>
	<path class="st12" d="M271.3,481.8c-0.1,0.1-0.3,0.3-0.4,0.4l0,0C271.1,482,271.2,481.9,271.3,481.8L271.3,481.8z"/>
	<path class="st12" d="M270.9,482.2c-0.1,0.1-0.3,0.3-0.4,0.4l0,0C270.7,482.4,270.8,482.3,270.9,482.2L270.9,482.2z"/>
	<path class="st12" d="M270.6,482.6c-0.1,0.1-0.3,0.3-0.4,0.4l0,0C270.3,482.8,270.4,482.7,270.6,482.6L270.6,482.6z"/>
	<path class="st12" d="M270.2,483c-0.1,0.1-0.3,0.3-0.4,0.4l0,0C269.9,483.2,270,483.1,270.2,483C270.1,483,270.2,483,270.2,483z"/>
	<path class="st12" d="M269.8,483.4c-0.1,0.1-0.3,0.3-0.4,0.4l0,0C269.5,483.6,269.6,483.5,269.8,483.4L269.8,483.4z"/>
	<path class="st12" d="M257.6,495.6c-0.1,0.1-0.3,0.3-0.4,0.4l0,0C257.3,495.8,257.4,495.7,257.6,495.6
		C257.5,495.5,257.6,495.6,257.6,495.6z"/>
	<path class="st12" d="M269.4,483.8c-0.1,0.1-0.3,0.3-0.4,0.4l0,0C269.1,484,269.2,483.9,269.4,483.8
		C269.4,483.7,269.4,483.8,269.4,483.8z"/>
	<path class="st12" d="M269,484.2c-0.1,0.1-0.3,0.3-0.4,0.4l0,0C268.7,484.4,268.8,484.3,269,484.2L269,484.2z"/>
	<path class="st12" d="M268.6,484.6c-0.1,0.1-0.3,0.3-0.4,0.4l0,0C268.3,484.8,268.4,484.7,268.6,484.6
		C268.6,484.5,268.6,484.6,268.6,484.6z"/>
	<path class="st12" d="M258,495.2c-0.1,0.1-0.3,0.3-0.4,0.4l0,0C257.7,495.4,257.8,495.3,258,495.2C257.9,495.2,258,495.2,258,495.2
		z"/>
	<path class="st12" d="M258.4,494.8c-0.1,0.1-0.3,0.3-0.4,0.4l0,0C258.1,495,258.2,494.9,258.4,494.8
		C258.3,494.8,258.4,494.8,258.4,494.8z"/>
	<path class="st12" d="M258.8,494.4c-0.1,0.1-0.3,0.3-0.4,0.4l0,0C258.5,494.6,258.6,494.5,258.8,494.4L258.8,494.4z"/>
	<path class="st12" d="M268.2,484.9c-0.1,0.1-0.3,0.3-0.4,0.4l0,0C267.9,485.2,268,485.1,268.2,484.9L268.2,484.9z"/>
	<path class="st12" d="M259.1,494c-0.1,0.1-0.3,0.3-0.4,0.4l0,0C258.9,494.2,259,494.1,259.1,494L259.1,494z"/>
	<path class="st12" d="M259.5,493.6c-0.1,0.1-0.3,0.3-0.4,0.4l0,0C259.2,493.8,259.4,493.7,259.5,493.6L259.5,493.6z"/>
	<path class="st12" d="M259.9,493.2c-0.1,0.1-0.3,0.3-0.4,0.4l0,0C259.6,493.4,259.8,493.3,259.9,493.2L259.9,493.2z"/>
	<path class="st12" d="M247.7,505.4c-0.1,0.1-0.3,0.3-0.4,0.4l0,0C247.4,505.6,247.6,505.5,247.7,505.4L247.7,505.4z"/>
	<path class="st12" d="M267.8,485.3c-0.1,0.1-0.3,0.3-0.4,0.4l0,0C267.5,485.6,267.6,485.4,267.8,485.3L267.8,485.3z"/>
	<path class="st12" d="M267.4,485.7c-0.1,0.1-0.3,0.3-0.4,0.4l0,0C267.1,486,267.3,485.8,267.4,485.7L267.4,485.7z"/>
	<path class="st12" d="M267,486.1c-0.1,0.1-0.3,0.3-0.4,0.4l0,0C266.7,486.4,266.9,486.2,267,486.1L267,486.1z"/>
	<path class="st12" d="M266.6,486.5c-0.1,0.1-0.3,0.3-0.4,0.4l0,0C266.3,486.8,266.5,486.6,266.6,486.5L266.6,486.5z"/>
	<path class="st12" d="M266.2,486.9c-0.1,0.1-0.3,0.3-0.4,0.4l0,0C265.9,487.2,266.1,487,266.2,486.9L266.2,486.9z"/>
	<path class="st12" d="M265.8,487.3c-0.1,0.1-0.3,0.3-0.4,0.4l0,0C265.5,487.5,265.7,487.4,265.8,487.3L265.8,487.3z"/>
	<path class="st12" d="M265.4,487.7c-0.1,0.1-0.3,0.3-0.4,0.4l0,0C265.2,487.9,265.3,487.8,265.4,487.7L265.4,487.7z"/>
	<path class="st12" d="M260.3,492.8c-0.1,0.1-0.3,0.3-0.4,0.4l0,0C260,493.1,260.2,492.9,260.3,492.8L260.3,492.8z"/>
	<path class="st12" d="M265,488.1c-0.1,0.1-0.3,0.3-0.4,0.4l0,0C264.8,488.3,264.9,488.2,265,488.1L265,488.1z"/>
	<path class="st12" d="M239.9,513.3c-0.1,0.1-0.3,0.3-0.4,0.4l0,0C239.6,513.5,239.7,513.4,239.9,513.3L239.9,513.3z"/>
	<path class="st12" d="M261.1,492c-0.1,0.1-0.3,0.3-0.4,0.4l0,0C260.8,492.3,261,492.1,261.1,492L261.1,492z"/>
	<path class="st12" d="M264.7,488.5c-0.1,0.1-0.3,0.3-0.4,0.4l0,0C264.4,488.7,264.5,488.6,264.7,488.5L264.7,488.5z"/>
	<path class="st12" d="M261.5,491.6c-0.1,0.1-0.3,0.3-0.4,0.4l0,0C261.2,491.9,261.3,491.7,261.5,491.6L261.5,491.6z"/>
	<path class="st12" d="M246.9,506.2c-0.1,0.1-0.3,0.3-0.4,0.4l0,0C246.7,506.4,246.8,506.3,246.9,506.2L246.9,506.2z"/>
	<path class="st12" d="M261.9,491.2c-0.1,0.1-0.3,0.3-0.4,0.4l0,0C261.6,491.5,261.7,491.3,261.9,491.2L261.9,491.2z"/>
	<path class="st12" d="M247.3,505.8c-0.1,0.1-0.3,0.3-0.4,0.4l0,0C247,506,247.2,505.9,247.3,505.8L247.3,505.8z"/>
	<path class="st12" d="M262.3,490.9c-0.1,0.1-0.3,0.3-0.4,0.4l0,0C262,491.1,262.1,491,262.3,490.9
		C262.3,490.8,262.3,490.9,262.3,490.9z"/>
	<path class="st12" d="M246.6,506.6c-0.1,0.1-0.3,0.3-0.4,0.4l0,0C246.3,506.8,246.4,506.7,246.6,506.6
		C246.5,506.6,246.6,506.6,246.6,506.6z"/>
	<path class="st12" d="M262.7,490.5c-0.1,0.1-0.3,0.3-0.4,0.4l0,0C262.4,490.7,262.5,490.6,262.7,490.5L262.7,490.5z"/>
	<path class="st12" d="M263.1,490.1c-0.1,0.1-0.3,0.3-0.4,0.4l0,0C262.8,490.3,262.9,490.2,263.1,490.1L263.1,490.1z"/>
	<path class="st12" d="M263.5,489.7c-0.1,0.1-0.3,0.3-0.4,0.4l0,0C263.2,489.9,263.3,489.8,263.5,489.7L263.5,489.7z"/>
	<path class="st12" d="M263.9,489.3c-0.1,0.1-0.3,0.3-0.4,0.4l0,0C263.6,489.5,263.7,489.4,263.9,489.3L263.9,489.3z"/>
	<path class="st12" d="M246.2,507c-0.1,0.1-0.3,0.3-0.4,0.4l0,0C245.9,507.2,246,507.1,246.2,507C246.1,507,246.2,507,246.2,507z"/>
	<path class="st12" d="M245.8,507.4c-0.1,0.1-0.3,0.3-0.4,0.4l0,0C245.5,507.6,245.6,507.5,245.8,507.4
		C245.7,507.4,245.8,507.4,245.8,507.4z"/>
	<path class="st12" d="M245.4,507.8c-0.1,0.1-0.3,0.3-0.4,0.4l0,0C245.1,508,245.2,507.9,245.4,507.8L245.4,507.8z"/>
	<path class="st12" d="M245,508.2c-0.1,0.1-0.3,0.3-0.4,0.4l0,0C244.7,508.4,244.8,508.3,245,508.2L245,508.2z"/>
	<path class="st12" d="M264.3,488.9c-0.1,0.1-0.3,0.3-0.4,0.4l0,0C264,489.1,264.1,489,264.3,488.9
		C264.2,488.9,264.3,488.9,264.3,488.9z"/>
	<path class="st12" d="M260.7,492.4c-0.1,0.1-0.3,0.3-0.4,0.4l0,0C260.4,492.7,260.6,492.5,260.7,492.4L260.7,492.4z"/>
	<path class="st13" d="M260.7,492.4c-0.1,0.1-0.3,0.3-0.4,0.4s-0.3,0.3-0.4,0.4s-0.3,0.3-0.4,0.4s-0.3,0.3-0.4,0.4s-0.3,0.3-0.4,0.4
		s-0.3,0.3-0.4,0.4s-0.3,0.3-0.4,0.4s-0.3,0.3-0.4,0.4s-0.3,0.3-0.4,0.4s-0.3,0.3-0.4,0.4s-0.3,0.3-0.4,0.4s-0.3,0.3-0.4,0.4
		s-0.3,0.3-0.4,0.4c-0.1,0.1-0.3,0.3-0.4,0.4c-0.1,0.1-0.3,0.3-0.4,0.4c-0.1,0.1-0.3,0.3-0.4,0.4c-0.1,0.1-0.3,0.3-0.4,0.4
		c-0.1,0.1-0.3,0.3-0.4,0.4c-0.1,0.1-0.3,0.3-0.4,0.4c-0.1,0.1-0.3,0.3-0.4,0.4c-0.1,0.1-0.3,0.3-0.4,0.4c-0.1,0.1-0.3,0.3-0.4,0.4
		c-0.1,0.1-0.3,0.3-0.4,0.4c-0.1,0.1-0.3,0.3-0.4,0.4c-0.1,0.1-0.3,0.3-0.4,0.4c-0.1,0.1-0.3,0.3-0.4,0.4s-0.3,0.3-0.4,0.4
		c-0.1,0.1-0.3,0.3-0.4,0.4c-0.1,0.1-0.3,0.3-0.4,0.4c-0.1,0.1-0.3,0.3-0.4,0.4c-0.1,0.1-0.3,0.3-0.4,0.4c-0.1,0.1-0.3,0.3-0.4,0.4
		c-0.1,0.1-0.3,0.3-0.4,0.4c-0.1,0.1-0.3,0.3-0.4,0.4c-0.1,0.1-0.3,0.3-0.4,0.4c-0.1,0.1-0.3,0.3-0.4,0.4c-0.1,0.1-0.3,0.3-0.4,0.4
		c-0.1,0.1-0.3,0.3-0.4,0.4c-0.1,0.1-0.3,0.3-0.4,0.4c-0.1,0.1-0.3,0.3-0.4,0.4c-0.1,0.1-0.3,0.3-0.4,0.4c-0.1,0.1-0.3,0.3-0.4,0.4
		c-0.1,0.1-0.3,0.3-0.4,0.4c-0.1,0.1-0.3,0.3-0.4,0.4c-0.1,0.1-0.3,0.3-0.4,0.4c-0.1,0.1-0.3,0.3-0.4,0.4c-0.1,0.1-0.3,0.3-0.4,0.4
		c-0.1,0.1-0.3,0.3-0.4,0.4c-0.1,0.1-0.3,0.3-0.4,0.4c-0.1,0.1-0.3,0.3-0.4,0.4c-0.1,0.1-0.3,0.3-0.4,0.4c-0.1,0.1-0.3,0.3-0.4,0.4
		c-0.1,0.1-0.3,0.3-0.4,0.4c-0.1,0.1-0.3,0.3-0.4,0.4c-0.1,0.1-0.3,0.3-0.4,0.4c-0.1,0.1-0.3,0.3-0.4,0.4s-0.3,0.3-0.4,0.4
		c-0.1,0.1-0.3,0.3-0.4,0.4c-0.1,0.1-0.3,0.3-0.4,0.4c-0.1,0-0.2,0-0.4,0c-0.5-0.8-0.4-1.6-0.4-2.5c0-30.7,0-61.3,0-92
		c3.3,0,6.3,1.3,9.5,2c5.2,1.1,10,3.1,14.9,5.1c4.8,1.9,9.4,4.2,13.8,6.8c0.8,0.5,1.6,0.9,2.3,1.4c-0.7,0.7-0.4,1.5-0.4,2.2
		c0,12.5,0,25,0,37.5c-0.1,0.1-0.3,0.3-0.4,0.4s-0.3,0.3-0.4,0.4s-0.3,0.3-0.4,0.4s-0.3,0.3-0.4,0.4s-0.3,0.3-0.4,0.4
		s-0.3,0.3-0.4,0.4s-0.3,0.3-0.4,0.4s-0.3,0.3-0.4,0.4s-0.3,0.3-0.4,0.4s-0.3,0.3-0.4,0.4s-0.3,0.3-0.4,0.4s-0.3,0.3-0.4,0.4
		s-0.3,0.3-0.4,0.4s-0.3,0.3-0.4,0.4s-0.3,0.3-0.4,0.4s-0.3,0.3-0.4,0.4s-0.3,0.3-0.4,0.4s-0.3,0.3-0.4,0.4s-0.3,0.3-0.4,0.4
		s-0.3,0.3-0.4,0.4s-0.3,0.3-0.4,0.4s-0.3,0.3-0.4,0.4s-0.3,0.3-0.4,0.4s-0.3,0.3-0.4,0.4s-0.3,0.3-0.4,0.4s-0.3,0.3-0.4,0.4
		s-0.3,0.3-0.4,0.4s-0.3,0.3-0.4,0.4s-0.3,0.3-0.4,0.4s-0.3,0.3-0.4,0.4s-0.3,0.3-0.4,0.4s-0.3,0.3-0.4,0.4s-0.3,0.3-0.4,0.4
		s-0.3,0.3-0.4,0.4s-0.3,0.3-0.4,0.4s-0.3,0.3-0.4,0.4s-0.3,0.3-0.4,0.4s-0.3,0.3-0.4,0.4s-0.3,0.3-0.4,0.4s-0.3,0.3-0.4,0.4
		C261,492.1,260.8,492.3,260.7,492.4z"/>
	<path class="st3" d="M196.9,434.9c-0.5-1.1-0.5-2.3,0-3.4C197.5,432.6,197.5,433.7,196.9,434.9z"/>
	<path class="st3" d="M196.5,424.3c-0.5-0.5-0.5-1,0-1.5C197.1,423.3,197,423.8,196.5,424.3z"/>
</g>
<g>
	<path class="st14" d="M493,420.7c0,16.1-0.1,32.2-0.1,48.3c0,7.6,0,15.3,0,22.9c0,1.6-0.4,2.2-2.1,2.1c-3.6-0.1-7.2-0.1-10.8,0
		c-1.8,0.1-2.2-0.7-2.2-2.3c0.1-8.2,0-16.5,0.1-24.7c0-1.8-0.5-2.3-2.3-2.3c-9.8,0.1-19.7,0.1-29.5,0c-1.8,0-2.4,0.5-2.3,2.3
		c0.1,8.1,0,16.2,0.1,24.3c0,2.3-0.7,2.9-2.9,2.8c-3.3-0.2-6.6-0.1-9.8,0c-1.8,0.1-2.3-0.6-2.3-2.4c0.1-22.3,0-44.7,0-67
		c0-1.3,0-2.6-0.1-3.9c4.9,0,9.8,0,14.6,0c0,8.9,0.1,17.8,0,26.7c0,2,0.6,2.6,2.6,2.6c9.8-0.1,19.5-0.1,29.3,0
		c2.2,0,2.9-0.6,2.8-2.8c-0.1-8.8,0-17.7,0-26.5C483.3,420.7,488.2,420.7,493,420.7z"/>
	<path class="st14" d="M777.8,420.7c0,6.3,0,12.7-0.1,19c0,1.7,0.5,1.9,2.1,1.4c8.4-2.5,16.3-1.5,23.1,4.4c5.1,4.4,8,10,8.2,16.7
		c0.2,9.8,0,19.5,0.1,29.3c0,1.9-0.5,2.6-2.4,2.5c-3-0.1-6-0.1-8.9,0c-1.8,0.1-2.4-0.5-2.3-2.3c0.1-8.6,0-17.2,0-25.9
		c0-4-0.8-7.8-4.4-10.3c-3.1-2.2-6.5-2.7-9.9-0.9c-3.4,1.8-5.4,4.7-5.5,8.6c-0.1,9.4-0.1,18.8,0,28.1c0,2-0.5,2.7-2.6,2.6
		c-3-0.2-6-0.2-8.9,0c-1.9,0.1-2.3-0.6-2.3-2.4c0.1-23.6,0-47.3,0-70.9C768.6,420.7,773.2,420.7,777.8,420.7z"/>
	<path class="st14" d="M679.8,420.7c0,15.9-0.1,31.9-0.1,47.8c0,7.8,0,15.6,0,23.3c0,1.6-0.5,2.2-2.1,2.1c-3.1-0.1-6.3-0.1-9.4,0
		c-1.9,0.1-2.3-0.6-2.3-2.3c0.1-23.6,0-47.3,0-70.9C670.7,420.7,675.2,420.7,679.8,420.7z"/>
	<path class="st15" d="M883.7,600.2c0-18.6,0-37.2,0-55.8c0-3.2,0.1-3.3,3.4-3.3c5.8,0,11.6,0.1,17.4,0c2.2,0,2.9,0.7,2.9,2.9
		c-0.1,19.2,0,38.4,0,57.7c0,0.5,0,0.9,0,1.4c0,0.4-0.1,1,0.4,1.2c0.7,0.3,0.9-0.3,1.2-0.7c2.9-3.4,5.8-6.9,8.7-10.3
		c5-5.9,9.9-11.8,14.8-17.7c0.8-0.9,1.6-1.3,2.8-1.3c8.5,0,16.9,0,25.4,0c0.8,0,1.7-0.1,2.2,0.8c0.5,1-0.3,1.5-0.8,2.2
		c-8.4,10.1-16.8,20.1-25.2,30.2c-1.6,1.9-4.3,3.7-4.4,5.9c-0.1,2.2,2.6,4.1,4.1,6c9.5,12.4,19.1,24.7,28.7,37
		c0.6,0.7,1.6,1.5,1,2.6s-1.8,0.7-2.7,0.7c-7.9,0-15.7,0-23.6,0c-1.4,0-2.4-0.3-3.3-1.5c-6.3-8.2-12.7-16.4-18.9-24.6
		c-1.1-1.5-1.9-1.4-2.9,0c-0.1,0.2-0.3,0.4-0.4,0.5c-6.6,5.4-7.9,12.5-7.2,20.6c0.5,5.8,0.4,5-4.9,5c-5.1,0-10.2,0-15.3,0
		c-3.2,0-3.3-0.1-3.3-3.4c0-4.1,0-8.2,0-12.4C883.7,629.4,883.7,614.8,883.7,600.2z"/>
	<path class="st15" d="M732,582.3c0,24.9,0,49.7,0,74.6c0,2.1-0.6,2.8-2.7,2.8c-6.1-0.1-12.2,0-18.3,0c-0.9,0-2.1,0.2-2.4-0.9
		c-0.6-2.2-1.8-1.2-2.9-0.7c-6,2.7-12.2,4.4-18.7,4.3c-16.2-0.4-29.1-7.1-38.1-20.7c-15-22.8-6.4-53.7,18.2-65.5
		c12.8-6.1,25.9-6,38.9-0.1c1.1,0.5,2.2,1.5,2.5-0.8c0.1-0.8,1.1-1,1.9-1c3.4,0.1,6.9-0.2,10.3,0.2c-0.2,0.3-0.3,0.5-0.5,0.8
		c-2.1,2.3-2.1,2.3,0.1,4.3c0.6,0.6,1.2,1.2,1.8,1.8c2.8,2.9,2.8,2.9,5.7,0C730,579.1,730.7,579.3,732,582.3z M667.2,607.6
		c-0.2,0.6-0.5,1.3-0.7,1.9c-4.3,11.2,2.1,24.7,13.6,28.1c8.5,2.5,16,0.7,22.2-5.7c6.1-6.3,7.7-13.9,4.8-22.1
		c-2.9-8.2-8.9-13-17.6-14.3c-5.7-0.9-10.8,0.8-15.5,3.9c-0.9-0.1-1.4-0.8-2-1.4c-2.2-2.1-4.3-4.3-6.4-6.5c-1-1-1.6-1-2.6,0
		c-1.3,1.4-2.6,2.8-4,4c-1.4,1.3-1.3,2.2,0,3.6C661.7,602,665,604.3,667.2,607.6z M685.3,582.5c-2.1,0-3.9,1.7-4,3.8
		c-0.1,2.2,1.7,4.1,3.9,4.1c2.1,0,3.9-1.7,4-3.8C689.3,584.3,687.5,582.5,685.3,582.5z M650.2,619.4c0,2.1,1.8,3.9,3.9,3.9
		c2.2,0,4-1.8,4-4c0-2.1-1.8-3.9-3.9-3.9C652,615.4,650.2,617.2,650.2,619.4z M717.4,615.4c-2.1,0-3.9,1.7-4,3.8
		c-0.1,2.2,1.7,4.1,3.9,4.1c2.1,0,3.9-1.7,4-3.8C721.4,617.3,719.6,615.5,717.4,615.4z M689.3,649.8c0.1-2.1-1.6-4-3.7-4.1
		c-2.2-0.1-4.2,1.6-4.2,3.8c-0.1,2.2,1.7,4.1,3.9,4.1C687.4,653.6,689.2,651.9,689.3,649.8z"/>
	<path class="st16" d="M475.2,541.1c15.9,0,31.7,0,47.6,0c3.1,0,3.2,0.1,3.2,3.2c0,6.3,0,12.5,0,18.8c0,3.2,0,3.2-3.4,3.2
		c-10.8,0-21.7,0.1-32.5,0c-2.2,0-2.7,0.7-2.7,2.7c0.1,29.1,0,58.3,0,87.4c0,3.3,0,3.3-3.3,3.3c-6.2,0-12.4,0-18.5,0
		c-3.3,0-3.3,0-3.3-3.3c0-29.1,0-58.1,0.1-87.2c0-2.3-0.6-3-2.9-3c-10.9,0.1-21.8,0.1-32.7,0.1c-2.9,0-3.1-0.3-3.1-3.2
		c0-6.3,0-12.7,0-19c0-2.7,0.4-3,3-3C442.8,541.1,459,541.1,475.2,541.1z"/>
	<path class="st16" d="M816.6,571.7c10.4,0.1,20.6,4.3,29.3,12.3c1.4,1.3,1.4,2.1,0,3.4c-4.4,4.2-8.7,8.6-13,12.9
		c-1.4,1.4-2.3,1.8-4.1,0.3c-7-5.9-15-7-23.2-3.1c-8.2,4-12.4,11-12.1,20.1c0.3,8.6,4.7,15.1,12.4,18.8s15.3,2.6,22.2-2.5
		c2.9-2.2,2.9-2.3,5.4,0.2c4.2,4.2,8.4,8.5,12.7,12.6c1.2,1.2,1.3,1.9,0,3.1c-6.6,6-14.3,10-23.1,11.6c-2.8,0.5-5.6,0.8-8.4,0.7
		c-17.7-0.7-31.1-8.6-39.5-24.1c-9.7-18-6.3-39.5,8.4-53.7C792.2,576,802.8,571.7,816.6,571.7z"/>
	<path class="st15" d="M562.3,616.8c0-13.1,0-26.2,0-39.4c0-3,0.2-3.2,3.3-3.2c5.9,0,11.7,0,17.6,0c1,0,2.2-0.2,2.5,1
		c0.6,2,1.7,1.2,2.8,0.7c5.5-2.5,11.1-4,17.2-4.2c1.9-0.1,2.7,0.5,2.7,2.6c-0.1,6.2-0.1,12.4,0,18.5c0,1.9-0.7,2.5-2.6,2.6
		c-11.2,0.8-19.9,10.1-19.9,21.5c0,13.2,0,26.4,0,39.6c0,3-0.1,3.1-3.1,3.1c-5.9,0-11.7,0-17.6,0c-2.8,0-2.9-0.2-3-3
		C562.3,643.4,562.3,630.1,562.3,616.8z"/>
	<path class="st14" d="M640.4,467.8c0,8,0,16,0,24c0,1.9-0.5,2.6-2.5,2.5c-2.6-0.1-5.2,0-7.8-0.1c-1.4,0-2.8,0.5-3.7-1.4
		c-0.5-1-1.5,0.1-2.2,0.4c-7.9,3.4-15.9,3.4-23.7-0.2c-18.1-8.5-21.4-33.7-6.1-46.4c9.2-7.6,19.3-8.6,30.1-4
		c0.8,0.3,1.8,1.2,2.3-0.5c0.2-0.9,1.2-0.7,2-0.7c3.1,0,6.3,0.1,9.4,0c1.8-0.1,2.2,0.6,2.2,2.3C640.4,451.6,640.4,459.7,640.4,467.8
		z M626.8,467.7c0-7.8-6.2-14.1-14-14.1c-7.6,0-14.4,6.4-14.1,14.1c0.3,8.6,6.2,14,14.1,14.1C621,481.9,626.9,475.2,626.8,467.7z"/>
	<path class="st14" d="M547.4,474.7c-5,0-9.9,0-14.9,0c-0.6,0-1.3-0.3-1.7,0.3c-0.5,0.8,0.4,1.3,0.8,1.7c3.9,5.1,12.6,7.3,19,2.3
		c1.5-1.2,2.3-0.9,3.4,0.2c2.2,2.3,4.5,4.6,6.8,6.8c1.2,1.1,1,2-0.2,3c-15.4,13.4-40.5,5.7-45.3-14.2c-3.6-14.5,3.5-29.3,17.9-33.6
		c9.4-2.8,22.6-1.1,29.1,8.8c4.7,7.1,5.4,14.8,2.7,22.9c-0.5,1.4-1.4,1.8-2.8,1.7C557.3,474.7,552.4,474.7,547.4,474.7z
		 M540.9,461.3c2.3,0,4.6,0.1,6.8,0c1.3-0.1,3.2,0.8,3.7-0.7c0.6-1.7-1.1-2.9-2.2-4.2c-0.1-0.2-0.4-0.3-0.6-0.4
		c-5.9-3.4-13.1-3-17.7,3.1c-0.4,0.5-0.9,1-0.6,1.6c0.3,0.8,1.2,0.6,1.8,0.6C535.1,461.3,538,461.3,540.9,461.3z"/>
	<path class="st14" d="M712.8,466.5c0-3.4-0.1-6.1,0-8.9c0.1-1.9-0.6-2.4-2.4-2.3c-3.1,0.1-6.3,0-9.4,0.1c-1.5,0-2.1-0.5-2-2
		c0.1-3.4,0.1-6.7,0-10.1c0-1.5,0.6-2,2-2c3.1,0.1,6.3-0.1,9.4,0.1c1.8,0.1,2.5-0.4,2.4-2.3c-0.1-3.4,0-6.9-0.1-10.3
		c0-1.6,0.6-2.2,2.1-2.1c3.2,0.1,6.4,0.1,9.6,0c1.5,0,2,0.6,2,2.1c-0.1,3.5,0,7,0,10.5c0,1.6,0.5,2.2,2.1,2.1
		c4.2-0.1,8.4,0,12.6-0.1c1.7,0,2.3,0.5,2.3,2.2c-0.1,3.2-0.1,6.4,0,9.6c0.1,1.7-0.7,2.2-2.3,2.2c-4.2-0.1-8.4,0-12.6,0
		c-1,0-2.1,0-2.1,1.4c0.1,5.3-0.4,10.7,0.3,16c0.5,4.7,3.3,7.6,7.8,8.7c1.6,0.4,2.1,1.1,2,2.6c-0.1,3.3-0.1,6.6,0,9.8
		c0,1.4-0.6,1.9-1.9,1.8c-10.1-1.1-18.4-7.7-21.1-17.5C712.5,474.1,713.1,470,712.8,466.5z"/>
	<path class="st17" d="M732,582.3c-1.3-3-2-3.2-4.2-1.1c-2.9,2.9-2.9,2.9-5.7,0c-0.6-0.6-1.2-1.2-1.8-1.8c-2.2-2-2.2-2-0.1-4.3
		c0.2-0.2,0.3-0.5,0.5-0.8c2.4-1.8,2.5-1.9,0.3-3.9c-1.4-1.3-1.3-2.3,0-3.5c1.4-1.3,2.7-2.7,4-4.1c0.8-0.8,1.5-0.8,2.3,0
		c4,4.1,8,8.1,12.1,12.1c0.9,0.8,0.8,1.5,0,2.3c-1.6,1.5-3.2,3-4.6,4.7C733.7,583.1,732.9,582.1,732,582.3z"/>
	<path class="st17" d="M674,599.4c-0.1,0.8,0.4,1.2,0.9,1.7c1.5,1.4,3,2.8,4.3,4.4c1.7,2,3.6,3,6.4,2.9c3.5-0.2,6.7,2.7,7.9,6.5
		c1.2,3.5,0,7.5-2.8,9.9c-3,2.5-7.1,3.1-10.2,1.5c-3.7-1.9-5.7-5-5.4-9.2c0.1-1.5-0.3-2.5-1.4-3.4c-2.3-2-3.9-4.6-6.7-6.1
		c-2.2-3.3-5.5-5.6-8.2-8.4c-1.3-1.3-1.5-2.3,0-3.6c1.4-1.3,2.8-2.6,4-4c0.9-1,1.6-1,2.6,0c2.1,2.2,4.3,4.3,6.4,6.5
		C672.6,598.6,673.1,599.3,674,599.4z"/>
	<path class="st17" d="M685.3,582.5c2.2,0,4,1.9,3.9,4.1c-0.1,2.1-1.9,3.8-4,3.8c-2.2,0-4-1.9-3.9-4.1
		C681.4,584.2,683.2,582.4,685.3,582.5z"/>
	<path class="st17" d="M650.2,619.4c0-2.2,1.8-4.1,4-4c2.1,0,3.9,1.8,3.9,3.9c0,2.2-1.8,4-4,4C652,623.3,650.2,621.6,650.2,619.4z"
		/>
	<path class="st17" d="M717.4,615.4c2.2,0,4,1.9,3.9,4.1c-0.1,2.1-1.9,3.8-4,3.8c-2.2,0-4-1.9-3.9-4.1
		C713.5,617.1,715.3,615.4,717.4,615.4z"/>
	<path class="st17" d="M689.3,649.8c-0.1,2.1-1.9,3.8-4,3.8c-2.2,0-4-1.9-3.9-4.1c0.1-2.2,2-3.9,4.2-3.8
		C687.7,645.8,689.3,647.7,689.3,649.8z"/>
</g>
</svg>
