<?xml version="1.0" encoding="utf-8"?>
<!-- Generator: Adobe Illustrator 23.0.1, SVG Export Plug-In . SVG Version: 6.00 Build 0)  -->
<svg version="1.1" id="Camada_1" xmlns="http://www.w3.org/2000/svg" xmlns:xlink="http://www.w3.org/1999/xlink" x="0px" y="0px"
	 viewBox="0 0 183.7 46.2" style="enable-background:new 0 0 183.7 46.2;" xml:space="preserve">
<style type="text/css">
	.st0{fill:#1173A7;}
	.st1{fill:#1B94C8;}
	.st2{fill:#FFFFFF;}
	.st3{fill:none;}
</style>
<path class="st0" d="M10.1,44.3h163.8c4,0,7.3-3.3,7.3-7.3V10.9c0-4-3.3-7.3-7.3-7.3H10.1c-4,0-7.3,3.3-7.3,7.3V37
	C2.8,41,6.1,44.3,10.1,44.3z"/>
<path class="st1" d="M10.2,44.3h35.7V3.7H10.2c-4.1,0-7.4,3.3-7.4,7.4v25.8C2.8,40.9,6.1,44.3,10.2,44.3z"/>
<g>
	<path class="st2" d="M32.8,10.4h-17c-3.4,0-6.1,2.7-6.1,6.1v17c0,3.4,2.7,6.1,6.1,6.1h17c3.4,0,6.1-2.7,6.1-6.1v-17
		C38.9,13.1,36.2,10.4,32.8,10.4z M19.5,33.5h-3.6V20.1h3.6V33.5z M17.7,18.6c-1.2,0-2.1-1-2.1-2.1s1-2.1,2.1-2.1
		c1.2,0,2.1,1,2.1,2.1S18.8,18.6,17.7,18.6z M34.1,33.5h-3.6v-6.8c0-4.1-4.9-3.8-4.9,0v6.8h-3.6V20.1h3.6v2.1c1.7-3.1,8.5-3.4,8.5,3
		V33.5z"/>
</g>
<g>
	<rect x="51.5" y="10.4" class="st3" width="91.8" height="16.4"/>
	<path class="st2" d="M52.8,11.1h2.6v9.1H61v2.1h-8.2V11.1z"/>
	<path class="st2" d="M62.4,12.1c-0.3-0.3-0.4-0.6-0.4-1c0-0.4,0.1-0.7,0.4-1c0.3-0.3,0.7-0.4,1.1-0.4c0.5,0,0.8,0.1,1.1,0.4
		s0.4,0.6,0.4,1c0,0.4-0.1,0.8-0.4,1s-0.7,0.4-1.1,0.4C63.1,12.5,62.7,12.3,62.4,12.1z M62.3,13.7h2.5v8.6h-2.5V13.7z"/>
	<path class="st2" d="M74.9,14.5c0.7,0.6,1,1.6,1,2.8v4.9h-2.5v-4.5c0-0.7-0.1-1.2-0.4-1.5c-0.3-0.3-0.7-0.5-1.3-0.5
		c-0.6,0-1.1,0.2-1.5,0.6c-0.4,0.4-0.6,1-0.6,1.7v4.3h-2.5v-8.6h2.4v1c0.3-0.4,0.7-0.6,1.2-0.8c0.5-0.2,1-0.3,1.6-0.3
		C73.4,13.5,74.3,13.8,74.9,14.5z"/>
	<path class="st2" d="M81.9,18.9l-1.2,1.2v2.2h-2.5V10.4h2.5v6.7l3.6-3.5h3l-3.6,3.6l3.9,5h-3L81.9,18.9z"/>
	<path class="st2" d="M96.8,18.7h-6.5c0.1,0.5,0.4,1,0.8,1.3c0.4,0.3,1,0.5,1.6,0.5c0.4,0,0.8-0.1,1.2-0.2s0.7-0.3,1-0.6l1.3,1.4
		c-0.8,0.9-2,1.4-3.6,1.4c-1,0-1.8-0.2-2.6-0.6c-0.7-0.4-1.3-0.9-1.7-1.6s-0.6-1.4-0.6-2.3c0-0.8,0.2-1.6,0.6-2.3
		c0.4-0.7,0.9-1.2,1.6-1.6c0.7-0.4,1.5-0.6,2.3-0.6c0.8,0,1.6,0.2,2.3,0.5s1.2,0.9,1.6,1.6c0.4,0.7,0.6,1.5,0.6,2.4
		C96.8,18,96.8,18.2,96.8,18.7z M90.9,15.9c-0.4,0.3-0.6,0.8-0.7,1.3h4.2c-0.1-0.5-0.3-1-0.7-1.3c-0.4-0.3-0.9-0.5-1.4-0.5
		C91.8,15.4,91.3,15.6,90.9,15.9z"/>
	<path class="st2" d="M107.2,10.4v11.9h-2.4v-1c-0.6,0.7-1.5,1.1-2.7,1.1c-0.8,0-1.5-0.2-2.2-0.5c-0.7-0.4-1.2-0.9-1.5-1.6
		c-0.4-0.7-0.6-1.5-0.6-2.3c0-0.9,0.2-1.7,0.6-2.3c0.4-0.7,0.9-1.2,1.5-1.6c0.7-0.4,1.4-0.5,2.2-0.5c1.1,0,2,0.3,2.6,1v-4.2H107.2z
		 M104.2,19.7c0.4-0.4,0.6-1,0.6-1.7c0-0.7-0.2-1.3-0.6-1.7c-0.4-0.4-0.9-0.6-1.6-0.6c-0.6,0-1.2,0.2-1.6,0.6
		c-0.4,0.4-0.6,1-0.6,1.7c0,0.7,0.2,1.3,0.6,1.7c0.4,0.4,0.9,0.6,1.6,0.6C103.2,20.3,103.7,20.1,104.2,19.7z"/>
	<path class="st2" d="M109.7,11.1h2.6v11.2h-2.6V11.1z"/>
	<path class="st2" d="M122.6,14.5c0.7,0.6,1,1.6,1,2.8v4.9h-2.5v-4.5c0-0.7-0.1-1.2-0.4-1.5c-0.3-0.3-0.7-0.5-1.3-0.5
		c-0.6,0-1.1,0.2-1.5,0.6c-0.4,0.4-0.6,1-0.6,1.7v4.3h-2.5v-8.6h2.4v1c0.3-0.4,0.7-0.6,1.2-0.8c0.5-0.2,1-0.3,1.6-0.3
		C121.1,13.5,121.9,13.8,122.6,14.5z"/>
</g>
<g>
	<rect x="52" y="25.8" class="st3" width="111.2" height="13.8"/>
	<path class="st2" d="M60.9,34.3h-6.8l-1.6,3.4h-0.4l5.2-11.2h0.3l5.2,11.2h-0.4L60.9,34.3z M60.8,33.9l-3.3-7.1l-3.3,7.1H60.8z"/>
	<path class="st2" d="M71.1,30.2c0.6,0.6,0.9,1.4,0.9,2.6v4.9h-0.3v-4.9c0-1-0.3-1.8-0.8-2.3c-0.5-0.5-1.3-0.8-2.2-0.8
		c-1.1,0-1.9,0.3-2.6,1s-0.9,1.5-0.9,2.6v4.5h-0.3v-8.3h0.3v2.2c0.3-0.7,0.7-1.3,1.3-1.7c0.6-0.4,1.3-0.6,2.2-0.6
		C69.7,29.3,70.5,29.6,71.1,30.2z"/>
	<path class="st2" d="M82.6,25.8v11.9h-0.3v-2.5c-0.3,0.8-0.7,1.4-1.4,1.9c-0.7,0.5-1.4,0.7-2.3,0.7c-0.7,0-1.4-0.2-2-0.5
		s-1.1-0.9-1.4-1.5c-0.4-0.6-0.5-1.4-0.5-2.2c0-0.8,0.2-1.5,0.5-2.2s0.8-1.1,1.4-1.5s1.3-0.5,2-0.5c0.9,0,1.6,0.2,2.3,0.7
		c0.7,0.5,1.1,1.1,1.4,1.9v-6.1H82.6z M80.5,36.9c0.6-0.3,1-0.8,1.3-1.4c0.3-0.6,0.5-1.3,0.5-2c0-0.7-0.2-1.4-0.5-2
		c-0.3-0.6-0.8-1-1.3-1.4c-0.6-0.3-1.2-0.5-1.9-0.5s-1.3,0.2-1.9,0.5c-0.6,0.3-1,0.8-1.3,1.4c-0.3,0.6-0.5,1.3-0.5,2
		c0,0.7,0.2,1.4,0.5,2s0.8,1.1,1.3,1.4c0.6,0.3,1.2,0.5,1.9,0.5S79.9,37.2,80.5,36.9z"/>
	<path class="st2" d="M87.8,29.9c0.6-0.4,1.2-0.6,2.1-0.6v0.3h-0.1c-1,0-1.8,0.3-2.3,1c-0.6,0.6-0.8,1.5-0.8,2.6v4.4h-0.3v-8.3h0.3
		v2.1C86.8,30.8,87.2,30.3,87.8,29.9z"/>
	<path class="st2" d="M98.8,33.5h-7.4c0,0.7,0.2,1.4,0.5,2c0.3,0.6,0.8,1.1,1.4,1.4c0.6,0.3,1.2,0.5,2,0.5c0.6,0,1.1-0.1,1.6-0.3
		s0.9-0.5,1.2-1l0.2,0.2c-0.4,0.4-0.8,0.8-1.3,1c-0.5,0.2-1.1,0.4-1.7,0.4c-0.8,0-1.5-0.2-2.1-0.5s-1.1-0.9-1.5-1.5
		c-0.4-0.6-0.5-1.4-0.5-2.2c0-0.8,0.2-1.5,0.5-2.2c0.3-0.6,0.8-1.1,1.4-1.5c0.6-0.4,1.2-0.5,2-0.5c0.7,0,1.4,0.2,2,0.5
		c0.6,0.4,1,0.8,1.4,1.5C98.7,31.9,98.8,32.6,98.8,33.5L98.8,33.5z M93.3,30.1c-0.5,0.3-0.9,0.7-1.3,1.3c-0.3,0.5-0.5,1.2-0.5,1.8
		h7.1c0-0.7-0.2-1.3-0.5-1.8c-0.3-0.5-0.7-1-1.3-1.3s-1.1-0.5-1.7-0.5C94.4,29.6,93.8,29.8,93.3,30.1z M96.5,26.2h0.6l-2.4,1.8h-0.5
		L96.5,26.2z"/>
	<path class="st2" d="M105.8,26.4h0.3v10.9h6.7v0.3h-7V26.4z"/>
	<path class="st2" d="M119.7,30.1c0.5,0.5,0.8,1.2,0.8,2.2v5.4h-0.3v-1.8c-0.3,0.6-0.7,1-1.2,1.3c-0.5,0.3-1.2,0.5-1.9,0.5
		c-0.9,0-1.6-0.2-2.2-0.6c-0.5-0.4-0.8-1-0.8-1.7c0-0.7,0.2-1.2,0.7-1.6s1.2-0.6,2.2-0.6h3.1v-0.9c0-0.9-0.2-1.5-0.7-2
		c-0.4-0.4-1.1-0.7-2-0.7c-0.6,0-1.2,0.1-1.7,0.3c-0.5,0.2-1,0.5-1.3,0.8l-0.2-0.2c0.4-0.4,0.9-0.7,1.4-0.9s1.2-0.3,1.8-0.3
		C118.4,29.3,119.2,29.6,119.7,30.1z M120.1,35.3v-1.8H117c-0.9,0-1.6,0.2-2,0.5c-0.4,0.3-0.6,0.8-0.6,1.4c0,0.6,0.2,1.1,0.7,1.5
		s1.1,0.5,1.9,0.5C118.5,37.4,119.5,36.7,120.1,35.3z"/>
	<path class="st2" d="M125.5,29.9c0.6-0.4,1.2-0.6,2.1-0.6v0.3h-0.1c-1,0-1.8,0.3-2.3,1s-0.8,1.5-0.8,2.6v4.4H124v-8.3h0.3v2.1
		C124.6,30.8,125,30.3,125.5,29.9z"/>
	<path class="st2" d="M134.8,30.1c0.5,0.5,0.8,1.2,0.8,2.2v5.4h-0.3v-1.8c-0.3,0.6-0.7,1-1.2,1.3c-0.5,0.3-1.2,0.5-1.9,0.5
		c-0.9,0-1.6-0.2-2.2-0.6c-0.5-0.4-0.8-1-0.8-1.7c0-0.7,0.2-1.2,0.7-1.6s1.2-0.6,2.2-0.6h3.1v-0.9c0-0.9-0.2-1.5-0.7-2
		c-0.4-0.4-1.1-0.7-2-0.7c-0.6,0-1.2,0.1-1.7,0.3c-0.5,0.2-1,0.5-1.3,0.8l-0.2-0.2c0.4-0.4,0.9-0.7,1.4-0.9s1.2-0.3,1.8-0.3
		C133.6,29.3,134.3,29.6,134.8,30.1z M135.3,35.3v-1.8h-3.2c-0.9,0-1.6,0.2-2,0.5c-0.4,0.3-0.6,0.8-0.6,1.4c0,0.6,0.2,1.1,0.7,1.5
		s1.1,0.5,1.9,0.5C133.6,37.4,134.7,36.7,135.3,35.3z"/>
</g>
<g>
</g>
<g>
</g>
<g>
</g>
<g>
</g>
<g>
</g>
<g>
</g>
</svg>
