<?xml version="1.0" encoding="utf-8"?>
<!-- Generator: Adobe Illustrator 24.1.2, SVG Export Plug-In . SVG Version: 6.00 Build 0)  -->
<svg version="1.1" id="Camada_1" xmlns="http://www.w3.org/2000/svg" xmlns:xlink="http://www.w3.org/1999/xlink" x="0px" y="0px"
	 viewBox="0 0 512 512" style="enable-background:new 0 0 512 512;" xml:space="preserve">
<style type="text/css">
	.st0{fill:url(#SVGID_1_);}
	.st1{fill:url(#SVGID_2_);}
	.st2{fill:url(#SVGID_3_);}
	.st3{fill:url(#SVGID_4_);}
	.st4{fill:url(#SVGID_5_);}
	.st5{fill:url(#SVGID_6_);}
	.st6{fill:url(#SVGID_7_);}
	.st7{fill:url(#SVGID_8_);}
	.st8{fill:url(#SVGID_9_);}
	.st9{fill:url(#SVGID_10_);}
	.st10{fill:url(#SVGID_11_);}
	.st11{fill:url(#SVGID_12_);}
	.st12{fill:url(#SVGID_13_);}
	.st13{fill:url(#SVGID_14_);}
	.st14{fill:url(#SVGID_15_);}
	.st15{fill:url(#SVGID_16_);}
	.st16{fill:url(#SVGID_17_);}
	.st17{fill:none;}
</style>
<rect width="512" height="512"/>
<linearGradient id="SVGID_1_" gradientUnits="userSpaceOnUse" x1="76.1191" y1="331.2489" x2="154.9778" y2="331.2489" gradientTransform="matrix(0.7071 -0.7071 0.7071 0.7071 -25.8597 203.369)">
	<stop  offset="0" style="stop-color:#939393"/>
	<stop  offset="0.3931" style="stop-color:#959595"/>
	<stop  offset="0.5607" style="stop-color:#9C9C9C"/>
	<stop  offset="0.6854" style="stop-color:#A9A9A9"/>
	<stop  offset="0.7889" style="stop-color:#BABABA"/>
	<stop  offset="0.8793" style="stop-color:#D2D2D2"/>
	<stop  offset="0.9591" style="stop-color:#EDEDED"/>
	<stop  offset="1" style="stop-color:#FFFFFF"/>
</linearGradient>
<path class="st0" d="M323.8,337.8l-4.5,1.3l-3.4,2.2l-3.1,2.1L296.6,360L276,381.4l-1,3.3l-1,3.6l-0.1,3.9l0.9,4.1l-18.5-31.9l6-1.3
	l5.5-1.5l5.8-3l7.2-5l28.7-27.2l17.8,10.7L323.8,337.8z"/>
<linearGradient id="SVGID_2_" gradientUnits="userSpaceOnUse" x1="50.5549" y1="189.6069" x2="85.9403" y2="189.6069" gradientTransform="matrix(0.7071 -0.7071 0.7071 0.7071 -25.8597 203.369)">
	<stop  offset="0" style="stop-color:#939393"/>
	<stop  offset="0.3931" style="stop-color:#959595"/>
	<stop  offset="0.5607" style="stop-color:#9C9C9C"/>
	<stop  offset="0.6854" style="stop-color:#A9A9A9"/>
	<stop  offset="0.7889" style="stop-color:#BABABA"/>
	<stop  offset="0.8793" style="stop-color:#D2D2D2"/>
	<stop  offset="0.9591" style="stop-color:#EDEDED"/>
	<stop  offset="1" style="stop-color:#FFFFFF"/>
</linearGradient>
<path class="st1" d="M174.4,322.9l-1.1-4.1l-1.9-3.5l-2.6-3l-16.5-16.5L131,275.3l-3.5-1.2l-3.3-1l-4,0l-4,0.8l16.4-9.4l15.4-8.9
	l0.4,5.6l1.2,6.1l2.9,6.2l5.2,7.7l28,28l-11,17.5L174.4,322.9z"/>
<linearGradient id="SVGID_3_" gradientUnits="userSpaceOnUse" x1="76.1645" y1="142.6441" x2="154.606" y2="142.6441" gradientTransform="matrix(0.7071 -0.7071 0.7071 0.7071 -25.8597 203.369)">
	<stop  offset="0" style="stop-color:#939393"/>
	<stop  offset="0.3931" style="stop-color:#959595"/>
	<stop  offset="0.5607" style="stop-color:#9C9C9C"/>
	<stop  offset="0.6854" style="stop-color:#A9A9A9"/>
	<stop  offset="0.7889" style="stop-color:#BABABA"/>
	<stop  offset="0.8793" style="stop-color:#D2D2D2"/>
	<stop  offset="0.9591" style="stop-color:#EDEDED"/>
	<stop  offset="1" style="stop-color:#FFFFFF"/>
</linearGradient>
<path class="st2" d="M174.9,185.5l11.1,17.7l-27.8,28.1l-5,7.2l-3.7,6.2l-0.5,5.6l-1.1,6l-31.7-18.4l4.1,0.9l3.8,0l3.6-0.7l3.2-1.6
	l21.4-20.6l16.5-16.5l2.6-3l1.9-3.5l1.1-4.1L174.9,185.5z"/>
<linearGradient id="SVGID_4_" gradientUnits="userSpaceOnUse" x1="169.9692" y1="142.6006" x2="247.4961" y2="142.6006" gradientTransform="matrix(0.7071 -0.7071 0.7071 0.7071 -25.8597 203.369)">
	<stop  offset="0" style="stop-color:#FFFFFF"/>
	<stop  offset="3.241289e-02" style="stop-color:#F3F3F3"/>
	<stop  offset="0.1248" style="stop-color:#D5D5D5"/>
	<stop  offset="0.2276" style="stop-color:#BDBDBD"/>
	<stop  offset="0.3431" style="stop-color:#AAAAAA"/>
	<stop  offset="0.4785" style="stop-color:#9D9D9D"/>
	<stop  offset="0.6524" style="stop-color:#959595"/>
	<stop  offset="1" style="stop-color:#939393"/>
</linearGradient>
<path class="st3" d="M188.4,174.1l4-1.1l3.5-1.7l3-2.4l16.4-16.5l20.4-21.1l1.4-3.4l0.7-3.4l0.3-3.7l-0.6-4.2l18.4,31.7l-5.7,0.1
	l-5.9,1.5l-6.4,2.8l-7.4,5.5l-27.7,28.1l-17.5-12.3L188.4,174.1z"/>
<linearGradient id="SVGID_5_" gradientUnits="userSpaceOnUse" x1="326.1441" y1="291.9041" x2="395.8581" y2="291.9041">
	<stop  offset="0" style="stop-color:#FFFFFF"/>
	<stop  offset="3.240788e-02" style="stop-color:#F3F3F3"/>
	<stop  offset="0.1248" style="stop-color:#D5D5D5"/>
	<stop  offset="0.2276" style="stop-color:#BDBDBD"/>
	<stop  offset="0.3431" style="stop-color:#AAAAAA"/>
	<stop  offset="0.4785" style="stop-color:#9D9D9D"/>
	<stop  offset="0.6524" style="stop-color:#959595"/>
	<stop  offset="1" style="stop-color:#939393"/>
</linearGradient>
<path class="st4" d="M338.3,327.2l-12.2-17.4l27.7-28.1l5.3-7.1l3.1-6.4l1.5-5.8l0.4-5.8l31.7,18.3l-4.1-0.8l-3.8,0.1l-3.5,0.8
	l-3.3,1.7l-21.1,20.4l-16.5,16.4l-2.4,3l-1.9,3.4l-1,4.1L338.3,327.2z"/>
<linearGradient id="SVGID_6_" gradientUnits="userSpaceOnUse" x1="238.2054" y1="189.5686" x2="273.5908" y2="189.5686" gradientTransform="matrix(0.7071 -0.7071 0.7071 0.7071 -25.8597 203.369)">
	<stop  offset="0" style="stop-color:#FFFFFF"/>
	<stop  offset="3.241289e-02" style="stop-color:#F3F3F3"/>
	<stop  offset="0.1248" style="stop-color:#D5D5D5"/>
	<stop  offset="0.2276" style="stop-color:#BDBDBD"/>
	<stop  offset="0.3431" style="stop-color:#AAAAAA"/>
	<stop  offset="0.4785" style="stop-color:#9D9D9D"/>
	<stop  offset="0.6524" style="stop-color:#959595"/>
	<stop  offset="1" style="stop-color:#939393"/>
</linearGradient>
<path class="st5" d="M326.4,174.8l-17.2,10.8l-28-28l-7.5-5.3l-6.4-2.8l-5.9-1.2l-5.7-0.4l18.3-31.7l-0.7,4l-0.2,4l0.9,3.4l1.3,3.4
	l20.6,21.4l16.5,16.5l3,2.6l3.5,1.9l4.1,1.1L326.4,174.8z"/>
<linearGradient id="SVGID_7_" gradientUnits="userSpaceOnUse" x1="238.3757" y1="283.5739" x2="273.7611" y2="283.5739" gradientTransform="matrix(0.7071 -0.7071 0.7071 0.7071 -25.8597 203.369)">
	<stop  offset="0" style="stop-color:#FFFFFF"/>
	<stop  offset="3.241289e-02" style="stop-color:#F3F3F3"/>
	<stop  offset="0.1248" style="stop-color:#D5D5D5"/>
	<stop  offset="0.2276" style="stop-color:#BDBDBD"/>
	<stop  offset="0.3431" style="stop-color:#AAAAAA"/>
	<stop  offset="0.4785" style="stop-color:#9D9D9D"/>
	<stop  offset="0.6524" style="stop-color:#959595"/>
	<stop  offset="1" style="stop-color:#939393"/>
</linearGradient>
<path class="st6" d="M337.8,189l1.1,4.1l1.9,3.5l2.6,3l16.5,16.5l21.4,20.6l3.5,1.3l3.4,0.9l3.9-0.3l4-0.6l-31.7,18.3l-0.2-5.7
	l-1.4-5.9l-2.8-6.3l-5.6-7.3l-27.8-28.2l10.9-17.3L337.8,189z"/>
<linearGradient id="SVGID_8_" gradientUnits="userSpaceOnUse" x1="50.1442" y1="283.5739" x2="85.5296" y2="283.5739" gradientTransform="matrix(0.7071 -0.7071 0.7071 0.7071 -25.8597 203.369)">
	<stop  offset="0" style="stop-color:#939393"/>
	<stop  offset="0.3931" style="stop-color:#959595"/>
	<stop  offset="0.5607" style="stop-color:#9C9C9C"/>
	<stop  offset="0.6854" style="stop-color:#A9A9A9"/>
	<stop  offset="0.7889" style="stop-color:#BABABA"/>
	<stop  offset="0.8793" style="stop-color:#D2D2D2"/>
	<stop  offset="0.9591" style="stop-color:#EDEDED"/>
	<stop  offset="1" style="stop-color:#FFFFFF"/>
</linearGradient>
<path class="st7" d="M185.4,337.6l17.7-11.4l28,28.2l7.5,4.8l6.5,2.4l5.7,2l5.4,0.9l-18.3,31.7l1-4l-0.2-3.9l-0.7-3.6l-1.6-3.2
	L215.9,360l-16.5-16.5l-3-2.6l-3.5-1.9l-4.1-1.1L185.4,337.6z"/>
<linearGradient id="SVGID_9_" gradientUnits="userSpaceOnUse" x1="74.6886" y1="236.7378" x2="249.5323" y2="236.7378" gradientTransform="matrix(0.7071 -0.7071 0.7071 0.7071 -25.8597 203.369)">
	<stop  offset="0" style="stop-color:#FFFFFF"/>
	<stop  offset="3.240788e-02" style="stop-color:#F3F3F3"/>
	<stop  offset="0.1248" style="stop-color:#D5D5D5"/>
	<stop  offset="0.2276" style="stop-color:#BDBDBD"/>
	<stop  offset="0.3431" style="stop-color:#AAAAAA"/>
	<stop  offset="0.4785" style="stop-color:#9D9D9D"/>
	<stop  offset="0.6524" style="stop-color:#959595"/>
	<stop  offset="1" style="stop-color:#939393"/>
</linearGradient>
<path class="st8" d="M184.7,308.3l45.5,45.5c14.4,14.4,37.7,14.4,52,0l71.6-71.6c14.4-14.4,14.4-37.7,0-52l-71.6-71.6
	c-14.4-14.4-37.7-14.4-52,0l-71.6,71.6c-14.4,14.4-14.4,37.7,0,52L184.7,308.3"/>
<linearGradient id="SVGID_10_" gradientUnits="userSpaceOnUse" x1="263.5398" y1="190.9003" x2="348.2993" y2="190.9003" gradientTransform="matrix(0.7071 -0.7071 0.7071 0.7071 -25.8597 203.369)">
	<stop  offset="0" style="stop-color:#FFFFFF"/>
	<stop  offset="3.240788e-02" style="stop-color:#F3F3F3"/>
	<stop  offset="0.1248" style="stop-color:#D5D5D5"/>
	<stop  offset="0.2276" style="stop-color:#BDBDBD"/>
	<stop  offset="0.3431" style="stop-color:#AAAAAA"/>
	<stop  offset="0.4785" style="stop-color:#9D9D9D"/>
	<stop  offset="0.6524" style="stop-color:#959595"/>
	<stop  offset="1" style="stop-color:#939393"/>
</linearGradient>
<path class="st9" d="M338.1,74.7l34.7,34.7c7,7,7,18.3,0,25.2l-34.7,34.7c-0.4,0.4-0.9,0.8-1.3,1.2c-7,5.7-17.4,5.3-23.9-1.2
	l-34.7-34.7c-7-7-7-18.3,0-25.2l34.7-34.7C319.8,67.7,331.1,67.7,338.1,74.7z"/>
<linearGradient id="SVGID_11_" gradientUnits="userSpaceOnUse" x1="263.5425" y1="282.166" x2="348.3018" y2="282.166" gradientTransform="matrix(0.7071 -0.7071 0.7071 0.7071 -25.8597 203.369)">
	<stop  offset="0" style="stop-color:#FFFFFF"/>
	<stop  offset="3.240788e-02" style="stop-color:#F3F3F3"/>
	<stop  offset="0.1248" style="stop-color:#D5D5D5"/>
	<stop  offset="0.2276" style="stop-color:#BDBDBD"/>
	<stop  offset="0.3431" style="stop-color:#AAAAAA"/>
	<stop  offset="0.4785" style="stop-color:#9D9D9D"/>
	<stop  offset="0.6524" style="stop-color:#959595"/>
	<stop  offset="1" style="stop-color:#939393"/>
</linearGradient>
<path class="st10" d="M402.6,233.9l34.7-34.7c7-7,7-18.3,0-25.2l-34.7-34.7c-7-7-18.3-7-25.2,0L342.7,174c-7,7-7,18.3,0,25.2
	l34.7,34.7C384.3,240.9,395.6,240.9,402.6,233.9z"/>
<linearGradient id="SVGID_12_" gradientUnits="userSpaceOnUse" x1="74.6886" y1="93.6426" x2="158.5977" y2="93.6426" gradientTransform="matrix(0.7071 -0.7071 0.7071 0.7071 -25.8597 203.369)">
	<stop  offset="0" style="stop-color:#FFFFFF"/>
	<stop  offset="3.240788e-02" style="stop-color:#F3F3F3"/>
	<stop  offset="0.1248" style="stop-color:#D5D5D5"/>
	<stop  offset="0.2276" style="stop-color:#BDBDBD"/>
	<stop  offset="0.3431" style="stop-color:#AAAAAA"/>
	<stop  offset="0.4785" style="stop-color:#9D9D9D"/>
	<stop  offset="0.6524" style="stop-color:#959595"/>
	<stop  offset="1" style="stop-color:#939393"/>
</linearGradient>
<path class="st11" d="M169.7,174.6l-34.4-34.4c-6.9-6.9-18.1-6.9-25,0L76,174.6c-6.9,6.9-6.9,18.1,0,25l34.4,34.4
	c6.9,6.9,18.1,6.9,25,0l34.4-34.4C176.6,192.7,176.6,181.5,169.7,174.6z"/>
<linearGradient id="SVGID_13_" gradientUnits="userSpaceOnUse" x1="165.5051" y1="92.5526" x2="249.4143" y2="92.5526" gradientTransform="matrix(0.7071 -0.7071 0.7071 0.7071 -25.8597 203.369)">
	<stop  offset="0" style="stop-color:#FFFFFF"/>
	<stop  offset="3.240788e-02" style="stop-color:#F3F3F3"/>
	<stop  offset="0.1248" style="stop-color:#D5D5D5"/>
	<stop  offset="0.2276" style="stop-color:#BDBDBD"/>
	<stop  offset="0.3431" style="stop-color:#AAAAAA"/>
	<stop  offset="0.4785" style="stop-color:#9D9D9D"/>
	<stop  offset="0.6524" style="stop-color:#959595"/>
	<stop  offset="1" style="stop-color:#939393"/>
</linearGradient>
<path class="st12" d="M233.1,109.6l-34.4-34.4c-6.9-6.9-18.1-6.9-25,0l-34.4,34.4c-6.9,6.9-6.9,18.1,0,25l34.4,34.4
	c6.9,6.9,18.1,6.9,25,0l34.4-34.4C240,127.7,240,116.5,233.1,109.6z"/>
<linearGradient id="SVGID_14_" gradientUnits="userSpaceOnUse" x1="74.6886" y1="381.0085" x2="159.7023" y2="381.0085" gradientTransform="matrix(0.7071 -0.7071 0.7071 0.7071 -25.8597 203.369)">
	<stop  offset="0" style="stop-color:#FFFFFF"/>
	<stop  offset="3.240788e-02" style="stop-color:#F3F3F3"/>
	<stop  offset="0.1248" style="stop-color:#D5D5D5"/>
	<stop  offset="0.2276" style="stop-color:#BDBDBD"/>
	<stop  offset="0.3431" style="stop-color:#AAAAAA"/>
	<stop  offset="0.4785" style="stop-color:#9D9D9D"/>
	<stop  offset="0.6524" style="stop-color:#959595"/>
	<stop  offset="1" style="stop-color:#939393"/>
</linearGradient>
<path class="st13" d="M373.9,377.3l-34.8-34.8c-7-7-18.3-7-25.3,0L279,377.3c-7,7-7,18.3,0,25.3l34.8,34.8c7,7,18.3,7,25.3,0
	l34.8-34.8C380.9,395.6,380.9,384.3,373.9,377.3z"/>
<linearGradient id="SVGID_15_" gradientUnits="userSpaceOnUse" x1="165.5051" y1="380.923" x2="249.4143" y2="380.923" gradientTransform="matrix(0.7071 -0.7071 0.7071 0.7071 -25.8597 203.369)">
	<stop  offset="0" style="stop-color:#FFFFFF"/>
	<stop  offset="3.240788e-02" style="stop-color:#F3F3F3"/>
	<stop  offset="0.1248" style="stop-color:#D5D5D5"/>
	<stop  offset="0.2276" style="stop-color:#BDBDBD"/>
	<stop  offset="0.3431" style="stop-color:#AAAAAA"/>
	<stop  offset="0.4785" style="stop-color:#9D9D9D"/>
	<stop  offset="0.6524" style="stop-color:#959595"/>
	<stop  offset="1" style="stop-color:#939393"/>
</linearGradient>
<path class="st14" d="M437,313.5l-34.4-34.4c-6.9-6.9-18.1-6.9-25,0l-34.4,34.4c-6.9,6.9-6.9,18.1,0,25l34.4,34.4
	c6.9,6.9,18.1,6.9,25,0l34.4-34.4C443.9,331.6,443.9,320.4,437,313.5z"/>
<linearGradient id="SVGID_16_" gradientUnits="userSpaceOnUse" x1="-24.1491" y1="190.9009" x2="60.6103" y2="190.9009" gradientTransform="matrix(0.7071 -0.7071 0.7071 0.7071 -25.8597 203.369)">
	<stop  offset="0" style="stop-color:#FFFFFF"/>
	<stop  offset="3.240788e-02" style="stop-color:#F3F3F3"/>
	<stop  offset="0.1248" style="stop-color:#D5D5D5"/>
	<stop  offset="0.2276" style="stop-color:#BDBDBD"/>
	<stop  offset="0.3431" style="stop-color:#AAAAAA"/>
	<stop  offset="0.4785" style="stop-color:#9D9D9D"/>
	<stop  offset="0.6524" style="stop-color:#959595"/>
	<stop  offset="1" style="stop-color:#939393"/>
</linearGradient>
<path class="st15" d="M134.6,372.8l34.7-34.7c7-7,7-18.3,0-25.2l-34.7-34.7c-7-7-18.3-7-25.2,0l-34.7,34.7c-7,7-7,18.3,0,25.2
	l34.7,34.7C116.4,379.8,127.7,379.8,134.6,372.8z"/>
<linearGradient id="SVGID_17_" gradientUnits="userSpaceOnUse" x1="-24.1491" y1="282.166" x2="60.6103" y2="282.166" gradientTransform="matrix(0.7071 -0.7071 0.7071 0.7071 -25.8597 203.369)">
	<stop  offset="0" style="stop-color:#FFFFFF"/>
	<stop  offset="3.240788e-02" style="stop-color:#F3F3F3"/>
	<stop  offset="0.1248" style="stop-color:#D5D5D5"/>
	<stop  offset="0.2276" style="stop-color:#BDBDBD"/>
	<stop  offset="0.3431" style="stop-color:#AAAAAA"/>
	<stop  offset="0.4785" style="stop-color:#9D9D9D"/>
	<stop  offset="0.6524" style="stop-color:#959595"/>
	<stop  offset="1" style="stop-color:#939393"/>
</linearGradient>
<path class="st16" d="M199.2,437.3l34.7-34.7c7-7,7-18.3,0-25.2l-34.7-34.7c-7-7-18.3-7-25.2,0l-34.7,34.7c-7,7-7,18.3,0,25.2
	l34.7,34.7C180.9,444.3,192.2,444.3,199.2,437.3z"/>
<path class="st17" d="M283.6,158.1l-8.3-8.3c-6.1-6.1-6.1-16,0-22.1l13.7-13.7"/>
<path class="st17" d="M119.9,237.9c-0.3,0-0.7,0-1,0"/>
<path class="st17" d="M147.9,255.6c0,0-3.5,5.6-5.8,7.9c-5.8,5.8-13.2,8.9-20.7,9.5"/>
<path class="st17" d="M283.6,158.1l-8.3-8.3c-6.1-6.1-6.1-16,0-22.1l13.7-13.7"/>
<path class="st17" d="M174.6,327.5c1-6.7,4-13.1,9.2-18.3c0.3-0.3,0.7-0.7,1-1"/>
<path class="st17" d="M203.8,327.1c-0.3,0.4-0.7,0.7-1.1,1.1c-5.3,5.3-12,8.4-18.9,9.3"/>
<path class="st17" d="M308.6,184.8c0.3-0.4,0.7-0.7,1.1-1.1c5.3-5.3,12-8.4,18.9-9.3"/>
<path class="st17" d="M203.6,184.5c-0.3-0.4-0.7-0.7-1-1.1c-5.3-5.3-11.9-8.4-18.7-9.4"/>
<path class="st17" d="M120.9,273"/>
<path class="st17" d="M147.9,255.6c0,0-0.9,11.7,7.5,22.9l29.3,29.8"/>
<g>
</g>
<g>
</g>
<g>
</g>
<g>
</g>
<g>
</g>
<g>
</g>
</svg>
