<?xml version="1.0" encoding="utf-8"?>
<!-- Generator: Adobe Illustrator 23.0.1, SVG Export Plug-In . SVG Version: 6.00 Build 0)  -->
<svg version="1.1" id="Camada_1" xmlns="http://www.w3.org/2000/svg" xmlns:xlink="http://www.w3.org/1999/xlink" x="0px" y="0px"
	 viewBox="0 0 1080 1080" style="enable-background:new 0 0 1080 1080;" xml:space="preserve">
<style type="text/css">
	.st0{fill:#FFFFFF;}
</style>
<circle cx="540" cy="553.1" r="524.5"/>
<g>
	<path class="st0" d="M366,949.4c-29.5-29.5-59-59.2-88.9-88.5c-6.4-6.3-7.8-10.5-0.6-17.5c28.3-27.5,56.3-55.5,84-83.6
		c6-6,10-6,15.9,0c27.8,28.2,55.7,56.1,83.9,83.7c6.4,6.3,6.4,10.4-0.1,16.7c-27,26.2-53.4,53-80,79.6c-2.8,2.8-5,6.4-7.4,9.6
		C370.6,949.4,368.3,949.4,366,949.4z"/>
	<path class="st0" d="M952.9,709.7c-29.5,29.1-59.2,58-88.3,87.5c-7.8,8-12.6,9-21,0.4c-26.4-27.4-53.5-54.1-80.8-80.6
		c-7.1-6.8-7.6-11.2-0.2-18.3c27.8-27,55.3-54.5,82.5-82.2c6.6-6.7,11-6.8,17.7-0.1c27.7,28.3,55.9,56,83.9,83.9
		c1.9,1.9,4.1,3.1,6.2,4.7C952.9,706.6,952.9,708.1,952.9,709.7z"/>
	<path class="st0" d="M710.8,949.4c-2.2-2.9-4.1-6.2-6.7-8.8c-26.8-26.9-53.6-53.8-80.8-80.4c-6.4-6.3-6.5-10.3-0.1-16.6
		c28-27.3,55.7-55,83.2-82.8c6.4-6.6,10.9-7.1,17.5-0.2c27.1,27.7,54.6,55.1,82.3,82.1c7,6.8,7.5,11.1,0.2,18.3
		c-29.9,29.1-59.3,58.9-88.9,88.5C715.4,949.4,713.2,949.4,710.8,949.4z"/>
	<path class="st0" d="M952.9,390c-29.9,29.8-60,59.4-89.7,89.6c-6.8,6.9-11.1,7.7-18.4,0.3c-27.1-27.8-54.7-55.1-82.5-82.3
		c-6.8-6.6-6.9-10.7-0.1-17.4c28.1-27.4,55.9-55,83.3-83c6.4-6.6,10.5-6,16.7,0.2c29.9,30.3,60.4,60.2,90.5,90.2
		C952.9,388.4,952.9,389.2,952.9,390z"/>
	<path class="st0" d="M785.8,550c-3.9,4.8-6.9,9.5-10.8,13.4C710.7,627.6,646.3,691.8,581.9,756c-9.4,9.4-18.8,18.8-28.3,28.2
		c-13.2,13.1-15.9,13.1-28.7,0.3C466.1,726,407.3,667.4,348.5,608.8c-15.9-15.9-31.9-31.6-47.6-47.6c-9.1-9.2-9.2-13.7,0.2-22.9
		c75.4-75.3,150.8-150.5,226.3-225.6c9.5-9.4,13.7-9.4,23-0.2c75.5,75.2,150.9,150.4,226.3,225.7C780,541.2,782.3,545.1,785.8,550z"
		/>
	<path class="st0" d="M223.7,501.8c-2.9-2.3-5.4-4-7.5-6.1c-28.3-28.1-56.4-56.4-84.9-84.4c-6.2-6.1-5.2-10.4,0.5-16
		c28.2-27.7,56.2-55.6,83.9-83.7c5.9-6,9.7-6.3,15.7-0.2c28,28.4,56.3,56.6,84.8,84.5c6.3,6.2,5.5,10-0.4,15.7
		c-28.3,27.7-56.1,55.7-84.1,83.5C229.3,497.5,226.6,499.4,223.7,501.8z"/>
	<path class="st0" d="M709.4,349c-2.7-2-5.2-3.5-7.3-5.6c-28.6-28.3-57-56.9-85.6-85.2c-5.7-5.6-5.4-9.4,0.2-15
		c29-28.5,57.8-57.1,86.4-86.1c5.2-5.2,8-4.5,12.9,0.3c28.3,28.6,56.8,57.1,85.6,85.2c5.8,5.7,6.7,9.7,0.4,15.8
		c-28.5,27.8-56.7,56.2-84.9,84.3C714.7,344.9,712.2,346.6,709.4,349z"/>
	<path class="st0" d="M460.7,259.4c-2,2.7-3.6,5.2-5.7,7.2c-28.5,28.5-57.1,56.8-85.6,85.4c-5.1,5.1-8.7,5.6-14.1,0.2
		c-28.7-28.9-57.5-57.6-86.4-86.1c-5.6-5.4-4.6-9.2,0.5-14.1c28.7-28.3,57.2-56.7,85.6-85.4c5.1-5.1,8.9-5.6,14.2-0.2
		c28.7,28.9,57.5,57.5,86.4,86.3C457.4,254.6,458.7,256.8,460.7,259.4z"/>
	<path class="st0" d="M223.7,615.6c3,2.5,5.5,4.2,7.6,6.3c28.3,28.1,56.4,56.4,85,84.4c6.4,6.2,5.3,10-0.5,15.7
		c-28.3,27.7-56.3,55.5-83.9,83.7c-6.4,6.5-10.4,6.1-16.5-0.2c-27.5-27.9-55.3-55.5-83.2-83c-6.1-6-7.1-10.4-0.5-16.8
		c28.3-27.6,56.1-55.7,84.1-83.5C218.2,619.7,220.9,617.9,223.7,615.6z"/>
</g>
</svg>
